<svg width="73" height="81" viewBox="0 0 73 81" fill="none" xmlns="http://www.w3.org/2000/svg">
<g clip-path="url(#clip0_103_485)">
<g clip-path="url(#clip1_103_485)">
<g filter="url(#filter0_d_103_485)">
<path d="M32.8206 11.5495C35.6763 8.89602 40.1783 9.17281 42.6927 12.1564C44.2561 14.0117 46.6882 14.8989 49.0769 14.4836C52.8848 13.8215 56.4832 16.4565 57.0034 20.2879L57.0264 20.4577C57.3542 22.8716 58.9212 24.939 61.157 25.907C64.7281 27.4533 66.3376 31.6287 64.7272 35.1687L64.6709 35.2924C63.6574 37.5202 63.8779 40.1295 65.2376 42.1669C67.4137 45.4273 66.5224 49.8618 63.2352 51.9905C61.1856 53.3178 59.9733 55.6151 60.0337 58.0574L60.0382 58.2398C60.1339 62.1098 57.0162 65.2923 53.1455 65.2755C50.7167 65.265 48.4447 66.5698 47.2009 68.6551C45.2157 71.9831 40.8178 73.036 37.5823 70.8979C35.5583 69.5603 32.9762 69.4015 30.8058 70.4812C27.3363 72.2072 23.0981 70.6233 21.5292 67.0768C20.5462 64.8546 18.4485 63.2811 16.0364 62.994C12.1924 62.5364 9.48172 58.9957 10.0437 55.166L10.0701 54.9856C10.4247 52.5688 9.49867 50.14 7.62442 48.5715C4.61837 46.0558 4.26878 41.545 6.82205 38.5754C8.41753 36.7198 8.95114 34.1568 8.21395 31.8213L8.17305 31.6917C7.00167 27.9806 9.10301 24.0334 12.8343 22.9361C15.1702 22.2491 16.9751 20.389 17.5916 18.0332L17.635 17.8675C18.6136 14.1282 22.5032 11.9536 26.203 13.0773C28.5239 13.7821 31.0449 13.1994 32.8206 11.5495Z" fill="#FA12E3"/>
<path d="M56.5789 20.3448L57.0034 20.2876M56.5789 20.3448L56.6019 20.5146C56.9499 23.0773 58.6135 25.2722 60.9871 26.2999C64.3381 27.7509 65.8484 31.6688 64.3372 34.9907L64.281 35.1143M56.5789 20.3448C56.0914 16.7543 52.7192 14.285 49.1507 14.9054C46.6117 15.3469 44.0269 14.4039 42.3652 12.4321C40.0087 9.63577 35.7888 9.37633 33.1124 11.8632C31.2252 13.6168 28.5458 14.2362 26.0789 13.487C22.6117 12.4339 18.9665 14.4719 18.0494 17.976L18.0061 18.1417C17.3516 20.6428 15.4354 22.6175 12.9555 23.3469C9.45421 24.3765 7.48238 28.0804 8.58156 31.5628L8.62247 31.6924C9.40464 34.1704 8.8383 36.8875 7.14698 38.8546C4.74773 41.6451 5.07833 45.8822 7.89916 48.2429C9.88768 49.907 10.8703 52.4838 10.494 55.048L10.4675 55.2284C9.94061 58.8193 12.4823 62.1393 16.0867 62.5684C18.6517 62.8737 20.8777 64.5452 21.9209 66.9035C23.3933 70.2318 27.3689 71.712 30.6147 70.0973C32.9218 68.9495 35.6667 69.1183 37.8183 70.5402C40.8452 72.5405 44.9699 71.5583 46.8329 68.4351C48.153 66.2221 50.5641 64.8357 53.1469 64.8469C56.7763 64.8626 59.6997 61.8785 59.61 58.2498L59.6054 58.0673C59.5414 55.4761 60.8275 53.0388 63.0021 51.6306C66.0868 49.6331 66.9262 45.468 64.8814 42.4043C63.4399 40.2446 63.2056 37.4782 64.281 35.1143M64.281 35.1143L64.6709 35.2921" stroke="#8A007C" stroke-width="0.856841"/>
</g>
<path d="M18.0081 45.5562L18.6205 35.4434L25.3665 35.8582L25.2505 37.774L20.5296 37.4838L20.3921 39.7554L24.5382 40.0103L24.423 41.9124L20.2769 41.6575L20.0333 45.6807L18.0081 45.5562ZM32.0275 46.4181L30.1158 42.6058L28.9116 42.5318L28.6887 46.2129L26.6635 46.0883L27.2759 35.9756L31.1483 36.2137C33.5156 36.3592 34.5183 37.9455 34.4164 39.6287C34.3427 40.8466 33.6523 42.0403 32.1841 42.472L34.3948 46.5637L32.0275 46.4181ZM29.1875 37.9749L29.0218 40.7117L30.6775 40.8135C31.8133 40.8834 32.2926 40.2261 32.3348 39.5282C32.3788 38.8029 31.9379 38.144 31.0211 38.0876L29.1875 37.9749ZM36.3078 46.6813L36.9202 36.5685L43.7756 36.99L43.6613 38.8785L38.8447 38.5823L38.7129 40.7581L43.1738 41.0324L43.0594 42.9208L38.5986 42.6466L38.461 44.9182L43.2777 45.2143L43.1633 47.1028L36.3078 46.6813ZM45.4309 47.2422L46.0433 37.1294L52.8988 37.5509L52.7844 39.4394L47.9678 39.1432L47.836 41.319L52.2969 41.5933L52.1826 43.4817L47.7217 43.2075L47.5841 45.4791L52.4008 45.7752L52.2864 47.6637L45.4309 47.2422Z" fill="white"/>
</g>
</g>
<defs>
<filter id="filter0_d_103_485" x="1.68876" y="9.72607" width="68.1659" height="69.1384" filterUnits="userSpaceOnUse" color-interpolation-filters="sRGB">
<feFlood flood-opacity="0" result="BackgroundImageFix"/>
<feColorMatrix in="SourceAlpha" type="matrix" values="0 0 0 0 0 0 0 0 0 0 0 0 0 0 0 0 0 0 127 0" result="hardAlpha"/>
<feOffset dy="3.42736"/>
<feGaussianBlur stdDeviation="1.71368"/>
<feComposite in2="hardAlpha" operator="out"/>
<feColorMatrix type="matrix" values="0 0 0 0 0.342829 0 0 0 0 0.2925 0 0 0 0 0.675 0 0 0 0.15 0"/>
<feBlend mode="normal" in2="BackgroundImageFix" result="effect1_dropShadow_103_485"/>
<feBlend mode="normal" in="SourceGraphic" in2="effect1_dropShadow_103_485" result="shape"/>
</filter>
<clipPath id="clip0_103_485">
<rect width="72" height="80" fill="white" transform="translate(0.452759 0.610352)"/>
</clipPath>
<clipPath id="clip1_103_485">
<rect width="72" height="72" fill="white" transform="translate(0.452759 4.61035)"/>
</clipPath>
</defs>
</svg>
