<svg width="56" height="56" viewBox="0 0 56 56" fill="none" xmlns="http://www.w3.org/2000/svg">
<mask id="mask0_103_65" style="mask-type:alpha" maskUnits="userSpaceOnUse" x="0" y="0" width="56" height="56">
<g clip-path="url(#clip0_103_65)">
<path d="M55.9528 27.6599C55.9528 21.5147 55.6867 16.5353 55.3432 12.6678C54.7686 6.19688 49.9158 1.34415 43.4449 0.769491C39.5774 0.42603 34.598 0.159912 28.4528 0.159912C22.3076 0.159912 17.3282 0.42603 13.4607 0.769491C6.98973 1.34415 2.137 6.19688 1.56234 12.6678C1.21888 16.5353 0.952759 21.5147 0.952759 27.6599C0.952759 34.0361 1.23926 39.1572 1.60139 43.0835C2.17658 49.3197 6.77991 53.9973 13.018 54.5523C16.8674 54.8948 21.948 55.1599 28.4528 55.1599C34.9576 55.1599 40.0382 54.8948 43.8876 54.5523C50.1257 53.9973 54.729 49.3197 55.3042 43.0835C55.6663 39.1572 55.9528 34.0361 55.9528 27.6599Z" fill="black"/>
</g>
</mask>
<g mask="url(#mask0_103_65)">
<rect width="55" height="55" transform="translate(0.952759 0.159912)" fill="#F8F8FC"/>
<g clip-path="url(#clip1_103_65)">
<path d="M26.3351 16.4808V30.2701L35.7833 38.1862C35.7833 38.1862 42.6779 31.3216 38.5922 23.6308C34.2511 15.4594 26.3351 16.4808 26.3351 16.4808Z" fill="#7F76B3" fill-opacity="0.1"/>
<path d="M14.5885 28.9935C14.5885 22.083 20.1905 16.481 27.101 16.481C34.0115 16.481 39.6135 22.083 39.6135 28.9935C39.6135 35.9039 34.0115 41.506 27.101 41.506C20.1905 41.506 14.5885 35.9039 14.5885 28.9935Z" fill="#7F76B3" fill-opacity="0.1" stroke="#7F76B3" stroke-width="2" stroke-linecap="round" stroke-linejoin="round"/>
<path d="M26.3351 30.2676L29.9101 33.3318" stroke="#7F76B3" stroke-width="2" stroke-linecap="round" stroke-linejoin="round"/>
<path d="M26.3351 30.2676V22.6069" stroke="#7F76B3" stroke-width="2" stroke-linecap="round" stroke-linejoin="round"/>
<path d="M34.5063 14.9482C34.5063 14.9482 38.2333 14.5894 39.8689 16.2249C41.5045 17.8605 41.1457 21.5875 41.1457 21.5875" stroke="#7F76B3" stroke-width="2" stroke-linecap="round" stroke-linejoin="round"/>
</g>
</g>
<defs>
<clipPath id="clip0_103_65">
<rect width="55" height="55" fill="white" transform="translate(0.952759 0.159912)"/>
</clipPath>
<clipPath id="clip1_103_65">
<rect width="29.7" height="30.6" fill="white" transform="translate(13.6028 12.3599)"/>
</clipPath>
</defs>
</svg>
