<svg width="56" height="56" viewBox="0 0 56 56" fill="none" xmlns="http://www.w3.org/2000/svg">
<mask id="mask0_103_116" style="mask-type:alpha" maskUnits="userSpaceOnUse" x="0" y="0" width="56" height="56">
<g clip-path="url(#clip0_103_116)">
<path d="M55.9528 27.6599C55.9528 21.5147 55.6867 16.5353 55.3432 12.6678C54.7686 6.19688 49.9158 1.34415 43.4449 0.769491C39.5774 0.42603 34.598 0.159912 28.4528 0.159912C22.3076 0.159912 17.3282 0.42603 13.4607 0.769491C6.98973 1.34415 2.137 6.19688 1.56234 12.6678C1.21888 16.5353 0.952759 21.5147 0.952759 27.6599C0.952759 34.0361 1.23926 39.1572 1.60139 43.0835C2.17658 49.3197 6.77991 53.9973 13.018 54.5523C16.8674 54.8948 21.948 55.1599 28.4528 55.1599C34.9576 55.1599 40.0382 54.8948 43.8876 54.5523C50.1257 53.9973 54.729 49.3197 55.3042 43.0835C55.6663 39.1572 55.9528 34.0361 55.9528 27.6599Z" fill="black"/>
</g>
</mask>
<g mask="url(#mask0_103_116)">
<rect width="55" height="55" transform="translate(0.952759 0.159912)" fill="#F8F8FC"/>
<path d="M40.5328 21.7486L40.5423 21.7705L40.5529 21.7918C42.5811 25.8738 42.3119 29.1982 40.8076 31.855C39.2719 34.5671 36.3747 36.7121 32.922 38.2026C26.1751 41.115 18.4069 38.6961 15.7109 32.4636C13.0384 26.2856 16.7859 19.5871 23.5971 16.6469C30.4083 13.7067 37.8604 15.5707 40.5328 21.7486ZM18.9896 31.7556C20.0124 34.12 22.3782 35.2242 24.7197 35.581C27.0731 35.9395 29.6417 35.5907 31.4537 34.8085C33.3335 33.997 34.5869 32.5839 35.0966 30.7863C35.5993 29.014 35.3538 26.9647 34.4496 24.8744C33.5468 22.7872 32.1452 21.0229 30.4652 19.9679C28.7674 18.9017 26.759 18.5538 24.7899 19.4038C22.8961 20.2213 21.0095 22.2181 19.8163 24.4573C18.6271 26.6892 17.9856 29.4348 18.9896 31.7556Z" fill="url(#paint0_linear_103_116)" stroke="#7F76B3" stroke-width="2"/>
<path opacity="0.8" d="M15.6519 32.0297C18.1555 39.5817 26.0459 44.2232 33.6071 41.7369C41.1685 39.2507 44.7329 30.8428 42.2293 23.2907C39.7257 15.7387 31.8354 11.0972 24.2741 13.5834C16.7127 16.0697 13.1483 24.4776 15.6519 32.0297ZM36.605 25.1401C37.7668 28.6449 34.7447 37.3223 30.3836 38.7563C26.0225 40.1904 19.9641 36.1892 19.9542 31.0329C19.9442 25.8765 22.8581 23.9982 26.9799 22.626C31.1016 21.2536 35.4431 21.6352 36.605 25.1401Z" fill="#7F76B3"/>
<path opacity="0.5" d="M40.0239 33.4837C43.6149 27.2641 42.0107 19.1579 35.7971 15.5503C29.5834 11.9428 21.7745 14.5839 18.1835 20.8035C14.5925 27.0233 16.1966 35.1295 22.4102 38.737C28.6239 42.3445 36.433 39.7035 40.0239 33.4837ZM22.8054 23.487C24.472 20.6005 32.1374 17.432 35.7212 19.5127C39.305 21.5934 40.2417 28.0798 36.7702 31.1805C33.2987 34.281 30.2836 33.4429 26.885 31.4865C23.4865 29.5302 21.1389 26.3735 22.8054 23.487Z" fill="url(#paint1_linear_103_116)"/>
</g>
<defs>
<linearGradient id="paint0_linear_103_116" x1="23.2517" y1="15.8157" x2="33.2732" y2="39.0312" gradientUnits="userSpaceOnUse">
<stop stop-color="#7F76B3"/>
<stop offset="1" stop-color="#7F76B3" stop-opacity="0"/>
</linearGradient>
<linearGradient id="paint1_linear_103_116" x1="40.0239" y1="33.4837" x2="18.1529" y2="20.8566" gradientUnits="userSpaceOnUse">
<stop stop-color="white"/>
<stop offset="1" stop-color="white" stop-opacity="0"/>
</linearGradient>
<clipPath id="clip0_103_116">
<rect width="55" height="55" fill="white" transform="translate(0.952759 0.159912)"/>
</clipPath>
</defs>
</svg>
