<svg width="56" height="56" viewBox="0 0 56 56" fill="none" xmlns="http://www.w3.org/2000/svg">
<mask id="mask0_103_143" style="mask-type:alpha" maskUnits="userSpaceOnUse" x="0" y="0" width="56" height="56">
<g clip-path="url(#clip0_103_143)">
<path d="M55.9528 27.6599C55.9528 21.5147 55.6867 16.5353 55.3432 12.6678C54.7686 6.19688 49.9158 1.34415 43.4449 0.769491C39.5774 0.42603 34.598 0.159912 28.4528 0.159912C22.3076 0.159912 17.3282 0.42603 13.4607 0.769491C6.98973 1.34415 2.137 6.19688 1.56234 12.6678C1.21888 16.5353 0.952759 21.5147 0.952759 27.6599C0.952759 34.0361 1.23926 39.1572 1.60139 43.0835C2.17658 49.3197 6.77991 53.9973 13.018 54.5523C16.8674 54.8948 21.948 55.1599 28.4528 55.1599C34.9576 55.1599 40.0382 54.8948 43.8876 54.5523C50.1257 53.9973 54.729 49.3197 55.3042 43.0835C55.6663 39.1572 55.9528 34.0361 55.9528 27.6599Z" fill="black"/>
</g>
</mask>
<g mask="url(#mask0_103_143)">
<rect width="55" height="55" transform="translate(0.952759 0.159912)" fill="#F8F8FC"/>
<g clip-path="url(#clip1_103_143)">
<path fill-rule="evenodd" clip-rule="evenodd" d="M28.3153 40.9158C26.0931 40.9158 24.3055 40.8104 22.9025 40.6674C20.2283 40.3947 18.3509 38.3242 18.1314 35.6451C17.9744 33.7289 17.8457 31.1013 17.8457 27.6372C17.8457 24.1731 17.9744 21.5455 18.1314 19.6294C18.3509 16.9503 20.2283 14.8798 22.9025 14.6071C24.3055 14.464 26.0932 14.3586 28.3153 14.3586C30.5015 14.3586 32.3182 14.4607 33.7806 14.6002C36.7005 14.8788 38.8012 17.1599 39.0286 20.0844C39.177 21.9936 39.2957 24.501 39.2957 27.6372C39.2957 28.84 39.2782 29.9503 39.2483 30.9699C36.7592 33.0664 33.7536 33.0921 32.1887 32.9228C31.7264 32.8727 31.2852 33.3389 31.3526 33.7989C31.5762 35.3282 31.6046 38.2687 29.3181 40.9085C28.9929 40.9132 28.6587 40.9158 28.3153 40.9158Z" fill="#7F76B3" fill-opacity="0.1"/>
<path d="M23.3252 40.7086C24.6593 40.8305 26.3106 40.9162 28.3155 40.9162C30.2744 40.9162 31.9367 40.8343 33.3132 40.717C36.5249 40.4429 38.834 37.9385 39.0636 34.7233C39.1952 32.8782 39.2959 30.5243 39.2959 27.6377C39.2959 24.7511 39.1952 22.3972 39.0636 20.5521C38.834 17.3369 36.5249 14.8324 33.3132 14.5585C31.9367 14.441 30.2744 14.3591 28.3155 14.3591C26.3106 14.3591 24.6593 14.4449 23.3252 14.5668C20.3835 14.8355 18.3206 17.1076 18.0983 20.0531C17.9568 21.9272 17.8458 24.422 17.8458 27.6377C17.8458 30.8533 17.9568 33.3482 18.0983 35.2223C18.3206 38.1678 20.3835 40.44 23.3252 40.7086Z" fill="#7F76B3" fill-opacity="0.1" stroke="#7F76B3" stroke-width="2" stroke-linecap="round" stroke-linejoin="round"/>
<path d="M39.0405 30.7024C36.1258 33.8725 33.8927 30.743 31.6352 33.0005C29.3776 35.2582 32.507 37.4913 29.0816 40.6613" stroke="#7F76B3" stroke-width="2" stroke-linecap="round" stroke-linejoin="round"/>
<path d="M23.4636 20.488H33.6779" stroke="#7F76B3" stroke-width="2" stroke-linecap="round" stroke-linejoin="round"/>
<path d="M23.4636 25.5955H30.1029" stroke="#7F76B3" stroke-width="2" stroke-linecap="round" stroke-linejoin="round"/>
</g>
</g>
<defs>
<clipPath id="clip0_103_143">
<rect width="55" height="55" fill="white" transform="translate(0.952759 0.159912)"/>
</clipPath>
<clipPath id="clip1_103_143">
<rect width="24.3" height="28.8" fill="white" transform="translate(16.3028 13.26)"/>
</clipPath>
</defs>
</svg>
