<svg width="56" height="56" viewBox="0 0 56 56" fill="none" xmlns="http://www.w3.org/2000/svg">
<mask id="mask0_103_107" style="mask-type:alpha" maskUnits="userSpaceOnUse" x="0" y="0" width="56" height="56">
<g clip-path="url(#clip0_103_107)">
<path d="M55.9528 27.6599C55.9528 21.5147 55.6867 16.5353 55.3432 12.6678C54.7686 6.19688 49.9158 1.34415 43.4449 0.769491C39.5774 0.42603 34.598 0.159912 28.4528 0.159912C22.3076 0.159912 17.3282 0.42603 13.4607 0.769491C6.98973 1.34415 2.137 6.19688 1.56234 12.6678C1.21888 16.5353 0.952759 21.5147 0.952759 27.6599C0.952759 34.0361 1.23926 39.1572 1.60139 43.0835C2.17658 49.3197 6.77991 53.9973 13.018 54.5523C16.8674 54.8948 21.948 55.1599 28.4528 55.1599C34.9576 55.1599 40.0382 54.8948 43.8876 54.5523C50.1257 53.9973 54.729 49.3197 55.3042 43.0835C55.6663 39.1572 55.9528 34.0361 55.9528 27.6599Z" fill="black"/>
</g>
</mask>
<g mask="url(#mask0_103_107)">
<rect width="55" height="55" transform="translate(0.952759 0.159912)" fill="#F8F8FC"/>
<g clip-path="url(#clip1_103_107)">
<path d="M41.81 27.795C41.81 24.9233 41.6897 22.5788 41.5316 20.7381C41.2537 17.5018 38.8246 15.0727 35.5883 14.7948C33.7475 14.6367 31.4031 14.5164 28.5315 14.5164C25.6599 14.5164 23.3154 14.6367 21.4746 14.7948C18.2383 15.0727 15.8092 17.5018 15.5313 20.7381C15.3732 22.5788 15.2529 24.9233 15.2529 27.795C15.2529 30.7819 15.3831 33.1984 15.5505 35.0711C15.8294 38.19 18.1337 40.5272 21.2535 40.7954C23.0904 40.9533 25.4881 41.0735 28.5315 41.0735C31.5748 41.0735 33.9725 40.9533 35.8094 40.7954C38.9293 40.5272 41.2336 38.19 41.5124 35.0711C41.6799 33.1984 41.81 30.7819 41.81 27.795Z" stroke="#7F76B3" stroke-width="2" stroke-linecap="round" stroke-linejoin="round"/>
<path d="M41.2992 21.9226L35.4798 28.2076C35.1225 28.5935 34.6108 28.7988 34.0859 28.767L27.4232 28.3632C26.839 28.3278 26.2757 28.5858 25.921 29.0513L22.8243 33.1158C22.5535 33.4712 22.1574 33.7099 21.7168 33.7833L16.2742 34.6905" stroke="#7F76B3" stroke-width="2" stroke-linecap="round" stroke-linejoin="round"/>
<path d="M34.9154 28.5619L41.81 21.9226L41.2992 37.7548L36.9582 40.819L20.8707 41.0743L17.2957 39.2868L15.5082 34.6905L22.4028 33.669L26.9992 28.3066L34.9154 28.5619Z" fill="#7F76B3" fill-opacity="0.1"/>
</g>
</g>
<defs>
<clipPath id="clip0_103_107">
<rect width="55" height="55" fill="white" transform="translate(0.952759 0.159912)"/>
</clipPath>
<clipPath id="clip1_103_107">
<rect width="29.7" height="28.8" fill="white" transform="translate(13.6028 13.26)"/>
</clipPath>
</defs>
</svg>
