<svg width="56" height="56" viewBox="0 0 56 56" fill="none" xmlns="http://www.w3.org/2000/svg">
<mask id="mask0_103_125" style="mask-type:alpha" maskUnits="userSpaceOnUse" x="0" y="0" width="56" height="56">
<g clip-path="url(#clip0_103_125)">
<path d="M55.9528 27.6599C55.9528 21.5147 55.6867 16.5353 55.3432 12.6678C54.7686 6.19688 49.9158 1.34415 43.4449 0.769491C39.5774 0.42603 34.598 0.159912 28.4528 0.159912C22.3076 0.159912 17.3282 0.42603 13.4607 0.769491C6.98973 1.34415 2.137 6.19688 1.56234 12.6678C1.21888 16.5353 0.952759 21.5147 0.952759 27.6599C0.952759 34.0361 1.23926 39.1572 1.60139 43.0835C2.17658 49.3197 6.77991 53.9973 13.018 54.5523C16.8674 54.8948 21.948 55.1599 28.4528 55.1599C34.9576 55.1599 40.0382 54.8948 43.8876 54.5523C50.1257 53.9973 54.729 49.3197 55.3042 43.0835C55.6663 39.1572 55.9528 34.0361 55.9528 27.6599Z" fill="black"/>
</g>
</mask>
<g mask="url(#mask0_103_125)">
<rect width="55" height="55" transform="translate(0.952759 0.159912)" fill="#F8F8FC"/>
<g clip-path="url(#clip1_103_125)">
<path d="M41.8882 27.6582C41.8882 26.1605 41.8269 24.8591 41.7344 23.7477C41.4704 20.5779 38.9416 18.3674 35.7673 18.1644C33.9116 18.0458 31.534 17.9546 28.6097 17.9546C25.6853 17.9546 23.3078 18.0458 21.4521 18.1644C18.2777 18.3674 15.7489 20.5779 15.485 23.7477C15.3924 24.8591 15.3311 26.1605 15.3311 27.6582C15.3311 29.2295 15.3986 30.5847 15.4989 31.7313C15.7683 34.8121 18.2017 36.9601 21.2881 37.1557C23.1306 37.2725 25.5421 37.3617 28.6097 37.3617C31.6773 37.3617 34.0888 37.2725 35.9313 37.1557C39.0177 36.9601 41.4511 34.8121 41.7205 31.7313C41.8208 30.5847 41.8882 29.2295 41.8882 27.6582Z" fill="#7F76B3" fill-opacity="0.1" stroke="#7F76B3" stroke-width="2" stroke-linecap="round" stroke-linejoin="round"/>
<path d="M29.6314 29.7002L33.2064 32.2538L36.7814 29.7002" stroke="#7F76B3" stroke-width="2" stroke-linecap="round" stroke-linejoin="round"/>
<path d="M36.7813 25.6151L33.2063 23.0615L29.6313 25.6151" stroke="#7F76B3" stroke-width="2" stroke-linecap="round" stroke-linejoin="round"/>
</g>
</g>
<defs>
<clipPath id="clip0_103_125">
<rect width="55" height="55" fill="white" transform="translate(0.952759 0.159912)"/>
</clipPath>
<clipPath id="clip1_103_125">
<rect width="29.7" height="22.5" fill="white" transform="translate(13.6028 16.4099)"/>
</clipPath>
</defs>
</svg>
