<svg width="56" height="56" viewBox="0 0 56 56" fill="none" xmlns="http://www.w3.org/2000/svg">
<mask id="mask0_103_134" style="mask-type:alpha" maskUnits="userSpaceOnUse" x="0" y="0" width="56" height="56">
<g clip-path="url(#clip0_103_134)">
<path d="M55.9528 27.6599C55.9528 21.5147 55.6867 16.5353 55.3432 12.6678C54.7686 6.19688 49.9158 1.34415 43.4449 0.769491C39.5774 0.42603 34.598 0.159912 28.4528 0.159912C22.3076 0.159912 17.3282 0.42603 13.4607 0.769491C6.98973 1.34415 2.137 6.19688 1.56234 12.6678C1.21888 16.5353 0.952759 21.5147 0.952759 27.6599C0.952759 34.0361 1.23926 39.1572 1.60139 43.0835C2.17658 49.3197 6.77991 53.9973 13.018 54.5523C16.8674 54.8948 21.948 55.1599 28.4528 55.1599C34.9576 55.1599 40.0382 54.8948 43.8876 54.5523C50.1257 53.9973 54.729 49.3197 55.3042 43.0835C55.6663 39.1572 55.9528 34.0361 55.9528 27.6599Z" fill="black"/>
</g>
</mask>
<g mask="url(#mask0_103_134)">
<rect width="55" height="55" transform="translate(0.952759 0.159912)" fill="#F8F8FC"/>
<g clip-path="url(#clip1_103_134)">
<path d="M35.2028 34.4099C34.0503 34.4099 33.1067 34.4298 32.3626 34.456C30.9692 34.5052 29.8028 35.2657 29.8028 36.6599C29.8028 38.056 30.9663 38.8197 32.3616 38.8669C33.0923 38.8916 34.0295 38.9099 35.2028 38.9099C36.376 38.9099 37.3132 38.8916 38.0439 38.8669C39.4392 38.8197 40.6028 38.056 40.6028 36.6599C40.6028 35.2657 39.4363 34.5052 38.0429 34.456C37.2989 34.4298 36.3552 34.4099 35.2028 34.4099Z" stroke="#7F76B3" stroke-width="2" stroke-linecap="round" stroke-linejoin="round"/>
<path d="M37.0028 27.6599C37.0028 27.6313 37.0026 27.603 37.0022 27.5751C36.9831 26.1542 35.6061 25.5334 34.1858 25.4889C32.8877 25.4483 30.9898 25.4099 28.4528 25.4099C25.9157 25.4099 24.0178 25.4483 22.7197 25.4889C21.2993 25.5334 19.9224 26.1542 19.9033 27.5751C19.9029 27.603 19.9028 27.6313 19.9028 27.6599C19.9028 27.7052 19.9032 27.7496 19.9042 27.793C19.9339 29.1825 21.2805 29.7899 22.6696 29.8334C23.9341 29.8731 25.8175 29.9099 28.4528 29.9099C31.088 29.9099 32.9715 29.8731 34.2359 29.8334C35.625 29.7899 36.9717 29.1825 37.0013 27.793C37.0023 27.7496 37.0028 27.7052 37.0028 27.6599Z" stroke="#7F76B3" stroke-width="2" stroke-linecap="round" stroke-linejoin="round"/>
<path d="M21.7028 16.4099C20.5503 16.4099 19.6067 16.4298 18.8626 16.456C17.4693 16.5052 16.3028 17.2657 16.3028 18.6599C16.3028 20.056 17.4663 20.8198 18.8616 20.8669C19.5923 20.8916 20.5296 20.9099 21.7028 20.9099C22.876 20.9099 23.8132 20.8916 24.5439 20.8669C25.9392 20.8198 27.1028 20.056 27.1028 18.6599C27.1028 17.2657 25.9363 16.5052 24.5429 16.456C23.7988 16.4298 22.8552 16.4099 21.7028 16.4099Z" stroke="#7F76B3" stroke-width="2" stroke-linecap="round" stroke-linejoin="round"/>
</g>
</g>
<defs>
<clipPath id="clip0_103_134">
<rect width="55" height="55" fill="white" transform="translate(0.952759 0.159912)"/>
</clipPath>
<clipPath id="clip1_103_134">
<rect width="26.1" height="24.3" fill="white" transform="translate(15.4028 15.51)"/>
</clipPath>
</defs>
</svg>
