<svg width="56" height="56" viewBox="0 0 56 56" fill="none" xmlns="http://www.w3.org/2000/svg">
<mask id="mask0_103_76" style="mask-type:alpha" maskUnits="userSpaceOnUse" x="0" y="0" width="56" height="56">
<g clip-path="url(#clip0_103_76)">
<path d="M55.9528 27.6599C55.9528 21.5147 55.6867 16.5353 55.3432 12.6678C54.7686 6.19688 49.9158 1.34415 43.4449 0.769491C39.5774 0.42603 34.598 0.159912 28.4528 0.159912C22.3076 0.159912 17.3282 0.42603 13.4607 0.769491C6.98973 1.34415 2.137 6.19688 1.56234 12.6678C1.21888 16.5353 0.952759 21.5147 0.952759 27.6599C0.952759 34.0361 1.23926 39.1572 1.60139 43.0835C2.17658 49.3197 6.77991 53.9973 13.018 54.5523C16.8674 54.8948 21.948 55.1599 28.4528 55.1599C34.9576 55.1599 40.0382 54.8948 43.8876 54.5523C50.1257 53.9973 54.729 49.3197 55.3042 43.0835C55.6663 39.1572 55.9528 34.0361 55.9528 27.6599Z" fill="black"/>
</g>
</mask>
<g mask="url(#mask0_103_76)">
<rect width="55" height="55" transform="translate(0.952759 0.159912)" fill="#F8F8FC"/>
<g clip-path="url(#clip1_103_76)">
<path d="M28.317 36.1516C35.6506 36.1516 41.5956 31.2732 41.5956 25.2554C41.5956 19.2375 35.6506 14.3591 28.317 14.3591C20.9835 14.3591 15.0385 19.2375 15.0385 25.2554C15.0385 28.0461 16.317 30.5917 18.4196 32.5195C20.5222 34.4472 18.8688 40.9162 18.8688 40.9162L21.6554 38.3392C23.4451 36.6841 25.8793 36.1516 28.317 36.1516Z" fill="#7F76B3" fill-opacity="0.1" stroke="#7F76B3" stroke-width="2" stroke-linecap="round" stroke-linejoin="round"/>
<path d="M23.2101 27.6394H29.3386" stroke="#7F76B3" stroke-width="2" stroke-linecap="round" stroke-linejoin="round"/>
<path d="M23.2101 23.0417H33.9351" stroke="#7F76B3" stroke-width="2" stroke-linecap="round" stroke-linejoin="round"/>
</g>
</g>
<defs>
<clipPath id="clip0_103_76">
<rect width="55" height="55" fill="white" transform="translate(0.952759 0.159912)"/>
</clipPath>
<clipPath id="clip1_103_76">
<rect width="28.8" height="28.8" fill="white" transform="translate(14.0527 13.26)"/>
</clipPath>
</defs>
</svg>
