<svg width="69" height="70" viewBox="0 0 69 70" fill="none" xmlns="http://www.w3.org/2000/svg">
<mask id="mask0_103_99" style="mask-type:alpha" maskUnits="userSpaceOnUse" x="0" y="0" width="69" height="70">
<g clip-path="url(#clip0_103_99)">
<path d="M55.0828 27.7898C55.0828 21.6446 54.8167 16.6652 54.4732 12.7977C53.8986 6.32677 49.0458 1.47403 42.5749 0.899374C38.7074 0.555913 33.728 0.289795 27.5828 0.289795C21.4376 0.289795 16.4582 0.555913 12.5907 0.899374C6.11973 1.47403 1.267 6.32677 0.692343 12.7977C0.348882 16.6652 0.0827637 21.6446 0.0827637 27.7898C0.0827637 34.166 0.369269 39.2871 0.731399 43.2134C1.30658 49.4496 5.90991 54.1272 12.148 54.6822C15.9974 55.0247 21.078 55.2898 27.5828 55.2898C34.0876 55.2898 39.1682 55.0247 43.0176 54.6822C49.2557 54.1272 53.859 49.4496 54.4342 43.2134C54.7963 39.2871 55.0828 34.166 55.0828 27.7898Z" fill="black"/>
</g>
</mask>
<g mask="url(#mask0_103_99)">
<rect width="68.75" height="68.75" transform="translate(0.0827637 0.289795)" fill="url(#paint0_linear_103_99)"/>
<g clip-path="url(#clip1_103_99)">
<path d="M50.8814 34.492C50.8814 38.2257 50.7186 41.2463 50.5092 43.5872C50.1607 47.4858 47.2804 50.4073 43.3805 50.7426C41.0844 50.94 38.0873 51.0902 34.2831 51.0902C30.4788 51.0902 27.4817 50.94 25.1856 50.7426C21.2859 50.4073 18.4055 47.4858 18.0569 43.5872C17.8476 41.2463 17.6849 38.2257 17.6849 34.492C17.6849 30.9024 17.8353 27.9719 18.0329 25.6709C18.3803 21.6256 21.4167 18.5892 25.462 18.2418C27.7631 18.0442 30.6936 17.8938 34.2831 17.8938" stroke="white" stroke-width="2" stroke-linecap="round" stroke-linejoin="round"/>
<path d="M27.506 34.1431C31.5192 36.8524 33.2384 39.2564 33.2384 39.2564C33.2384 39.2564 34.9683 35.3181 38.2862 30.9757C41.8599 26.2985 44.5088 24.5369 44.5088 24.5369" stroke="white" stroke-width="2" stroke-linecap="round" stroke-linejoin="round"/>
</g>
</g>
<defs>
<linearGradient id="paint0_linear_103_99" x1="-2.72346" y1="3.2457" x2="71.4735" y2="65.5043" gradientUnits="userSpaceOnUse">
<stop stop-color="#24223E"/>
<stop offset="1" stop-color="#282642"/>
</linearGradient>
<clipPath id="clip0_103_99">
<rect width="68.75" height="68.75" fill="white" transform="translate(0.0827637 0.289795)"/>
</clipPath>
<clipPath id="clip1_103_99">
<rect width="36" height="36" fill="white" transform="translate(16.4528 16.6599)"/>
</clipPath>
</defs>
</svg>
