<svg width="56" height="56" viewBox="0 0 56 56" fill="none" xmlns="http://www.w3.org/2000/svg">
<mask id="mask0_103_85" style="mask-type:alpha" maskUnits="userSpaceOnUse" x="0" y="0" width="56" height="56">
<g clip-path="url(#clip0_103_85)">
<path d="M55.9528 27.6599C55.9528 21.5147 55.6867 16.5353 55.3432 12.6678C54.7686 6.19688 49.9158 1.34415 43.4449 0.769491C39.5774 0.42603 34.598 0.159912 28.4528 0.159912C22.3076 0.159912 17.3282 0.42603 13.4607 0.769491C6.98973 1.34415 2.137 6.19688 1.56234 12.6678C1.21888 16.5353 0.952759 21.5147 0.952759 27.6599C0.952759 34.0361 1.23926 39.1572 1.60139 43.0835C2.17658 49.3197 6.77991 53.9973 13.018 54.5523C16.8674 54.8948 21.948 55.1599 28.4528 55.1599C34.9576 55.1599 40.0382 54.8948 43.8876 54.5523C50.1257 53.9973 54.729 49.3197 55.3042 43.0835C55.6663 39.1572 55.9528 34.0361 55.9528 27.6599Z" fill="black"/>
</g>
</mask>
<g mask="url(#mask0_103_85)">
<rect width="55" height="55" transform="translate(0.952759 0.159912)" fill="#F8F8FC"/>
<g clip-path="url(#clip1_103_85)">
<path d="M39.8079 14.6272L41.8508 17.4361L35.4668 34.2897L29.3383 31.9915L36.4882 14.8826L39.8079 14.6272Z" fill="#7F76B3" fill-opacity="0.1"/>
<path d="M33.5351 37.4384C32.2309 38.646 29.6729 40.9547 29.3194 40.8202C28.9637 40.6851 28.7204 37.27 28.6194 35.5375C28.5814 34.8851 28.6899 34.2343 28.9276 33.6256L29.3194 32.6224L35.6159 16.4991C36.2485 14.8793 38.0455 14.0144 39.6709 14.6325C41.2528 15.234 41.9852 17.0361 41.3696 18.6125L35.1461 34.5489L34.6749 35.7554C34.4251 36.3953 34.0392 36.9717 33.5351 37.4384Z" fill="#7F76B3" fill-opacity="0.1"/>
<path d="M29.3194 32.6224L28.9276 33.6256C28.6899 34.2343 28.5814 34.8851 28.6194 35.5375C28.7204 37.27 28.9637 40.6851 29.3194 40.8202C29.6729 40.9547 32.2309 38.646 33.5351 37.4384C34.0392 36.9717 34.4251 36.3953 34.6749 35.7554L35.1461 34.5489M29.3194 32.6224L35.6159 16.4991C36.2485 14.8793 38.0455 14.0144 39.6709 14.6325C41.2528 15.234 41.9852 17.0361 41.3696 18.6125L35.1461 34.5489M29.3194 32.6224C29.3194 32.6224 30.6152 32.4271 32.4027 33.0181C34.1902 33.6092 35.1461 34.5489 35.1461 34.5489" stroke="#7F76B3" stroke-width="2" stroke-linecap="round" stroke-linejoin="round"/>
<path d="M17.0814 18.9717C17.0814 18.9717 16.06 20.9995 16.06 27.6538C16.06 34.3081 17.0814 36.3359 17.0814 36.3359" stroke="#7F76B3" stroke-width="2" stroke-linecap="round" stroke-linejoin="round"/>
<path d="M19.6348 16.4184C19.6348 16.4184 20.9116 15.6523 25.125 15.3969C29.3383 15.1416 31.6366 15.6523 31.6366 15.6523" stroke="#7F76B3" stroke-width="2" stroke-linecap="round" stroke-linejoin="round"/>
<path d="M19.6348 38.8906H24.9973" stroke="#7F76B3" stroke-width="2" stroke-linecap="round" stroke-linejoin="round"/>
<path d="M15.0385 16.6754C15.0385 17.9447 16.0674 18.9736 17.3367 18.9736C18.6059 18.9736 19.6349 17.9447 19.6349 16.6754C19.6349 15.4061 18.6059 14.3772 17.3367 14.3772C16.0674 14.3772 15.0385 15.4061 15.0385 16.6754Z" fill="#7F76B3" fill-opacity="0.1" stroke="#7F76B3" stroke-width="2" stroke-linecap="round" stroke-linejoin="round"/>
<path d="M15.0385 38.6356C15.0385 39.9049 16.0674 40.9338 17.3367 40.9338C18.6059 40.9338 19.6349 39.9049 19.6349 38.6356C19.6349 37.3664 18.6059 36.3374 17.3367 36.3374C16.0674 36.3374 15.0385 37.3664 15.0385 38.6356Z" fill="#7F76B3" fill-opacity="0.1" stroke="#7F76B3" stroke-width="2" stroke-linecap="round" stroke-linejoin="round"/>
</g>
</g>
<defs>
<clipPath id="clip0_103_85">
<rect width="55" height="55" fill="white" transform="translate(0.952759 0.159912)"/>
</clipPath>
<clipPath id="clip1_103_85">
<rect width="28.8" height="28.8" fill="white" transform="translate(14.0527 13.26)"/>
</clipPath>
</defs>
</svg>
