<svg width="41" height="41" viewBox="0 0 41 41" fill="none" xmlns="http://www.w3.org/2000/svg">
<mask id="mask0_103_469" style="mask-type:alpha" maskUnits="userSpaceOnUse" x="0" y="0" width="41" height="41">
<g clip-path="url(#clip0_103_469)">
<path d="M20.4528 40.6094C24.3529 40.6094 27.6073 40.462 30.2421 40.2585C35.6397 39.8415 39.6849 35.7964 40.1019 30.3988C40.3054 27.7641 40.4528 24.5098 40.4528 20.6099C40.4528 16.71 40.3054 13.4558 40.1019 10.821C39.6849 5.42339 35.6397 1.3782 30.2421 0.961262C27.6073 0.757733 24.3529 0.610352 20.4528 0.610352C16.3712 0.610351 12.9968 0.771767 10.2997 0.990029C5.09777 1.41098 1.20772 5.25041 0.805932 10.4538C0.601235 13.1048 0.452759 16.4585 0.452759 20.6099C0.452759 24.7613 0.601234 28.115 0.805931 30.7659C1.20771 35.9693 5.09777 39.8088 10.2996 40.2297C12.9968 40.448 16.3712 40.6094 20.4528 40.6094Z" fill="black"/>
</g>
</mask>
<g mask="url(#mask0_103_469)">
<rect width="40" height="40" transform="translate(0.452759 0.610352)" fill="#F8F8FC"/>
<g clip-path="url(#clip1_103_469)">
<path d="M20.2604 8.729C13.8039 8.729 8.56995 13.963 8.56995 20.4194C8.56995 20.7344 8.5824 21.0464 8.60684 21.3551C8.76133 23.306 11.1617 23.7346 12.6402 22.4525C15.4513 20.0147 19.915 16.9177 24.5319 16.8224C28.081 16.7491 29.7399 18.4904 30.4987 20.3771C30.7632 21.0346 31.9508 21.1282 31.9508 20.4195C31.9508 13.963 26.7169 8.729 20.2604 8.729Z" fill="#242236" fill-opacity="0.09"/>
<path d="M24.5315 19.2949L21.3841 26.7138" stroke="#24223E" stroke-width="2" stroke-linecap="round" stroke-linejoin="round"/>
<path d="M31.0516 24.9237C31.6309 23.5374 31.9508 22.0158 31.9508 20.4195C31.9508 13.963 26.7169 8.729 20.2604 8.729C13.8039 8.729 8.56995 13.963 8.56995 20.4194C8.56995 22.1872 8.9623 23.8633 9.66468 25.3654" stroke="#24223E" stroke-width="2" stroke-linecap="round" stroke-linejoin="round"/>
<path d="M12.6172 20.6748C12.6172 16.3124 16.2407 12.7759 20.7105 12.7759" stroke="#24223E" stroke-width="2" stroke-linecap="round" stroke-linejoin="round"/>
<path d="M20.26 32.1099C21.7499 32.1099 22.9577 30.9021 22.9577 29.4121C22.9577 27.9222 21.7499 26.7144 20.26 26.7144C18.77 26.7144 17.5622 27.9222 17.5622 29.4121C17.5622 30.9021 18.77 32.1099 20.26 32.1099Z" fill="#242236" fill-opacity="0.09" stroke="#24223E" stroke-width="2" stroke-linecap="round" stroke-linejoin="round"/>
</g>
</g>
<defs>
<clipPath id="clip0_103_469">
<rect width="40" height="40" fill="white" transform="translate(0.452759 0.610352)"/>
</clipPath>
<clipPath id="clip1_103_469">
<rect width="26" height="26" fill="white" transform="translate(7.45276 7.61035)"/>
</clipPath>
</defs>
</svg>
