<svg width="386" height="280" viewBox="0 0 386 280" fill="none" xmlns="http://www.w3.org/2000/svg">
<mask id="mask0_103_516" style="mask-type:alpha" maskUnits="userSpaceOnUse" x="0" y="0" width="386" height="280">
<g clip-path="url(#clip0_103_516)">
<path d="M-4.11951 4.34668L416.817 33.5686V328.8H-4.11951V4.34668Z" fill="black"/>
</g>
</mask>
<g mask="url(#mask0_103_516)">
<rect width="385" height="279" transform="translate(0.952759 0.799805)" fill="url(#paint0_linear_103_516)"/>
<g clip-path="url(#clip1_103_516)">
<path d="M46.3431 42.006V45.4632H54.3533V50.0408H46.3431V58.1917H40.9528V37.4352H54.9416V42.006H46.3431ZM59.2443 58.1917V37.4352H64.6346V58.1917H59.2443ZM85.074 58.1917L75.1416 45.4905V58.1849H69.7513V37.4352H75.1416L85.0808 50.1296V37.4352H90.4711V58.1917H85.074ZM109.474 58.1917L108.133 54.5843H100.691L99.2611 58.1917H93.5972L101.443 37.4352H107.422L115.24 58.1917H109.474ZM104.426 43.8781L102.182 50.4781H106.669L104.426 43.8781ZM145.907 42.006V58.1849H140.516V42.006H135.523V37.4352H150.996V42.006H145.907ZM165.156 58.1917L159.984 50.2253V58.1917H154.594V37.4352H163.008C164.971 37.4352 166.681 37.811 168.084 39.2731C169.267 40.4892 169.862 42.1973 169.862 43.8781C169.862 45.183 169.458 46.6451 168.679 47.7041C167.837 48.852 166.715 49.3849 165.347 49.6923L171.859 58.1849H165.156V58.1917ZM161.01 41.6029H159.984V46.7408H161.01C162.693 46.7408 164.314 46.0849 164.314 44.1582C164.314 42.2246 162.659 41.6029 161.01 41.6029ZM189.18 58.1917L187.839 54.5843H180.396L178.967 58.1917H173.269L181.245 37.4352H187.134L194.953 58.1917H189.18ZM184.131 43.8781L181.888 50.4781H186.375L184.131 43.8781ZM132.485 55.124C131.131 57.7613 127.889 58.7998 125.091 58.7998C122.478 58.7998 119.858 57.8706 117.717 56.3948L120.118 52.0427C121.472 53.2383 123.073 54.1812 124.933 54.1812C126.254 54.1812 127.547 53.6141 127.547 52.1041C127.547 48.4557 118.64 51.2228 118.64 43.8712C118.64 39.6284 121.534 36.7998 125.754 36.7998C128.08 36.7998 130.125 37.2986 132.171 38.3644L130.337 42.7986C129.298 41.9514 128.053 41.3296 126.664 41.3296C125.597 41.3296 124.338 41.924 124.338 43.1538C124.338 46.2352 133.272 44.2197 133.272 51.3868C133.272 52.5824 133.053 54.0582 132.485 55.124Z" fill="white"/>
</g>
<path d="M47.4762 102.562L46.3922 106.917H44.9567L46.3336 102.562H47.4762ZM44.5074 102.562L43.4528 106.917H41.9879L43.3551 102.562H44.5074ZM66.9293 102.796L62.9742 116.8H61.0504L58.1696 106.565C58.0459 106.129 57.971 105.654 57.9449 105.14H57.9059C57.8668 105.621 57.7822 106.09 57.652 106.546L54.7516 116.8H52.8473L48.7457 102.796H50.5524L53.5309 113.538C53.6546 113.987 53.7327 114.456 53.7653 114.944H53.8141C53.8466 114.599 53.9476 114.131 54.1168 113.538L57.2125 102.796H58.7848L61.7535 113.616C61.8577 113.987 61.9358 114.424 61.9879 114.925H62.027C62.053 114.586 62.1409 114.137 62.2906 113.577L65.152 102.796H66.9293ZM69.6246 104.261C69.3382 104.261 69.094 104.163 68.8922 103.968C68.6904 103.772 68.5895 103.525 68.5895 103.226C68.5895 102.926 68.6904 102.679 68.8922 102.483C69.094 102.282 69.3382 102.181 69.6246 102.181C69.9176 102.181 70.165 102.282 70.3668 102.483C70.5752 102.679 70.6793 102.926 70.6793 103.226C70.6793 103.512 70.5752 103.756 70.3668 103.958C70.165 104.16 69.9176 104.261 69.6246 104.261ZM70.4059 116.8H68.8043V106.8H70.4059V116.8ZM78.2867 116.702C77.9091 116.91 77.4111 117.015 76.7926 117.015C75.0413 117.015 74.1656 116.038 74.1656 114.085V108.167H72.4469V106.8H74.1656V104.358L75.7672 103.841V106.8H78.2867V108.167H75.7672V113.802C75.7672 114.472 75.8811 114.951 76.109 115.237C76.3369 115.524 76.7145 115.667 77.2418 115.667C77.6455 115.667 77.9938 115.556 78.2867 115.335V116.702ZM88.7262 116.8H87.1246V111.038C87.1246 108.955 86.3499 107.913 84.8004 107.913C84.0192 107.913 83.3616 108.216 82.8278 108.821C82.2939 109.42 82.027 110.192 82.027 111.136V116.8H80.4254V101.995H82.027V108.46H82.066C82.8343 107.197 83.928 106.565 85.3473 106.565C87.5999 106.565 88.7262 107.923 88.7262 110.638V116.8ZM106.988 116.214C105.953 116.761 104.664 117.034 103.121 117.034C101.129 117.034 99.5335 116.393 98.3356 115.11C97.1377 113.828 96.5387 112.145 96.5387 110.062C96.5387 107.822 97.2125 106.012 98.5602 104.632C99.9078 103.252 101.617 102.562 103.687 102.562C105.015 102.562 106.116 102.754 106.988 103.138V104.886C105.985 104.326 104.879 104.046 103.668 104.046C102.06 104.046 100.754 104.583 99.7516 105.657C98.7555 106.731 98.2574 108.167 98.2574 109.964C98.2574 111.67 98.7229 113.03 99.6539 114.046C100.591 115.055 101.819 115.56 103.336 115.56C104.742 115.56 105.959 115.247 106.988 114.622V116.214ZM111.226 116.8H109.625V101.995H111.226V116.8ZM115.289 104.261C115.002 104.261 114.758 104.163 114.556 103.968C114.354 103.772 114.254 103.525 114.254 103.226C114.254 102.926 114.354 102.679 114.556 102.483C114.758 102.282 115.002 102.181 115.289 102.181C115.582 102.181 115.829 102.282 116.031 102.483C116.239 102.679 116.343 102.926 116.343 103.226C116.343 103.512 116.239 103.756 116.031 103.958C115.829 104.16 115.582 104.261 115.289 104.261ZM116.07 116.8H114.468V106.8H116.07V116.8ZM126.129 116.341C125.36 116.803 124.449 117.034 123.394 117.034C121.968 117.034 120.816 116.572 119.937 115.647C119.065 114.716 118.629 113.512 118.629 112.034C118.629 110.387 119.101 109.065 120.045 108.069C120.989 107.067 122.248 106.565 123.824 106.565C124.703 106.565 125.477 106.728 126.148 107.054V108.694C125.406 108.174 124.612 107.913 123.765 107.913C122.743 107.913 121.903 108.281 121.246 109.017C120.595 109.746 120.269 110.706 120.269 111.897C120.269 113.069 120.575 113.994 121.187 114.671C121.806 115.348 122.632 115.687 123.668 115.687C124.54 115.687 125.36 115.397 126.129 114.817V116.341ZM136.851 116.8H134.605L130.191 111.995H130.152V116.8H128.55V101.995H130.152V111.38H130.191L134.39 106.8H136.49L131.851 111.624L136.851 116.8ZM148.951 111.136C148.951 115.068 147.177 117.034 143.629 117.034C140.23 117.034 138.531 115.143 138.531 111.36V102.796H140.172V111.253C140.172 114.124 141.382 115.56 143.804 115.56C146.142 115.56 147.31 114.173 147.31 111.399V102.796H148.951V111.136ZM153.882 115.354H153.843V121.399H152.242V106.8H153.843V108.558H153.882C154.67 107.229 155.823 106.565 157.339 106.565C158.629 106.565 159.634 107.015 160.357 107.913C161.08 108.805 161.441 110.003 161.441 111.507C161.441 113.18 161.034 114.521 160.22 115.53C159.407 116.533 158.293 117.034 156.88 117.034C155.585 117.034 154.586 116.474 153.882 115.354ZM153.843 111.321V112.718C153.843 113.545 154.11 114.248 154.644 114.827C155.185 115.4 155.868 115.687 156.695 115.687C157.665 115.687 158.423 115.315 158.97 114.573C159.524 113.831 159.8 112.799 159.8 111.478C159.8 110.364 159.543 109.492 159.029 108.86C158.515 108.229 157.818 107.913 156.939 107.913C156.008 107.913 155.259 108.239 154.693 108.89C154.127 109.534 153.843 110.345 153.843 111.321ZM182.086 106.8L179.088 116.8H177.427L175.367 109.642C175.289 109.368 175.237 109.059 175.211 108.714H175.172C175.152 108.948 175.084 109.251 174.966 109.622L172.73 116.8H171.129L168.101 106.8H169.781L171.851 114.319C171.916 114.547 171.962 114.847 171.988 115.218H172.066C172.086 114.931 172.144 114.625 172.242 114.3L174.547 106.8H176.011L178.082 114.339C178.147 114.58 178.196 114.879 178.228 115.237H178.306C178.319 114.983 178.375 114.684 178.472 114.339L180.504 106.8H182.086ZM191.978 112.2H184.918C184.944 113.313 185.243 114.173 185.816 114.778C186.389 115.384 187.177 115.687 188.179 115.687C189.306 115.687 190.341 115.315 191.285 114.573V116.077C190.406 116.715 189.244 117.034 187.798 117.034C186.386 117.034 185.276 116.582 184.468 115.677C183.661 114.765 183.257 113.486 183.257 111.839C183.257 110.283 183.697 109.017 184.576 108.04C185.461 107.057 186.558 106.565 187.867 106.565C189.175 106.565 190.188 106.989 190.904 107.835C191.62 108.681 191.978 109.856 191.978 111.36V112.2ZM190.338 110.843C190.331 109.918 190.106 109.199 189.664 108.685C189.227 108.17 188.619 107.913 187.838 107.913C187.082 107.913 186.441 108.183 185.914 108.724C185.386 109.264 185.061 109.97 184.937 110.843H190.338ZM195.797 102.796V107.161H194.38V102.796H195.797ZM206.88 106.8L202.896 116.8H201.324L197.535 106.8H199.293L201.832 114.065C202.02 114.599 202.138 115.065 202.183 115.462H202.222C202.287 114.961 202.392 114.508 202.535 114.104L205.191 106.8H206.88ZM216.646 112.2H209.586C209.612 113.313 209.911 114.173 210.484 114.778C211.057 115.384 211.845 115.687 212.847 115.687C213.974 115.687 215.009 115.315 215.953 114.573V116.077C215.074 116.715 213.912 117.034 212.466 117.034C211.054 117.034 209.944 116.582 209.136 115.677C208.329 114.765 207.925 113.486 207.925 111.839C207.925 110.283 208.365 109.017 209.244 108.04C210.129 107.057 211.226 106.565 212.535 106.565C213.843 106.565 214.856 106.989 215.572 107.835C216.288 108.681 216.646 109.856 216.646 111.36V112.2ZM215.005 110.843C214.999 109.918 214.774 109.199 214.332 108.685C213.895 108.17 213.287 107.913 212.505 107.913C211.75 107.913 211.109 108.183 210.582 108.724C210.054 109.264 209.729 109.97 209.605 110.843H215.005ZM223.961 116.438V114.72C224.833 115.364 225.793 115.687 226.841 115.687C228.248 115.687 228.951 115.218 228.951 114.28C228.951 114.013 228.889 113.789 228.765 113.606C228.648 113.418 228.485 113.252 228.277 113.108C228.075 112.965 227.834 112.838 227.554 112.728C227.281 112.61 226.985 112.49 226.666 112.366C226.223 112.19 225.832 112.015 225.494 111.839C225.162 111.657 224.882 111.455 224.654 111.233C224.433 111.006 224.263 110.748 224.146 110.462C224.035 110.175 223.98 109.84 223.98 109.456C223.98 108.987 224.088 108.574 224.302 108.216C224.517 107.851 224.804 107.549 225.162 107.308C225.52 107.06 225.927 106.875 226.382 106.751C226.845 106.627 227.32 106.565 227.808 106.565C228.674 106.565 229.449 106.715 230.132 107.015V108.636C229.397 108.154 228.55 107.913 227.593 107.913C227.294 107.913 227.024 107.949 226.783 108.021C226.542 108.086 226.334 108.18 226.158 108.304C225.989 108.427 225.855 108.577 225.757 108.753C225.666 108.922 225.621 109.111 225.621 109.319C225.621 109.58 225.666 109.798 225.757 109.974C225.855 110.149 225.995 110.306 226.177 110.442C226.36 110.579 226.581 110.703 226.841 110.813C227.102 110.924 227.398 111.045 227.73 111.175C228.173 111.344 228.57 111.52 228.922 111.702C229.273 111.878 229.573 112.08 229.82 112.308C230.067 112.529 230.256 112.786 230.386 113.079C230.523 113.372 230.591 113.72 230.591 114.124C230.591 114.619 230.481 115.049 230.259 115.413C230.045 115.778 229.755 116.08 229.39 116.321C229.026 116.562 228.606 116.741 228.13 116.858C227.655 116.976 227.157 117.034 226.636 117.034C225.608 117.034 224.716 116.836 223.961 116.438ZM241.099 112.2H234.039C234.065 113.313 234.364 114.173 234.937 114.778C235.51 115.384 236.298 115.687 237.3 115.687C238.427 115.687 239.462 115.315 240.406 114.573V116.077C239.527 116.715 238.365 117.034 236.92 117.034C235.507 117.034 234.397 116.582 233.589 115.677C232.782 114.765 232.379 113.486 232.379 111.839C232.379 110.283 232.818 109.017 233.697 108.04C234.582 107.057 235.679 106.565 236.988 106.565C238.297 106.565 239.309 106.989 240.025 107.835C240.741 108.681 241.099 109.856 241.099 111.36V112.2ZM239.459 110.843C239.452 109.918 239.227 109.199 238.785 108.685C238.349 108.17 237.74 107.913 236.959 107.913C236.203 107.913 235.562 108.183 235.035 108.724C234.507 109.264 234.182 109.97 234.058 110.843H239.459ZM251.568 112.2H244.507C244.533 113.313 244.833 114.173 245.406 114.778C245.979 115.384 246.767 115.687 247.769 115.687C248.895 115.687 249.931 115.315 250.875 114.573V116.077C249.996 116.715 248.834 117.034 247.388 117.034C245.976 117.034 244.866 116.582 244.058 115.677C243.251 114.765 242.847 113.486 242.847 111.839C242.847 110.283 243.287 109.017 244.166 108.04C245.051 107.057 246.148 106.565 247.457 106.565C248.765 106.565 249.778 106.989 250.494 107.835C251.21 108.681 251.568 109.856 251.568 111.36V112.2ZM249.927 110.843C249.921 109.918 249.696 109.199 249.254 108.685C248.817 108.17 248.209 107.913 247.427 107.913C246.672 107.913 246.031 108.183 245.504 108.724C244.976 109.264 244.651 109.97 244.527 110.843H249.927ZM262.3 116.8H260.699V111.097C260.699 108.974 259.924 107.913 258.375 107.913C257.574 107.913 256.91 108.216 256.382 108.821C255.862 109.42 255.601 110.179 255.601 111.097V116.8H254V106.8H255.601V108.46H255.64C256.395 107.197 257.489 106.565 258.922 106.565C260.015 106.565 260.852 106.92 261.431 107.63C262.011 108.333 262.3 109.352 262.3 110.687V116.8ZM277.974 116.8H276.373V115.237H276.334C275.637 116.435 274.612 117.034 273.257 117.034C272.261 117.034 271.48 116.771 270.914 116.243C270.354 115.716 270.074 115.016 270.074 114.144C270.074 112.275 271.174 111.188 273.375 110.882L276.373 110.462C276.373 108.763 275.686 107.913 274.312 107.913C273.108 107.913 272.02 108.323 271.05 109.144V107.503C272.033 106.878 273.166 106.565 274.449 106.565C276.799 106.565 277.974 107.809 277.974 110.296V116.8ZM276.373 111.741L273.961 112.073C273.218 112.177 272.658 112.363 272.281 112.63C271.903 112.89 271.714 113.356 271.714 114.026C271.714 114.515 271.887 114.915 272.232 115.228C272.584 115.534 273.049 115.687 273.629 115.687C274.423 115.687 275.077 115.41 275.591 114.856C276.112 114.297 276.373 113.59 276.373 112.737V111.741ZM50.2496 129.796V138.624H51.9293V140.929H50.2496V143.8H47.4371V140.929H41.3336V138.517C41.874 137.911 42.4339 137.25 43.0133 136.534C43.5927 135.812 44.1526 135.069 44.693 134.308C45.2334 133.546 45.7347 132.781 46.1969 132.013C46.6656 131.238 47.0628 130.499 47.3883 129.796H50.2496ZM44.0973 138.624H47.4371V133.731C47.2093 134.155 46.9619 134.584 46.6949 135.021C46.428 135.45 46.1481 135.877 45.8551 136.3C45.5621 136.716 45.2659 137.123 44.9664 137.521C44.667 137.911 44.3772 138.279 44.0973 138.624ZM58.1305 144.044C54.7972 144.044 53.1305 141.703 53.1305 137.022C53.1305 134.594 53.5797 132.745 54.4781 131.476C55.3831 130.2 56.6917 129.562 58.4039 129.562C61.6591 129.562 63.2867 131.941 63.2867 136.7C63.2867 139.07 62.8408 140.886 61.9489 142.149C61.0634 143.412 59.7906 144.044 58.1305 144.044ZM58.2672 131.915C56.9326 131.915 56.2653 133.591 56.2653 136.944C56.2653 140.102 56.9196 141.681 58.2281 141.681C59.5042 141.681 60.1422 140.053 60.1422 136.798C60.1422 133.543 59.5172 131.915 58.2672 131.915ZM68.1598 136.896C67.1637 136.896 66.3597 136.58 65.7477 135.948C65.1422 135.317 64.8395 134.467 64.8395 133.399C64.8395 132.234 65.1617 131.31 65.8063 130.626C66.4573 129.942 67.3232 129.601 68.4039 129.601C69.4391 129.601 70.2464 129.91 70.8258 130.528C71.4117 131.147 71.7047 132.016 71.7047 133.136C71.7047 134.288 71.3824 135.203 70.7379 135.88C70.0934 136.557 69.234 136.896 68.1598 136.896ZM68.3453 131.319C67.3948 131.319 66.9196 131.98 66.9196 133.302C66.9196 134.552 67.372 135.177 68.277 135.177C69.2015 135.177 69.6637 134.526 69.6637 133.224C69.6637 131.954 69.2242 131.319 68.3453 131.319ZM78.3844 129.796L69.2633 143.8H66.8805L75.9821 129.796H78.3844ZM76.8805 143.995C75.8844 143.995 75.0804 143.679 74.4684 143.048C73.8629 142.416 73.5602 141.567 73.5602 140.499C73.5602 139.334 73.8824 138.409 74.527 137.726C75.178 137.042 76.0439 136.7 77.1246 136.7C78.1663 136.7 78.9768 137.006 79.5563 137.618C80.1357 138.23 80.4254 139.096 80.4254 140.216C80.4254 141.368 80.1031 142.286 79.4586 142.97C78.8141 143.653 77.9547 143.995 76.8805 143.995ZM77.0367 138.419C76.0927 138.419 75.6207 139.08 75.6207 140.401C75.6207 141.651 76.0797 142.276 76.9977 142.276C77.9222 142.276 78.3844 141.625 78.3844 140.323C78.3844 139.718 78.2607 139.249 78.0133 138.917C77.7659 138.585 77.4404 138.419 77.0367 138.419ZM89.693 132.218C89.1722 132.218 88.7457 132.065 88.4137 131.759C88.0817 131.446 87.9156 131.065 87.9156 130.616C87.9156 130.154 88.0817 129.776 88.4137 129.483C88.7457 129.19 89.1722 129.044 89.693 129.044C90.2203 129.044 90.6468 129.19 90.9723 129.483C91.3043 129.776 91.4703 130.154 91.4703 130.616C91.4703 131.085 91.3043 131.469 90.9723 131.769C90.6468 132.068 90.2203 132.218 89.693 132.218ZM91.2164 143.8H88.1305V133.8H91.2164V143.8ZM109.693 143.8H106.617V138.097C106.617 136.645 106.083 135.919 105.015 135.919C104.507 135.919 104.094 136.137 103.775 136.573C103.456 137.009 103.297 137.553 103.297 138.204V143.8H100.211V138.038C100.211 136.625 99.6865 135.919 98.6383 135.919C98.111 135.919 97.6878 136.127 97.3688 136.544C97.0563 136.961 96.9 137.527 96.9 138.243V143.8H93.8141V133.8H96.9V135.362H96.9391C97.2581 134.828 97.7041 134.396 98.277 134.063C98.8564 133.725 99.4879 133.556 100.172 133.556C101.584 133.556 102.551 134.177 103.072 135.421C103.834 134.177 104.953 133.556 106.431 133.556C108.606 133.556 109.693 134.897 109.693 137.579V143.8ZM115.259 142.638H115.22V148.399H112.134V133.8H115.22V135.304H115.259C116.021 134.138 117.092 133.556 118.472 133.556C119.768 133.556 120.767 134.002 121.47 134.894C122.18 135.779 122.535 136.987 122.535 138.517C122.535 140.183 122.121 141.521 121.295 142.53C120.474 143.539 119.38 144.044 118.013 144.044C116.809 144.044 115.891 143.575 115.259 142.638ZM115.172 138.536V139.337C115.172 140.027 115.354 140.59 115.718 141.026C116.083 141.463 116.561 141.681 117.154 141.681C117.857 141.681 118.401 141.41 118.785 140.87C119.175 140.323 119.371 139.552 119.371 138.556C119.371 136.798 118.687 135.919 117.32 135.919C116.688 135.919 116.171 136.16 115.767 136.642C115.37 137.117 115.172 137.748 115.172 138.536ZM131.06 136.583C130.689 136.381 130.256 136.28 129.761 136.28C129.091 136.28 128.567 136.528 128.189 137.022C127.811 137.511 127.623 138.178 127.623 139.024V143.8H124.537V133.8H127.623V135.655H127.662C128.15 134.301 129.029 133.624 130.298 133.624C130.624 133.624 130.878 133.663 131.06 133.741V136.583ZM137.193 144.044C135.526 144.044 134.214 143.578 133.257 142.647C132.307 141.71 131.832 140.44 131.832 138.839C131.832 137.185 132.326 135.893 133.316 134.962C134.306 134.024 135.644 133.556 137.33 133.556C138.99 133.556 140.292 134.024 141.236 134.962C142.18 135.893 142.652 137.127 142.652 138.663C142.652 140.323 142.164 141.635 141.187 142.599C140.217 143.562 138.886 144.044 137.193 144.044ZM137.271 135.919C136.542 135.919 135.976 136.17 135.572 136.671C135.168 137.172 134.966 137.882 134.966 138.8C134.966 140.72 135.741 141.681 137.291 141.681C138.769 141.681 139.507 140.694 139.507 138.722C139.507 136.853 138.762 135.919 137.271 135.919ZM154.175 133.8L150.455 143.8H146.939L143.394 133.8H146.695L148.433 139.962C148.629 140.659 148.742 141.251 148.775 141.739H148.814C148.86 141.277 148.98 140.704 149.175 140.021L150.953 133.8H154.175ZM164.283 139.679H157.759C157.864 141.131 158.778 141.856 160.504 141.856C161.604 141.856 162.571 141.596 163.404 141.075V143.302C162.479 143.797 161.278 144.044 159.8 144.044C158.186 144.044 156.933 143.598 156.041 142.706C155.149 141.808 154.703 140.558 154.703 138.956C154.703 137.296 155.185 135.981 156.148 135.011C157.112 134.041 158.297 133.556 159.703 133.556C161.161 133.556 162.287 133.989 163.082 134.854C163.882 135.72 164.283 136.896 164.283 138.38V139.679ZM161.422 137.784C161.422 136.352 160.842 135.636 159.683 135.636C159.188 135.636 158.759 135.841 158.394 136.251C158.036 136.661 157.818 137.172 157.74 137.784H161.422ZM181.998 143.8H178.922V138.097C178.922 136.645 178.388 135.919 177.32 135.919C176.812 135.919 176.399 136.137 176.08 136.573C175.761 137.009 175.601 137.553 175.601 138.204V143.8H172.515V138.038C172.515 136.625 171.991 135.919 170.943 135.919C170.416 135.919 169.992 136.127 169.673 136.544C169.361 136.961 169.205 137.527 169.205 138.243V143.8H166.119V133.8H169.205V135.362H169.244C169.563 134.828 170.009 134.396 170.582 134.063C171.161 133.725 171.793 133.556 172.476 133.556C173.889 133.556 174.856 134.177 175.377 135.421C176.138 134.177 177.258 133.556 178.736 133.556C180.91 133.556 181.998 134.897 181.998 137.579V143.8ZM193.423 139.679H186.9C187.004 141.131 187.919 141.856 189.644 141.856C190.744 141.856 191.711 141.596 192.545 141.075V143.302C191.62 143.797 190.419 144.044 188.941 144.044C187.326 144.044 186.073 143.598 185.181 142.706C184.289 141.808 183.843 140.558 183.843 138.956C183.843 137.296 184.325 135.981 185.289 135.011C186.252 134.041 187.437 133.556 188.843 133.556C190.302 133.556 191.428 133.989 192.222 134.854C193.023 135.72 193.423 136.896 193.423 138.38V139.679ZM190.562 137.784C190.562 136.352 189.983 135.636 188.824 135.636C188.329 135.636 187.899 135.841 187.535 136.251C187.177 136.661 186.959 137.172 186.88 137.784H190.562ZM204.918 143.8H201.841V138.243C201.841 136.694 201.288 135.919 200.181 135.919C199.647 135.919 199.208 136.124 198.863 136.534C198.518 136.944 198.345 137.465 198.345 138.097V143.8H195.259V133.8H198.345V135.382H198.384C199.12 134.164 200.191 133.556 201.597 133.556C203.811 133.556 204.918 134.929 204.918 137.677V143.8ZM213.414 143.683C212.958 143.924 212.271 144.044 211.353 144.044C209.179 144.044 208.091 142.914 208.091 140.655V136.075H206.47V133.8H208.091V131.642L211.168 130.763V133.8H213.414V136.075H211.168V140.118C211.168 141.16 211.581 141.681 212.408 141.681C212.733 141.681 213.069 141.586 213.414 141.397V143.683ZM221.793 131.261C221.506 131.261 221.262 131.163 221.06 130.968C220.858 130.772 220.757 130.525 220.757 130.226C220.757 129.926 220.858 129.679 221.06 129.483C221.262 129.282 221.506 129.181 221.793 129.181C222.086 129.181 222.333 129.282 222.535 129.483C222.743 129.679 222.847 129.926 222.847 130.226C222.847 130.512 222.743 130.756 222.535 130.958C222.333 131.16 222.086 131.261 221.793 131.261ZM222.574 143.8H220.972V133.8H222.574V143.8ZM234.117 143.8H232.515V138.097C232.515 135.974 231.741 134.913 230.191 134.913C229.39 134.913 228.726 135.216 228.199 135.821C227.678 136.42 227.418 137.179 227.418 138.097V143.8H225.816V133.8H227.418V135.46H227.457C228.212 134.197 229.306 133.565 230.738 133.565C231.832 133.565 232.668 133.92 233.248 134.63C233.827 135.333 234.117 136.352 234.117 137.687V143.8ZM246.812 144.034C245.334 144.034 244.153 143.569 243.267 142.638C242.388 141.7 241.949 140.46 241.949 138.917C241.949 137.237 242.408 135.925 243.326 134.981C244.244 134.037 245.484 133.565 247.047 133.565C248.537 133.565 249.7 134.024 250.533 134.942C251.373 135.86 251.793 137.133 251.793 138.761C251.793 140.356 251.34 141.635 250.435 142.599C249.537 143.556 248.329 144.034 246.812 144.034ZM246.929 134.913C245.901 134.913 245.087 135.265 244.488 135.968C243.889 136.664 243.589 137.628 243.589 138.858C243.589 140.043 243.892 140.978 244.498 141.661C245.103 142.345 245.914 142.687 246.929 142.687C247.964 142.687 248.759 142.351 249.312 141.681C249.872 141.01 250.152 140.056 250.152 138.819C250.152 137.569 249.872 136.606 249.312 135.929C248.759 135.252 247.964 134.913 246.929 134.913ZM262.437 143.8H260.836V142.218H260.797C260.132 143.429 259.104 144.034 257.711 144.034C255.328 144.034 254.136 142.615 254.136 139.776V133.8H255.728V139.522C255.728 141.632 256.535 142.687 258.15 142.687C258.931 142.687 259.573 142.4 260.074 141.827C260.582 141.248 260.836 140.493 260.836 139.562V133.8H262.437V143.8ZM270.894 135.421C270.614 135.206 270.211 135.099 269.683 135.099C269 135.099 268.427 135.421 267.964 136.065C267.509 136.71 267.281 137.589 267.281 138.702V143.8H265.679V133.8H267.281V135.86H267.32C267.548 135.157 267.896 134.61 268.365 134.22C268.834 133.823 269.358 133.624 269.937 133.624C270.354 133.624 270.673 133.67 270.894 133.761V135.421ZM282.759 143.702C282.382 143.91 281.884 144.015 281.265 144.015C279.514 144.015 278.638 143.038 278.638 141.085V135.167H276.92V133.8H278.638V131.358L280.24 130.841V133.8H282.759V135.167H280.24V140.802C280.24 141.472 280.354 141.951 280.582 142.237C280.81 142.524 281.187 142.667 281.714 142.667C282.118 142.667 282.466 142.556 282.759 142.335V143.702ZM289.078 144.034C287.6 144.034 286.418 143.569 285.533 142.638C284.654 141.7 284.214 140.46 284.214 138.917C284.214 137.237 284.673 135.925 285.591 134.981C286.509 134.037 287.75 133.565 289.312 133.565C290.803 133.565 291.965 134.024 292.798 134.942C293.638 135.86 294.058 137.133 294.058 138.761C294.058 140.356 293.606 141.635 292.701 142.599C291.802 143.556 290.595 144.034 289.078 144.034ZM289.195 134.913C288.166 134.913 287.352 135.265 286.754 135.968C286.155 136.664 285.855 137.628 285.855 138.858C285.855 140.043 286.158 140.978 286.763 141.661C287.369 142.345 288.179 142.687 289.195 142.687C290.23 142.687 291.024 142.351 291.578 141.681C292.138 141.01 292.418 140.056 292.418 138.819C292.418 137.569 292.138 136.606 291.578 135.929C291.024 135.252 290.23 134.913 289.195 134.913ZM301.255 143.702C300.878 143.91 300.38 144.015 299.761 144.015C298.01 144.015 297.134 143.038 297.134 141.085V135.167H295.416V133.8H297.134V131.358L298.736 130.841V133.8H301.255V135.167H298.736V140.802C298.736 141.472 298.85 141.951 299.078 142.237C299.306 142.524 299.683 142.667 300.211 142.667C300.614 142.667 300.963 142.556 301.255 142.335V143.702ZM310.552 143.8H308.951V142.237H308.912C308.215 143.435 307.19 144.034 305.836 144.034C304.839 144.034 304.058 143.771 303.492 143.243C302.932 142.716 302.652 142.016 302.652 141.144C302.652 139.275 303.752 138.188 305.953 137.882L308.951 137.462C308.951 135.763 308.264 134.913 306.89 134.913C305.686 134.913 304.599 135.323 303.629 136.144V134.503C304.612 133.878 305.744 133.565 307.027 133.565C309.377 133.565 310.552 134.809 310.552 137.296V143.8ZM308.951 138.741L306.539 139.073C305.797 139.177 305.237 139.363 304.859 139.63C304.481 139.89 304.293 140.356 304.293 141.026C304.293 141.515 304.465 141.915 304.81 142.228C305.162 142.534 305.627 142.687 306.207 142.687C307.001 142.687 307.655 142.41 308.17 141.856C308.69 141.297 308.951 140.59 308.951 139.737V138.741ZM315.172 143.8H313.57V128.995H315.172V143.8ZM51.109 169.999C51.109 173.671 49.3512 175.507 45.8356 175.507C44.5986 175.507 43.5179 175.272 42.5934 174.804V173.202C43.7197 173.827 44.7939 174.14 45.816 174.14C48.277 174.14 49.5074 172.831 49.5074 170.214V169.12H49.4684C48.7067 170.396 47.5608 171.034 46.0309 171.034C44.7874 171.034 43.7848 170.591 43.0231 169.706C42.2679 168.814 41.8903 167.619 41.8903 166.122C41.8903 164.423 42.2972 163.072 43.111 162.069C43.9313 161.067 45.0511 160.565 46.4703 160.565C47.818 160.565 48.8173 161.106 49.4684 162.187H49.5074V160.8H51.109V169.999ZM49.5074 166.278V164.804C49.5074 164.009 49.2373 163.329 48.6969 162.763C48.163 162.196 47.4957 161.913 46.6949 161.913C45.7054 161.913 44.9306 162.274 44.3707 162.997C43.8108 163.713 43.5309 164.719 43.5309 166.015C43.5309 167.128 43.7978 168.02 44.3317 168.69C44.872 169.354 45.5849 169.687 46.4703 169.687C47.3688 169.687 48.0979 169.368 48.6578 168.729C49.2242 168.091 49.5074 167.274 49.5074 166.278ZM58.5309 171.034C57.053 171.034 55.8714 170.569 54.986 169.638C54.1071 168.7 53.6676 167.46 53.6676 165.917C53.6676 164.237 54.1266 162.925 55.0446 161.981C55.9625 161.037 57.2028 160.565 58.7653 160.565C60.2561 160.565 61.4183 161.024 62.2516 161.942C63.0914 162.86 63.5114 164.133 63.5114 165.761C63.5114 167.356 63.0589 168.635 62.1539 169.599C61.2555 170.556 60.0478 171.034 58.5309 171.034ZM58.6481 161.913C57.6194 161.913 56.8056 162.265 56.2067 162.968C55.6077 163.664 55.3082 164.628 55.3082 165.858C55.3082 167.043 55.611 167.978 56.2164 168.661C56.8219 169.345 57.6324 169.687 58.6481 169.687C59.6832 169.687 60.4775 169.351 61.0309 168.681C61.5908 168.01 61.8707 167.056 61.8707 165.819C61.8707 164.569 61.5908 163.606 61.0309 162.929C60.4775 162.252 59.6832 161.913 58.6481 161.913ZM71.1871 165.858H65.8551V164.599H71.1871V165.858ZM78.7164 170.702C78.3388 170.91 77.8408 171.015 77.2223 171.015C75.471 171.015 74.5953 170.038 74.5953 168.085V162.167H72.8766V160.8H74.5953V158.358L76.1969 157.841V160.8H78.7164V162.167H76.1969V167.802C76.1969 168.472 76.3108 168.951 76.5387 169.237C76.7666 169.524 77.1442 169.667 77.6715 169.667C78.0752 169.667 78.4235 169.556 78.7164 169.335V170.702ZM85.0348 171.034C83.5569 171.034 82.3753 170.569 81.4899 169.638C80.611 168.7 80.1715 167.46 80.1715 165.917C80.1715 164.237 80.6305 162.925 81.5485 161.981C82.4664 161.037 83.7067 160.565 85.2692 160.565C86.7601 160.565 87.9222 161.024 88.7555 161.942C89.5953 162.86 90.0153 164.133 90.0153 165.761C90.0153 167.356 89.5628 168.635 88.6578 169.599C87.7594 170.556 86.5517 171.034 85.0348 171.034ZM85.152 161.913C84.1233 161.913 83.3095 162.265 82.7106 162.968C82.1116 163.664 81.8121 164.628 81.8121 165.858C81.8121 167.043 82.1149 167.978 82.7203 168.661C83.3258 169.345 84.1364 169.687 85.152 169.687C86.1871 169.687 86.9814 169.351 87.5348 168.681C88.0947 168.01 88.3746 167.056 88.3746 165.819C88.3746 164.569 88.0947 163.606 87.5348 162.929C86.9814 162.252 86.1871 161.913 85.152 161.913ZM97.691 165.858H92.359V164.599H97.691V165.858ZM114.781 170.8H113.179V165.058C113.179 163.951 113.007 163.15 112.662 162.655C112.323 162.16 111.75 161.913 110.943 161.913C110.259 161.913 109.677 162.226 109.195 162.851C108.72 163.476 108.482 164.224 108.482 165.097V170.8H106.88V164.862C106.88 162.896 106.122 161.913 104.605 161.913C103.902 161.913 103.323 162.209 102.867 162.802C102.411 163.388 102.183 164.153 102.183 165.097V170.8H100.582V160.8H102.183V162.382H102.222C102.932 161.171 103.967 160.565 105.328 160.565C106.011 160.565 106.607 160.757 107.115 161.142C107.623 161.519 107.971 162.017 108.16 162.636C108.902 161.256 110.009 160.565 111.48 160.565C113.681 160.565 114.781 161.923 114.781 164.638V170.8ZM124.966 170.8H123.365V169.237H123.326C122.629 170.435 121.604 171.034 120.25 171.034C119.254 171.034 118.472 170.771 117.906 170.243C117.346 169.716 117.066 169.016 117.066 168.144C117.066 166.275 118.166 165.188 120.367 164.882L123.365 164.462C123.365 162.763 122.678 161.913 121.304 161.913C120.1 161.913 119.013 162.323 118.043 163.144V161.503C119.026 160.878 120.158 160.565 121.441 160.565C123.791 160.565 124.966 161.809 124.966 164.296V170.8ZM123.365 165.741L120.953 166.073C120.211 166.177 119.651 166.363 119.273 166.63C118.895 166.89 118.707 167.356 118.707 168.026C118.707 168.515 118.879 168.915 119.224 169.228C119.576 169.534 120.041 169.687 120.621 169.687C121.415 169.687 122.069 169.41 122.584 168.856C123.104 168.297 123.365 167.59 123.365 166.737V165.741ZM133.199 162.421C132.919 162.206 132.515 162.099 131.988 162.099C131.304 162.099 130.731 162.421 130.269 163.065C129.813 163.71 129.586 164.589 129.586 165.702V170.8H127.984V160.8H129.586V162.86H129.625C129.852 162.157 130.201 161.61 130.67 161.22C131.138 160.823 131.662 160.624 132.242 160.624C132.658 160.624 132.977 160.67 133.199 160.761V162.421ZM143.238 170.8H140.992L136.578 165.995H136.539V170.8H134.937V155.995H136.539V165.38H136.578L140.777 160.8H142.877L138.238 165.624L143.238 170.8ZM152.916 166.2H145.855C145.881 167.313 146.181 168.173 146.754 168.778C147.326 169.384 148.114 169.687 149.117 169.687C150.243 169.687 151.278 169.315 152.222 168.573V170.077C151.343 170.715 150.181 171.034 148.736 171.034C147.323 171.034 146.213 170.582 145.406 169.677C144.599 168.765 144.195 167.486 144.195 165.839C144.195 164.283 144.634 163.017 145.513 162.04C146.399 161.057 147.496 160.565 148.804 160.565C150.113 160.565 151.125 160.989 151.841 161.835C152.558 162.681 152.916 163.856 152.916 165.36V166.2ZM151.275 164.843C151.269 163.918 151.044 163.199 150.601 162.685C150.165 162.17 149.556 161.913 148.775 161.913C148.02 161.913 147.379 162.183 146.851 162.724C146.324 163.264 145.998 163.97 145.875 164.843H151.275ZM159.986 170.702C159.608 170.91 159.11 171.015 158.492 171.015C156.741 171.015 155.865 170.038 155.865 168.085V162.167H154.146V160.8H155.865V158.358L157.466 157.841V160.8H159.986V162.167H157.466V167.802C157.466 168.472 157.58 168.951 157.808 169.237C158.036 169.524 158.414 169.667 158.941 169.667C159.345 169.667 159.693 169.556 159.986 169.335V170.702ZM175.65 166.2H168.589C168.616 167.313 168.915 168.173 169.488 168.778C170.061 169.384 170.849 169.687 171.851 169.687C172.977 169.687 174.013 169.315 174.957 168.573V170.077C174.078 170.715 172.916 171.034 171.47 171.034C170.058 171.034 168.948 170.582 168.14 169.677C167.333 168.765 166.929 167.486 166.929 165.839C166.929 164.283 167.369 163.017 168.248 162.04C169.133 161.057 170.23 160.565 171.539 160.565C172.847 160.565 173.86 160.989 174.576 161.835C175.292 162.681 175.65 163.856 175.65 165.36V166.2ZM174.009 164.843C174.003 163.918 173.778 163.199 173.336 162.685C172.899 162.17 172.291 161.913 171.509 161.913C170.754 161.913 170.113 162.183 169.586 162.724C169.058 163.264 168.733 163.97 168.609 164.843H174.009ZM183.023 157.401C182.711 157.226 182.356 157.138 181.959 157.138C180.839 157.138 180.279 157.844 180.279 159.257V160.8H182.623V162.167H180.279V170.8H178.687V162.167H176.978V160.8H178.687V159.179C178.687 158.131 178.99 157.304 179.595 156.698C180.201 156.086 180.956 155.78 181.861 155.78C182.349 155.78 182.737 155.839 183.023 155.956V157.401ZM189.293 157.401C188.98 157.226 188.625 157.138 188.228 157.138C187.108 157.138 186.548 157.844 186.548 159.257V160.8H188.892V162.167H186.548V170.8H184.957V162.167H183.248V160.8H184.957V159.179C184.957 158.131 185.259 157.304 185.865 156.698C186.47 156.086 187.226 155.78 188.13 155.78C188.619 155.78 189.006 155.839 189.293 155.956V157.401ZM191.441 158.261C191.155 158.261 190.91 158.163 190.709 157.968C190.507 157.772 190.406 157.525 190.406 157.226C190.406 156.926 190.507 156.679 190.709 156.483C190.91 156.282 191.155 156.181 191.441 156.181C191.734 156.181 191.981 156.282 192.183 156.483C192.392 156.679 192.496 156.926 192.496 157.226C192.496 157.512 192.392 157.756 192.183 157.958C191.981 158.16 191.734 158.261 191.441 158.261ZM192.222 170.8H190.621V160.8H192.222V170.8ZM202.281 170.341C201.513 170.803 200.601 171.034 199.547 171.034C198.121 171.034 196.968 170.572 196.089 169.647C195.217 168.716 194.781 167.512 194.781 166.034C194.781 164.387 195.253 163.065 196.197 162.069C197.141 161.067 198.401 160.565 199.976 160.565C200.855 160.565 201.63 160.728 202.3 161.054V162.694C201.558 162.174 200.764 161.913 199.918 161.913C198.895 161.913 198.056 162.281 197.398 163.017C196.747 163.746 196.422 164.706 196.422 165.897C196.422 167.069 196.727 167.994 197.339 168.671C197.958 169.348 198.785 169.687 199.82 169.687C200.692 169.687 201.513 169.397 202.281 168.817V170.341ZM205.523 158.261C205.237 158.261 204.992 158.163 204.791 157.968C204.589 157.772 204.488 157.525 204.488 157.226C204.488 156.926 204.589 156.679 204.791 156.483C204.992 156.282 205.237 156.181 205.523 156.181C205.816 156.181 206.063 156.282 206.265 156.483C206.474 156.679 206.578 156.926 206.578 157.226C206.578 157.512 206.474 157.756 206.265 157.958C206.063 158.16 205.816 158.261 205.523 158.261ZM206.304 170.8H204.703V160.8H206.304V170.8ZM217.584 166.2H210.523C210.549 167.313 210.849 168.173 211.422 168.778C211.994 169.384 212.782 169.687 213.785 169.687C214.911 169.687 215.946 169.315 216.89 168.573V170.077C216.011 170.715 214.849 171.034 213.404 171.034C211.991 171.034 210.881 170.582 210.074 169.677C209.267 168.765 208.863 167.486 208.863 165.839C208.863 164.283 209.302 163.017 210.181 162.04C211.067 161.057 212.164 160.565 213.472 160.565C214.781 160.565 215.793 160.989 216.509 161.835C217.226 162.681 217.584 163.856 217.584 165.36V166.2ZM215.943 164.843C215.936 163.918 215.712 163.199 215.269 162.685C214.833 162.17 214.224 161.913 213.443 161.913C212.688 161.913 212.047 162.183 211.519 162.724C210.992 163.264 210.666 163.97 210.543 164.843H215.943ZM228.316 170.8H226.714V165.097C226.714 162.974 225.94 161.913 224.39 161.913C223.589 161.913 222.925 162.216 222.398 162.821C221.877 163.42 221.617 164.179 221.617 165.097V170.8H220.015V160.8H221.617V162.46H221.656C222.411 161.197 223.505 160.565 224.937 160.565C226.031 160.565 226.867 160.92 227.447 161.63C228.026 162.333 228.316 163.352 228.316 164.687V170.8ZM238.16 170.341C237.392 170.803 236.48 171.034 235.425 171.034C234 171.034 232.847 170.572 231.968 169.647C231.096 168.716 230.66 167.512 230.66 166.034C230.66 164.387 231.132 163.065 232.076 162.069C233.02 161.067 234.28 160.565 235.855 160.565C236.734 160.565 237.509 160.728 238.179 161.054V162.694C237.437 162.174 236.643 161.913 235.797 161.913C234.774 161.913 233.935 162.281 233.277 163.017C232.626 163.746 232.3 164.706 232.3 165.897C232.3 167.069 232.606 167.994 233.218 168.671C233.837 169.348 234.664 169.687 235.699 169.687C236.571 169.687 237.392 169.397 238.16 168.817V170.341ZM248.541 160.8L243.941 172.401C243.121 174.472 241.968 175.507 240.484 175.507C240.067 175.507 239.719 175.465 239.439 175.38V173.944C239.784 174.062 240.1 174.12 240.386 174.12C241.194 174.12 241.799 173.638 242.203 172.675L243.004 170.78L239.097 160.8H240.875L243.58 168.495C243.612 168.593 243.681 168.847 243.785 169.257H243.843C243.876 169.101 243.941 168.853 244.039 168.515L246.88 160.8H248.541ZM252.31 156.796L252.125 166.854H250.806L250.63 156.796H252.31ZM251.49 170.976C251.19 170.976 250.933 170.871 250.718 170.663C250.51 170.455 250.406 170.201 250.406 169.901C250.406 169.602 250.51 169.348 250.718 169.14C250.933 168.925 251.19 168.817 251.49 168.817C251.783 168.817 252.037 168.925 252.252 169.14C252.466 169.348 252.574 169.602 252.574 169.901C252.574 170.201 252.466 170.455 252.252 170.663C252.037 170.871 251.783 170.976 251.49 170.976ZM260.894 156.562L259.527 160.917H258.375L259.429 156.562H260.894ZM257.925 156.562L256.558 160.917H255.406L256.49 156.562H257.925Z" fill="white"/>
<rect x="40.9528" y="206.8" width="305" height="41" rx="14" fill="white" fill-opacity="0.1"/>
<path d="M146.011 230.8V220.618H149.641C150.429 220.618 151.084 220.754 151.604 221.026C152.128 221.297 152.519 221.674 152.778 222.154C153.036 222.631 153.165 223.183 153.165 223.81C153.165 224.433 153.035 224.981 152.773 225.455C152.514 225.926 152.123 226.292 151.599 226.554C151.079 226.816 150.424 226.947 149.636 226.947H146.886V225.624H149.496C149.994 225.624 150.398 225.553 150.71 225.411C151.024 225.268 151.255 225.061 151.401 224.789C151.546 224.517 151.619 224.191 151.619 223.81C151.619 223.425 151.545 223.092 151.396 222.81C151.25 222.529 151.019 222.313 150.705 222.164C150.393 222.012 149.984 221.935 149.477 221.935H147.548V230.8H146.011ZM151.038 226.206L153.553 230.8H151.803L149.337 226.206H151.038ZM158.111 230.954C157.359 230.954 156.711 230.793 156.167 230.472C155.627 230.147 155.209 229.691 154.914 229.104C154.623 228.515 154.477 227.823 154.477 227.031C154.477 226.249 154.623 225.56 154.914 224.963C155.209 224.367 155.62 223.901 156.147 223.566C156.678 223.231 157.297 223.064 158.007 223.064C158.437 223.064 158.855 223.135 159.259 223.278C159.664 223.42 160.027 223.644 160.348 223.949C160.67 224.254 160.923 224.65 161.109 225.137C161.294 225.621 161.387 226.209 161.387 226.902V227.429H155.317V226.315H159.931C159.931 225.924 159.851 225.578 159.692 225.276C159.533 224.971 159.309 224.731 159.021 224.555C158.736 224.38 158.401 224.292 158.017 224.292C157.599 224.292 157.234 224.395 156.923 224.6C156.615 224.802 156.376 225.068 156.207 225.396C156.041 225.72 155.958 226.073 155.958 226.455V227.325C155.958 227.835 156.048 228.269 156.227 228.627C156.409 228.985 156.663 229.259 156.987 229.448C157.312 229.633 157.692 229.726 158.126 229.726C158.408 229.726 158.664 229.686 158.896 229.607C159.128 229.524 159.329 229.401 159.498 229.239C159.667 229.076 159.796 228.876 159.886 228.637L161.293 228.891C161.18 229.305 160.978 229.668 160.686 229.979C160.398 230.288 160.035 230.528 159.597 230.7C159.163 230.869 158.668 230.954 158.111 230.954ZM165.259 230.969C164.775 230.969 164.337 230.879 163.946 230.7C163.555 230.518 163.245 230.255 163.017 229.91C162.791 229.565 162.679 229.143 162.679 228.642C162.679 228.211 162.761 227.857 162.927 227.578C163.093 227.3 163.317 227.079 163.598 226.917C163.88 226.755 164.195 226.632 164.543 226.549C164.891 226.466 165.246 226.403 165.607 226.36C166.064 226.307 166.435 226.264 166.721 226.231C167.006 226.194 167.213 226.136 167.342 226.057C167.471 225.977 167.536 225.848 167.536 225.669V225.634C167.536 225.2 167.413 224.864 167.168 224.625C166.926 224.386 166.565 224.267 166.084 224.267C165.584 224.267 165.189 224.378 164.901 224.6C164.616 224.819 164.419 225.063 164.309 225.331L162.912 225.013C163.078 224.549 163.32 224.174 163.638 223.889C163.96 223.601 164.329 223.392 164.747 223.263C165.164 223.13 165.604 223.064 166.064 223.064C166.369 223.064 166.692 223.1 167.034 223.173C167.378 223.243 167.7 223.372 167.998 223.561C168.3 223.75 168.547 224.02 168.739 224.372C168.931 224.72 169.027 225.172 169.027 225.729V230.8H167.576V229.756H167.516C167.42 229.948 167.276 230.137 167.083 230.323C166.891 230.508 166.644 230.662 166.343 230.785C166.041 230.908 165.68 230.969 165.259 230.969ZM165.582 229.776C165.993 229.776 166.344 229.694 166.636 229.532C166.931 229.37 167.155 229.158 167.307 228.896C167.463 228.631 167.541 228.347 167.541 228.046V227.061C167.488 227.114 167.385 227.164 167.233 227.21C167.083 227.253 166.913 227.292 166.721 227.325C166.528 227.354 166.341 227.383 166.159 227.409C165.976 227.432 165.824 227.452 165.701 227.469C165.413 227.505 165.15 227.567 164.911 227.653C164.676 227.739 164.487 227.863 164.344 228.026C164.205 228.185 164.135 228.397 164.135 228.662C164.135 229.03 164.271 229.308 164.543 229.497C164.815 229.683 165.161 229.776 165.582 229.776ZM173.866 230.949C173.249 230.949 172.699 230.792 172.215 230.477C171.735 230.158 171.357 229.706 171.082 229.119C170.81 228.529 170.674 227.822 170.674 226.997C170.674 226.171 170.812 225.465 171.087 224.879C171.365 224.292 171.746 223.843 172.23 223.531C172.714 223.22 173.263 223.064 173.876 223.064C174.35 223.064 174.731 223.144 175.019 223.303C175.311 223.458 175.536 223.641 175.695 223.85C175.858 224.058 175.984 224.242 176.073 224.401H176.163V220.618H177.649V230.8H176.198V229.612H176.073C175.984 229.774 175.855 229.96 175.686 230.168C175.52 230.377 175.291 230.56 174.999 230.715C174.708 230.871 174.33 230.949 173.866 230.949ZM174.194 229.681C174.622 229.681 174.983 229.569 175.278 229.343C175.576 229.114 175.802 228.798 175.954 228.394C176.11 227.989 176.188 227.519 176.188 226.982C176.188 226.451 176.111 225.987 175.959 225.59C175.807 225.192 175.583 224.882 175.288 224.66C174.993 224.438 174.628 224.327 174.194 224.327C173.747 224.327 173.374 224.443 173.075 224.675C172.777 224.907 172.552 225.223 172.399 225.624C172.25 226.025 172.176 226.478 172.176 226.982C172.176 227.492 172.252 227.951 172.404 228.359C172.557 228.766 172.782 229.09 173.08 229.328C173.382 229.564 173.753 229.681 174.194 229.681ZM189.198 225.028L187.851 225.266C187.795 225.094 187.705 224.93 187.583 224.774C187.463 224.618 187.301 224.491 187.095 224.391C186.89 224.292 186.633 224.242 186.325 224.242C185.904 224.242 185.553 224.337 185.271 224.526C184.989 224.711 184.848 224.952 184.848 225.247C184.848 225.502 184.943 225.707 185.132 225.863C185.32 226.019 185.625 226.146 186.046 226.246L187.259 226.524C187.962 226.687 188.486 226.937 188.83 227.275C189.175 227.613 189.347 228.052 189.347 228.592C189.347 229.05 189.215 229.457 188.95 229.815C188.688 230.17 188.322 230.448 187.851 230.651C187.384 230.853 186.842 230.954 186.225 230.954C185.37 230.954 184.673 230.772 184.132 230.407C183.592 230.039 183.261 229.517 183.138 228.841L184.575 228.622C184.664 228.997 184.848 229.28 185.127 229.472C185.405 229.661 185.768 229.756 186.215 229.756C186.703 229.756 187.092 229.655 187.384 229.453C187.675 229.247 187.821 228.997 187.821 228.702C187.821 228.463 187.732 228.263 187.553 228.1C187.377 227.938 187.107 227.815 186.742 227.732L185.45 227.449C184.737 227.287 184.21 227.028 183.869 226.673C183.531 226.319 183.362 225.87 183.362 225.326C183.362 224.875 183.488 224.481 183.74 224.143C183.991 223.805 184.339 223.541 184.784 223.352C185.228 223.16 185.736 223.064 186.31 223.064C187.135 223.064 187.785 223.243 188.259 223.601C188.733 223.956 189.046 224.431 189.198 225.028ZM194.547 223.163V224.357H190.375V223.163H194.547ZM191.494 221.334H192.98V228.558C192.98 228.846 193.024 229.063 193.11 229.209C193.196 229.351 193.307 229.449 193.443 229.502C193.582 229.552 193.733 229.577 193.895 229.577C194.015 229.577 194.119 229.569 194.208 229.552C194.298 229.535 194.368 229.522 194.417 229.512L194.686 230.74C194.6 230.773 194.477 230.806 194.318 230.84C194.159 230.876 193.96 230.896 193.721 230.899C193.33 230.906 192.966 230.836 192.627 230.69C192.289 230.545 192.016 230.319 191.807 230.014C191.598 229.709 191.494 229.327 191.494 228.866V221.334ZM199.325 230.954C198.61 230.954 197.985 230.79 197.451 230.462C196.918 230.134 196.503 229.675 196.208 229.085C195.913 228.495 195.766 227.805 195.766 227.016C195.766 226.224 195.913 225.532 196.208 224.938C196.503 224.345 196.918 223.884 197.451 223.556C197.985 223.228 198.61 223.064 199.325 223.064C200.041 223.064 200.666 223.228 201.2 223.556C201.733 223.884 202.148 224.345 202.443 224.938C202.738 225.532 202.885 226.224 202.885 227.016C202.885 227.805 202.738 228.495 202.443 229.085C202.148 229.675 201.733 230.134 201.2 230.462C200.666 230.79 200.041 230.954 199.325 230.954ZM199.33 229.706C199.794 229.706 200.179 229.583 200.484 229.338C200.789 229.093 201.014 228.766 201.16 228.359C201.309 227.951 201.384 227.502 201.384 227.011C201.384 226.524 201.309 226.077 201.16 225.669C201.014 225.258 200.789 224.928 200.484 224.68C200.179 224.431 199.794 224.307 199.33 224.307C198.863 224.307 198.475 224.431 198.167 224.68C197.862 224.928 197.635 225.258 197.486 225.669C197.34 226.077 197.267 226.524 197.267 227.011C197.267 227.502 197.34 227.951 197.486 228.359C197.635 228.766 197.862 229.093 198.167 229.338C198.475 229.583 198.863 229.706 199.33 229.706ZM204.544 230.8V223.163H205.981V224.377H206.061C206.2 223.966 206.445 223.642 206.797 223.407C207.151 223.168 207.552 223.049 208 223.049C208.092 223.049 208.202 223.052 208.328 223.059C208.457 223.066 208.558 223.074 208.631 223.084V224.506C208.571 224.489 208.465 224.471 208.313 224.451C208.16 224.428 208.008 224.416 207.855 224.416C207.504 224.416 207.191 224.491 206.916 224.64C206.644 224.786 206.429 224.99 206.27 225.252C206.11 225.51 206.031 225.805 206.031 226.136V230.8H204.544ZM211.089 233.663C210.867 233.663 210.665 233.645 210.483 233.609C210.301 233.576 210.165 233.539 210.075 233.499L210.433 232.281C210.705 232.354 210.947 232.386 211.159 232.376C211.371 232.366 211.558 232.286 211.721 232.137C211.887 231.988 212.032 231.744 212.158 231.406L212.342 230.899L209.548 223.163H211.139L213.073 229.09H213.153L215.087 223.163H216.683L213.536 231.819C213.39 232.217 213.204 232.553 212.979 232.828C212.753 233.107 212.485 233.315 212.173 233.455C211.862 233.594 211.5 233.663 211.089 233.663Z" fill="white"/>
<g clip-path="url(#clip2_103_516)">
<path d="M240.827 223.332L234.852 229.307M240.827 223.332L236.513 223.464M240.827 223.332L240.695 227.647" stroke="white" stroke-width="1.26748" stroke-linecap="round" stroke-linejoin="round"/>
</g>
<rect x="-3.04724" y="2.10938" width="392.69" height="6" transform="rotate(4 -3.04724 2.10938)" fill="white"/>
</g>
<defs>
<linearGradient id="paint0_linear_103_516" x1="284.456" y1="-49.0384" x2="100.544" y2="328.038" gradientUnits="userSpaceOnUse">
<stop stop-color="#26ABFA" stop-opacity="0.8"/>
<stop offset="0.525" stop-color="#7612FA" stop-opacity="0.8"/>
</linearGradient>
<clipPath id="clip0_103_516">
<rect width="385" height="279" fill="white" transform="translate(0.952759 0.799805)"/>
</clipPath>
<clipPath id="clip1_103_516">
<rect width="154" height="22" fill="white" transform="translate(40.9528 36.7998)"/>
</clipPath>
<clipPath id="clip2_103_516">
<rect width="8" height="8" fill="white" transform="translate(234.013 222.3)"/>
</clipPath>
</defs>
</svg>
