<svg width="40" height="42" viewBox="0 0 40 42" fill="none" xmlns="http://www.w3.org/2000/svg">
<g clip-path="url(#clip0_103_341)">
<path d="M33.6506 28.2428C34.3193 26.442 35.1988 23.0449 35.1988 17.6341C35.1988 16.007 34.9127 12.0323 34.9127 12.0323C34.9127 12.0323 29.7623 10.8877 20.3199 10.8877C10.8776 10.8877 5.44107 12.0323 5.44107 12.0323L5.44104 17.6341C5.44104 23.1515 6.35556 26.5436 7.02853 28.2928C7.41755 29.3039 8.21474 30.0611 9.2549 30.3642C10.9587 30.8607 14.3039 31.4893 20.3199 31.4893C26.1763 31.4893 29.5018 30.9209 31.2459 30.4537C32.3753 30.1512 33.2437 29.3389 33.6506 28.2428Z" fill="#514B81" fill-opacity="0.1" stroke="#292D34"/>
<path d="M16.8864 23.4775H23.1814" stroke="#292D34" stroke-width="2" stroke-linecap="round" stroke-linejoin="round"/>
<path d="M16.8864 18.3271H27.7595" stroke="#292D34" stroke-width="2" stroke-linecap="round" stroke-linejoin="round"/>
<path d="M12.8805 17.7549C12.5644 17.7549 12.3082 18.0111 12.3082 18.3271C12.3082 18.6432 12.5644 18.8994 12.8805 18.8994C13.1965 18.8994 13.4528 18.6432 13.4528 18.3271C13.4528 18.0111 13.1965 17.7549 12.8805 17.7549Z" fill="#514B81" stroke="#292D34" stroke-width="2" stroke-linecap="round" stroke-linejoin="round"/>
<path d="M12.8805 22.9053C12.5644 22.9053 12.3082 23.1615 12.3082 23.4775C12.3082 23.7936 12.5644 24.0498 12.8805 24.0498C13.1965 24.0498 13.4528 23.7936 13.4528 23.4775C13.4528 23.1615 13.1965 22.9053 12.8805 22.9053Z" fill="#514B81" stroke="#292D34" stroke-width="2" stroke-linecap="round" stroke-linejoin="round"/>
<path d="M34.9899 12.0322C34.9329 11.2436 34.8677 10.5194 34.7989 9.86068C34.4878 6.88524 32.2144 4.65812 29.2351 4.38676C27.0449 4.18727 24.0873 4.02051 20.3199 4.02051C16.5525 4.02051 13.595 4.18727 11.4048 4.38676C8.42549 4.65812 6.1521 6.88524 5.84101 9.86068C5.77214 10.5194 5.70694 11.2436 5.64995 12.0322M34.9899 12.0322C35.1137 13.745 35.1988 15.761 35.1988 18.067C35.1988 21.4229 35.0186 24.0664 34.8011 26.0345C34.4948 28.8075 32.3937 30.848 29.6161 31.1102C27.4445 31.3153 24.4001 31.4892 20.3199 31.4892C16.2398 31.4892 13.1954 31.3153 11.0237 31.1102C8.24622 30.848 6.14509 28.8075 5.83873 26.0345C5.62129 24.0664 5.44104 21.4229 5.44104 18.067C5.44104 15.761 5.52615 13.745 5.64995 12.0322M34.9899 12.0322C34.9899 12.0322 29.4825 10.8876 20.3199 10.8876C11.1574 10.8876 5.64995 12.0322 5.64995 12.0322" stroke="#292D34" stroke-width="2" stroke-linecap="round" stroke-linejoin="round"/>
<path d="M12.3522 1.73145C12.3522 1.73145 12.3082 2.63753 12.3082 6.88184M28.2876 1.73145C28.2876 1.73145 28.3316 2.63753 28.3316 6.88184" stroke="#292D34" stroke-width="2" stroke-linecap="round" stroke-linejoin="round"/>
</g>
<defs>
<clipPath id="clip0_103_341">
<rect width="32" height="32" fill="white" transform="translate(4.26282 0.610352)"/>
</clipPath>
</defs>
</svg>
