<svg width="96" height="43" viewBox="0 0 96 43" fill="none" xmlns="http://www.w3.org/2000/svg">
<g clip-path="url(#clip0_103_370)">
<path d="M61.0655 3.47258L63.0433 10.2536L62.4782 27.771L57.675 31.1615L46.0909 31.3453L50.6115 1.77734L61.0655 3.47258Z" fill="#514B81" fill-opacity="0.1"/>
<path d="M42.135 16.7518L39.4782 12.2352C39.3742 12.0583 39.3742 11.839 39.4782 11.6621L42.1351 7.14551" stroke="#514B81" stroke-width="2" stroke-linecap="round" stroke-linejoin="round"/>
<path d="M54.5682 16.752L57.2251 21.2687C57.3291 21.4455 57.3291 21.6649 57.2251 21.8417L54.5682 26.3584" stroke="#514B81" stroke-width="2" stroke-linecap="round" stroke-linejoin="round"/>
<path d="M46.0918 30.8788L50.6124 2.34229" stroke="#514B81" stroke-width="2" stroke-linecap="round" stroke-linejoin="round"/>
<path d="M63.0434 16.7517C63.0434 12.917 62.8494 9.93201 62.6222 7.75082C62.3264 4.91097 60.192 2.77656 57.3521 2.48074C55.1709 2.25352 52.186 2.05957 48.3513 2.05957C44.5167 2.05957 41.5317 2.25352 39.3506 2.48074C36.5107 2.77656 34.3763 4.91097 34.0805 7.75082C33.8533 9.93201 33.6593 12.917 33.6593 16.7517C33.6593 20.6992 33.8648 23.7462 34.1006 25.943C34.3944 28.6797 36.4184 30.7399 39.1558 31.0272C41.3012 31.2524 44.3123 31.4437 48.3513 31.4437C52.3903 31.4437 55.4015 31.2524 57.5469 31.0272C60.2843 30.7399 62.3083 28.6797 62.6021 25.943C62.8378 23.7462 63.0434 20.6992 63.0434 16.7517Z" stroke="#514B81" stroke-width="2" stroke-linecap="round" stroke-linejoin="round"/>
</g>
<defs>
<clipPath id="clip0_103_370">
<rect width="33" height="33" fill="white" transform="translate(31.6827 0.110352)"/>
</clipPath>
</defs>
</svg>
