<svg width="82" height="42" viewBox="0 0 82 42" fill="none" xmlns="http://www.w3.org/2000/svg">
<g clip-path="url(#clip0_103_353)">
<path d="M41.0716 1.91846C46.1165 1.91846 49.5407 2.05516 51.7436 2.19835C53.7472 2.32859 55.2695 3.89217 55.4364 5.89314C55.5979 7.82929 55.7598 10.2802 55.763 12.3536C55.7664 14.568 55.5887 17.2131 55.4219 19.2018C55.27 21.0125 53.9941 22.4887 52.1949 22.7418C50.139 23.031 46.9414 23.3348 42.4024 23.3844C41.9798 23.3891 42.0967 23.3915 41.6508 23.3915C41.6508 23.3915 39.841 25.505 37.4129 27.6296C34.6366 30.0588 32.6095 31.3026 32.6095 31.3026C32.6095 31.3026 32.8922 29.2534 32.8922 27.0645C32.8922 25.5976 32.7652 24.2653 32.6815 23.5461C32.6439 23.2235 32.369 22.9865 32.0444 22.9865C31.2694 22.908 30.5915 22.8246 30.0059 22.7423C28.2044 22.4891 26.9229 21.0108 26.7665 19.1985C26.5949 17.2102 26.4107 14.5668 26.4073 12.3536C26.404 10.279 26.5598 7.8264 26.7167 5.88972C26.8786 3.89039 28.3954 2.32879 30.3971 2.19857C32.5994 2.05529 36.0241 1.91846 41.0716 1.91846Z" fill="#24223E" fill-opacity="0.1"/>
<path d="M41.6508 23.3915C42.0967 23.3915 41.9798 23.3891 42.4024 23.3844M41.6508 23.3915L42.4024 23.3844M41.6508 23.3915C41.6508 23.3915 39.841 25.505 37.4129 27.6296C34.6366 30.0588 32.6095 31.3026 32.6095 31.3026C32.6095 31.3026 32.8922 29.2534 32.8922 27.0645C32.8922 25.5976 32.7652 24.2653 32.6815 23.5461C32.6439 23.2235 32.369 22.9865 32.0444 22.9865C31.2694 22.908 30.5915 22.8246 30.0059 22.7423C28.2044 22.4891 26.9229 21.0108 26.7665 19.1985C26.5949 17.2102 26.4107 14.5668 26.4073 12.3536C26.404 10.279 26.5598 7.8264 26.7167 5.88972C26.8786 3.89039 28.3954 2.32879 30.3971 2.19857C32.5994 2.05529 36.0241 1.91846 41.0716 1.91846C46.1165 1.91846 49.5407 2.05516 51.7436 2.19835C53.7472 2.32859 55.2695 3.89217 55.4364 5.89314C55.5979 7.82929 55.7598 10.2802 55.763 12.3536C55.7664 14.568 55.5887 17.2131 55.4219 19.2018C55.27 21.0125 53.9941 22.4887 52.1949 22.7418C50.139 23.031 46.9414 23.3348 42.4024 23.3844" stroke="#514B81" stroke-width="2" stroke-linecap="round" stroke-linejoin="round"/>
<path d="M34.3051 14.915H42.2163" stroke="#514B81" stroke-width="2" stroke-linecap="round" stroke-linejoin="round"/>
<path d="M34.3051 9.26416H47.867" stroke="#514B81" stroke-width="2" stroke-linecap="round" stroke-linejoin="round"/>
</g>
<defs>
<clipPath id="clip0_103_353">
<rect width="32" height="32" fill="white" transform="translate(24.9028 0.610352)"/>
</clipPath>
</defs>
</svg>
