<svg width="41" height="41" viewBox="0 0 41 41" fill="none" xmlns="http://www.w3.org/2000/svg">
<mask id="mask0_103_437" style="mask-type:alpha" maskUnits="userSpaceOnUse" x="0" y="0" width="41" height="41">
<g clip-path="url(#clip0_103_437)">
<path d="M20.4528 40.6094C24.3529 40.6094 27.6073 40.462 30.2421 40.2585C35.6397 39.8415 39.6849 35.7964 40.1019 30.3988C40.3054 27.7641 40.4528 24.5098 40.4528 20.6099C40.4528 16.71 40.3054 13.4558 40.1019 10.821C39.6849 5.42339 35.6397 1.3782 30.2421 0.961262C27.6073 0.757733 24.3529 0.610352 20.4528 0.610352C16.3712 0.610351 12.9968 0.771767 10.2997 0.990029C5.09777 1.41098 1.20772 5.25041 0.805932 10.4538C0.601235 13.1048 0.452759 16.4585 0.452759 20.6099C0.452759 24.7613 0.601234 28.115 0.805931 30.7659C1.20771 35.9693 5.09777 39.8088 10.2996 40.2297C12.9968 40.448 16.3712 40.6094 20.4528 40.6094Z" fill="black"/>
</g>
</mask>
<g mask="url(#mask0_103_437)">
<rect width="40" height="40" transform="translate(0.452759 0.610352)" fill="#F8F8FC"/>
<g clip-path="url(#clip1_103_437)">
<path d="M24.3737 20.6099C24.3737 18.4436 22.6176 16.6875 20.4513 16.6875C18.2851 16.6875 16.5289 18.4436 16.5289 20.6099C16.5289 22.7762 18.2851 24.5323 20.4513 24.5323C22.6176 24.5323 24.3737 22.7762 24.3737 20.6099Z" stroke="#24223E" stroke-width="2" stroke-linecap="round" stroke-linejoin="round"/>
<path d="M18.2758 29.7437C18.9725 29.9271 19.7015 30.0247 20.4522 30.0247C21.2783 30.0247 22.0783 29.9068 22.8377 29.686L23.278 30.4894C23.772 31.3909 24.7456 31.7732 25.6014 31.2527L26.6344 30.6244C27.4901 30.1039 27.6476 29.0336 27.1535 28.1321L26.7143 27.3305C27.8237 26.1847 28.6511 24.7369 29.0764 23.1134H29.9944C30.9825 23.1134 31.7836 22.2695 31.7836 21.2284V19.9718C31.7836 18.9308 30.9825 18.0869 29.9944 18.0869H29.0764C28.6511 16.4633 27.8237 15.0156 26.7143 13.8698L27.1535 13.0682C27.6476 12.1666 27.4901 11.0963 26.6343 10.5758L25.6014 9.94752C24.7456 9.42701 23.7871 9.81846 23.293 10.72L22.7513 11.4897C22.0176 11.2847 21.247 11.1755 20.4522 11.1755C19.626 11.1755 18.8261 11.2934 18.0666 11.5142L17.6114 10.72C17.1172 9.81845 16.1586 9.42701 15.3029 9.94752L14.2699 10.5758C13.4142 11.0963 13.2417 12.1758 13.7357 13.0773L14.19 13.8698C13.0806 15.0156 12.2532 16.4633 11.8279 18.0869H10.9099C9.92177 18.0869 9.12073 18.9308 9.12073 19.9718V21.2284C9.12073 22.2695 9.92177 23.1134 10.9099 23.1134H11.8279C12.2532 24.7369 13.0806 26.1847 14.19 27.3305L13.7508 28.1321C13.2567 29.0336 13.4142 30.1039 14.2699 30.6244L15.3029 31.2527C16.1587 31.7732 17.2529 31.4643 17.747 30.5627L18.2758 29.7437Z" stroke="#24223E" stroke-width="2" stroke-linecap="round" stroke-linejoin="round"/>
<path fill-rule="evenodd" clip-rule="evenodd" d="M20.4522 30.0247C19.7015 30.0247 18.9725 29.9271 18.2758 29.7437L17.747 30.5627C17.2529 31.4643 16.1587 31.7732 15.3029 31.2527L14.2699 30.6244C13.4142 30.1039 13.2567 29.0336 13.7508 28.132L14.19 27.3305C13.0806 26.1846 12.2532 24.7369 11.8279 23.1133H10.9099C9.92176 23.1133 9.12073 22.2694 9.12073 21.2284V19.9718C9.12073 18.9308 9.92176 18.0869 10.9099 18.0869H11.8279C12.2532 16.4633 13.0806 15.0156 14.19 13.8698L13.7357 13.0773C13.2417 12.1758 13.4142 11.0963 14.2699 10.5758L15.3029 9.94752C16.1586 9.42701 17.1172 9.81845 17.6114 10.72L18.0666 11.5142C18.8261 11.2934 19.626 11.1755 20.4522 11.1755C21.247 11.1755 22.0176 11.2847 22.7513 11.4897L23.293 10.72C23.7871 9.81847 24.7456 9.42701 25.6014 9.94752L26.6343 10.5758C27.4901 11.0963 27.6476 12.1666 27.1535 13.0682L26.7143 13.8698C27.8237 15.0156 28.6511 16.4633 29.0764 18.0869H29.9944C30.9825 18.0869 31.7836 18.9308 31.7836 19.9718V21.2284C31.7836 22.2694 30.9825 23.1133 29.9944 23.1133H29.0764C28.6511 24.7369 27.8237 26.1846 26.7143 27.3305L27.1535 28.132C27.6476 29.0336 27.4901 30.1039 26.6344 30.6244L25.6014 31.2527C24.7456 31.7732 23.772 31.3909 23.278 30.4893L22.8377 29.686C22.0783 29.9068 21.2783 30.0247 20.4522 30.0247ZM20.4514 16.6873C18.2851 16.6873 16.5289 18.4434 16.5289 20.6098C16.5289 22.776 18.2851 24.5322 20.4514 24.5322C22.6177 24.5322 24.3738 22.776 24.3738 20.6098C24.3738 18.4434 22.6177 16.6873 20.4514 16.6873Z" fill="#242236" fill-opacity="0.09"/>
</g>
</g>
<defs>
<clipPath id="clip0_103_437">
<rect width="40" height="40" fill="white" transform="translate(0.452759 0.610352)"/>
</clipPath>
<clipPath id="clip1_103_437">
<rect width="26" height="24" fill="white" transform="translate(7.45276 8.61035)"/>
</clipPath>
</defs>
</svg>
