<svg width="41" height="41" viewBox="0 0 41 41" fill="none" xmlns="http://www.w3.org/2000/svg">
<mask id="mask0_103_447" style="mask-type:alpha" maskUnits="userSpaceOnUse" x="0" y="0" width="41" height="41">
<g clip-path="url(#clip0_103_447)">
<path d="M20.4528 40.6094C24.3529 40.6094 27.6073 40.462 30.2421 40.2585C35.6397 39.8415 39.6849 35.7964 40.1019 30.3988C40.3054 27.7641 40.4528 24.5098 40.4528 20.6099C40.4528 16.71 40.3054 13.4558 40.1019 10.821C39.6849 5.42339 35.6397 1.3782 30.2421 0.961262C27.6073 0.757733 24.3529 0.610352 20.4528 0.610352C16.3712 0.610351 12.9968 0.771767 10.2997 0.990029C5.09777 1.41098 1.20772 5.25041 0.805932 10.4538C0.601235 13.1048 0.452759 16.4585 0.452759 20.6099C0.452759 24.7613 0.601234 28.115 0.805931 30.7659C1.20771 35.9693 5.09777 39.8088 10.2996 40.2297C12.9968 40.448 16.3712 40.6094 20.4528 40.6094Z" fill="black"/>
</g>
</mask>
<g mask="url(#mask0_103_447)">
<rect width="40" height="40" transform="translate(0.452759 0.610352)" fill="#F8F8FC"/>
<path fill-rule="evenodd" clip-rule="evenodd" d="M20.2382 31.6886C18.1214 31.6886 16.4739 31.5748 15.2345 31.43C13.276 31.2013 11.8988 29.6793 11.7204 27.7156C11.5714 26.0753 11.441 23.7269 11.441 20.5313C11.441 17.3357 11.5714 14.9873 11.7204 13.347C11.8988 11.3833 13.276 9.86126 15.2345 9.63255C16.4739 9.48782 18.1214 9.37402 20.2382 9.37402C22.3355 9.37402 24.028 9.48575 25.3349 9.62859C27.4739 9.86237 29.013 11.5349 29.1984 13.6786C29.3417 15.3366 29.4644 17.609 29.4644 20.5313C29.4644 21.5418 29.4497 22.4746 29.4246 23.3312C27.2703 25.1454 24.6558 25.1138 23.3779 24.9585C23.0394 24.9173 22.7186 25.2575 22.7731 25.5941C22.9753 26.8426 23.0608 29.3968 21.0806 31.6824C20.8074 31.6865 20.5266 31.6886 20.2382 31.6886Z" fill="#242236" fill-opacity="0.09"/>
<path d="M15.2347 31.43C16.4741 31.5748 18.1216 31.6886 20.2383 31.6886C22.3356 31.6886 24.0282 31.5768 25.3351 31.434C27.474 31.2002 29.0132 29.5277 29.1985 27.384C29.3419 25.726 29.4645 23.4536 29.4645 20.5313C29.4645 17.609 29.3419 15.3366 29.1985 13.6786C29.0132 11.5349 27.474 9.86237 25.3351 9.62859C24.0282 9.48575 22.3356 9.37402 20.2383 9.37402C18.1216 9.37402 16.4741 9.48782 15.2347 9.63255C13.2762 9.86126 11.899 11.3833 11.7206 13.347C11.5716 14.9873 11.4412 17.3357 11.4412 20.5313C11.4412 23.7269 11.5716 26.0753 11.7206 27.7156C11.899 29.6793 13.2762 31.2013 15.2347 31.43Z" stroke="#24223E" stroke-width="2" stroke-linecap="round" stroke-linejoin="round"/>
<path d="M29.2497 23.1055C26.8006 25.7692 24.9243 23.1397 23.0274 25.0366C21.1304 26.9335 23.7599 28.8099 20.8817 31.4735" stroke="#24223E" stroke-width="2" stroke-linecap="round" stroke-linejoin="round"/>
<path d="M16.1617 14.5229H24.7443" stroke="#24223E" stroke-width="2" stroke-linecap="round" stroke-linejoin="round"/>
<path d="M16.1617 18.8145H21.7404" stroke="#24223E" stroke-width="2" stroke-linecap="round" stroke-linejoin="round"/>
</g>
<defs>
<clipPath id="clip0_103_447">
<rect width="40" height="40" fill="white" transform="translate(0.452759 0.610352)"/>
</clipPath>
</defs>
</svg>
