<svg width="61" height="29" viewBox="0 0 61 29" fill="none" xmlns="http://www.w3.org/2000/svg">
<g clip-path="url(#clip0_103_598)">
<path d="M46.6715 0.679688H14.5051C6.89387 0.679688 0.723724 6.84981 0.723724 14.461C0.723724 22.0723 6.89387 28.2424 14.5051 28.2424H46.6715C54.2828 28.2424 60.4529 22.0723 60.4529 14.461C60.4529 6.84981 54.2828 0.679688 46.6715 0.679688Z" fill="#4AB9FD"/>
<path d="M46.4316 24.6842C52.1795 24.6842 56.839 20.1063 56.839 14.4593C56.839 8.81222 52.1795 4.23438 46.4316 4.23438C40.6838 4.23438 36.0242 8.81222 36.0242 14.4593C36.0242 20.1063 40.6838 24.6842 46.4316 24.6842Z" fill="white"/>
</g>
<defs>
<clipPath id="clip0_103_598">
<rect width="60" height="28" fill="white" transform="translate(0.452728 0.679688)"/>
</clipPath>
</defs>
</svg>
