<svg width="386" height="284" viewBox="0 0 386 284" fill="none" xmlns="http://www.w3.org/2000/svg">
<mask id="mask0_103_531" style="mask-type:alpha" maskUnits="userSpaceOnUse" x="0" y="0" width="386" height="284">
<g clip-path="url(#clip0_103_531)">
<path d="M-4.11951 4.34668L416.817 33.5686V328.8H-4.11951V4.34668Z" fill="black"/>
</g>
</mask>
<g mask="url(#mask0_103_531)">
<rect width="385" height="283" transform="translate(0.952759 0.799805)" fill="url(#paint0_linear_103_531)"/>
<path d="M61.2377 53.0408C60.0995 56.5638 58.1072 59.6217 52.9437 59.8239C45.2609 59.8239 42.9235 53.446 42.9235 50.0233C42.9235 41.2158 50.0176 39.0889 52.8633 39.0889C56.0946 39.0889 60.6686 40.568 60.6686 44.3741C60.6686 45.7102 59.8146 47.0066 58.4327 47.0066C57.0915 47.0066 56.0946 46.1161 56.0946 44.6781C56.0946 42.7549 57.6802 42.4913 57.6802 41.9648C57.6802 40.6286 54.5503 40.0819 53.4527 40.0819C48.6756 40.0819 47.4351 43.5442 47.4351 50.0241C47.4351 53.0003 48.1877 55.2681 48.4719 55.9564C49.2244 57.5966 50.7484 58.6293 53.3302 58.7709C56.2374 58.9334 59.0018 56.6042 60.201 53.0408H61.2377ZM67.3785 49.4369C67.3785 53.5875 67.4198 58.8323 72.4404 58.8323C77.4611 58.8323 77.5009 53.5875 77.5009 49.4362C77.5009 45.3267 77.4611 40.0819 72.4404 40.0819C67.4198 40.0819 67.3785 45.326 67.3785 49.4369ZM82.0344 49.4369C82.0344 55.4299 77.6641 59.8239 72.4607 59.8239C67.2567 59.8239 62.8668 55.4097 62.8668 49.4369C62.8668 43.4634 67.2364 39.0896 72.4404 39.0896C77.6438 39.0896 82.0344 43.4431 82.0344 49.4369ZM85.5506 40.729H82.8268V39.5951H83.8635C84.7988 39.6161 85.713 39.5756 86.6475 39.494C87.5828 39.4341 88.518 39.2918 89.433 39.0896V44.3336H89.5345C90.9163 41.2158 92.8477 39.0896 96.4655 39.0896C98.2548 39.0896 102.381 39.494 102.381 44.0296V58.022H105.063V59.1558H95.9174V58.022H98.4984V44.6579C98.4984 41.054 97.3601 40.5066 95.3686 40.5066C91.9944 40.5066 89.4134 45.1035 89.4134 48.8086V58.0017H92.0959V59.1356H82.8268V58.0017H85.5506V40.729ZM116.792 39.5959V40.7298H119.821L114.8 54.9243H114.698L109.881 40.729H112.523V39.5951H103.58V40.729H105.958L112.605 59.8232H114.312L121.162 40.729H123.541V39.5951L116.792 39.5959ZM136.893 46.4599V44.7793C136.893 41.2158 134.799 40.0819 132.32 40.0819C129.331 40.0819 127.99 42.8553 127.888 43.1998C127.583 44.2528 127.4 45.3664 127.4 46.4599H136.893ZM141.365 53.0408C140.369 57.637 136.994 59.8239 132.624 59.8239C127.563 59.8239 122.684 55.7744 122.684 50.2667C122.684 44.4355 126.567 39.0896 132.462 39.0896C137.523 39.0896 141.345 42.5115 141.406 47.8978H127.34V49.9222C127.34 54.8225 127.99 58.7709 133.397 58.7709C136.222 58.7709 139.556 56.3009 140.247 53.0408H141.365ZM145.188 40.729H142.464V39.5951H143.5C144.435 39.6161 145.35 39.5756 146.285 39.494C147.22 39.4341 148.155 39.2918 149.07 39.0896V44.3336H149.172C150.554 41.2158 152.485 39.0896 156.123 39.0896C157.912 39.0896 162.038 39.494 162.038 44.0296V58.022H164.722V59.1558H155.574V58.022H158.156V44.6579C158.156 41.054 157.018 40.5066 155.025 40.5066C151.651 40.5066 149.07 45.1035 149.07 48.8086V58.0017H151.753V59.1356H142.464V58.0017H145.188V40.729ZM179.418 46.4599V44.7793C179.418 41.2158 177.325 40.0819 174.845 40.0819C171.857 40.0819 170.515 42.8553 170.434 43.1998C170.129 44.2528 169.946 45.3664 169.946 46.4599H179.418ZM183.89 53.0408C182.894 57.637 179.52 59.8239 175.15 59.8239C170.089 59.8239 165.23 55.7744 165.23 50.2667C165.23 44.4355 169.093 39.0896 175.008 39.0896C180.069 39.0896 183.89 42.5115 183.951 47.8978H169.885V49.9222C169.885 54.8225 170.535 58.7709 175.942 58.7709C178.768 58.7709 182.101 56.3009 182.792 53.0408H183.89Z" fill="white"/>
<path d="M47.4762 106.562L46.3922 110.917H44.9567L46.3336 106.562H47.4762ZM44.5074 106.562L43.4528 110.917H41.9879L43.3551 106.562H44.5074ZM59.859 120.214C58.8239 120.761 57.5348 121.034 55.9918 121.034C53.9996 121.034 52.4046 120.393 51.2067 119.11C50.0087 117.828 49.4098 116.145 49.4098 114.062C49.4098 111.822 50.0836 110.012 51.4313 108.632C52.7789 107.252 54.4879 106.562 56.5582 106.562C57.8864 106.562 58.9866 106.754 59.859 107.138V108.886C58.8564 108.326 57.7496 108.046 56.5387 108.046C54.9306 108.046 53.6253 108.583 52.6227 109.657C51.6266 110.731 51.1285 112.167 51.1285 113.964C51.1285 115.67 51.594 117.03 52.525 118.046C53.4625 119.055 54.6897 119.56 56.2067 119.56C57.6129 119.56 58.8304 119.247 59.859 118.622V120.214ZM64.0973 120.8H62.4957V105.995H64.0973V120.8ZM68.1598 108.261C67.8733 108.261 67.6292 108.163 67.4274 107.968C67.2255 107.772 67.1246 107.525 67.1246 107.226C67.1246 106.926 67.2255 106.679 67.4274 106.483C67.6292 106.282 67.8733 106.181 68.1598 106.181C68.4528 106.181 68.7002 106.282 68.902 106.483C69.1103 106.679 69.2145 106.926 69.2145 107.226C69.2145 107.512 69.1103 107.756 68.902 107.958C68.7002 108.16 68.4528 108.261 68.1598 108.261ZM68.941 120.8H67.3395V110.8H68.941V120.8ZM78.9996 120.341C78.2314 120.803 77.3199 121.034 76.2653 121.034C74.8395 121.034 73.6871 120.572 72.8082 119.647C71.9358 118.716 71.4996 117.512 71.4996 116.034C71.4996 114.387 71.9716 113.065 72.9156 112.069C73.8597 111.067 75.1194 110.565 76.6949 110.565C77.5739 110.565 78.3486 110.728 79.0192 111.054V112.694C78.277 112.174 77.4827 111.913 76.6364 111.913C75.6142 111.913 74.7744 112.281 74.1168 113.017C73.4658 113.746 73.1403 114.706 73.1403 115.897C73.1403 117.069 73.4462 117.994 74.0582 118.671C74.6767 119.348 75.5035 119.687 76.5387 119.687C77.4111 119.687 78.2314 119.397 78.9996 118.817V120.341ZM89.7223 120.8H87.4762L83.0621 115.995H83.0231V120.8H81.4215V105.995H83.0231V115.38H83.0621L87.2614 110.8H89.361L84.7223 115.624L89.7223 120.8ZM101.822 115.136C101.822 119.068 100.048 121.034 96.4996 121.034C93.1012 121.034 91.402 119.143 91.402 115.36V106.796H93.0426V115.253C93.0426 118.124 94.2535 119.56 96.6754 119.56C99.0127 119.56 100.181 118.173 100.181 115.399V106.796H101.822V115.136ZM106.754 119.354H106.714V125.399H105.113V110.8H106.714V112.558H106.754C107.541 111.229 108.694 110.565 110.211 110.565C111.5 110.565 112.505 111.015 113.228 111.913C113.951 112.805 114.312 114.003 114.312 115.507C114.312 117.18 113.905 118.521 113.091 119.53C112.278 120.533 111.164 121.034 109.752 121.034C108.456 121.034 107.457 120.474 106.754 119.354ZM106.714 115.321V116.718C106.714 117.545 106.981 118.248 107.515 118.827C108.056 119.4 108.739 119.687 109.566 119.687C110.536 119.687 111.295 119.315 111.841 118.573C112.395 117.831 112.672 116.799 112.672 115.478C112.672 114.364 112.414 113.492 111.9 112.86C111.386 112.229 110.689 111.913 109.81 111.913C108.879 111.913 108.13 112.239 107.564 112.89C106.998 113.534 106.714 114.345 106.714 115.321ZM123.179 108.261C122.893 108.261 122.649 108.163 122.447 107.968C122.245 107.772 122.144 107.525 122.144 107.226C122.144 106.926 122.245 106.679 122.447 106.483C122.649 106.282 122.893 106.181 123.179 106.181C123.472 106.181 123.72 106.282 123.922 106.483C124.13 106.679 124.234 106.926 124.234 107.226C124.234 107.512 124.13 107.756 123.922 107.958C123.72 108.16 123.472 108.261 123.179 108.261ZM123.961 120.8H122.359V110.8H123.961V120.8ZM126.597 120.438V118.72C127.47 119.364 128.43 119.687 129.478 119.687C130.884 119.687 131.588 119.218 131.588 118.28C131.588 118.013 131.526 117.789 131.402 117.606C131.285 117.418 131.122 117.252 130.914 117.108C130.712 116.965 130.471 116.838 130.191 116.728C129.918 116.61 129.621 116.49 129.302 116.366C128.86 116.19 128.469 116.015 128.13 115.839C127.798 115.657 127.519 115.455 127.291 115.233C127.069 115.006 126.9 114.748 126.783 114.462C126.672 114.175 126.617 113.84 126.617 113.456C126.617 112.987 126.724 112.574 126.939 112.216C127.154 111.851 127.44 111.549 127.798 111.308C128.157 111.06 128.563 110.875 129.019 110.751C129.481 110.627 129.957 110.565 130.445 110.565C131.311 110.565 132.086 110.715 132.769 111.015V112.636C132.033 112.154 131.187 111.913 130.23 111.913C129.931 111.913 129.66 111.949 129.42 112.021C129.179 112.086 128.97 112.18 128.795 112.304C128.625 112.427 128.492 112.577 128.394 112.753C128.303 112.922 128.257 113.111 128.257 113.319C128.257 113.58 128.303 113.798 128.394 113.974C128.492 114.149 128.632 114.306 128.814 114.442C128.996 114.579 129.218 114.703 129.478 114.813C129.739 114.924 130.035 115.045 130.367 115.175C130.81 115.344 131.207 115.52 131.558 115.702C131.91 115.878 132.209 116.08 132.457 116.308C132.704 116.529 132.893 116.786 133.023 117.079C133.16 117.372 133.228 117.72 133.228 118.124C133.228 118.619 133.117 119.049 132.896 119.413C132.681 119.778 132.392 120.08 132.027 120.321C131.662 120.562 131.242 120.741 130.767 120.858C130.292 120.976 129.794 121.034 129.273 121.034C128.244 121.034 127.352 120.836 126.597 120.438ZM149.488 120.8H147.886V115.038C147.886 112.955 147.112 111.913 145.562 111.913C144.781 111.913 144.123 112.216 143.589 112.821C143.056 113.42 142.789 114.192 142.789 115.136V120.8H141.187V105.995H142.789V112.46H142.828C143.596 111.197 144.69 110.565 146.109 110.565C148.362 110.565 149.488 111.923 149.488 114.638V120.8ZM156.695 121.034C155.217 121.034 154.035 120.569 153.15 119.638C152.271 118.7 151.832 117.46 151.832 115.917C151.832 114.237 152.291 112.925 153.209 111.981C154.127 111.037 155.367 110.565 156.929 110.565C158.42 110.565 159.582 111.024 160.416 111.942C161.255 112.86 161.675 114.133 161.675 115.761C161.675 117.356 161.223 118.635 160.318 119.599C159.42 120.556 158.212 121.034 156.695 121.034ZM156.812 111.913C155.783 111.913 154.97 112.265 154.371 112.968C153.772 113.664 153.472 114.628 153.472 115.858C153.472 117.043 153.775 117.978 154.38 118.661C154.986 119.345 155.797 119.687 156.812 119.687C157.847 119.687 158.642 119.351 159.195 118.681C159.755 118.01 160.035 117.056 160.035 115.819C160.035 114.569 159.755 113.606 159.195 112.929C158.642 112.252 157.847 111.913 156.812 111.913ZM176.832 110.8L173.834 120.8H172.173L170.113 113.642C170.035 113.368 169.983 113.059 169.957 112.714H169.918C169.898 112.948 169.83 113.251 169.713 113.622L167.476 120.8H165.875L162.847 110.8H164.527L166.597 118.319C166.662 118.547 166.708 118.847 166.734 119.218H166.812C166.832 118.931 166.89 118.625 166.988 118.3L169.293 110.8H170.757L172.828 118.339C172.893 118.58 172.942 118.879 172.974 119.237H173.052C173.065 118.983 173.121 118.684 173.218 118.339L175.25 110.8H176.832ZM188.355 121.034C186.877 121.034 185.696 120.569 184.81 119.638C183.931 118.7 183.492 117.46 183.492 115.917C183.492 114.237 183.951 112.925 184.869 111.981C185.787 111.037 187.027 110.565 188.589 110.565C190.08 110.565 191.242 111.024 192.076 111.942C192.916 112.86 193.336 114.133 193.336 115.761C193.336 117.356 192.883 118.635 191.978 119.599C191.08 120.556 189.872 121.034 188.355 121.034ZM188.472 111.913C187.444 111.913 186.63 112.265 186.031 112.968C185.432 113.664 185.132 114.628 185.132 115.858C185.132 117.043 185.435 117.978 186.041 118.661C186.646 119.345 187.457 119.687 188.472 119.687C189.507 119.687 190.302 119.351 190.855 118.681C191.415 118.01 191.695 117.056 191.695 115.819C191.695 114.569 191.415 113.606 190.855 112.929C190.302 112.252 189.507 111.913 188.472 111.913ZM203.98 120.8H202.379V119.218H202.339C201.675 120.429 200.647 121.034 199.254 121.034C196.871 121.034 195.679 119.615 195.679 116.776V110.8H197.271V116.522C197.271 118.632 198.078 119.687 199.693 119.687C200.474 119.687 201.116 119.4 201.617 118.827C202.125 118.248 202.379 117.493 202.379 116.562V110.8H203.98V120.8ZM212.437 112.421C212.157 112.206 211.754 112.099 211.226 112.099C210.543 112.099 209.97 112.421 209.507 113.065C209.052 113.71 208.824 114.589 208.824 115.702V120.8H207.222V110.8H208.824V112.86H208.863C209.091 112.157 209.439 111.61 209.908 111.22C210.377 110.823 210.901 110.624 211.48 110.624C211.897 110.624 212.216 110.67 212.437 110.761V112.421ZM224.302 120.702C223.925 120.91 223.427 121.015 222.808 121.015C221.057 121.015 220.181 120.038 220.181 118.085V112.167H218.463V110.8H220.181V108.358L221.783 107.841V110.8H224.302V112.167H221.783V117.802C221.783 118.472 221.897 118.951 222.125 119.237C222.352 119.524 222.73 119.667 223.257 119.667C223.661 119.667 224.009 119.556 224.302 119.335V120.702ZM234.478 116.2H227.418C227.444 117.313 227.743 118.173 228.316 118.778C228.889 119.384 229.677 119.687 230.679 119.687C231.806 119.687 232.841 119.315 233.785 118.573V120.077C232.906 120.715 231.744 121.034 230.298 121.034C228.886 121.034 227.776 120.582 226.968 119.677C226.161 118.765 225.757 117.486 225.757 115.839C225.757 114.283 226.197 113.017 227.076 112.04C227.961 111.057 229.058 110.565 230.367 110.565C231.675 110.565 232.688 110.989 233.404 111.835C234.12 112.681 234.478 113.856 234.478 115.36V116.2ZM232.838 114.843C232.831 113.918 232.606 113.199 232.164 112.685C231.727 112.17 231.119 111.913 230.338 111.913C229.582 111.913 228.941 112.183 228.414 112.724C227.886 113.264 227.561 113.97 227.437 114.843H232.838ZM244.068 120.8H242.466V119.237H242.427C241.731 120.435 240.705 121.034 239.351 121.034C238.355 121.034 237.574 120.771 237.007 120.243C236.448 119.716 236.168 119.016 236.168 118.144C236.168 116.275 237.268 115.188 239.468 114.882L242.466 114.462C242.466 112.763 241.78 111.913 240.406 111.913C239.201 111.913 238.114 112.323 237.144 113.144V111.503C238.127 110.878 239.26 110.565 240.543 110.565C242.893 110.565 244.068 111.809 244.068 114.296V120.8ZM242.466 115.741L240.054 116.073C239.312 116.177 238.752 116.363 238.375 116.63C237.997 116.89 237.808 117.356 237.808 118.026C237.808 118.515 237.981 118.915 238.326 119.228C238.677 119.534 239.143 119.687 239.722 119.687C240.517 119.687 241.171 119.41 241.685 118.856C242.206 118.297 242.466 117.59 242.466 116.737V115.741ZM261.285 120.8H259.683V115.058C259.683 113.951 259.511 113.15 259.166 112.655C258.827 112.16 258.254 111.913 257.447 111.913C256.763 111.913 256.181 112.226 255.699 112.851C255.224 113.476 254.986 114.224 254.986 115.097V120.8H253.384V114.862C253.384 112.896 252.626 111.913 251.109 111.913C250.406 111.913 249.826 112.209 249.371 112.802C248.915 113.388 248.687 114.153 248.687 115.097V120.8H247.086V110.8H248.687V112.382H248.726C249.436 111.171 250.471 110.565 251.832 110.565C252.515 110.565 253.111 110.757 253.619 111.142C254.127 111.519 254.475 112.017 254.664 112.636C255.406 111.256 256.513 110.565 257.984 110.565C260.185 110.565 261.285 111.923 261.285 114.638V120.8ZM263.707 120.438V118.72C264.579 119.364 265.539 119.687 266.588 119.687C267.994 119.687 268.697 119.218 268.697 118.28C268.697 118.013 268.635 117.789 268.511 117.606C268.394 117.418 268.231 117.252 268.023 117.108C267.821 116.965 267.58 116.838 267.3 116.728C267.027 116.61 266.731 116.49 266.412 116.366C265.969 116.19 265.578 116.015 265.24 115.839C264.908 115.657 264.628 115.455 264.4 115.233C264.179 115.006 264.009 114.748 263.892 114.462C263.782 114.175 263.726 113.84 263.726 113.456C263.726 112.987 263.834 112.574 264.048 112.216C264.263 111.851 264.55 111.549 264.908 111.308C265.266 111.06 265.673 110.875 266.129 110.751C266.591 110.627 267.066 110.565 267.554 110.565C268.42 110.565 269.195 110.715 269.879 111.015V112.636C269.143 112.154 268.297 111.913 267.339 111.913C267.04 111.913 266.77 111.949 266.529 112.021C266.288 112.086 266.08 112.18 265.904 112.304C265.735 112.427 265.601 112.577 265.504 112.753C265.412 112.922 265.367 113.111 265.367 113.319C265.367 113.58 265.412 113.798 265.504 113.974C265.601 114.149 265.741 114.306 265.923 114.442C266.106 114.579 266.327 114.703 266.588 114.813C266.848 114.924 267.144 115.045 267.476 115.175C267.919 115.344 268.316 115.52 268.668 115.702C269.019 115.878 269.319 116.08 269.566 116.308C269.813 116.529 270.002 116.786 270.132 117.079C270.269 117.372 270.338 117.72 270.338 118.124C270.338 118.619 270.227 119.049 270.005 119.413C269.791 119.778 269.501 120.08 269.136 120.321C268.772 120.562 268.352 120.741 267.877 120.858C267.401 120.976 266.903 121.034 266.382 121.034C265.354 121.034 264.462 120.836 263.707 120.438ZM49.8297 147.438C49.1331 147.842 48.1272 148.044 46.8121 148.044C45.2757 148.044 44.0322 147.578 43.0817 146.647C42.1311 145.716 41.6559 144.515 41.6559 143.044C41.6559 141.345 42.1637 140.007 43.1793 139.03C44.2015 138.047 45.5654 137.556 47.2711 137.556C48.4495 137.556 49.3024 137.712 49.8297 138.024V140.642C49.1852 140.16 48.4658 139.919 47.6715 139.919C46.7861 139.919 46.083 140.179 45.5621 140.7C45.0478 141.215 44.7906 141.927 44.7906 142.839C44.7906 143.724 45.038 144.421 45.5328 144.929C46.0276 145.43 46.708 145.681 47.5739 145.681C48.3421 145.681 49.094 145.44 49.8297 144.958V147.438ZM60.8453 143.679H54.3219C54.4261 145.131 55.3408 145.856 57.066 145.856C58.1663 145.856 59.1331 145.596 59.9664 145.075V147.302C59.042 147.797 57.8408 148.044 56.3629 148.044C54.7483 148.044 53.4951 147.598 52.6031 146.706C51.7112 145.808 51.2653 144.558 51.2653 142.956C51.2653 141.296 51.747 139.981 52.7106 139.011C53.6741 138.041 54.859 137.556 56.2653 137.556C57.7236 137.556 58.8499 137.989 59.6442 138.854C60.4449 139.72 60.8453 140.896 60.8453 142.38V143.679ZM57.984 141.784C57.984 140.352 57.4046 139.636 56.2457 139.636C55.7509 139.636 55.3212 139.841 54.9567 140.251C54.5986 140.661 54.3805 141.172 54.3024 141.784H57.984ZM72.3395 147.8H69.2633V142.243C69.2633 140.694 68.7099 139.919 67.6031 139.919C67.0693 139.919 66.6298 140.124 66.2848 140.534C65.9397 140.944 65.7672 141.465 65.7672 142.097V147.8H62.6813V137.8H65.7672V139.382H65.8063C66.542 138.164 67.6129 137.556 69.0192 137.556C71.2327 137.556 72.3395 138.929 72.3395 141.677V147.8ZM80.8356 147.683C80.3798 147.924 79.693 148.044 78.775 148.044C76.6005 148.044 75.5133 146.914 75.5133 144.655V140.075H73.8922V137.8H75.5133V135.642L78.5895 134.763V137.8H80.8356V140.075H78.5895V144.118C78.5895 145.16 79.0029 145.681 79.8297 145.681C80.1552 145.681 80.4905 145.586 80.8356 145.397V147.683ZM89.1071 140.583C88.736 140.381 88.303 140.28 87.8082 140.28C87.1377 140.28 86.6136 140.528 86.236 141.022C85.8584 141.511 85.6696 142.178 85.6696 143.024V147.8H82.5836V137.8H85.6696V139.655H85.7086C86.1969 138.301 87.0758 137.624 88.3453 137.624C88.6709 137.624 88.9248 137.663 89.1071 137.741V140.583ZM98.8727 147.8H95.9528V146.364H95.9137C95.2431 147.484 94.2503 148.044 92.9352 148.044C91.9651 148.044 91.2002 147.771 90.6403 147.224C90.0869 146.67 89.8102 145.935 89.8102 145.017C89.8102 143.076 90.9593 141.957 93.2574 141.657L95.9723 141.296C95.9723 140.202 95.3798 139.655 94.1949 139.655C93.0035 139.655 91.8707 140.01 90.7965 140.72V138.396C91.2262 138.174 91.8121 137.979 92.5543 137.81C93.303 137.64 93.9834 137.556 94.5953 137.556C97.4469 137.556 98.8727 138.978 98.8727 141.823V147.8ZM95.9723 143.737V143.063L94.1559 143.298C93.1533 143.428 92.652 143.881 92.652 144.655C92.652 145.007 92.7724 145.297 93.0133 145.524C93.2607 145.746 93.5927 145.856 94.0094 145.856C94.5888 145.856 95.0608 145.658 95.4254 145.261C95.79 144.857 95.9723 144.349 95.9723 143.737ZM104.4 147.8H101.314V132.995H104.4V147.8ZM108.56 136.218C108.039 136.218 107.613 136.065 107.281 135.759C106.949 135.446 106.783 135.065 106.783 134.616C106.783 134.154 106.949 133.776 107.281 133.483C107.613 133.19 108.039 133.044 108.56 133.044C109.088 133.044 109.514 133.19 109.839 133.483C110.172 133.776 110.338 134.154 110.338 134.616C110.338 135.085 110.172 135.469 109.839 135.769C109.514 136.068 109.088 136.218 108.56 136.218ZM110.084 147.8H106.998V137.8H110.084V147.8ZM120.601 147.8H111.627V146.521L116.646 140.075H112.125V137.8H120.562V139.323L115.806 145.524H120.601V147.8ZM131.255 143.679H124.732C124.836 145.131 125.751 145.856 127.476 145.856C128.576 145.856 129.543 145.596 130.377 145.075V147.302C129.452 147.797 128.251 148.044 126.773 148.044C125.158 148.044 123.905 147.598 123.013 146.706C122.121 145.808 121.675 144.558 121.675 142.956C121.675 141.296 122.157 139.981 123.121 139.011C124.084 138.041 125.269 137.556 126.675 137.556C128.134 137.556 129.26 137.989 130.054 138.854C130.855 139.72 131.255 140.896 131.255 142.38V143.679ZM128.394 141.784C128.394 140.352 127.815 139.636 126.656 139.636C126.161 139.636 125.731 139.841 125.367 140.251C125.009 140.661 124.791 141.172 124.713 141.784H128.394ZM153.101 137.8L150.22 147.8H146.978L145.504 141.94C145.406 141.55 145.351 141.123 145.338 140.661H145.279C145.233 141.169 145.168 141.582 145.084 141.901L143.502 147.8H140.298L137.476 137.8H140.621L141.998 144.323C142.063 144.629 142.112 145 142.144 145.437H142.203C142.235 144.981 142.294 144.597 142.379 144.284L144.097 137.8H147.037L148.58 144.323C148.619 144.486 148.664 144.864 148.716 145.456H148.785C148.817 145.078 148.869 144.701 148.941 144.323L150.24 137.8H153.101ZM159.244 148.044C157.577 148.044 156.265 147.578 155.308 146.647C154.358 145.71 153.882 144.44 153.882 142.839C153.882 141.185 154.377 139.893 155.367 138.962C156.356 138.024 157.694 137.556 159.38 137.556C161.041 137.556 162.343 138.024 163.287 138.962C164.231 139.893 164.703 141.127 164.703 142.663C164.703 144.323 164.214 145.635 163.238 146.599C162.268 147.562 160.936 148.044 159.244 148.044ZM159.322 139.919C158.593 139.919 158.026 140.17 157.623 140.671C157.219 141.172 157.017 141.882 157.017 142.8C157.017 144.72 157.792 145.681 159.341 145.681C160.819 145.681 161.558 144.694 161.558 142.722C161.558 140.853 160.813 139.919 159.322 139.919ZM173.228 140.583C172.857 140.381 172.424 140.28 171.929 140.28C171.259 140.28 170.735 140.528 170.357 141.022C169.979 141.511 169.791 142.178 169.791 143.024V147.8H166.705V137.8H169.791V139.655H169.83C170.318 138.301 171.197 137.624 172.466 137.624C172.792 137.624 173.046 137.663 173.228 137.741V140.583ZM184.693 147.8H180.992L177.798 142.839H177.759V147.8H174.673V132.995H177.759V142.419H177.798L180.777 137.8H184.439L180.855 142.497L184.693 147.8ZM187.652 145.573L186.089 150.378H184.947L186.089 145.573H187.652ZM195.406 147.438V145.72C196.278 146.364 197.239 146.687 198.287 146.687C199.693 146.687 200.396 146.218 200.396 145.28C200.396 145.013 200.334 144.789 200.211 144.606C200.093 144.418 199.931 144.252 199.722 144.108C199.52 143.965 199.28 143.838 199 143.728C198.726 143.61 198.43 143.49 198.111 143.366C197.668 143.19 197.278 143.015 196.939 142.839C196.607 142.657 196.327 142.455 196.099 142.233C195.878 142.006 195.709 141.748 195.591 141.462C195.481 141.175 195.425 140.84 195.425 140.456C195.425 139.987 195.533 139.574 195.748 139.216C195.963 138.851 196.249 138.549 196.607 138.308C196.965 138.06 197.372 137.875 197.828 137.751C198.29 137.627 198.765 137.565 199.254 137.565C200.119 137.565 200.894 137.715 201.578 138.015V139.636C200.842 139.154 199.996 138.913 199.039 138.913C198.739 138.913 198.469 138.949 198.228 139.021C197.987 139.086 197.779 139.18 197.603 139.304C197.434 139.427 197.3 139.577 197.203 139.753C197.112 139.922 197.066 140.111 197.066 140.319C197.066 140.58 197.112 140.798 197.203 140.974C197.3 141.149 197.44 141.306 197.623 141.442C197.805 141.579 198.026 141.703 198.287 141.813C198.547 141.924 198.843 142.045 199.175 142.175C199.618 142.344 200.015 142.52 200.367 142.702C200.718 142.878 201.018 143.08 201.265 143.308C201.513 143.529 201.701 143.786 201.832 144.079C201.968 144.372 202.037 144.72 202.037 145.124C202.037 145.619 201.926 146.049 201.705 146.413C201.49 146.778 201.2 147.08 200.836 147.321C200.471 147.562 200.051 147.741 199.576 147.858C199.101 147.976 198.602 148.034 198.082 148.034C197.053 148.034 196.161 147.836 195.406 147.438ZM209.146 147.702C208.769 147.91 208.27 148.015 207.652 148.015C205.901 148.015 205.025 147.038 205.025 145.085V139.167H203.306V137.8H205.025V135.358L206.627 134.841V137.8H209.146V139.167H206.627V144.802C206.627 145.472 206.741 145.951 206.968 146.237C207.196 146.524 207.574 146.667 208.101 146.667C208.505 146.667 208.853 146.556 209.146 146.335V147.702ZM218.443 147.8H216.841V146.237H216.802C216.106 147.435 215.08 148.034 213.726 148.034C212.73 148.034 211.949 147.771 211.382 147.243C210.823 146.716 210.543 146.016 210.543 145.144C210.543 143.275 211.643 142.188 213.843 141.882L216.841 141.462C216.841 139.763 216.155 138.913 214.781 138.913C213.576 138.913 212.489 139.323 211.519 140.144V138.503C212.502 137.878 213.635 137.565 214.918 137.565C217.268 137.565 218.443 138.809 218.443 141.296V147.8ZM216.841 142.741L214.429 143.073C213.687 143.177 213.127 143.363 212.75 143.63C212.372 143.89 212.183 144.356 212.183 145.026C212.183 145.515 212.356 145.915 212.701 146.228C213.052 146.534 213.518 146.687 214.097 146.687C214.892 146.687 215.546 146.41 216.06 145.856C216.581 145.297 216.841 144.59 216.841 143.737V142.741ZM229.42 137.8L224.82 149.401C224 151.472 222.847 152.507 221.363 152.507C220.946 152.507 220.598 152.465 220.318 152.38V150.944C220.663 151.062 220.979 151.12 221.265 151.12C222.073 151.12 222.678 150.638 223.082 149.675L223.882 147.78L219.976 137.8H221.754L224.459 145.495C224.491 145.593 224.56 145.847 224.664 146.257H224.722C224.755 146.101 224.82 145.853 224.918 145.515L227.759 137.8H229.42ZM240.816 148.034C239.338 148.034 238.157 147.569 237.271 146.638C236.392 145.7 235.953 144.46 235.953 142.917C235.953 141.237 236.412 139.925 237.33 138.981C238.248 138.037 239.488 137.565 241.05 137.565C242.541 137.565 243.703 138.024 244.537 138.942C245.377 139.86 245.797 141.133 245.797 142.761C245.797 144.356 245.344 145.635 244.439 146.599C243.541 147.556 242.333 148.034 240.816 148.034ZM240.933 138.913C239.905 138.913 239.091 139.265 238.492 139.968C237.893 140.664 237.593 141.628 237.593 142.858C237.593 144.043 237.896 144.978 238.502 145.661C239.107 146.345 239.918 146.687 240.933 146.687C241.968 146.687 242.763 146.351 243.316 145.681C243.876 145.01 244.156 144.056 244.156 142.819C244.156 141.569 243.876 140.606 243.316 139.929C242.763 139.252 241.968 138.913 240.933 138.913ZM256.656 147.8H255.054V142.097C255.054 139.974 254.28 138.913 252.73 138.913C251.929 138.913 251.265 139.216 250.738 139.821C250.217 140.42 249.957 141.179 249.957 142.097V147.8H248.355V137.8H249.957V139.46H249.996C250.751 138.197 251.845 137.565 253.277 137.565C254.371 137.565 255.207 137.92 255.787 138.63C256.366 139.333 256.656 140.352 256.656 141.687V147.8ZM269.81 147.702C269.433 147.91 268.935 148.015 268.316 148.015C266.565 148.015 265.689 147.038 265.689 145.085V139.167H263.97V137.8H265.689V135.358L267.291 134.841V137.8H269.81V139.167H267.291V144.802C267.291 145.472 267.405 145.951 267.632 146.237C267.86 146.524 268.238 146.667 268.765 146.667C269.169 146.667 269.517 146.556 269.81 146.335V147.702ZM277.164 139.421C276.884 139.206 276.48 139.099 275.953 139.099C275.269 139.099 274.696 139.421 274.234 140.065C273.778 140.71 273.55 141.589 273.55 142.702V147.8H271.949V137.8H273.55V139.86H273.589C273.817 139.157 274.166 138.61 274.634 138.22C275.103 137.823 275.627 137.624 276.207 137.624C276.623 137.624 276.942 137.67 277.164 137.761V139.421ZM286.06 147.8H284.459V146.237H284.42C283.723 147.435 282.698 148.034 281.343 148.034C280.347 148.034 279.566 147.771 279 147.243C278.44 146.716 278.16 146.016 278.16 145.144C278.16 143.275 279.26 142.188 281.461 141.882L284.459 141.462C284.459 139.763 283.772 138.913 282.398 138.913C281.194 138.913 280.106 139.323 279.136 140.144V138.503C280.119 137.878 281.252 137.565 282.535 137.565C284.885 137.565 286.06 138.809 286.06 141.296V147.8ZM284.459 142.741L282.047 143.073C281.304 143.177 280.744 143.363 280.367 143.63C279.989 143.89 279.8 144.356 279.8 145.026C279.8 145.515 279.973 145.915 280.318 146.228C280.67 146.534 281.135 146.687 281.714 146.687C282.509 146.687 283.163 146.41 283.677 145.856C284.198 145.297 284.459 144.59 284.459 143.737V142.741ZM295.894 147.341C295.126 147.803 294.214 148.034 293.16 148.034C291.734 148.034 290.582 147.572 289.703 146.647C288.83 145.716 288.394 144.512 288.394 143.034C288.394 141.387 288.866 140.065 289.81 139.069C290.754 138.067 292.014 137.565 293.589 137.565C294.468 137.565 295.243 137.728 295.914 138.054V139.694C295.172 139.174 294.377 138.913 293.531 138.913C292.509 138.913 291.669 139.281 291.011 140.017C290.36 140.746 290.035 141.706 290.035 142.897C290.035 144.069 290.341 144.994 290.953 145.671C291.571 146.348 292.398 146.687 293.433 146.687C294.306 146.687 295.126 146.397 295.894 145.817V147.341ZM306.617 147.8H304.371L299.957 142.995H299.918V147.8H298.316V132.995H299.918V142.38H299.957L304.156 137.8H306.255L301.617 142.624L306.617 147.8ZM309.722 145.573L308.16 150.378H307.017L308.16 145.573H309.722ZM49.7321 174.8H48.1305V173.237H48.0914C47.3948 174.435 46.3694 175.034 45.0153 175.034C44.0192 175.034 43.2379 174.771 42.6715 174.243C42.1116 173.716 41.8317 173.016 41.8317 172.144C41.8317 170.275 42.9319 169.188 45.1324 168.882L48.1305 168.462C48.1305 166.763 47.4436 165.913 46.0699 165.913C44.8655 165.913 43.7783 166.323 42.8082 167.144V165.503C43.7913 164.878 44.9241 164.565 46.2067 164.565C48.5569 164.565 49.7321 165.809 49.7321 168.296V174.8ZM48.1305 169.741L45.7184 170.073C44.9762 170.177 44.4163 170.363 44.0387 170.63C43.6611 170.89 43.4723 171.356 43.4723 172.026C43.4723 172.515 43.6448 172.915 43.9899 173.228C44.3414 173.534 44.8069 173.687 45.3864 173.687C46.1806 173.687 46.8349 173.41 47.3492 172.856C47.8701 172.297 48.1305 171.59 48.1305 170.737V169.741ZM61.0504 174.8H59.4489V169.097C59.4489 166.974 58.6741 165.913 57.1246 165.913C56.3239 165.913 55.6598 166.216 55.1324 166.821C54.6116 167.42 54.3512 168.179 54.3512 169.097V174.8H52.7496V164.8H54.3512V166.46H54.3903C55.1455 165.197 56.2392 164.565 57.6715 164.565C58.7653 164.565 59.6018 164.92 60.1813 165.63C60.7607 166.333 61.0504 167.352 61.0504 168.687V174.8ZM72.6129 174.8H71.0114V173.101H70.9723C70.2301 174.39 69.0843 175.034 67.5348 175.034C66.2783 175.034 65.2724 174.588 64.5172 173.696C63.7685 172.798 63.3942 171.577 63.3942 170.034C63.3942 168.381 63.8108 167.056 64.6442 166.06C65.4775 165.063 66.5875 164.565 67.9742 164.565C69.3479 164.565 70.3473 165.106 70.9723 166.187H71.0114V159.995H72.6129V174.8ZM71.0114 170.278V168.804C71.0114 167.996 70.7444 167.313 70.2106 166.753C69.6767 166.193 68.9996 165.913 68.1793 165.913C67.2028 165.913 66.4345 166.271 65.8746 166.987C65.3147 167.703 65.0348 168.693 65.0348 169.956C65.0348 171.108 65.3017 172.02 65.8356 172.69C66.3759 173.354 67.0986 173.687 68.0035 173.687C68.8955 173.687 69.6181 173.364 70.1715 172.72C70.7314 172.075 71.0114 171.261 71.0114 170.278ZM89.3805 170.2H82.3199C82.346 171.313 82.6455 172.173 83.2184 172.778C83.7913 173.384 84.5791 173.687 85.5817 173.687C86.708 173.687 87.7431 173.315 88.6871 172.573V174.077C87.8082 174.715 86.6461 175.034 85.2008 175.034C83.788 175.034 82.678 174.582 81.8707 173.677C81.0634 172.765 80.6598 171.486 80.6598 169.839C80.6598 168.283 81.0992 167.017 81.9781 166.04C82.8636 165.057 83.9606 164.565 85.2692 164.565C86.5778 164.565 87.5901 164.989 88.3063 165.835C89.0224 166.681 89.3805 167.856 89.3805 169.36V170.2ZM87.7399 168.843C87.7334 167.918 87.5087 167.199 87.066 166.685C86.6298 166.17 86.0211 165.913 85.2399 165.913C84.4847 165.913 83.8434 166.183 83.316 166.724C82.7887 167.264 82.4632 167.97 82.3395 168.843H87.7399ZM98.9703 174.8H97.3688V173.237H97.3297C96.6331 174.435 95.6077 175.034 94.2535 175.034C93.2574 175.034 92.4762 174.771 91.9098 174.243C91.3499 173.716 91.0699 173.016 91.0699 172.144C91.0699 170.275 92.1702 169.188 94.3707 168.882L97.3688 168.462C97.3688 166.763 96.6819 165.913 95.3082 165.913C94.1038 165.913 93.0166 166.323 92.0465 167.144V165.503C93.0296 164.878 94.1624 164.565 95.4449 164.565C97.7952 164.565 98.9703 165.809 98.9703 168.296V174.8ZM97.3688 169.741L94.9567 170.073C94.2145 170.177 93.6546 170.363 93.277 170.63C92.8994 170.89 92.7106 171.356 92.7106 172.026C92.7106 172.515 92.8831 172.915 93.2281 173.228C93.5797 173.534 94.0452 173.687 94.6246 173.687C95.4189 173.687 96.0732 173.41 96.5875 172.856C97.1084 172.297 97.3688 171.59 97.3688 170.737V169.741ZM101.382 174.438V172.72C102.255 173.364 103.215 173.687 104.263 173.687C105.67 173.687 106.373 173.218 106.373 172.28C106.373 172.013 106.311 171.789 106.187 171.606C106.07 171.418 105.907 171.252 105.699 171.108C105.497 170.965 105.256 170.838 104.976 170.728C104.703 170.61 104.407 170.49 104.088 170.366C103.645 170.19 103.254 170.015 102.916 169.839C102.584 169.657 102.304 169.455 102.076 169.233C101.854 169.006 101.685 168.748 101.568 168.462C101.457 168.175 101.402 167.84 101.402 167.456C101.402 166.987 101.509 166.574 101.724 166.216C101.939 165.851 102.226 165.549 102.584 165.308C102.942 165.06 103.349 164.875 103.804 164.751C104.267 164.627 104.742 164.565 105.23 164.565C106.096 164.565 106.871 164.715 107.554 165.015V166.636C106.819 166.154 105.972 165.913 105.015 165.913C104.716 165.913 104.446 165.949 104.205 166.021C103.964 166.086 103.755 166.18 103.58 166.304C103.41 166.427 103.277 166.577 103.179 166.753C103.088 166.922 103.043 167.111 103.043 167.319C103.043 167.58 103.088 167.798 103.179 167.974C103.277 168.149 103.417 168.306 103.599 168.442C103.782 168.579 104.003 168.703 104.263 168.813C104.524 168.924 104.82 169.045 105.152 169.175C105.595 169.344 105.992 169.52 106.343 169.702C106.695 169.878 106.994 170.08 107.242 170.308C107.489 170.529 107.678 170.786 107.808 171.079C107.945 171.372 108.013 171.72 108.013 172.124C108.013 172.619 107.903 173.049 107.681 173.413C107.466 173.778 107.177 174.08 106.812 174.321C106.448 174.562 106.028 174.741 105.552 174.858C105.077 174.976 104.579 175.034 104.058 175.034C103.03 175.034 102.138 174.836 101.382 174.438ZM111.304 162.261C111.018 162.261 110.774 162.163 110.572 161.968C110.37 161.772 110.269 161.525 110.269 161.226C110.269 160.926 110.37 160.679 110.572 160.483C110.774 160.282 111.018 160.181 111.304 160.181C111.597 160.181 111.845 160.282 112.047 160.483C112.255 160.679 112.359 160.926 112.359 161.226C112.359 161.512 112.255 161.756 112.047 161.958C111.845 162.16 111.597 162.261 111.304 162.261ZM112.086 174.8H110.484V164.8H112.086V174.8ZM116.929 174.8H115.328V159.995H116.929V174.8ZM128.13 164.8L123.531 176.401C122.711 178.472 121.558 179.507 120.074 179.507C119.657 179.507 119.309 179.465 119.029 179.38V177.944C119.374 178.062 119.69 178.12 119.976 178.12C120.783 178.12 121.389 177.638 121.793 176.675L122.593 174.78L118.687 164.8H120.464L123.17 172.495C123.202 172.593 123.27 172.847 123.375 173.257H123.433C123.466 173.101 123.531 172.853 123.629 172.515L126.47 164.8H128.13ZM142.164 174.341C141.395 174.803 140.484 175.034 139.429 175.034C138.004 175.034 136.851 174.572 135.972 173.647C135.1 172.716 134.664 171.512 134.664 170.034C134.664 168.387 135.136 167.065 136.08 166.069C137.024 165.067 138.283 164.565 139.859 164.565C140.738 164.565 141.513 164.728 142.183 165.054V166.694C141.441 166.174 140.647 165.913 139.8 165.913C138.778 165.913 137.938 166.281 137.281 167.017C136.63 167.746 136.304 168.706 136.304 169.897C136.304 171.069 136.61 171.994 137.222 172.671C137.841 173.348 138.668 173.687 139.703 173.687C140.575 173.687 141.395 173.397 142.164 172.817V174.341ZM148.765 175.034C147.287 175.034 146.106 174.569 145.22 173.638C144.341 172.7 143.902 171.46 143.902 169.917C143.902 168.237 144.361 166.925 145.279 165.981C146.197 165.037 147.437 164.565 149 164.565C150.491 164.565 151.653 165.024 152.486 165.942C153.326 166.86 153.746 168.133 153.746 169.761C153.746 171.356 153.293 172.635 152.388 173.599C151.49 174.556 150.282 175.034 148.765 175.034ZM148.882 165.913C147.854 165.913 147.04 166.265 146.441 166.968C145.842 167.664 145.543 168.628 145.543 169.858C145.543 171.043 145.845 171.978 146.451 172.661C147.056 173.345 147.867 173.687 148.882 173.687C149.918 173.687 150.712 173.351 151.265 172.681C151.825 172.01 152.105 171.056 152.105 169.819C152.105 168.569 151.825 167.606 151.265 166.929C150.712 166.252 149.918 165.913 148.882 165.913ZM157.906 174.8H156.304V159.995H157.906V174.8ZM162.75 174.8H161.148V159.995H162.75V174.8ZM173.15 174.8H171.548V173.237H171.509C170.813 174.435 169.787 175.034 168.433 175.034C167.437 175.034 166.656 174.771 166.089 174.243C165.53 173.716 165.25 173.016 165.25 172.144C165.25 170.275 166.35 169.188 168.55 168.882L171.548 168.462C171.548 166.763 170.862 165.913 169.488 165.913C168.283 165.913 167.196 166.323 166.226 167.144V165.503C167.209 164.878 168.342 164.565 169.625 164.565C171.975 164.565 173.15 165.809 173.15 168.296V174.8ZM171.548 169.741L169.136 170.073C168.394 170.177 167.834 170.363 167.457 170.63C167.079 170.89 166.89 171.356 166.89 172.026C166.89 172.515 167.063 172.915 167.408 173.228C167.759 173.534 168.225 173.687 168.804 173.687C169.599 173.687 170.253 173.41 170.767 172.856C171.288 172.297 171.548 171.59 171.548 170.737V169.741ZM177.808 173.354H177.769V174.8H176.168V159.995H177.769V166.558H177.808C178.596 165.229 179.748 164.565 181.265 164.565C182.548 164.565 183.55 165.015 184.273 165.913C185.002 166.805 185.367 168.003 185.367 169.507C185.367 171.18 184.96 172.521 184.146 173.53C183.332 174.533 182.219 175.034 180.806 175.034C179.485 175.034 178.485 174.474 177.808 173.354ZM177.769 169.321V170.718C177.769 171.545 178.036 172.248 178.57 172.827C179.11 173.4 179.794 173.687 180.621 173.687C181.591 173.687 182.349 173.315 182.896 172.573C183.45 171.831 183.726 170.799 183.726 169.478C183.726 168.364 183.469 167.492 182.955 166.86C182.44 166.229 181.744 165.913 180.865 165.913C179.934 165.913 179.185 166.239 178.619 166.89C178.052 167.534 177.769 168.345 177.769 169.321ZM192.105 175.034C190.627 175.034 189.446 174.569 188.56 173.638C187.681 172.7 187.242 171.46 187.242 169.917C187.242 168.237 187.701 166.925 188.619 165.981C189.537 165.037 190.777 164.565 192.339 164.565C193.83 164.565 194.992 165.024 195.826 165.942C196.666 166.86 197.086 168.133 197.086 169.761C197.086 171.356 196.633 172.635 195.728 173.599C194.83 174.556 193.622 175.034 192.105 175.034ZM192.222 165.913C191.194 165.913 190.38 166.265 189.781 166.968C189.182 167.664 188.882 168.628 188.882 169.858C188.882 171.043 189.185 171.978 189.791 172.661C190.396 173.345 191.207 173.687 192.222 173.687C193.257 173.687 194.052 173.351 194.605 172.681C195.165 172.01 195.445 171.056 195.445 169.819C195.445 168.569 195.165 167.606 194.605 166.929C194.052 166.252 193.257 165.913 192.222 165.913ZM204.859 166.421C204.579 166.206 204.175 166.099 203.648 166.099C202.964 166.099 202.392 166.421 201.929 167.065C201.474 167.71 201.246 168.589 201.246 169.702V174.8H199.644V164.8H201.246V166.86H201.285C201.513 166.157 201.861 165.61 202.33 165.22C202.798 164.823 203.323 164.624 203.902 164.624C204.319 164.624 204.638 164.67 204.859 164.761V166.421ZM213.755 174.8H212.154V173.237H212.115C211.418 174.435 210.393 175.034 209.039 175.034C208.043 175.034 207.261 174.771 206.695 174.243C206.135 173.716 205.855 173.016 205.855 172.144C205.855 170.275 206.955 169.188 209.156 168.882L212.154 168.462C212.154 166.763 211.467 165.913 210.093 165.913C208.889 165.913 207.802 166.323 206.832 167.144V165.503C207.815 164.878 208.948 164.565 210.23 164.565C212.58 164.565 213.755 165.809 213.755 168.296V174.8ZM212.154 169.741L209.742 170.073C209 170.177 208.44 170.363 208.062 170.63C207.685 170.89 207.496 171.356 207.496 172.026C207.496 172.515 207.668 172.915 208.013 173.228C208.365 173.534 208.83 173.687 209.41 173.687C210.204 173.687 210.858 173.41 211.373 172.856C211.894 172.297 212.154 171.59 212.154 170.737V169.741ZM221.412 174.702C221.034 174.91 220.536 175.015 219.918 175.015C218.166 175.015 217.291 174.038 217.291 172.085V166.167H215.572V164.8H217.291V162.358L218.892 161.841V164.8H221.412V166.167H218.892V171.802C218.892 172.472 219.006 172.951 219.234 173.237C219.462 173.524 219.839 173.667 220.367 173.667C220.77 173.667 221.119 173.556 221.412 173.335V174.702ZM231.588 170.2H224.527C224.553 171.313 224.852 172.173 225.425 172.778C225.998 173.384 226.786 173.687 227.789 173.687C228.915 173.687 229.95 173.315 230.894 172.573V174.077C230.015 174.715 228.853 175.034 227.408 175.034C225.995 175.034 224.885 174.582 224.078 173.677C223.27 172.765 222.867 171.486 222.867 169.839C222.867 168.283 223.306 167.017 224.185 166.04C225.071 165.057 226.168 164.565 227.476 164.565C228.785 164.565 229.797 164.989 230.513 165.835C231.229 166.681 231.588 167.856 231.588 169.36V170.2ZM229.947 168.843C229.94 167.918 229.716 167.199 229.273 166.685C228.837 166.17 228.228 165.913 227.447 165.913C226.692 165.913 226.05 166.183 225.523 166.724C224.996 167.264 224.67 167.97 224.547 168.843H229.947ZM234.576 175.015C234.276 175.015 234.019 174.907 233.804 174.692C233.596 174.478 233.492 174.22 233.492 173.921C233.492 173.621 233.596 173.364 233.804 173.149C234.019 172.928 234.276 172.817 234.576 172.817C234.882 172.817 235.142 172.928 235.357 173.149C235.572 173.364 235.679 173.621 235.679 173.921C235.679 174.22 235.572 174.478 235.357 174.692C235.142 174.907 234.882 175.015 234.576 175.015ZM243.297 160.562L241.929 164.917H240.777L241.832 160.562H243.297ZM240.328 160.562L238.961 164.917H237.808L238.892 160.562H240.328Z" fill="white"/>
<rect x="40.9528" y="210.8" width="305" height="41" rx="14" fill="white" fill-opacity="0.1"/>
<path d="M146.011 234.8V224.618H149.641C150.429 224.618 151.084 224.754 151.604 225.026C152.128 225.297 152.519 225.674 152.778 226.154C153.036 226.631 153.165 227.183 153.165 227.81C153.165 228.433 153.035 228.981 152.773 229.455C152.514 229.926 152.123 230.292 151.599 230.554C151.079 230.816 150.424 230.947 149.636 230.947H146.886V229.624H149.496C149.994 229.624 150.398 229.553 150.71 229.411C151.024 229.268 151.255 229.061 151.401 228.789C151.546 228.517 151.619 228.191 151.619 227.81C151.619 227.425 151.545 227.092 151.396 226.81C151.25 226.529 151.019 226.313 150.705 226.164C150.393 226.012 149.984 225.935 149.477 225.935H147.548V234.8H146.011ZM151.038 230.206L153.553 234.8H151.803L149.337 230.206H151.038ZM158.111 234.954C157.359 234.954 156.711 234.793 156.167 234.472C155.627 234.147 155.209 233.691 154.914 233.104C154.623 232.515 154.477 231.823 154.477 231.031C154.477 230.249 154.623 229.56 154.914 228.963C155.209 228.367 155.62 227.901 156.147 227.566C156.678 227.231 157.297 227.064 158.007 227.064C158.437 227.064 158.855 227.135 159.259 227.278C159.664 227.42 160.027 227.644 160.348 227.949C160.67 228.254 160.923 228.65 161.109 229.137C161.294 229.621 161.387 230.209 161.387 230.902V231.429H155.317V230.315H159.931C159.931 229.924 159.851 229.578 159.692 229.276C159.533 228.971 159.309 228.731 159.021 228.555C158.736 228.38 158.401 228.292 158.017 228.292C157.599 228.292 157.234 228.395 156.923 228.6C156.615 228.802 156.376 229.068 156.207 229.396C156.041 229.72 155.958 230.073 155.958 230.455V231.325C155.958 231.835 156.048 232.269 156.227 232.627C156.409 232.985 156.663 233.259 156.987 233.448C157.312 233.633 157.692 233.726 158.126 233.726C158.408 233.726 158.664 233.686 158.896 233.607C159.128 233.524 159.329 233.401 159.498 233.239C159.667 233.076 159.796 232.876 159.886 232.637L161.293 232.891C161.18 233.305 160.978 233.668 160.686 233.979C160.398 234.288 160.035 234.528 159.597 234.7C159.163 234.869 158.668 234.954 158.111 234.954ZM165.259 234.969C164.775 234.969 164.337 234.879 163.946 234.7C163.555 234.518 163.245 234.255 163.017 233.91C162.791 233.565 162.679 233.143 162.679 232.642C162.679 232.211 162.761 231.857 162.927 231.578C163.093 231.3 163.317 231.079 163.598 230.917C163.88 230.755 164.195 230.632 164.543 230.549C164.891 230.466 165.246 230.403 165.607 230.36C166.064 230.307 166.435 230.264 166.721 230.231C167.006 230.194 167.213 230.136 167.342 230.057C167.471 229.977 167.536 229.848 167.536 229.669V229.634C167.536 229.2 167.413 228.864 167.168 228.625C166.926 228.386 166.565 228.267 166.084 228.267C165.584 228.267 165.189 228.378 164.901 228.6C164.616 228.819 164.419 229.063 164.309 229.331L162.912 229.013C163.078 228.549 163.32 228.174 163.638 227.889C163.96 227.601 164.329 227.392 164.747 227.263C165.164 227.13 165.604 227.064 166.064 227.064C166.369 227.064 166.692 227.1 167.034 227.173C167.378 227.243 167.7 227.372 167.998 227.561C168.3 227.75 168.547 228.02 168.739 228.372C168.931 228.72 169.027 229.172 169.027 229.729V234.8H167.576V233.756H167.516C167.42 233.948 167.276 234.137 167.083 234.323C166.891 234.508 166.644 234.662 166.343 234.785C166.041 234.908 165.68 234.969 165.259 234.969ZM165.582 233.776C165.993 233.776 166.344 233.694 166.636 233.532C166.931 233.37 167.155 233.158 167.307 232.896C167.463 232.631 167.541 232.347 167.541 232.046V231.061C167.488 231.114 167.385 231.164 167.233 231.21C167.083 231.253 166.913 231.292 166.721 231.325C166.528 231.354 166.341 231.383 166.159 231.409C165.976 231.432 165.824 231.452 165.701 231.469C165.413 231.505 165.15 231.567 164.911 231.653C164.676 231.739 164.487 231.863 164.344 232.026C164.205 232.185 164.135 232.397 164.135 232.662C164.135 233.03 164.271 233.308 164.543 233.497C164.815 233.683 165.161 233.776 165.582 233.776ZM173.866 234.949C173.249 234.949 172.699 234.792 172.215 234.477C171.735 234.158 171.357 233.706 171.082 233.119C170.81 232.529 170.674 231.822 170.674 230.997C170.674 230.171 170.812 229.465 171.087 228.879C171.365 228.292 171.746 227.843 172.23 227.531C172.714 227.22 173.263 227.064 173.876 227.064C174.35 227.064 174.731 227.144 175.019 227.303C175.311 227.458 175.536 227.641 175.695 227.85C175.858 228.058 175.984 228.242 176.073 228.401H176.163V224.618H177.649V234.8H176.198V233.612H176.073C175.984 233.774 175.855 233.96 175.686 234.168C175.52 234.377 175.291 234.56 174.999 234.715C174.708 234.871 174.33 234.949 173.866 234.949ZM174.194 233.681C174.622 233.681 174.983 233.569 175.278 233.343C175.576 233.114 175.802 232.798 175.954 232.394C176.11 231.989 176.188 231.519 176.188 230.982C176.188 230.451 176.111 229.987 175.959 229.59C175.807 229.192 175.583 228.882 175.288 228.66C174.993 228.438 174.628 228.327 174.194 228.327C173.747 228.327 173.374 228.443 173.075 228.675C172.777 228.907 172.552 229.223 172.399 229.624C172.25 230.025 172.176 230.478 172.176 230.982C172.176 231.492 172.252 231.951 172.404 232.359C172.557 232.766 172.782 233.09 173.08 233.328C173.382 233.564 173.753 233.681 174.194 233.681ZM189.198 229.028L187.851 229.266C187.795 229.094 187.705 228.93 187.583 228.774C187.463 228.618 187.301 228.491 187.095 228.391C186.89 228.292 186.633 228.242 186.325 228.242C185.904 228.242 185.553 228.337 185.271 228.526C184.989 228.711 184.848 228.952 184.848 229.247C184.848 229.502 184.943 229.707 185.132 229.863C185.32 230.019 185.625 230.146 186.046 230.246L187.259 230.524C187.962 230.687 188.486 230.937 188.83 231.275C189.175 231.613 189.347 232.052 189.347 232.592C189.347 233.05 189.215 233.457 188.95 233.815C188.688 234.17 188.322 234.448 187.851 234.651C187.384 234.853 186.842 234.954 186.225 234.954C185.37 234.954 184.673 234.772 184.132 234.407C183.592 234.039 183.261 233.517 183.138 232.841L184.575 232.622C184.664 232.997 184.848 233.28 185.127 233.472C185.405 233.661 185.768 233.756 186.215 233.756C186.703 233.756 187.092 233.655 187.384 233.453C187.675 233.247 187.821 232.997 187.821 232.702C187.821 232.463 187.732 232.263 187.553 232.1C187.377 231.938 187.107 231.815 186.742 231.732L185.45 231.449C184.737 231.287 184.21 231.028 183.869 230.673C183.531 230.319 183.362 229.87 183.362 229.326C183.362 228.875 183.488 228.481 183.74 228.143C183.991 227.805 184.339 227.541 184.784 227.352C185.228 227.16 185.736 227.064 186.31 227.064C187.135 227.064 187.785 227.243 188.259 227.601C188.733 227.956 189.046 228.431 189.198 229.028ZM194.547 227.163V228.357H190.375V227.163H194.547ZM191.494 225.334H192.98V232.558C192.98 232.846 193.024 233.063 193.11 233.209C193.196 233.351 193.307 233.449 193.443 233.502C193.582 233.552 193.733 233.577 193.895 233.577C194.015 233.577 194.119 233.569 194.208 233.552C194.298 233.535 194.368 233.522 194.417 233.512L194.686 234.74C194.6 234.773 194.477 234.806 194.318 234.84C194.159 234.876 193.96 234.896 193.721 234.899C193.33 234.906 192.966 234.836 192.627 234.69C192.289 234.545 192.016 234.319 191.807 234.014C191.598 233.709 191.494 233.327 191.494 232.866V225.334ZM199.325 234.954C198.61 234.954 197.985 234.79 197.451 234.462C196.918 234.134 196.503 233.675 196.208 233.085C195.913 232.495 195.766 231.805 195.766 231.016C195.766 230.224 195.913 229.532 196.208 228.938C196.503 228.345 196.918 227.884 197.451 227.556C197.985 227.228 198.61 227.064 199.325 227.064C200.041 227.064 200.666 227.228 201.2 227.556C201.733 227.884 202.148 228.345 202.443 228.938C202.738 229.532 202.885 230.224 202.885 231.016C202.885 231.805 202.738 232.495 202.443 233.085C202.148 233.675 201.733 234.134 201.2 234.462C200.666 234.79 200.041 234.954 199.325 234.954ZM199.33 233.706C199.794 233.706 200.179 233.583 200.484 233.338C200.789 233.093 201.014 232.766 201.16 232.359C201.309 231.951 201.384 231.502 201.384 231.011C201.384 230.524 201.309 230.077 201.16 229.669C201.014 229.258 200.789 228.928 200.484 228.68C200.179 228.431 199.794 228.307 199.33 228.307C198.863 228.307 198.475 228.431 198.167 228.68C197.862 228.928 197.635 229.258 197.486 229.669C197.34 230.077 197.267 230.524 197.267 231.011C197.267 231.502 197.34 231.951 197.486 232.359C197.635 232.766 197.862 233.093 198.167 233.338C198.475 233.583 198.863 233.706 199.33 233.706ZM204.544 234.8V227.163H205.981V228.377H206.061C206.2 227.966 206.445 227.642 206.797 227.407C207.151 227.168 207.552 227.049 208 227.049C208.092 227.049 208.202 227.052 208.328 227.059C208.457 227.066 208.558 227.074 208.631 227.084V228.506C208.571 228.489 208.465 228.471 208.313 228.451C208.16 228.428 208.008 228.416 207.855 228.416C207.504 228.416 207.191 228.491 206.916 228.64C206.644 228.786 206.429 228.99 206.27 229.252C206.11 229.51 206.031 229.805 206.031 230.136V234.8H204.544ZM211.089 237.663C210.867 237.663 210.665 237.645 210.483 237.609C210.301 237.576 210.165 237.539 210.075 237.499L210.433 236.281C210.705 236.354 210.947 236.386 211.159 236.376C211.371 236.366 211.558 236.286 211.721 236.137C211.887 235.988 212.032 235.744 212.158 235.406L212.342 234.899L209.548 227.163H211.139L213.073 233.09H213.153L215.087 227.163H216.683L213.536 235.819C213.39 236.217 213.204 236.553 212.979 236.828C212.753 237.107 212.485 237.315 212.173 237.455C211.862 237.594 211.5 237.663 211.089 237.663Z" fill="white"/>
<g clip-path="url(#clip1_103_531)">
<path d="M240.827 227.332L234.852 233.307M240.827 227.332L236.513 227.464M240.827 227.332L240.695 231.647" stroke="white" stroke-width="1.26748" stroke-linecap="round" stroke-linejoin="round"/>
</g>
<rect x="-3.04724" y="2.10938" width="392.69" height="6" transform="rotate(4 -3.04724 2.10938)" fill="white"/>
</g>
<defs>
<linearGradient id="paint0_linear_103_531" x1="285.244" y1="-48.6541" x2="99.7557" y2="331.654" gradientUnits="userSpaceOnUse">
<stop stop-color="#26ABFA" stop-opacity="0.8"/>
<stop offset="0.525" stop-color="#7612FA" stop-opacity="0.8"/>
</linearGradient>
<clipPath id="clip0_103_531">
<rect width="385" height="283" fill="white" transform="translate(0.952759 0.799805)"/>
</clipPath>
<clipPath id="clip1_103_531">
<rect width="8" height="8" fill="white" transform="translate(234.013 226.3)"/>
</clipPath>
</defs>
</svg>
