<svg width="145" height="33" viewBox="0 0 145 33" fill="none" xmlns="http://www.w3.org/2000/svg">
<g clip-path="url(#clip0_103_917)">
<path d="M22.6828 0.179688H2.22276C1.25276 0.179688 0.452759 0.949688 0.452759 1.89969V22.4597C0.452759 23.4097 1.25276 24.1797 2.22276 24.1797H22.6828C23.6628 24.1797 24.4528 23.4097 24.4528 22.4597V1.89969C24.4528 0.949688 23.6528 0.179688 22.6828 0.179688ZM7.72276 20.2797H4.10276V9.41969H7.72276V20.2797ZM5.92276 7.93969H5.89276C4.67276 7.93969 3.89276 7.10969 3.89276 6.06969C3.89276 5.00969 4.69276 4.19969 5.94276 4.19969C7.18276 4.19969 7.94276 4.99969 7.96276 6.06969C7.96276 7.10969 7.18276 7.93969 5.91276 7.93969H5.92276ZM20.7928 20.2797H17.1628V14.4797C17.1628 13.0297 16.6428 12.0297 15.3328 12.0297C14.3328 12.0297 13.7328 12.6997 13.4628 13.3497C13.3628 13.5797 13.3528 13.8997 13.3528 14.2297V20.2797H9.73276C9.73276 20.2797 9.78276 10.4597 9.73276 9.43969H13.3628V10.9797C13.6904 10.411 14.1674 9.94268 14.7419 9.62542C15.3165 9.30816 15.9669 9.15403 16.6228 9.17969C19.0128 9.17969 20.8028 10.7397 20.8028 14.0697V20.2797H20.7928Z" fill="white"/>
</g>
<g clip-path="url(#clip1_103_917)">
<path d="M62.9528 0.179688C63.7828 0.179688 64.4528 0.849688 64.4528 1.67969V22.6797C64.4528 23.5097 63.7828 24.1797 62.9528 24.1797H56.9528V15.1797H59.9528L60.7028 11.4297H56.9528V9.92969C56.9528 8.42969 57.7028 7.67969 59.2028 7.67969H60.7028V3.92969H57.7028C54.9428 3.92969 53.2028 6.08969 53.2028 9.17969V11.4297H50.2028V15.1797H53.2028V24.1797H41.9528C41.5549 24.1797 41.1734 24.0217 40.8921 23.7403C40.6108 23.459 40.4528 23.0775 40.4528 22.6797V1.67969C40.4528 0.849688 41.1228 0.179688 41.9528 0.179688H62.9528Z" fill="white"/>
</g>
<g clip-path="url(#clip2_103_917)">
<path d="M97.4328 0.179891C98.3696 0.147544 99.3032 0.306429 100.177 0.646851C101.05 0.987273 101.845 1.50209 102.513 2.15989C103.157 2.8277 103.66 3.61778 103.993 4.48345C104.326 5.34911 104.483 6.27279 104.453 7.19989V17.1599C104.453 19.2399 103.773 21.0299 102.473 22.2899C101.094 23.5631 99.2687 24.2421 97.3928 24.1799H87.5128C85.6525 24.2375 83.8448 23.5583 82.4828 22.2899C81.8076 21.6137 81.2789 20.8056 80.9297 19.9162C80.5804 19.0267 80.4181 18.0748 80.4528 17.1199V7.19989C80.4528 2.97989 83.2528 0.179891 87.4728 0.179891H97.4328ZM97.4828 2.40989H87.5128C86.0628 2.40989 84.8128 2.83989 83.9828 3.65989C83.5393 4.13228 83.1955 4.68924 82.9722 5.29747C82.7488 5.90571 82.6504 6.55274 82.6828 7.19989V17.1199C82.6828 18.6199 83.1128 19.8199 83.9828 20.6999C84.9531 21.5581 86.2186 22.0062 87.5128 21.9499H97.3928C98.6869 22.0062 99.9524 21.5581 100.923 20.6999C101.389 20.239 101.754 19.6863 101.995 19.077C102.236 18.4676 102.347 17.8147 102.323 17.1599V7.19989C102.355 5.91256 101.889 4.66241 101.023 3.70989C100.55 3.26638 99.9934 2.92268 99.3852 2.69931C98.7769 2.47595 98.1299 2.37751 97.4828 2.40989ZM92.4528 5.93989C95.8428 5.93989 98.6528 8.73989 98.6528 12.1399C98.6528 13.7842 97.9995 15.3612 96.8368 16.524C95.6741 17.6867 94.0971 18.3399 92.4528 18.3399C90.8084 18.3399 89.2314 17.6867 88.0687 16.524C86.906 15.3612 86.2528 13.7842 86.2528 12.1399C86.2528 10.4955 86.906 8.91855 88.0687 7.75583C89.2314 6.5931 90.8084 5.93989 92.4528 5.93989ZM92.4528 8.15989C91.4015 8.16515 90.3947 8.5851 89.6514 9.32848C88.908 10.0719 88.488 11.0786 88.4828 12.1299C88.488 13.1812 88.908 14.1879 89.6514 14.9313C90.3947 15.6747 91.4015 16.0946 92.4528 16.0999C93.504 16.0946 94.5108 15.6747 95.2542 14.9313C95.9975 14.1879 96.4175 13.1812 96.4228 12.1299C96.4175 11.0786 95.9975 10.0719 95.2542 9.32848C94.5108 8.5851 93.504 8.16515 92.4528 8.15989ZM98.8928 4.38989C99.2641 4.38989 99.6202 4.53739 99.8827 4.79994C100.145 5.06249 100.293 5.41859 100.293 5.78989C100.293 6.16119 100.145 6.51729 99.8827 6.77984C99.6202 7.04239 99.2641 7.18989 98.8928 7.18989C98.5215 7.18989 98.1654 7.04239 97.9028 6.77984C97.6403 6.51729 97.4928 6.16119 97.4928 5.78989C97.4928 5.41859 97.6403 5.06249 97.9028 4.79994C98.1654 4.53739 98.5215 4.38989 98.8928 4.38989Z" fill="white"/>
</g>
<path d="M138.697 2.42969H142.005L134.778 10.6897L143.28 21.9297H136.623L131.409 15.1127L125.443 21.9297H122.133L129.863 13.0947L121.707 2.42969H128.533L133.246 8.66069L138.697 2.42969ZM137.536 19.9497H139.369L127.537 4.30569H125.57L137.536 19.9497Z" fill="white"/>
<defs>
<clipPath id="clip0_103_917">
<rect width="24" height="24" fill="white" transform="translate(0.452759 0.179688)"/>
</clipPath>
<clipPath id="clip1_103_917">
<rect width="24" height="24" fill="white" transform="translate(40.4528 0.179688)"/>
</clipPath>
<clipPath id="clip2_103_917">
<rect width="24" height="24" fill="white" transform="translate(80.4528 0.179688)"/>
</clipPath>
</defs>
</svg>
