<svg width="41" height="41" viewBox="0 0 41 41" fill="none" xmlns="http://www.w3.org/2000/svg">
<mask id="mask0_103_459" style="mask-type:alpha" maskUnits="userSpaceOnUse" x="0" y="0" width="41" height="41">
<g clip-path="url(#clip0_103_459)">
<path d="M20.4528 40.6094C24.3529 40.6094 27.6073 40.462 30.2421 40.2585C35.6397 39.8415 39.6849 35.7964 40.1019 30.3988C40.3054 27.7641 40.4528 24.5098 40.4528 20.6099C40.4528 16.71 40.3054 13.4558 40.1019 10.821C39.6849 5.42339 35.6397 1.3782 30.2421 0.961262C27.6073 0.757733 24.3529 0.610352 20.4528 0.610352C16.3712 0.610351 12.9968 0.771767 10.2997 0.990029C5.09777 1.41098 1.20772 5.25041 0.805932 10.4538C0.601235 13.1048 0.452759 16.4585 0.452759 20.6099C0.452759 24.7613 0.601234 28.115 0.805931 30.7659C1.20771 35.9693 5.09777 39.8088 10.2996 40.2297C12.9968 40.448 16.3712 40.6094 20.4528 40.6094Z" fill="black"/>
</g>
</mask>
<g mask="url(#mask0_103_459)">
<rect width="40" height="40" transform="translate(0.452759 0.610352)" fill="#F8F8FC"/>
<g clip-path="url(#clip1_103_459)">
<path d="M31.2471 20.3481C31.2471 18.4548 31.1824 16.8452 31.0891 15.5088C30.8693 12.3567 28.5085 9.99597 25.3564 9.77612C24.02 9.6829 22.4103 9.61816 20.5169 9.61816C18.6236 9.61816 17.0139 9.6829 15.6774 9.77612C12.5253 9.99597 10.1646 12.3567 9.9447 15.5088C9.85148 16.8452 9.78674 18.4548 9.78674 20.3481C9.78674 22.343 9.85862 24.023 9.95996 25.4003C10.1835 28.4382 12.4244 30.7056 15.4631 30.9175C16.8192 31.0121 18.491 31.078 20.5169 31.078C22.5428 31.078 24.2147 31.0121 25.5708 30.9175C28.6095 30.7056 30.8504 28.4382 31.0739 25.4003C31.1752 24.023 31.2471 22.343 31.2471 20.3481Z" stroke="#24223E" stroke-width="2" stroke-linecap="round" stroke-linejoin="round"/>
<path d="M30.8352 15.6104L26.2256 20.5886C25.878 20.964 25.3803 21.1637 24.8697 21.1328L19.7761 20.8241C19.2079 20.7897 18.6599 21.0407 18.3148 21.4935L15.9753 24.5641C15.7119 24.9098 15.3266 25.142 14.898 25.2134L10.6129 25.9276" stroke="#24223E" stroke-width="2" stroke-linecap="round" stroke-linejoin="round"/>
<path d="M25.6783 20.9674L31.2497 15.6025L30.837 28.3958L27.3291 30.872L14.3291 31.0784L11.4402 29.6339L9.99573 25.9198L15.5672 25.0943L19.2815 20.7611L25.6783 20.9674Z" fill="#24223E" fill-opacity="0.1"/>
</g>
</g>
<defs>
<clipPath id="clip0_103_459">
<rect width="40" height="40" fill="white" transform="translate(0.452759 0.610352)"/>
</clipPath>
<clipPath id="clip1_103_459">
<rect width="24" height="24" fill="white" transform="translate(8.45276 8.61035)"/>
</clipPath>
</defs>
</svg>
