<svg width="65" height="42" viewBox="0 0 65 42" fill="none" xmlns="http://www.w3.org/2000/svg">
<g clip-path="url(#clip0_103_362)">
<path d="M46.7037 21.2213C46.8943 19.5893 47.0441 17.4198 47.0441 14.6326C47.0441 11.8708 46.897 9.64201 46.7089 7.92112C46.401 5.10451 44.1986 3.07768 41.3757 2.83365C39.1926 2.64491 36.2001 2.4834 32.352 2.4834C28.504 2.4834 25.5115 2.64491 23.3283 2.83365C20.5055 3.07768 18.303 5.10451 17.9952 7.92112C17.8071 9.64201 17.66 11.8708 17.66 14.6326C17.66 17.4198 17.8098 19.5893 18.0004 21.2213C18.3016 23.8003 20.3058 25.6138 22.8917 25.8487C25.0517 26.045 28.144 26.2167 32.352 26.2167C36.5601 26.2167 39.6524 26.045 41.8124 25.8487C44.3983 25.6138 46.4025 23.8003 46.7037 21.2213Z" fill="#24223E" fill-opacity="0.1" stroke="#514B81" stroke-width="2" stroke-linecap="round" stroke-linejoin="round"/>
<path d="M40.2635 20.5663V20.5663C40.2635 20.8784 40.5165 21.1313 40.8286 21.1313H40.8286C41.1407 21.1313 41.3937 20.8784 41.3937 20.5663V20.5663C41.3937 20.2542 41.1407 20.0012 40.8286 20.0012H40.8286C40.5165 20.0012 40.2635 20.2542 40.2635 20.5663Z" fill="#514B81" stroke="#514B81" stroke-width="2" stroke-linecap="round" stroke-linejoin="round"/>
<path d="M41.9586 30.7375C41.9586 30.7375 39.0464 30.1724 32.3523 30.1724C25.6582 30.1724 22.7459 30.7375 22.7459 30.7375" stroke="#514B81" stroke-width="2" stroke-linecap="round" stroke-linejoin="round"/>
</g>
<defs>
<clipPath id="clip0_103_362">
<rect width="32" height="32" fill="white" transform="translate(16.5428 0.610352)"/>
</clipPath>
</defs>
</svg>
