<svg width="73" height="42" viewBox="0 0 73 42" fill="none" xmlns="http://www.w3.org/2000/svg">
<g clip-path="url(#clip0_103_380)">
<path d="M49.5927 2.10352L51.853 5.21145L44.7895 23.859L38.0086 21.3162L45.9197 2.38606L49.5927 2.10352Z" fill="#24223E" fill-opacity="0.1"/>
<path d="M37.9859 22.0084L37.5017 23.2481C37.2721 23.8362 37.1674 24.4633 37.2033 25.0936C37.3097 26.9594 37.5825 30.9256 37.9859 31.079C38.3869 31.2315 41.3532 28.5413 42.758 27.2374C43.2443 26.786 43.6168 26.2296 43.8582 25.6115L44.4328 24.14M37.9859 22.0084L44.9527 4.16881C45.6526 2.37658 47.6409 1.41967 49.4393 2.10351C51.1896 2.76904 52 4.76302 51.3189 6.50724L44.4328 24.14M37.9859 22.0084C37.9859 22.0084 39.4196 21.7924 41.3974 22.4463C43.3751 23.1003 44.4328 24.14 44.4328 24.14" stroke="#514B81" stroke-width="2" stroke-linecap="round" stroke-linejoin="round"/>
<path d="M24.4441 6.90674C24.4441 6.90674 23.3139 9.15042 23.3139 16.513C23.3139 23.8757 24.4441 26.1194 24.4441 26.1194" stroke="#514B81" stroke-width="2" stroke-linecap="round" stroke-linejoin="round"/>
<path d="M27.2702 4.08134C27.2702 4.08134 28.6829 3.23372 33.3448 2.95118C38.0067 2.66864 40.5496 3.23372 40.5496 3.23372" stroke="#514B81" stroke-width="2" stroke-linecap="round" stroke-linejoin="round"/>
<path d="M27.2705 28.9448H33.2039" stroke="#514B81" stroke-width="2" stroke-linecap="round" stroke-linejoin="round"/>
<path d="M22.1843 4.36366C22.1843 5.76804 23.3228 6.90652 24.7272 6.90652C26.1316 6.90652 27.27 5.76804 27.27 4.36366C27.27 2.95928 26.1316 1.8208 24.7272 1.8208C23.3228 1.8208 22.1843 2.95928 22.1843 4.36366Z" stroke="#514B81" stroke-width="2" stroke-linecap="round" stroke-linejoin="round"/>
<path d="M22.1843 28.662C22.1843 30.0664 23.3228 31.2048 24.7272 31.2048C26.1316 31.2048 27.27 30.0664 27.27 28.662C27.27 27.2576 26.1316 26.1191 24.7272 26.1191C23.3228 26.1191 22.1843 27.2576 22.1843 28.662Z" stroke="#514B81" stroke-width="2" stroke-linecap="round" stroke-linejoin="round"/>
</g>
<defs>
<clipPath id="clip0_103_380">
<rect width="33" height="32" fill="white" transform="translate(20.3328 0.610352)"/>
</clipPath>
</defs>
</svg>
