<svg width="33" height="33" viewBox="0 0 33 33" fill="none" xmlns="http://www.w3.org/2000/svg">
<path d="M14.5481 4.46712V19.0777L24.4385 27.4653C24.4385 27.4653 31.6558 20.1918 27.3789 12.043C22.8347 3.38485 14.5481 4.46712 14.5481 4.46712Z" fill="white" fill-opacity="0.09"/>
<path d="M2.25269 17.5659C2.25269 10.332 8.11692 4.46777 15.3508 4.46777C22.5847 4.46777 28.4489 10.332 28.4489 17.5659V17.8852C28.4489 25.1191 22.5847 30.9834 15.3508 30.9834C8.11692 30.9834 2.25269 25.1191 2.25269 17.8852V17.5659Z" fill="white" fill-opacity="0.09" stroke="white" stroke-width="2" stroke-linecap="round" stroke-linejoin="round"/>
<path d="M14.5481 19.0781L18.2904 22.325" stroke="white" stroke-width="2" stroke-linecap="round" stroke-linejoin="round"/>
<path d="M14.5481 19.0779V10.9609" stroke="white" stroke-width="2" stroke-linecap="round" stroke-linejoin="round"/>
<path d="M23.1034 2.84395C23.1034 2.84395 27.0048 2.46378 28.7169 4.19678C30.4291 5.92978 30.0536 9.87871 30.0536 9.87871" stroke="white" stroke-width="2" stroke-linecap="round" stroke-linejoin="round"/>
</svg>
