<svg width="32" height="32" viewBox="0 0 32 32" fill="none" xmlns="http://www.w3.org/2000/svg">
<g clip-path="url(#clip0_103_602)">
<path d="M21.7605 6.5786L17.9405 2.71203C17.1003 1.86161 15.7381 1.86161 14.898 2.71203L11.1276 6.52837C11.1276 6.52837 17.3788 9.23495 13.559 13.1361C9.72262 17.0542 7.03086 10.6751 7.03086 10.6751L3.26053 14.4914C2.42036 15.3418 2.42036 16.7206 3.26053 17.571L7.08054 21.4376C7.08054 21.4376 0.803147 24.1027 4.70998 28.0226C8.59997 31.9256 11.2157 25.6232 11.2157 25.6232L15.0357 29.4898C15.8759 30.3402 17.238 30.3402 18.0782 29.4897L21.8486 25.6734C21.8486 25.6734 15.5973 22.9668 19.4172 19.0657C23.2536 15.1476 25.9453 21.5267 25.9453 21.5267L29.7157 17.7104C30.5558 16.86 30.5558 15.4812 29.7157 14.6308L25.8957 10.7642C25.8957 10.7642 32.173 8.09906 28.2662 4.17915C24.3762 0.276139 21.7605 6.5786 21.7605 6.5786Z" fill="white" fill-opacity="0.09" stroke="white" stroke-width="2" stroke-linecap="round" stroke-linejoin="round"/>
</g>
<defs>
<clipPath id="clip0_103_602">
<rect width="31" height="31" fill="white" transform="translate(0.782715 0.679688)"/>
</clipPath>
</defs>
</svg>
