<svg width="60" height="29" viewBox="0 0 60 29" fill="none" xmlns="http://www.w3.org/2000/svg">
<g clip-path="url(#clip0_103_587)">
<path d="M44.8752 0.179688H14.4631C6.85187 0.179688 0.681732 6.34981 0.681732 13.961C0.681732 21.5723 6.85187 27.7424 14.4631 27.7424H44.8752C52.4865 27.7424 58.6566 21.5723 58.6566 13.961C58.6566 6.34981 52.4865 0.179688 44.8752 0.179688Z" fill="#020202" fill-opacity="0.2"/>
<path d="M14.2971 24.1842C19.8761 24.1842 24.3988 19.6063 24.3988 13.9593C24.3988 8.31222 19.8761 3.73438 14.2971 3.73438C8.71811 3.73438 4.19543 8.31222 4.19543 13.9593C4.19543 19.6063 8.71811 24.1842 14.2971 24.1842Z" fill="white"/>
</g>
<defs>
<clipPath id="clip0_103_587">
<rect width="59" height="28" fill="white" transform="translate(0.452728 0.179688)"/>
</clipPath>
</defs>
</svg>
