<svg width="60" height="29" viewBox="0 0 60 29" fill="none" xmlns="http://www.w3.org/2000/svg">
<g clip-path="url(#clip0_103_605)">
<path d="M44.8752 0.679688H14.4631C6.85187 0.679688 0.681732 6.84981 0.681732 14.461C0.681732 22.0723 6.85187 28.2424 14.4631 28.2424H44.8752C52.4865 28.2424 58.6566 22.0723 58.6566 14.461C58.6566 6.84981 52.4865 0.679688 44.8752 0.679688Z" fill="#020202" fill-opacity="0.2"/>
<path d="M14.2971 24.6842C19.8761 24.6842 24.3988 20.1063 24.3988 14.4593C24.3988 8.81222 19.8761 4.23438 14.2971 4.23438C8.71811 4.23438 4.19543 8.81222 4.19543 14.4593C4.19543 20.1063 8.71811 24.6842 14.2971 24.6842Z" fill="white"/>
</g>
<defs>
<clipPath id="clip0_103_605">
<rect width="59" height="28" fill="white" transform="translate(0.452728 0.679688)"/>
</clipPath>
</defs>
</svg>
