<svg width="147" height="47" viewBox="0 0 147 47" fill="none" xmlns="http://www.w3.org/2000/svg">
<path fill-rule="evenodd" clip-rule="evenodd" d="M6.06787 27.9191L11.0824 24.0685C13.7465 27.5539 16.577 29.1605 19.7277 29.1605C22.8614 29.1605 25.6119 27.5729 28.156 24.1149L33.2421 27.8727C29.5713 32.8592 25.0096 35.4938 19.7277 35.4938C14.4626 35.4938 9.85663 32.876 6.06787 27.9191Z" fill="url(#paint0_linear_103_969)"/>
<path fill-rule="evenodd" clip-rule="evenodd" d="M19.4451 11.1827L10.5197 18.8924L6.39392 14.096L19.464 2.80579L32.4309 14.1044L28.2862 18.884L19.4451 11.1827Z" fill="url(#paint1_linear_103_969)"/>
<path d="M52.2067 30.7366C49.1593 30.7366 46.6194 29.7465 44.5597 27.7662C42.5 25.7586 41.4849 23.1851 41.4849 20.0438C41.4849 16.8771 42.5274 14.2741 44.5871 12.2369C46.6763 10.1723 49.2162 9.15469 52.2362 9.15469C55.9618 9.15469 59.262 10.7655 61.1827 13.284L57.8235 16.8201C56.2145 15.0932 54.4644 14.2171 52.5753 14.2171C50.9663 14.2171 49.6395 14.7533 48.538 15.8575C47.466 16.9616 46.9311 18.3486 46.9311 20.0163C46.9311 21.6292 47.466 22.9867 48.538 24.0908C49.6395 25.1653 50.9663 25.7016 52.5458 25.7016C54.6055 25.7016 56.4125 24.7959 57.9078 23.0141L61.408 26.3813C60.4477 27.6543 59.1503 28.7015 57.5413 29.5206C55.9323 30.3418 54.1548 30.7366 52.2067 30.7366ZM67.3281 8.84225V30.4262H62.362V8.84225H67.3281ZM72.0351 13.4233C70.3713 13.4233 69.1582 12.2073 69.1582 10.5396C69.1582 8.92669 70.4282 7.71069 72.0351 7.71069C73.6441 7.71069 74.8866 8.92669 74.8866 10.5396C74.8866 12.2073 73.6441 13.4255 72.0351 13.4255V13.4233ZM74.5476 14.8103V30.4262H69.5521V14.8103H74.5476ZM84.109 30.7661C81.6533 30.7661 79.6779 30.0019 78.1278 28.4735C76.6031 26.9471 75.8407 24.9943 75.8407 22.5898C75.8407 20.1852 76.6031 18.2346 78.1552 16.7061C79.7074 15.1777 81.7102 14.4156 84.1932 14.4156C87.4386 14.4156 90.2902 15.9989 91.6149 18.9692L87.6366 21.0635C86.8468 19.7335 85.7454 19.0537 84.3069 19.0537C83.2623 19.0537 82.4157 19.3936 81.7376 20.0733C81.4158 20.407 81.1629 20.801 80.9934 21.2329C80.824 21.6647 80.7412 22.1258 80.7498 22.5898C80.7498 24.6545 82.2451 26.1829 84.2501 26.1829C85.6885 26.1829 87.0153 25.3912 87.5797 24.1752L91.5601 26.5502C90.2038 29.1532 87.4112 30.7661 84.109 30.7661ZM108.882 30.4262H102.954L98.3521 24.2301L97.6192 24.9099V30.4262H92.6553V8.84225H97.6213V19.3366L102.305 14.8103H108.373L101.686 21.0909L108.882 30.4262ZM109.215 22.3069V9.51991H114.52V22.2225C114.52 24.57 115.875 25.7016 117.823 25.7016C119.741 25.7016 121.095 24.513 121.095 22.2225V9.51991H126.43V22.3069C126.43 28.4735 122.167 30.7936 117.823 30.7936C113.505 30.7936 109.215 28.4735 109.215 22.3069ZM138.22 14.4156C140.45 14.4156 142.257 15.2072 143.695 16.7906C145.134 18.3465 145.839 20.2992 145.839 22.5898C145.839 24.8825 145.106 26.8331 143.668 28.446C142.227 30.0293 140.422 30.8231 138.249 30.8231C136.526 30.8231 135.031 30.2573 133.818 29.1258V36.8482H128.822V14.8103H133.734V16.2543C134.947 15.0362 136.442 14.4156 138.22 14.4156ZM140.759 22.6468C140.759 20.6096 139.294 19.0537 137.261 19.0537C135.229 19.0537 133.734 20.6096 133.734 22.6468C133.734 23.6369 134.071 24.4856 134.721 25.1928C135.397 25.9 136.244 26.2399 137.261 26.2399C138.276 26.2399 139.123 25.9 139.772 25.1928C140.419 24.5051 140.774 23.5921 140.762 22.6468H140.759Z" fill="black"/>
<defs>
<linearGradient id="paint0_linear_103_969" x1="6.06787" y1="31.8389" x2="33.2421" y2="31.8389" gradientUnits="userSpaceOnUse">
<stop stop-color="#8930FD"/>
<stop offset="1" stop-color="#49CCF9"/>
</linearGradient>
<linearGradient id="paint1_linear_103_969" x1="6.39392" y1="13.7463" x2="32.4309" y2="13.7463" gradientUnits="userSpaceOnUse">
<stop stop-color="#FF02F0"/>
<stop offset="1" stop-color="#FFC800"/>
</linearGradient>
</defs>
</svg>
