<svg width="147" height="39" viewBox="0 0 147 39" fill="none" xmlns="http://www.w3.org/2000/svg">
<path fill-rule="evenodd" clip-rule="evenodd" d="M6.06787 27.4385L11.0824 23.5879C13.7465 27.0733 16.577 28.6799 19.7277 28.6799C22.8614 28.6799 25.6119 27.0923 28.156 23.6343L33.2421 27.3921C29.5713 32.3786 25.0096 35.0132 19.7277 35.0132C14.4626 35.0132 9.85663 32.3954 6.06787 27.4385Z" fill="url(#paint0_linear_103_906)"/>
<path fill-rule="evenodd" clip-rule="evenodd" d="M19.4451 10.7021L10.5197 18.4118L6.39392 13.6154L19.464 2.3252L32.4309 13.6238L28.2862 18.4034L19.4451 10.7021Z" fill="url(#paint1_linear_103_906)"/>
<path d="M52.2067 30.2564C49.1593 30.2564 46.6194 29.2663 44.5597 27.286C42.5 25.2784 41.4849 22.7049 41.4849 19.5636C41.4849 16.3969 42.5274 13.7939 44.5871 11.7567C46.6763 9.69203 49.2162 8.67447 52.2362 8.67447C55.9618 8.67447 59.262 10.2853 61.1827 12.8038L57.8235 16.3399C56.2145 14.613 54.4644 13.7369 52.5753 13.7369C50.9663 13.7369 49.6395 14.2731 48.538 15.3773C47.466 16.4814 46.9311 17.8684 46.9311 19.5361C46.9311 21.149 47.466 22.5065 48.538 23.6106C49.6395 24.6851 50.9663 25.2214 52.5458 25.2214C54.6055 25.2214 56.4125 24.3157 57.9078 22.5339L61.408 25.9011C60.4477 27.1741 59.1503 28.2213 57.5413 29.0404C55.9323 29.8616 54.1548 30.2564 52.2067 30.2564ZM67.3281 8.36203V29.946H62.362V8.36203H67.3281ZM72.0351 12.9431C70.3713 12.9431 69.1582 11.7271 69.1582 10.0594C69.1582 8.44647 70.4282 7.23047 72.0351 7.23047C73.6441 7.23047 74.8866 8.44647 74.8866 10.0594C74.8866 11.7271 73.6441 12.9453 72.0351 12.9453V12.9431ZM74.5476 14.3301V29.946H69.5521V14.3301H74.5476ZM84.109 30.2859C81.6533 30.2859 79.6779 29.5217 78.1278 27.9933C76.6031 26.4669 75.8407 24.5141 75.8407 22.1096C75.8407 19.705 76.6031 17.7544 78.1552 16.2259C79.7074 14.6975 81.7102 13.9354 84.1932 13.9354C87.4386 13.9354 90.2902 15.5187 91.6149 18.489L87.6366 20.5833C86.8468 19.2533 85.7454 18.5735 84.3069 18.5735C83.2623 18.5735 82.4157 18.9134 81.7376 19.5931C81.4158 19.9268 81.1629 20.3208 80.9934 20.7527C80.824 21.1845 80.7412 21.6456 80.7498 22.1096C80.7498 24.1743 82.2451 25.7027 84.2501 25.7027C85.6885 25.7027 87.0153 24.911 87.5797 23.695L91.5601 26.07C90.2038 28.673 87.4112 30.2859 84.109 30.2859ZM108.882 29.946H102.954L98.3521 23.7499L97.6192 24.4297V29.946H92.6553V8.36203H97.6213V18.8564L102.305 14.3301H108.373L101.686 20.6107L108.882 29.946ZM109.215 21.8267V9.03969H114.52V21.7423C114.52 24.0898 115.875 25.2214 117.823 25.2214C119.741 25.2214 121.095 24.0328 121.095 21.7423V9.03969H126.43V21.8267C126.43 27.9933 122.167 30.3134 117.823 30.3134C113.505 30.3134 109.215 27.9933 109.215 21.8267ZM138.22 13.9354C140.45 13.9354 142.257 14.727 143.695 16.3104C145.134 17.8663 145.839 19.819 145.839 22.1096C145.839 24.4023 145.106 26.3529 143.668 27.9658C142.227 29.5491 140.422 30.3429 138.249 30.3429C136.526 30.3429 135.031 29.7771 133.818 28.6456V36.368H128.822V14.3301H133.734V15.7741C134.947 14.556 136.442 13.9354 138.22 13.9354ZM140.759 22.1666C140.759 20.1294 139.294 18.5735 137.261 18.5735C135.229 18.5735 133.734 20.1294 133.734 22.1666C133.734 23.1567 134.071 24.0054 134.721 24.7126C135.397 25.4198 136.244 25.7597 137.261 25.7597C138.276 25.7597 139.123 25.4198 139.772 24.7126C140.419 24.0249 140.774 23.1119 140.762 22.1666H140.759Z" fill="white"/>
<defs>
<linearGradient id="paint0_linear_103_906" x1="6.06787" y1="31.3583" x2="33.2421" y2="31.3583" gradientUnits="userSpaceOnUse">
<stop stop-color="#8930FD"/>
<stop offset="1" stop-color="#49CCF9"/>
</linearGradient>
<linearGradient id="paint1_linear_103_906" x1="6.39392" y1="13.2657" x2="32.4309" y2="13.2657" gradientUnits="userSpaceOnUse">
<stop stop-color="#FF02F0"/>
<stop offset="1" stop-color="#FFC800"/>
</linearGradient>
</defs>
</svg>
