<svg width="106" height="28" viewBox="0 0 106 28" fill="none" xmlns="http://www.w3.org/2000/svg">
<g clip-path="url(#clip0_103_215)">
<path d="M23.1951 16.4185C21.4655 16.4185 20.1265 15.0795 20.1265 13.2941C20.1265 11.5644 21.4655 10.2254 23.1951 10.2254C24.9247 10.2254 26.2638 11.5644 26.2638 13.2941C26.2638 15.0237 24.869 16.4185 23.1951 16.4185ZM28.7745 10.1138V7.99359H25.0363C24.4226 7.71462 23.8089 7.65883 23.1951 7.65883C19.9591 7.65883 17.4484 10.1138 17.4484 13.3499C17.4484 16.5859 19.9591 18.985 23.1393 18.985C26.3196 18.985 28.8303 16.5301 28.8303 13.3499C28.8303 12.234 28.4956 11.2297 27.9376 10.4485L28.7745 10.1138ZM10.7531 16.4185C9.02342 16.4185 7.68437 15.0795 7.68437 13.2941C7.68437 11.5644 9.02342 10.2254 10.7531 10.2254C12.4827 10.2254 13.8217 11.5644 13.8217 13.2941C13.8217 15.0237 12.5385 16.4185 10.7531 16.4185ZM10.7531 7.65883C7.51699 7.65883 5.06205 10.1138 5.06205 13.2941C5.06205 16.4743 7.57278 18.985 10.7531 18.985C13.9333 18.985 16.4441 16.5301 16.4441 13.3499C16.4441 10.1696 13.9891 7.65883 10.7531 7.65883ZM1.32385 18.7061H3.94617V3.53007H1.32385V18.7061ZM29.9462 18.7061H32.5685V7.99359H29.9462V18.7061ZM23.1951 22.4443C21.4655 22.4443 20.1265 21.1052 20.1265 19.3756H17.4484C17.4484 22.6117 19.9591 25.0108 23.1393 25.0108C26.3196 25.0108 28.8861 22.5559 28.8861 19.3756H26.2638C26.208 21.161 24.869 22.4443 23.1951 22.4443ZM42.4441 12.234C42.8346 10.8391 43.8389 10.058 45.2338 10.058C46.6286 10.058 47.6887 10.8391 47.9677 12.234H42.4441ZM45.3453 7.65883C42.1093 7.65883 39.7102 10.1138 39.7102 13.3499C39.7102 16.5859 41.8861 18.8735 45.3453 18.8735C47.1865 18.8735 48.9162 18.1481 50.1994 16.8649L48.3582 15.0237C47.4655 15.9164 46.517 16.4185 45.4011 16.4185C43.8947 16.4185 42.8346 15.5258 42.4999 14.2426H50.8132V13.6288C50.8132 10.1138 48.5256 7.65883 45.3453 7.65883ZM68.8904 7.65883C67.5513 7.65883 66.4355 8.10518 65.6544 8.99788V3.47428H63.032V18.6503H65.6544V12.8477C65.6544 11.2855 66.6028 10.2811 68.2209 10.2811C69.7273 10.2811 70.5642 11.2297 70.5642 12.8477V18.6503H73.1865V12.4014C73.2981 9.44424 71.4011 7.65883 68.8904 7.65883ZM57.341 10.2811C58.4569 10.2811 59.3496 10.8391 60.075 11.676L61.9162 9.8348C60.8561 8.49574 59.2938 7.71462 57.341 7.71462C54.105 7.71462 51.6501 10.1696 51.6501 13.3499C51.6501 16.5301 54.1608 18.985 57.341 18.985C59.1823 18.985 60.8561 18.0923 61.9162 16.8649L60.075 15.0237C59.3496 15.8048 58.4011 16.4185 57.341 16.4185C55.6114 16.4185 54.384 15.0795 54.384 13.3499C54.2724 11.6202 55.6672 10.2811 57.341 10.2811ZM37.9247 4.70175H35.3024V7.99359H33.9076V10.3369H35.3024V18.6503H37.9247V10.3369H39.4312V7.99359H37.9247V4.70175ZM31.3411 3.19531C30.3926 3.19531 29.6114 3.97643 29.6114 5.03651C29.6114 5.98501 30.3926 6.76612 31.3411 6.76612C32.4011 6.76612 33.1823 5.98501 33.1823 5.03651C33.0707 3.97643 32.2896 3.19531 31.3411 3.19531Z" fill="black"/>
<path fill-rule="evenodd" clip-rule="evenodd" d="M90.8631 1.03857V6.4506C86.6227 6.4506 83.2751 9.79823 83.2751 14.0386C83.2751 18.1673 86.6227 21.6266 90.8631 21.6266V27.0386C83.6657 27.0386 77.8073 21.236 77.8073 14.0386C77.8073 6.84115 83.6657 1.03857 90.8631 1.03857Z" fill="#00B8FD"/>
<path fill-rule="evenodd" clip-rule="evenodd" d="M105.268 9.05371H93.6071V14.3542H99.9118V20.6589H105.268V9.05371Z" fill="#00B8FD"/>
</g>
<defs>
<clipPath id="clip0_103_215">
<rect width="105" height="27" fill="white" transform="translate(0.452759 0.609863)"/>
</clipPath>
</defs>
</svg>
