<svg width="109" height="34" viewBox="0 0 109 34" fill="none" xmlns="http://www.w3.org/2000/svg">
<g clip-path="url(#clip0_103_280)">
<mask id="mask0_103_280" style="mask-type:luminance" maskUnits="userSpaceOnUse" x="1" y="1" width="108" height="33">
<path d="M108.038 1.03857H1.34509V33.0386H108.038V1.03857Z" fill="white"/>
</mask>
<g mask="url(#mask0_103_280)">
<path d="M17.345 1.03857C8.50868 1.03857 1.34509 8.20197 1.34509 17.0383C1.34509 25.8755 8.50868 33.0386 17.345 33.0386C26.1817 33.0386 33.3449 25.8755 33.3449 17.0383C33.3449 8.20254 26.1823 1.03857 17.345 1.03857ZM24.6825 24.1147C24.3951 24.5861 23.7811 24.7338 23.3112 24.4466C19.5541 22.1503 14.8249 21.6315 9.25552 22.9038C8.71884 23.0268 8.18387 22.6904 8.0616 22.1539C7.93875 21.6172 8.27367 21.0822 8.81169 20.96C14.9065 19.5666 20.1345 20.1663 24.3518 22.7433C24.8218 23.0318 24.971 23.6447 24.6825 24.1147ZM26.6408 19.7588C26.279 20.3459 25.5113 20.5301 24.9249 20.1695C20.6251 17.5264 14.0685 16.7609 8.98155 18.305C8.32182 18.5043 7.62503 18.1325 7.42479 17.4739C7.22609 16.8142 7.59809 16.1187 8.25667 15.9181C14.0674 14.155 21.291 15.009 26.2299 18.044C26.8164 18.4051 27.0019 19.173 26.6408 19.7588ZM26.809 15.2223C21.6515 12.1594 13.1444 11.8778 8.22093 13.372C7.43033 13.6118 6.59425 13.1655 6.35466 12.3749C6.11507 11.5839 6.56101 10.7484 7.35218 10.508C13.004 8.79234 22.3993 9.12383 28.3363 12.6483C29.0474 13.0703 29.2807 13.9888 28.8592 14.6989C28.4389 15.4101 27.5178 15.6445 26.809 15.2223ZM44.8756 15.8092C42.113 15.1504 41.6212 14.6881 41.6212 13.7165C41.6212 12.7987 42.4854 12.181 43.7705 12.181C45.0162 12.181 46.2514 12.65 47.5464 13.6156C47.5856 13.6449 47.6347 13.6565 47.683 13.6489C47.7313 13.6416 47.7741 13.6151 47.8024 13.5751L49.1513 11.6737C49.2067 11.5954 49.1916 11.4874 49.1169 11.4276C47.5756 10.1909 45.84 9.58963 43.8114 9.58963C40.8286 9.58963 38.7451 11.3797 38.7451 13.9408C38.7451 16.6873 40.5423 17.6598 43.6482 18.4105C46.2917 19.0194 46.7379 19.5295 46.7379 20.4414C46.7379 21.4519 45.8357 22.0801 44.3838 22.0801C42.7713 22.0801 41.456 21.537 39.9846 20.2628C39.9482 20.2313 39.8981 20.2169 39.8519 20.2196C39.8031 20.2236 39.7586 20.2462 39.7277 20.2834L38.2153 22.0834C38.1518 22.1581 38.1598 22.2697 38.2332 22.3343C39.9451 23.8625 42.0506 24.6698 44.3227 24.6698C47.5369 24.6698 49.6139 22.9136 49.6139 20.1954C49.6196 17.9007 48.2459 16.6302 44.8813 15.8117L44.8756 15.8092ZM56.8856 13.0847C55.4924 13.0847 54.3496 13.6334 53.4073 14.7578V13.4922C53.4073 13.3923 53.3263 13.3109 53.2266 13.3109H50.7529C50.653 13.3109 50.5722 13.3923 50.5722 13.4922V27.5546C50.5722 27.6545 50.653 27.7359 50.7529 27.7359H53.2266C53.3263 27.7359 53.4073 27.6545 53.4073 27.5546V23.1157C54.3498 24.1734 55.4928 24.6902 56.8856 24.6902C59.4742 24.6902 62.0948 22.6975 62.0948 18.8881C62.0987 15.0778 59.4773 13.0845 56.8884 13.0845L56.8856 13.0847ZM59.2184 18.8881C59.2184 20.8279 58.0235 22.1816 56.3126 22.1816C54.6211 22.1816 53.3452 20.7664 53.3452 18.8881C53.3452 17.01 54.6211 15.5946 56.3126 15.5946C57.9958 15.5944 59.2184 16.9794 59.2184 18.8881ZM68.8115 13.0847C65.4777 13.0847 62.8659 15.6518 62.8659 18.9296C62.8659 22.1717 65.4598 24.7118 68.7706 24.7118C72.1163 24.7118 74.7361 22.1533 74.7361 18.8881C74.7361 15.6342 72.1341 13.0847 68.8115 13.0847ZM68.8115 22.2009C67.0383 22.2009 65.7014 20.7762 65.7014 18.8872C65.7014 16.9901 66.9921 15.6135 68.7706 15.6135C70.5553 15.6135 71.9011 17.0383 71.9011 18.9286C71.9011 20.8253 70.6017 22.2009 68.8115 22.2009ZM81.8552 13.3109H79.1331V10.5279C79.1331 10.4282 79.0525 10.3468 78.9526 10.3468H76.4793C76.3792 10.3468 76.298 10.4282 76.298 10.5279V13.3109H75.1087C75.0091 13.3109 74.9285 13.3923 74.9285 13.4922V15.6181C74.9285 15.7179 75.0091 15.7994 75.1087 15.7994H76.298V21.3002C76.298 23.5232 77.4044 24.6503 79.5865 24.6503C80.4738 24.6503 81.2099 24.4671 81.9037 24.0737C81.96 24.0421 81.995 23.9814 81.995 23.9168V21.8923C81.995 21.8299 81.9625 21.7708 81.909 21.7382C81.8552 21.7043 81.7881 21.7026 81.7329 21.7299C81.2564 21.9697 80.7957 22.0803 80.2808 22.0803C79.4872 22.0803 79.1331 21.72 79.1331 20.9124V15.8004H81.8552C81.9551 15.8004 82.0355 15.719 82.0355 15.6191V13.4934C82.0393 13.3934 81.9591 13.3121 81.8578 13.3121L81.8552 13.3109ZM91.3394 13.3218V12.98C91.3394 11.9744 91.7249 11.526 92.5897 11.526C93.1053 11.526 93.5196 11.6284 93.9834 11.7832C94.0406 11.8011 94.1002 11.7922 94.1466 11.758C94.1944 11.7237 94.2213 11.6689 94.2213 11.6108V9.52639C94.2213 9.44671 94.1701 9.37621 94.0933 9.35271C93.6032 9.20692 92.9762 9.05733 92.0373 9.05733C89.7526 9.05733 88.5449 10.3439 88.5449 12.7767V13.3002H87.3565C87.2568 13.3002 87.175 13.3816 87.175 13.4813V15.6181C87.175 15.7179 87.2568 15.7994 87.3565 15.7994H88.5449V24.2842C88.5449 24.3841 88.6256 24.4655 88.7253 24.4655H91.1989C91.2989 24.4655 91.3803 24.3841 91.3803 24.2842V15.8H93.6898L97.2276 24.2827C96.826 25.174 96.4311 25.3513 95.8919 25.3513C95.4561 25.3513 94.9972 25.2212 94.528 24.9644C94.4838 24.9401 94.4315 24.9361 94.3839 24.9508C94.3367 24.9674 94.297 25.0026 94.2769 25.0484L93.4385 26.8878C93.3986 26.9747 93.4328 27.0767 93.5165 27.1218C94.3917 27.5958 95.1818 27.7982 96.1583 27.7982C97.9848 27.7982 98.9944 26.9474 99.8843 24.6585L104.176 13.5694C104.197 13.5136 104.191 13.4505 104.157 13.4011C104.123 13.352 104.068 13.3224 104.008 13.3224H101.433C101.356 13.3224 101.287 13.3714 101.261 13.4439L98.6233 20.9789L95.7339 13.4389C95.7076 13.3688 95.6399 13.3223 95.5651 13.3223L91.3394 13.3218ZM85.8407 13.3109H83.367C83.2671 13.3109 83.1857 13.3923 83.1857 13.4922V24.2842C83.1857 24.3841 83.2671 24.4655 83.367 24.4655H85.8407C85.9404 24.4655 86.022 24.3841 86.022 24.2842V13.493C86.022 13.4691 86.0174 13.4455 86.0083 13.4235C85.9991 13.4014 85.9858 13.3814 85.9689 13.3646C85.952 13.3477 85.932 13.3344 85.91 13.3253C85.8879 13.3162 85.8645 13.3108 85.8407 13.3109ZM84.6179 8.39705C83.6379 8.39705 82.8427 9.19031 82.8427 10.1703C82.8427 11.1508 83.6381 11.945 84.6179 11.945C85.5975 11.945 86.3919 11.1508 86.3919 10.1703C86.3919 9.19051 85.5961 8.39705 84.6179 8.39705ZM106.288 16.7807C105.309 16.7807 104.547 15.9945 104.547 15.0398C104.547 14.0851 105.319 13.2899 106.297 13.2899C107.276 13.2899 108.038 14.0759 108.038 15.0298C108.038 15.9846 107.266 16.7807 106.288 16.7807ZM106.298 13.463C105.406 13.463 104.731 14.1718 104.731 15.0398C104.731 15.9074 105.401 16.6067 106.289 16.6067C107.18 16.6067 107.856 15.8984 107.856 15.0298C107.856 14.1623 107.185 13.463 106.298 13.463ZM106.684 15.2089L107.176 15.8982H106.761L106.318 15.2658H105.936V15.8982H105.589V14.0709H106.404C106.828 14.0709 107.107 14.2882 107.107 14.6539C107.109 14.9534 106.934 15.1365 106.684 15.2089ZM106.389 14.3845H105.936V14.9624H106.389C106.616 14.9624 106.751 14.8518 106.751 14.6732C106.751 14.4852 106.614 14.3845 106.389 14.3845Z" fill="#2EBD59"/>
</g>
</g>
<defs>
<clipPath id="clip0_103_280">
<rect width="108" height="33" fill="white" transform="translate(0.452759 0.609863)"/>
</clipPath>
</defs>
</svg>
