<svg width="138" height="34" viewBox="0 0 138 34" fill="none" xmlns="http://www.w3.org/2000/svg">
<path d="M100.594 8.49266C100.594 8.71455 100.552 8.93428 100.469 9.13931C100.386 9.34433 100.265 9.53064 100.112 9.68757C99.9592 9.84451 99.7777 9.969 99.5779 10.0539C99.3781 10.1389 99.164 10.1826 98.9477 10.1826C98.7315 10.1826 98.5173 10.1389 98.3175 10.0539C98.1177 9.969 97.9362 9.84451 97.7833 9.68757C97.6305 9.53064 97.5092 9.34433 97.4265 9.13931C97.3438 8.93428 97.3013 8.71455 97.3014 8.49266C97.3013 8.27077 97.3438 8.05104 97.4265 7.84601C97.5092 7.64099 97.6305 7.45468 97.7833 7.29775C97.9362 7.14081 98.1177 7.01632 98.3175 6.93138C98.5173 6.84644 98.7315 6.80273 98.9477 6.80273C99.164 6.80273 99.3781 6.84644 99.5779 6.93138C99.7777 7.01632 99.9592 7.14081 100.112 7.29775C100.265 7.45468 100.386 7.64099 100.469 7.84601C100.552 8.05104 100.594 8.27077 100.594 8.49266Z" fill="#999B9E"/>
<path d="M129.869 15.9116H125.679V20.1879H129.869V15.9116Z" fill="#999B9E"/>
<path d="M46.7614 15.9116H42.571V20.1879H46.7614V15.9116Z" fill="#999B9E"/>
<path d="M34.1911 15.9116H30.0007V20.1879H34.1911V15.9116Z" fill="#999B9E"/>
<path d="M21.8141 15.9116H17.6237V20.1879H21.8141V15.9116Z" fill="#999B9E"/>
<path d="M8.99379 15.9116H4.80335V20.1879H8.99379V15.9116Z" fill="#999B9E"/>
<path d="M14.8684 7.37612H15.3656C18.5768 7.37612 20.0735 9.09397 20.6989 13.6752L21.6933 13.6312L21.5606 6.36279H5.22025L5.05921 13.6312L6.01608 13.6752C6.18181 11.9573 6.38057 11.0322 6.81192 10.1071C7.57446 8.38893 9.16587 7.37612 11.1218 7.37612H11.818V23.1898C11.818 24.8637 11.7186 25.3924 11.3211 25.7889C10.9894 26.0972 10.3262 26.2293 9.5634 26.2293H8.80086V27.2864H17.8855V26.2293H17.1183C16.3604 26.2293 15.6926 26.0969 15.3658 25.7889C14.9681 25.3924 14.8687 24.8635 14.8687 23.1898L14.8684 7.37612Z" fill="#ED008C"/>
<path d="M58.0911 27.2866L63.3854 8.81344V23.31C63.3854 24.892 63.2954 25.448 62.9364 25.8328C62.6669 26.132 62.0422 26.2605 61.3497 26.2605H61.0804V27.2866H68.564V26.2605H68.1745C67.4861 26.2605 66.8576 26.1322 66.5883 25.8328C66.2287 25.448 66.139 24.892 66.139 23.31V10.9518C66.139 9.36941 66.2287 8.77077 66.5883 8.38599C66.8875 8.12947 67.4861 7.95828 68.1745 7.95828H68.564V6.97461H62.7569L58.3864 21.8986L54.1101 6.97461H48.3329V7.95828H48.8715C50.4582 7.95828 50.7574 8.3004 50.7574 10.3531V22.1125C50.7574 23.994 50.6676 24.7638 50.3981 25.3198C50.0989 25.8757 49.4659 26.2605 48.8116 26.2605H48.3327V27.2866H54.4988V26.2605H54.1099C53.3317 26.2605 52.7029 25.9611 52.3394 25.3624C51.9846 24.7638 51.8948 24.2078 51.8948 22.1125V8.8137L57.1587 27.2868L58.0911 27.2866Z" fill="#999B9E"/>
<path d="M75.0001 12.833C71.2884 12.833 68.8639 15.7408 68.8639 20.3166C68.8639 24.7211 71.2884 27.7146 74.9065 27.7146C78.5578 27.7146 80.9826 24.7211 80.9826 20.2739C80.9826 15.8691 78.5579 12.833 75.0001 12.833ZM74.8805 13.8164C75.9539 13.8164 76.8816 14.5006 77.3905 15.6553C77.8695 16.7243 78.0789 18.1783 78.0789 20.2737C78.0789 24.5924 77.0312 26.7304 74.9062 26.7304C72.7851 26.7304 71.7629 24.5921 71.7629 20.2307C71.7629 18.178 71.9765 16.7243 72.4555 15.6553C72.9305 14.5436 73.8926 13.8164 74.8805 13.8164Z" fill="#999B9E"/>
<path d="M85.9565 6.76074L81.7057 6.97459V7.91535H81.911C83.1684 7.91535 83.4421 8.34305 83.4421 10.3528V24.2505C83.4421 26.0464 83.3822 26.517 83.1429 27.2866H84.1307C84.8745 26.0464 85.0584 25.8328 85.3579 25.8328C85.5033 25.8328 85.6485 25.8754 85.8626 26.0893C87.3333 27.2866 87.9619 27.5431 89.309 27.5431C92.5373 27.5431 94.8723 24.4214 94.8723 19.9742C94.8723 15.7835 92.7127 12.9612 89.4843 12.9612C87.8081 12.9612 86.5851 13.7737 85.9565 15.2275V6.76074ZM89.061 14.0302C90.9813 14.0302 91.9689 16.0829 91.9689 20.1024C91.9689 24.3358 90.9511 26.5167 89.0054 26.5167C86.8502 26.5167 85.7167 24.2929 85.7167 20.2307C85.7167 18.178 85.9864 16.7671 86.615 15.6979C87.1793 14.6718 88.1416 14.0302 89.061 14.0302Z" fill="#999B9E"/>
<path d="M100.409 13.0469L96.0426 13.3034V14.2441H96.3719C97.6246 14.2441 97.8944 14.6718 97.8944 16.6389V23.8657C97.8944 25.8331 97.6249 26.3035 96.3719 26.3035H95.8971V27.2866H102.415V26.3035H101.944C100.683 26.3035 100.409 25.8755 100.409 23.8657L100.409 13.0469Z" fill="#999B9E"/>
<path d="M107.983 6.76074L103.617 6.97459V7.91535H103.942C105.2 7.91535 105.469 8.34305 105.469 10.3528V23.8654C105.469 25.8754 105.2 26.3032 103.942 26.3032H103.468V27.2863H109.989V26.3032H109.51C108.248 26.3032 107.983 25.8752 107.983 23.8654V6.76074Z" fill="#999B9E"/>
<path d="M121.898 20.1881C121.752 15.6552 119.597 12.833 116.339 12.833C113.191 12.833 110.921 15.9118 110.921 20.1881C110.921 24.7635 113.161 27.7143 116.634 27.7143C118.879 27.7143 120.435 26.5168 121.722 23.8655L120.825 23.3951C119.777 25.6187 118.729 26.5168 117.113 26.5168C114.748 26.5168 113.735 24.6355 113.704 20.1881H121.898ZM113.734 19.1188C113.76 15.9118 114.803 13.902 116.484 13.902C118.16 13.902 119.148 15.8691 119.118 19.1188H113.734Z" fill="#999B9E"/>
<path d="M131.442 12.4844C131.695 12.4844 131.942 12.5492 132.183 12.679C132.424 12.8088 132.611 12.9945 132.746 13.236C132.88 13.4774 132.947 13.7292 132.947 13.9915C132.947 14.2511 132.881 14.5006 132.748 14.74C132.616 14.9796 132.43 15.1656 132.192 15.298C131.953 15.4304 131.703 15.4968 131.442 15.4968C131.181 15.4968 130.931 15.4307 130.692 15.298C130.453 15.1656 130.267 14.9799 130.134 14.74C130.001 14.5006 129.934 14.2511 129.934 13.9915C129.934 13.7292 130.002 13.4774 130.137 13.236C130.272 12.9945 130.46 12.8085 130.701 12.679C130.943 12.5492 131.189 12.4844 131.442 12.4844ZM131.442 12.7352C131.231 12.7352 131.025 12.7893 130.825 12.8978C130.625 13.0063 130.468 13.1608 130.355 13.3622C130.242 13.5635 130.186 13.7735 130.186 13.9912C130.186 14.2079 130.241 14.4156 130.353 14.6143C130.463 14.8131 130.619 14.9679 130.818 15.079C131.018 15.1901 131.226 15.2455 131.442 15.2455C131.659 15.2455 131.867 15.1901 132.066 15.079C132.266 14.9681 132.42 14.8133 132.531 14.6143C132.641 14.4156 132.696 14.2079 132.696 13.9912C132.696 13.7735 132.64 13.5635 132.528 13.3622C132.415 13.161 132.259 13.0063 132.058 12.8978C131.858 12.7893 131.652 12.7352 131.442 12.7352ZM130.781 14.8224V13.2016H131.339C131.53 13.2016 131.668 13.2167 131.753 13.2466C131.839 13.2766 131.906 13.3289 131.957 13.4035C132.008 13.4779 132.033 13.5573 132.033 13.6411C132.033 13.7594 131.991 13.8627 131.906 13.9504C131.821 14.0381 131.709 14.0875 131.569 14.0982C131.626 14.1221 131.672 14.1507 131.706 14.184C131.772 14.2478 131.852 14.3549 131.946 14.5053L132.144 14.8227H131.823L131.679 14.567C131.566 14.3669 131.475 14.2415 131.407 14.1905C131.359 14.1528 131.289 14.1341 131.197 14.1341H131.043V14.8227L130.781 14.8224ZM131.043 13.9114H131.362C131.514 13.9114 131.618 13.8887 131.674 13.8432C131.729 13.7977 131.757 13.7376 131.757 13.6626C131.757 13.6145 131.743 13.5713 131.717 13.5333C131.69 13.4954 131.653 13.4667 131.605 13.448C131.558 13.4293 131.47 13.4202 131.342 13.4202H131.043V13.9114Z" fill="#999B9E"/>
</svg>
