<svg width="86" height="15" viewBox="0 0 86 15" fill="none" xmlns="http://www.w3.org/2000/svg">
<g clip-path="url(#clip0_103_20)">
<path d="M15.0661 6.31872C15.1779 6.20777 15.2897 6.06267 15.2897 5.90904C15.2897 5.65298 15.0145 5.55056 14.8082 5.51642L10.492 4.89335L8.55752 1.00985C8.48014 0.847686 8.33397 0.659912 8.13622 0.659912C7.93847 0.659912 7.79231 0.847686 7.71493 1.00985L5.7804 4.89335L1.46427 5.51642C1.24932 5.55056 0.982788 5.65298 0.982788 5.90904C0.982788 6.06267 1.09456 6.20777 1.19774 6.31872L4.32736 9.34017L3.58795 13.6077C3.58698 13.6145 3.58601 13.6211 3.58506 13.6276C3.57752 13.6791 3.57075 13.7254 3.57075 13.7784C3.57075 14.0004 3.68252 14.2052 3.93186 14.2052C4.05223 14.2052 4.164 14.1625 4.27578 14.1028L8.13622 12.0885L11.9967 14.1028C12.0999 14.1625 12.2202 14.2052 12.3406 14.2052C12.5899 14.2052 12.6931 14.0004 12.6931 13.7784C12.6931 13.7187 12.6931 13.6675 12.6845 13.6077L11.9451 9.34017L15.0661 6.31872Z" fill="#FFC800"/>
<path d="M32.6746 6.31872C32.7863 6.20777 32.8981 6.06267 32.8981 5.90904C32.8981 5.65298 32.623 5.55056 32.4166 5.51642L28.1005 4.89335L26.166 1.00985C26.0886 0.847686 25.9424 0.659912 25.7447 0.659912C25.5469 0.659912 25.4008 0.847686 25.3234 1.00985L23.3889 4.89335L19.0727 5.51642C18.8578 5.55056 18.5913 5.65298 18.5913 5.90904C18.5913 6.06267 18.703 6.20777 18.8062 6.31872L21.9358 9.34017L21.1964 13.6077C21.1954 13.6145 21.1945 13.6211 21.1935 13.6276C21.186 13.6791 21.1792 13.7254 21.1792 13.7784C21.1792 14.0004 21.291 14.2052 21.5403 14.2052C21.6607 14.2052 21.7725 14.1625 21.8842 14.1028L25.7447 12.0885L29.6051 14.1028C29.7083 14.1625 29.8287 14.2052 29.949 14.2052C30.1984 14.2052 30.3016 14.0004 30.3016 13.7784C30.3016 13.7187 30.3016 13.6675 30.293 13.6077L29.5535 9.34017L32.6746 6.31872Z" fill="#FFC800"/>
<path d="M50.283 6.31872C50.3948 6.20777 50.5066 6.06267 50.5066 5.90904C50.5066 5.65298 50.2314 5.55056 50.0251 5.51642L45.709 4.89335L43.7744 1.00985C43.6971 0.847686 43.5509 0.659912 43.3531 0.659912C43.1554 0.659912 43.0092 0.847686 42.9318 1.00985L40.9973 4.89335L36.6812 5.51642C36.4662 5.55056 36.1997 5.65298 36.1997 5.90904C36.1997 6.06267 36.3115 6.20777 36.4147 6.31872L39.5443 9.34017L38.8049 13.6077C38.8039 13.6145 38.8029 13.6211 38.802 13.6276C38.7944 13.6791 38.7877 13.7254 38.7877 13.7784C38.7877 14.0004 38.8994 14.2052 39.1488 14.2052C39.2691 14.2052 39.3809 14.1625 39.4927 14.1028L43.3531 12.0885L47.2136 14.1028C47.3168 14.1625 47.4371 14.2052 47.5575 14.2052C47.8068 14.2052 47.91 14.0004 47.91 13.7784C47.91 13.7187 47.91 13.6675 47.9014 13.6077L47.162 9.34017L50.283 6.31872Z" fill="#FFC800"/>
<path d="M67.8915 6.31872C68.0032 6.20777 68.115 6.06267 68.115 5.90904C68.115 5.65298 67.8399 5.55056 67.6335 5.51642L63.3174 4.89335L61.3829 1.00985C61.3055 0.847686 61.1593 0.659912 60.9616 0.659912C60.7638 0.659912 60.6177 0.847686 60.5403 1.00985L58.6058 4.89335L54.2896 5.51642C54.0747 5.55056 53.8082 5.65298 53.8082 5.90904C53.8082 6.06267 53.9199 6.20777 54.0231 6.31872L57.1527 9.34017L56.4133 13.6077C56.4123 13.6145 56.4114 13.6211 56.4104 13.6276C56.4029 13.6791 56.3961 13.7254 56.3961 13.7784C56.3961 14.0004 56.5079 14.2052 56.7572 14.2052C56.8776 14.2052 56.9894 14.1625 57.1011 14.1028L60.9616 12.0885L64.822 14.1028C64.9252 14.1625 65.0456 14.2052 65.166 14.2052C65.4153 14.2052 65.5185 14.0004 65.5185 13.7784C65.5185 13.7187 65.5185 13.6675 65.5099 13.6077L64.7704 9.34017L67.8915 6.31872Z" fill="#FFC800"/>
<path d="M85.4999 6.31872C85.6117 6.20777 85.7235 6.06267 85.7235 5.90904C85.7235 5.65298 85.4483 5.55056 85.242 5.51642L80.9259 4.89335L78.9913 1.00985C78.914 0.847686 78.7678 0.659912 78.57 0.659912C78.3723 0.659912 78.2261 0.847686 78.1487 1.00985L76.2142 4.89335L71.8981 5.51642C71.6831 5.55056 71.4166 5.65298 71.4166 5.90904C71.4166 6.06267 71.5284 6.20777 71.6316 6.31872L74.7612 9.34017L74.0218 13.6077C74.0208 13.6145 74.0198 13.6211 74.0189 13.6276C74.0113 13.6791 74.0046 13.7254 74.0046 13.7784C74.0046 14.0004 74.1163 14.2052 74.3657 14.2052C74.4861 14.2052 74.5978 14.1625 74.7096 14.1028L78.57 12.0885L82.4305 14.1028C82.5337 14.1625 82.654 14.2052 82.7744 14.2052C83.0237 14.2052 83.1269 14.0004 83.1269 13.7784C83.1269 13.7187 83.1269 13.6675 83.1183 13.6077L82.3789 9.34017L85.4999 6.31872Z" fill="#FFC800"/>
</g>
<defs>
<clipPath id="clip0_103_20">
<rect width="85" height="14" fill="white" transform="translate(0.982788 0.659912)"/>
</clipPath>
</defs>
</svg>
