<svg width="1921" height="361" viewBox="0 0 1921 361" fill="none" xmlns="http://www.w3.org/2000/svg">
<g clip-path="url(#clip0_103_200)">
<g clip-path="url(#clip1_103_200)">
<path d="M-24.9711 359.904V67.013C-24.8352 66.9873 -24.6713 66.9564 -24.4795 66.9205C-23.8214 66.7971 -22.8341 66.6141 -21.5188 66.3752C-18.888 65.8974 -14.9447 65.1964 -9.69679 64.3042C0.799072 62.5197 16.5135 59.9702 37.3834 56.9104C79.123 50.7911 141.484 42.6313 223.962 34.4712C388.917 18.151 634.338 1.83008 956.181 1.83008C1278.02 1.83008 1523.44 18.151 1688.4 34.4712C1770.88 42.6313 1833.24 50.7911 1874.97 56.9104C1895.85 59.9702 1911.56 62.5197 1922.06 64.3042C1927.3 65.1964 1931.26 65.8974 1933.88 66.3752C1935.2 66.6141 1936.19 66.7971 1936.85 66.9205C1937.03 66.9564 1937.2 66.9873 1937.33 67.013V359.904L1936.31 359.756C1935.16 359.591 1933.45 359.345 1931.22 359.026C1926.74 358.386 1920.13 357.449 1911.57 356.257C1894.45 353.87 1869.58 350.461 1838.54 346.371C1776.44 338.191 1689.67 327.284 1590.9 316.376C1393.39 294.563 1147.92 272.745 956.181 272.745C764.445 272.745 518.977 294.563 321.458 316.376C222.694 327.284 135.914 338.191 73.8235 346.371C42.7784 350.461 17.9058 353.87 0.794069 356.257C-7.76168 357.449 -14.3773 358.386 -18.854 359.026C-21.0924 359.345 -22.7961 359.591 -23.9402 359.756C-24.3593 359.817 -24.7033 359.865 -24.9711 359.904Z" fill="url(#paint0_linear_103_200)" stroke="url(#paint1_linear_103_200)" stroke-width="1.22034"/>
</g>
</g>
<defs>
<linearGradient id="paint0_linear_103_200" x1="956.181" y1="99.186" x2="956.181" y2="333.729" gradientUnits="userSpaceOnUse">
<stop stop-color="#FAFAFF"/>
<stop offset="1" stop-color="#FAFAFF" stop-opacity="0"/>
</linearGradient>
<linearGradient id="paint1_linear_103_200" x1="955.571" y1="-185.492" x2="955.571" y2="186.101" gradientUnits="userSpaceOnUse">
<stop stop-color="#CECEEA" stop-opacity="0.62"/>
<stop offset="1" stop-color="#CECEEA" stop-opacity="0"/>
</linearGradient>
<clipPath id="clip0_103_200">
<rect width="1920" height="360" fill="white" transform="translate(0.452759 0.609863)"/>
</clipPath>
<clipPath id="clip1_103_200">
<rect width="1952.54" height="360" fill="white" transform="translate(-15.8185 0.609863)"/>
</clipPath>
</defs>
</svg>
