<svg width="125" height="17" viewBox="0 0 125 17" fill="none" xmlns="http://www.w3.org/2000/svg">
<g clip-path="url(#clip0_103_207)">
<mask id="mask0_103_207" style="mask-type:luminance" maskUnits="userSpaceOnUse" x="0" y="1" width="125" height="16">
<path d="M124.324 1.03857H0.452759V16.0386H124.324V1.03857Z" fill="white"/>
</mask>
<g mask="url(#mask0_103_207)">
<path d="M80.6784 15.461H77.291V1.63672L88.1853 1.64569C88.1853 1.64569 90.1799 1.57129 91.4488 2.82485C91.4488 2.82485 92.7439 3.90634 92.7439 6.54971V15.4589H89.3653V6.31944C89.3653 6.31944 89.4069 5.38723 89.0893 5.06009C89.0893 5.06009 88.8085 4.70475 88.2746 4.70475H80.6701L80.6772 15.4561L80.6784 15.461ZM95.0983 15.4586V2.51573V1.64704H108.693V4.7192L98.465 4.71841V7.06719H105.57V10.0337H98.465V12.3905H108.756V15.4634H95.0903L95.0983 15.4586ZM71.3881 15.4586V2.51573V1.64704H74.7612V15.4634H71.3881V15.4586ZM113.548 15.4586V4.71523H110.364V1.64307H123.029V4.71523H116.924V15.4586H113.55H113.548ZM60.2476 15.4586V4.71523H57.0635V1.64307H69.7285V4.71523H63.6231V15.4586H60.25H60.2476ZM50.0759 7.05766C50.9001 7.05131 51.3933 7.05846 51.5918 6.9376C51.5918 6.9376 51.9381 6.74608 51.9421 6.33508L51.9429 5.43146C51.9429 5.01856 51.5926 4.82894 51.5926 4.82894C51.3296 4.68601 50.8839 4.71285 49.8258 4.71182H43.2543V7.05743H50.2268L50.0759 7.05766ZM51.8935 15.4586V10.7436C51.8935 10.3197 51.5392 10.1421 51.5392 10.1421C51.3794 10.0429 50.9009 10.025 50.1965 10.025H50.3602H43.2543V15.4579H39.8812V2.51493V1.64625H50.4102C52.2286 1.65181 53.484 1.91924 54.3487 2.75871C55.1983 3.62422 55.3111 4.75652 55.3158 5.93489V6.91871C55.3268 7.92 54.8007 8.83315 54.1732 9.36516L54.2993 9.42773C54.5554 9.55176 54.6954 9.72748 54.6954 9.72748C55.1727 10.3369 55.1669 10.8614 55.1658 11.5061V15.4613H51.8936L51.8935 15.4586ZM0.884034 1.64228V2.51176V15.4547H4.25714V10.0266H14.4765V7.05846H4.25714V4.71126H16.1361V1.6391H0.882446L0.884034 1.64228Z" fill="#231F20"/>
<path d="M121.888 13.0153V13.6496H122.479C122.639 13.6496 122.794 13.606 122.817 13.3687C122.851 13.0541 122.624 13.0153 122.479 13.0153H121.888ZM121.651 12.8069H122.474C122.76 12.8069 123.036 12.8605 123.059 13.2763C123.069 13.5146 122.997 13.601 122.817 13.7369C123.007 13.858 123.012 13.8868 123.04 14.2063C123.059 14.4485 123.026 14.4873 123.128 14.647H122.847L122.808 14.4148C122.769 14.1964 122.876 13.858 122.494 13.858H121.888V14.6471H121.651V12.8069ZM122.27 12.2987C121.457 12.2987 120.794 12.9617 120.8 13.7804C120.8 14.5935 121.458 15.2565 122.276 15.2526C123.09 15.2526 123.753 14.5935 123.753 13.7756C123.753 12.9617 123.089 12.2987 122.27 12.2987ZM122.276 15.4447C121.352 15.4447 120.605 14.6993 120.605 13.7756C120.601 12.8553 121.352 12.105 122.276 12.105C123.196 12.105 123.947 12.8553 123.947 13.7756C123.947 14.6999 123.196 15.4415 122.276 15.4447Z" fill="#231F20"/>
<path d="M35.2424 15.5961C36.3382 15.2238 37.191 13.9619 37.3958 12.3754V11.9169H31.778V15.5965L35.2424 15.5961ZM37.3966 5.17027V4.75538C37.1813 3.0998 36.2651 1.79518 35.0971 1.48868H31.7788V5.16987L37.3966 5.17027ZM17.6249 11.9173V12.3718C17.8284 13.9599 18.681 15.2241 19.78 15.5965H23.2261V11.9169L17.6249 11.9173ZM19.9237 1.49146C18.7572 1.79812 17.8385 3.10337 17.6249 4.76134V5.17329H23.2261V1.4921L19.9237 1.49146ZM37.4006 6.70516H31.7827V10.3863H37.4006V6.70516ZM24.7594 15.5984H30.255V11.9188H24.7594V15.5984ZM30.255 1.48828H24.7594V5.16948H30.255V1.48828ZM17.6297 10.3816H23.2309V6.70039H17.6297V10.3816Z" fill="#EE2E24"/>
</g>
</g>
<defs>
<clipPath id="clip0_103_207">
<rect width="124" height="16" fill="white" transform="translate(0.452759 0.109863)"/>
</clipPath>
</defs>
</svg>
