<svg width="133" height="24" viewBox="0 0 133 24" fill="none" xmlns="http://www.w3.org/2000/svg">
<g clip-path="url(#clip0_103_219)">
<mask id="mask0_103_219" style="mask-type:luminance" maskUnits="userSpaceOnUse" x="1" y="1" width="132" height="23">
<path d="M132.388 1.03857H1.26794V23.0386H132.388V1.03857Z" fill="white"/>
</mask>
<g mask="url(#mask0_103_219)">
<path d="M52.7643 3.27837C52.7643 2.75789 52.9733 2.25874 53.3453 1.89071C53.7173 1.52268 54.2219 1.31592 54.748 1.31592C55.2741 1.31592 55.7787 1.52268 56.1507 1.89071C56.5227 2.25874 56.7317 2.75789 56.7317 3.27837C56.7125 3.78616 56.4951 4.26685 56.1252 4.6194C55.7553 4.97195 55.2617 5.16892 54.748 5.16892C54.2344 5.16892 53.7407 4.97195 53.3708 4.6194C53.0009 4.26685 52.7835 3.78616 52.7643 3.27837Z" fill="#273B7D"/>
<path d="M84.0612 16.3663C84.0612 15.2771 84.948 14.397 86.0407 14.397C86.5683 14.397 87.0743 14.6044 87.4473 14.9734C87.8203 15.3425 88.0299 15.843 88.0299 16.3649C88.0299 16.8869 87.8203 17.3874 87.4473 17.7565C87.0743 18.1255 86.5683 18.3329 86.0407 18.3329C84.9494 18.3329 84.0612 17.4514 84.0612 16.3649" fill="#499FDD"/>
<path d="M20.2083 15.5149C18.5009 15.5149 17.3129 14.1729 17.3129 12.2542C17.3129 10.3368 18.5009 8.99617 20.2097 8.99617C21.9267 8.99617 23.1272 10.3368 23.1272 12.2542C23.1272 14.2029 21.953 15.5149 20.2083 15.5149ZM20.2083 6.1304C16.5946 6.1304 13.9714 8.70645 13.9714 12.2542C13.9714 15.8032 16.596 18.3779 20.2083 18.3779C23.8372 18.3779 26.4701 15.8032 26.4701 12.2555C26.4701 8.70645 23.8372 6.1304 20.2097 6.1304H20.2083ZM48.9218 12.5617C48.796 12.321 48.637 12.0989 48.4494 11.9016L48.3388 11.7882L48.4549 11.6788C48.6207 11.5053 48.7905 11.3003 48.9535 11.0625L52.1445 6.37229H48.2712L45.8744 10.0416C45.7391 10.2384 45.4656 10.3368 45.0553 10.3368H44.5097V3.39992C44.5097 2.01282 43.6353 1.82422 42.6918 1.82422H41.0755L41.0796 18.1975H44.511V13.286H44.8329C45.2238 13.286 45.489 13.331 45.612 13.5415L47.5045 17.0755C48.0335 18.0349 48.5598 18.1975 49.5517 18.1975H52.1805L50.2217 14.9942L48.9232 12.5617H48.9218ZM65.5786 6.10307C63.8325 6.10307 62.7191 6.8711 62.0947 7.52023L61.8875 7.72796L61.8129 7.44507C61.6306 6.74947 61.0117 6.36819 60.082 6.36819H58.5445L58.5542 18.1934H61.962V12.7434C61.962 12.2104 62.0311 11.7485 62.1748 11.3262C62.5533 10.0484 63.6114 9.25446 64.9334 9.25446C65.9971 9.25446 66.4129 9.81067 66.4129 11.2456V16.3963C66.4129 17.6208 66.9861 18.1934 68.2252 18.1934H69.847L69.8415 10.6716C69.8415 7.68423 68.3676 6.10443 65.5786 6.10443V6.10307ZM54.7885 6.37229H53.1737L53.1847 15.5163V18.1975H54.9073L54.9681 18.2003L55.7721 18.1975H56.5706V18.1934H56.576L56.583 8.16937C56.583 6.95993 55.9987 6.37365 54.79 6.37365L54.7885 6.37229ZM33.5925 15.5149C31.8851 15.5149 30.6958 14.1729 30.6958 12.2542C30.6958 10.3368 31.8852 8.99617 33.594 8.99617C35.3069 8.99617 36.5115 10.3368 36.5115 12.2542C36.5115 14.2029 35.3373 15.5149 33.594 15.5149H33.5925ZM33.5925 6.1304C29.9761 6.1304 27.3514 8.70645 27.3514 12.2542C27.3514 15.8032 29.9761 18.3779 33.594 18.3779C37.2173 18.3779 39.8557 15.8032 39.8557 12.2555C39.8557 8.70645 37.2173 6.1304 33.594 6.1304" fill="#273B7D"/>
<path d="M106.635 15.5153C104.927 15.5153 103.737 14.1733 103.737 12.2546C103.737 10.3373 104.927 8.99663 106.635 8.99663C108.35 8.99663 109.554 10.3373 109.554 12.2546C109.554 14.2034 108.38 15.5153 106.635 15.5153ZM106.635 6.13086C103.018 6.13086 100.395 8.70691 100.395 12.2546C100.395 15.8037 103.018 18.3784 106.635 18.3784C110.26 18.3784 112.897 15.8037 112.897 12.256C112.897 8.70691 110.258 6.13086 106.635 6.13086Z" fill="#499FDD"/>
<path d="M77.0265 14.9948C75.163 14.9948 74.5 13.3877 74.5 11.8803C74.5 11.2161 74.6698 9.05274 76.8483 9.05274C77.9299 9.05274 79.3707 9.35886 79.3707 11.991C79.3707 14.4741 78.0957 14.9948 77.0265 14.9948ZM81.1403 6.3414C80.4938 6.3414 79.9965 6.59695 79.7465 7.06297L79.6525 7.24336L79.4951 7.1067C78.9453 6.63658 77.959 6.07764 76.3579 6.07764C73.1711 6.07764 71.0258 8.44597 71.0258 11.9678C71.0258 15.4881 73.2457 17.948 76.4215 17.948C77.5059 17.948 78.3637 17.6966 79.0433 17.1882L79.3058 16.9928V17.3207C79.3058 18.9005 78.2739 19.7724 76.4021 19.7724C75.4918 19.7724 74.6644 19.5538 74.109 19.3542C73.388 19.1383 72.9625 19.3174 72.671 20.0348L72.4003 20.6963L72.0176 21.6638L72.2538 21.7882C73.4529 22.4168 75.0125 22.7926 76.4215 22.7926C79.3224 22.7926 82.7123 21.3235 82.7123 17.1882L82.7247 6.3414H81.1403Z" fill="#273B7D"/>
<path d="M7.51949 15.3799L4.74567 15.3772V12.0973C4.74567 11.3949 5.02057 11.0314 5.627 10.9467H7.51949C8.8691 10.9467 9.74212 11.7885 9.7435 13.151C9.74212 14.5504 8.89121 15.3786 7.51949 15.3786V15.3799ZM4.74567 6.52983V5.66614C4.74567 4.9104 5.06893 4.55099 5.77758 4.50452H7.19767C8.41467 4.50452 9.14404 5.22472 9.14404 6.43144C9.14404 7.34979 8.64395 8.42258 7.24185 8.42258H4.74567V6.52983ZM11.0614 9.80422L10.5599 9.52543L10.9979 9.15508C11.5076 8.72187 12.3599 7.74748 12.3599 6.06655C12.3599 3.49187 10.3431 1.83008 7.21976 1.83008H3.24962C2.8029 1.84619 2.37959 2.03172 2.06738 2.34822C1.75517 2.66472 1.57801 3.08793 1.57263 3.53013V18.1391H7.29016C10.7616 18.1391 13.0022 16.2696 13.0022 13.3738C13.0022 11.8145 12.2784 10.482 11.0614 9.80422Z" fill="#273B7D"/>
<path d="M128.117 6.14307C127.414 6.14563 126.72 6.30452 126.087 6.608C125.454 6.91148 124.898 7.3518 124.46 7.89642L124.214 8.20528L124.02 7.85952C123.388 6.72114 122.302 6.14307 120.792 6.14307C119.208 6.14307 118.145 7.0177 117.652 7.53701L117.329 7.88276L117.204 7.42768C117.025 6.77171 116.435 6.41229 115.543 6.41229H114.11L114.096 18.1924H117.35V12.9925C117.35 12.5361 117.408 12.0865 117.522 11.615C117.833 10.3577 118.687 9.00611 120.122 9.1414C121.006 9.22613 121.44 9.9026 121.44 11.2091V18.1924H124.716V12.9925C124.716 12.4226 124.77 11.9963 124.9 11.5699C125.163 10.37 126.055 9.14003 127.439 9.14003C128.442 9.14003 128.812 9.70034 128.812 11.2091V16.4705C128.812 17.6595 129.348 18.1924 130.551 18.1924H132.082L132.085 10.672C132.085 7.66683 130.748 6.14307 128.117 6.14307ZM98.5086 14.1022C98.4989 14.1145 97.0996 15.574 95.2554 15.574C93.5757 15.574 91.8794 14.5545 91.8794 12.2791C91.8794 10.3139 93.1944 8.94051 95.0786 8.94051C95.6892 8.94051 96.3855 9.15643 96.4946 9.52132L96.5098 9.58281C96.5794 9.83402 96.7308 10.0555 96.9406 10.2129C97.1504 10.3703 97.4068 10.4548 97.6701 10.4533L99.4521 10.4561V8.91454C99.4521 6.88103 96.8371 6.14307 95.0786 6.14307C91.3157 6.14307 88.5861 8.73415 88.5861 12.3037C88.5861 15.8706 91.2854 18.4589 95.0096 18.4589C98.2393 18.4589 99.9964 16.3585 100.013 16.338L100.107 16.2232L98.6951 13.9068L98.5086 14.1022Z" fill="#499FDD"/>
</g>
</g>
<defs>
<clipPath id="clip0_103_219">
<rect width="132" height="23" fill="white" transform="translate(0.452759 0.609863)"/>
</clipPath>
</defs>
</svg>
