<svg width="82" height="15" viewBox="0 0 82 15" fill="none" xmlns="http://www.w3.org/2000/svg">
<g clip-path="url(#clip0_103_27)">
<path d="M0.90271 5.56043H7.37259H11.3016V2.31079L0.90271 5.56043Z" fill="#FF9D28"/>
<path d="M11.3016 2.61718V14.66L14.5513 1.01147L11.3016 2.61718Z" fill="#68C5ED"/>
<path d="M11.3013 5.56128H6.75183L11.3013 14.6603V5.56128Z" fill="#044D80"/>
<path d="M0.90271 5.56128L7.402 7.51106L6.52317 5.56128H0.90271Z" fill="#E54747"/>
<path d="M35.9057 6.22757H30.0396L28.2338 1.01196L26.4173 6.22757L20.5511 6.21758L25.2953 9.44486L23.4789 14.6605L28.2231 11.4332L32.9673 14.6605L31.1615 9.44486L35.9057 6.22757Z" fill="#00B67A"/>
<path d="M30.788 10.5539L30.5802 9.54224L29.0819 11.2483L30.788 10.5539Z" fill="#005128"/>
<path d="M51.1372 10.6971C51.6326 11.5568 52.1225 12.4068 52.612 13.2558C50.4443 14.9154 47.0718 15.116 44.5752 13.2048C41.7021 11.0038 41.2299 7.24817 42.7681 4.54472C44.5372 1.43517 47.8479 0.747475 49.9795 1.25174C49.9218 1.37697 48.6452 4.02554 48.6452 4.02554C48.6452 4.02554 48.5442 4.03217 48.4871 4.03327C47.8571 4.05998 47.3878 4.20658 46.8848 4.46663C46.333 4.75458 45.8601 5.17331 45.5075 5.68622C45.1548 6.19913 44.9332 6.7906 44.8619 7.40895C44.7875 8.03604 44.8743 8.67174 45.1139 9.256C45.3164 9.74995 45.603 10.1886 45.9872 10.559C46.5765 11.1277 47.2779 11.4799 48.0908 11.5964C48.8606 11.7069 49.601 11.5975 50.2948 11.2489C50.555 11.1183 50.7764 10.9741 51.0351 10.7763C51.0681 10.755 51.0974 10.7279 51.1372 10.6971Z" fill="#FF492C"/>
<path d="M51.142 3.15704C51.0162 3.03328 50.8996 2.91909 50.7836 2.80417C50.7144 2.73566 50.6477 2.66438 50.5768 2.59753C50.5514 2.5734 50.5215 2.54044 50.5215 2.54044C50.5215 2.54044 50.5457 2.48924 50.556 2.46824C50.6917 2.19585 50.9044 1.99676 51.1567 1.83838C51.4358 1.6619 51.7608 1.57211 52.0909 1.58035C52.5132 1.58864 52.9058 1.6938 53.2371 1.97706C53.4817 2.18609 53.6071 2.4513 53.6292 2.76789C53.6661 3.30199 53.4451 3.71103 53.0062 3.99649C52.7483 4.16446 52.4702 4.2943 52.1914 4.44808C52.0376 4.53299 51.9061 4.60757 51.7558 4.76117C51.6236 4.91533 51.6172 5.06064 51.6172 5.06064L53.6149 5.05806V5.94779H50.5313V5.86178C50.5195 5.42456 50.5705 5.01312 50.7707 4.61605C50.9549 4.25176 51.2411 3.98508 51.5849 3.77973C51.8498 3.62152 52.1286 3.48689 52.394 3.32943C52.5577 3.23237 52.6734 3.09 52.6725 2.88355C52.6725 2.70638 52.5435 2.54891 52.3594 2.49974C51.9251 2.3826 51.4831 2.56954 51.2532 2.96698C51.2197 3.02499 51.1855 3.08264 51.142 3.15704ZM55.0061 9.75111L53.3226 6.84378H49.9911L48.2967 9.78113H51.6527L53.3088 12.6746L55.0061 9.75111Z" fill="#FF492C"/>
<path d="M81.0537 7.44318L75.6614 2.05095C75.475 1.87787 75.1954 1.87787 75.0224 2.05095L73.9572 3.11608L78.2843 7.44318C78.4574 7.61626 78.4574 7.90918 78.2843 8.08226L73.8241 12.5425L74.8892 13.6076C75.0756 13.7807 75.3552 13.7807 75.5283 13.6076L81.0403 8.09557C81.2267 7.90917 81.2267 7.62958 81.0537 7.44318Z" fill="#009C9C"/>
<path d="M71.8675 2.4522L71.4814 2.06609C71.295 1.89301 71.0154 1.89301 70.8423 2.06609L69.7772 3.13122L70.4829 3.83687L71.8675 5.22154L73.2522 3.83687L71.8675 2.4522Z" fill="#40E3E3"/>
<path d="M71.7474 10.4656L70.3627 11.8502L69.6571 12.5559L70.7222 13.621C70.9086 13.7941 71.1882 13.7941 71.3613 13.621L71.7474 13.2349L73.1321 11.8502L71.7474 10.4656Z" fill="#40E3E3"/>
<path d="M74.1173 7.44541C74.2904 7.63181 74.2904 7.91141 74.1173 8.0845L71.7474 10.4544L73.1321 11.8391L76.8867 8.0845C77.0598 7.91141 77.0598 7.6185 76.8867 7.44541L73.2652 3.82397L71.8673 5.20864L74.1173 7.44541Z" fill="#1ABAB8"/>
<path d="M65.3167 7.57632L69.0713 3.82174L67.6866 2.43706L67.2872 2.05095C67.1008 1.87787 66.8212 1.87787 66.6481 2.05095L61.136 7.57632C60.9629 7.7494 60.9629 8.04232 61.136 8.2154L66.5283 13.6076C66.7147 13.7807 66.9942 13.7807 67.1673 13.6076L67.5668 13.2215L68.9514 11.8368L65.33 8.2154C65.1436 8.04232 65.1436 7.76272 65.3167 7.57632Z" fill="#87F0F0"/>
<path d="M69.4972 7.57501L71.1482 5.92406L69.7635 4.53939L69.0578 3.83374L65.3299 7.58833C65.1568 7.76141 65.1568 8.05432 65.3299 8.2274L68.938 11.8355L69.6437 11.1299L71.0283 9.74522L69.4972 8.21409C69.3241 8.05432 69.3241 7.76141 69.4972 7.57501Z" fill="#40E3E3"/>
<path d="M69.4971 8.21508L71.0283 9.7462L72.6792 8.09525C72.8523 7.92217 72.8523 7.62926 72.6792 7.45617L71.1481 5.92505L69.4971 7.576C69.3374 7.7624 69.3374 8.042 69.4971 8.21508Z" fill="#17CFCF"/>
</g>
<defs>
<clipPath id="clip0_103_27">
<rect width="81" height="14" fill="white" transform="translate(0.90271 0.659912)"/>
</clipPath>
</defs>
</svg>
