<svg width="91" height="26" viewBox="0 0 91 26" fill="none" xmlns="http://www.w3.org/2000/svg">
<g clip-path="url(#clip0_103_286)">
<mask id="mask0_103_286" style="mask-type:luminance" maskUnits="userSpaceOnUse" x="1" y="1" width="89" height="25">
<path d="M89.8424 1.03857H1.03772V25.0386H89.8424V1.03857Z" fill="white"/>
</mask>
<g mask="url(#mask0_103_286)">
<path d="M13.2487 23.4916C11.9128 23.7262 10.5534 23.7965 9.14714 23.9838L4.85797 11.4214V24.523C3.52209 24.6636 2.30336 24.8511 1.03772 25.0386V1.03857H4.60032L9.47521 14.656V1.03857H13.2487V23.4916ZM20.6315 9.82764C22.0847 9.82764 24.3113 9.75731 25.6472 9.75731V13.5072C23.983 13.5072 22.0378 13.5072 20.6315 13.5776V19.1558C22.8347 19.0152 25.0378 18.8275 27.2643 18.7572V22.3664L16.8814 23.1868V1.03857H27.2643V4.78858H20.6315V9.82764ZM41.2096 4.78867H37.319V22.0386C36.0534 22.0386 34.7877 22.0386 33.5692 22.0854V4.78867H29.6786V1.03857H41.2098L41.2096 4.78867ZM47.3033 9.5699H52.4362V13.3198H47.3033V21.8277H43.6234V1.03857H54.1002V4.78858H47.3033V9.5699ZM60.1939 18.5464C62.3268 18.5931 64.4829 18.7575 66.569 18.8744V22.5776C63.2175 22.3665 59.8659 22.1559 56.444 22.0854V1.03857H60.1939V18.5464ZM69.733 22.8354C70.9283 22.9059 72.1939 22.9762 73.4127 23.1166V1.03857H69.733V22.8354ZM89.8425 1.03857L85.0846 12.4527L89.8425 25.0386C88.4361 24.8511 87.0299 24.5932 85.6236 24.3588L82.9284 17.4215L80.1865 23.7965C78.8268 23.5619 77.5143 23.4916 76.1552 23.3041L80.9833 12.3119L76.6238 1.03857H80.6548L83.1158 7.34328L85.7409 1.03857H89.8425Z" fill="#D81F26"/>
</g>
</g>
<defs>
<clipPath id="clip0_103_286">
<rect width="90" height="25" fill="white" transform="translate(0.452759 0.609863)"/>
</clipPath>
</defs>
</svg>
