<svg width="81" height="23" viewBox="0 0 81 23" fill="none" xmlns="http://www.w3.org/2000/svg">
<g clip-path="url(#clip0_103_273)">
<mask id="mask0_103_273" style="mask-type:luminance" maskUnits="userSpaceOnUse" x="0" y="1" width="81" height="22">
<path d="M80.3451 1.03857H0.708862V22.0386H80.3451V1.03857Z" fill="white"/>
</mask>
<g mask="url(#mask0_103_273)">
<path d="M9.65012 5.51112V21.6021H7.17016V5.51112H0.708862V3.1491H16.1178V5.51112H9.65012ZM19.0664 21.6021V3.1491H21.5463V21.6021H19.0664ZM39.0463 16.3745C39.0463 19.5047 36.9521 21.5991 32.1993 21.5991H25.9102V3.1491H32.0208C36.4771 3.1491 38.4566 5.15411 38.4566 8.04846C38.4566 9.93553 37.3633 11.3285 35.2945 12.1126C37.7649 12.7119 39.0463 14.3057 39.0463 16.3745ZM32.228 5.45056H28.4188V11.236H31.8423C34.4976 11.236 35.948 10.0567 35.948 8.25566C35.948 6.45465 34.6474 5.45056 32.228 5.45056ZM32.0495 13.512H28.438V19.2976H32.4352C35.1798 19.2976 36.5409 18.3222 36.5409 16.4032C36.5409 14.2803 34.6474 13.512 32.0495 13.512ZM55.4052 6.53116C53.9293 5.49199 52.1666 4.93735 50.3592 4.9501C46.3428 4.9501 43.6333 7.72651 43.6333 12.3039C43.6333 16.8813 46.3428 19.8011 50.407 19.8011C52.2973 19.7693 54.1269 19.1349 55.6315 17.9938L56.0427 20.5056C54.3182 21.5193 52.3483 22.0484 50.3464 22.042C44.9275 22.042 41.1055 18.2934 41.1055 12.4186C41.1055 6.54391 44.9849 2.70921 50.356 2.70921C52.4056 2.69646 54.4202 3.2256 56.1989 4.24564L55.4052 6.53116ZM71.4038 4.00975C71.1265 3.844 70.8428 3.69099 70.5495 3.55711C68.1365 8.18234 63.7759 13.6809 57.9585 16.8112C58.2804 17.5443 58.7044 18.2265 59.2144 18.8449C64.1998 15.4054 68.8155 9.69327 71.4038 4.00975Z" fill="#3E8EDE"/>
<path d="M70.3288 3.4517C69.0634 2.91299 67.699 2.63885 66.322 2.6516C60.9031 2.6516 57.0684 6.83694 57.0684 12.3483C57.0652 13.2313 57.1608 14.1111 57.3521 14.9717C62.8985 12.7117 67.8329 7.72629 70.3288 3.4517ZM71.6326 4.13703C68.786 11.137 65.3115 16.0874 60.8871 20.346C62.4969 21.4298 64.4031 21.994 66.3411 21.959C71.7601 21.959 75.5948 17.7449 75.5948 12.2304C75.5756 8.58057 74.0647 5.74359 71.6326 4.13703ZM75.5756 3.5282C75.5183 2.21171 76.5383 1.09923 77.8548 1.04186C79.1713 0.98448 80.2837 2.00452 80.3411 3.321C80.3443 3.39113 80.3443 3.45807 80.3411 3.5282C80.3985 4.84468 79.3785 5.95716 78.062 6.01454C76.7455 6.07191 75.633 5.05188 75.5756 3.73539C75.5725 3.66527 75.5725 3.59514 75.5756 3.5282ZM80.0702 3.5282C80.0702 2.36472 79.1266 1.418 77.9632 1.418C76.7997 1.418 75.853 2.36153 75.853 3.52501V3.5282C75.8562 4.69168 76.8029 5.63521 77.9695 5.63202C79.133 5.62884 80.0766 4.68212 80.0734 3.51545V3.5282H80.0702ZM77.0324 2.2659H78.1289C78.6613 2.2659 79.0597 2.52729 79.0597 3.03412C79.0725 3.38157 78.8398 3.69395 78.4987 3.77365L79.1458 4.67574H78.5848L78.0014 3.81827H77.5041V4.67574H77.0515V2.25315L77.0324 2.2659ZM78.0875 3.47401C78.317 3.51545 78.5338 3.36244 78.5752 3.13293C78.5784 3.11381 78.5816 3.09468 78.5816 3.07556C78.5816 2.85242 78.3999 2.66754 78.1767 2.66754C78.148 2.66754 78.1194 2.67073 78.0907 2.67711H77.5073V3.45807H78.0939L78.0875 3.47401Z" fill="#3E8EDE"/>
</g>
</g>
<defs>
<clipPath id="clip0_103_273">
<rect width="80" height="22" fill="white" transform="translate(0.452759 0.109863)"/>
</clipPath>
</defs>
</svg>
