<svg width="65" height="27" viewBox="0 0 65 27" fill="none" xmlns="http://www.w3.org/2000/svg">
<g clip-path="url(#clip0_103_231)">
<mask id="mask0_103_231" style="mask-type:luminance" maskUnits="userSpaceOnUse" x="1" y="1" width="63" height="26">
<path d="M63.7088 1.03857H1.38782V26.0386H63.7088V1.03857Z" fill="white"/>
</mask>
<g mask="url(#mask0_103_231)">
<path d="M1.38782 24.2979H13.5051V26.0325H1.38782V24.2979Z" fill="#1F70C1"/>
<path d="M1.38782 20.9707H13.5051V22.7114H1.38782V20.9707Z" fill="#1F70C1"/>
<path d="M4.84485 17.6499H10.0424V19.3906H4.84485V17.6499Z" fill="#1F70C1"/>
<path d="M4.84485 14.3286H10.0424V16.0694H4.84485V14.3286Z" fill="#1F70C1"/>
<path d="M4.84485 11.0078H10.0424V12.7485H4.84485V11.0078Z" fill="#1F70C1"/>
<path d="M4.84485 7.68018H10.0424V9.42093H4.84485V7.68018Z" fill="#1F70C1"/>
<path d="M13.5051 4.35938H1.38782V6.10013H13.5051V4.35938Z" fill="#1F70C1"/>
<path d="M13.5051 1.03857H1.38782V2.77933H13.5051V1.03857Z" fill="#1F70C1"/>
<path d="M15.2333 22.7114H33.8691C34.1839 22.1744 34.4185 21.588 34.5605 20.9707H15.2333V22.7114Z" fill="#1F70C1"/>
<path d="M32.4182 14.3286H18.696V16.0694H33.8688C33.4737 15.4026 32.986 14.8163 32.4182 14.3286Z" fill="#1F70C1"/>
<path d="M18.696 11.0078V12.7485H32.4182C32.9984 12.2608 33.486 11.6744 33.8688 11.0078H18.696Z" fill="#1F70C1"/>
<path d="M33.8692 4.35938H15.2333V6.10013H34.5605C34.4 5.48284 34.1654 4.89645 33.8692 4.35938Z" fill="#1F70C1"/>
<path d="M28.1407 1.03857H15.2333V2.77933H32.5913C31.4309 1.70522 29.8568 1.03857 28.1407 1.03857Z" fill="#1F70C1"/>
<path d="M23.8873 7.68066H18.696V9.42141H23.8873V7.68066Z" fill="#1F70C1"/>
<path d="M29.0848 9.42093H34.5169C34.6712 8.8654 34.7514 8.27896 34.7514 7.68018H29.0848V9.42093Z" fill="#1F70C1"/>
<path d="M18.696 17.6499H23.8873V19.3906H18.696V17.6499Z" fill="#1F70C1"/>
<path d="M29.0848 17.6499V19.3906H34.7514C34.7514 18.7918 34.6712 18.2054 34.5169 17.6499H29.0848Z" fill="#1F70C1"/>
<path d="M15.2333 26.0202L28.1407 26.0387C29.8691 26.0387 31.4309 25.372 32.5975 24.2979H15.2333V26.0202Z" fill="#1F70C1"/>
<path d="M36.011 24.2979H44.6653V26.0325H36.011V24.2979Z" fill="#1F70C1"/>
<path d="M36.011 20.9707H44.6653V22.7114H36.011V20.9707Z" fill="#1F70C1"/>
<path d="M39.4681 17.6499H44.6656V19.3906H39.4681V17.6499Z" fill="#1F70C1"/>
<path d="M39.4681 14.3286H44.6656V16.0694H39.4681V14.3286Z" fill="#1F70C1"/>
<path d="M47.0728 4.35938H36.011V6.10013H47.6715L47.0728 4.35938Z" fill="#1F70C1"/>
<path d="M45.9246 1.03857H36.011V2.77933H46.5234L45.9246 1.03857Z" fill="#1F70C1"/>
<path d="M55.0483 24.2979H63.7088V26.0325H55.0483V24.2979Z" fill="#1F70C1"/>
<path d="M55.0483 20.9707H63.7088V22.7113H55.0483V20.9707Z" fill="#1F70C1"/>
<path d="M55.0483 17.6499H60.2458V19.3906H55.0483V17.6499Z" fill="#1F70C1"/>
<path d="M55.0483 14.3286H60.2458V16.0694H55.0483V14.3286Z" fill="#1F70C1"/>
<path d="M55.0483 12.7485H60.2458V11.0078H55.0483H50.3447L49.857 12.4152L49.3693 11.0078H44.6656H39.4681V12.7485H44.6656V11.1497L45.215 12.7485H54.499L55.0483 11.1497V12.7485Z" fill="#1F70C1"/>
<path d="M60.2458 7.68018H51.4927L50.894 9.42093H60.2458V7.68018Z" fill="#1F70C1"/>
<path d="M53.7955 1.03857L53.1967 2.77933H63.7091V1.03857H53.7955Z" fill="#1F70C1"/>
<path d="M49.858 26.0202L50.4567 24.2979H49.2592L49.858 26.0202Z" fill="#1F70C1"/>
<path d="M48.7081 22.7114H51.0044L51.6217 20.9707H48.097L48.7081 22.7114Z" fill="#1F70C1"/>
<path d="M47.5421 19.3906H52.1717L52.7828 17.6499H46.931L47.5421 19.3906Z" fill="#1F70C1"/>
<path d="M46.3813 16.0694H53.3381L53.9307 14.3286H45.7825L46.3813 16.0694Z" fill="#1F70C1"/>
<path d="M39.4681 9.42093H48.8199L48.2212 7.68018H39.4681V9.42093Z" fill="#1F70C1"/>
<path d="M52.0485 6.10013H63.709V4.35938H52.6411L52.0485 6.10013Z" fill="#1F70C1"/>
</g>
</g>
<defs>
<clipPath id="clip0_103_231">
<rect width="64" height="26" fill="white" transform="translate(0.452759 0.109863)"/>
</clipPath>
</defs>
</svg>
