<svg width="100" height="142" viewBox="0 0 100 142" fill="none" xmlns="http://www.w3.org/2000/svg">
<g clip-path="url(#clip0_103_799)">
<g clip-path="url(#clip1_103_799)">
<g clip-path="url(#clip2_103_799)">
<path d="M-30.1472 105.17L-6.33722 86.9297C6.31278 103.44 19.7528 111.05 34.7128 111.05C49.5928 111.05 62.6528 103.53 74.7328 87.1497L98.8828 104.95C81.4528 128.57 59.7928 141.05 34.7128 141.05C9.71278 141.05 -12.1572 128.65 -30.1472 105.17Z" fill="url(#paint0_linear_103_799)"/>
<path d="M34.6328 25.89L-7.74716 62.41L-27.3372 39.69L34.7228 -13.79L96.2928 39.73L76.6128 62.37L34.6328 25.89Z" fill="url(#paint1_linear_103_799)"/>
</g>
</g>
</g>
<defs>
<linearGradient id="paint0_linear_103_799" x1="-30.1472" y1="3767.63" x2="98.8828" y2="3767.63" gradientUnits="userSpaceOnUse">
<stop stop-color="#8930FD"/>
<stop offset="1" stop-color="#49CCF9"/>
</linearGradient>
<linearGradient id="paint1_linear_103_799" x1="-27.3372" y1="5168.57" x2="96.2928" y2="5168.57" gradientUnits="userSpaceOnUse">
<stop stop-color="#FF02F0"/>
<stop offset="1" stop-color="#FFC800"/>
</linearGradient>
<clipPath id="clip0_103_799">
<rect width="130" height="155" fill="white" transform="translate(-30.5472 -13.9502)"/>
</clipPath>
<clipPath id="clip1_103_799">
<rect width="130" height="155" fill="white" transform="translate(-30.5472 -13.9502)"/>
</clipPath>
<clipPath id="clip2_103_799">
<rect width="130" height="155" fill="white" transform="translate(-30.5472 -13.9502)"/>
</clipPath>
</defs>
</svg>
