<svg width="315" height="210" viewBox="0 0 315 210" fill="none" xmlns="http://www.w3.org/2000/svg">
<g clip-path="url(#clip0_103_695)">
<g clip-path="url(#clip1_103_695)">
<g clip-path="url(#clip2_103_695)">
<g opacity="0.6" filter="url(#filter0_f_103_695)">
<g filter="url(#filter1_d_103_695)">
<path d="M46.4502 196.336C59.2766 196.336 69.6744 185.938 69.6744 173.112C69.6744 160.286 59.2766 149.888 46.4502 149.888C33.6238 149.888 23.226 160.286 23.226 173.112C23.226 185.938 33.6238 196.336 46.4502 196.336Z" fill="white"/>
</g>
<mask id="mask0_103_695" style="mask-type:luminance" maskUnits="userSpaceOnUse" x="32" y="160" width="26" height="26">
<path d="M32.6881 160.21H57.6325V185.154H32.6881V160.21Z" fill="white"/>
</mask>
<g mask="url(#mask0_103_695)">
<path d="M55.3651 162.883H44.6408C44.6407 163.519 44.7658 164.148 45.009 164.736C45.2523 165.323 45.6088 165.857 46.0583 166.306C46.5078 166.756 47.0415 167.113 47.6289 167.356C48.2163 167.599 48.8458 167.725 49.4816 167.725H51.4576V169.631C51.4584 170.914 51.9683 172.145 52.8754 173.052C53.7826 173.959 55.0127 174.469 56.2957 174.47V163.813C56.2957 163.299 55.8796 162.883 55.3651 162.883Z" fill="#2684FF"/>
<path d="M50.0589 168.227H39.3337C39.3345 169.51 39.8444 170.74 40.7515 171.647C41.6587 172.554 42.8888 173.065 44.1718 173.066H46.1478V174.979C46.1495 176.262 46.6604 177.492 47.5682 178.398C48.476 179.305 49.7066 179.814 50.9896 179.814V169.157C50.9896 168.644 50.5725 168.227 50.0589 168.227Z" fill="url(#paint0_linear_103_695)"/>
<path d="M44.7492 173.568H34.024C34.024 174.204 34.1492 174.834 34.3926 175.421C34.6359 176.008 34.9925 176.542 35.4421 176.992C35.8918 177.441 36.4255 177.798 37.0129 178.041C37.6003 178.284 38.2299 178.409 38.8657 178.409H40.8472V180.317C40.8479 181.599 41.3571 182.828 42.2631 183.735C43.1691 184.642 44.3978 185.153 45.6798 185.155V174.498C45.6798 173.985 45.2628 173.568 44.7492 173.568Z" fill="url(#paint1_linear_103_695)"/>
</g>
<g filter="url(#filter2_d_103_695)">
<path d="M280.543 144.083C293.369 144.083 303.767 133.685 303.767 120.859C303.767 108.033 293.369 97.6348 280.543 97.6348C267.716 97.6348 257.319 108.033 257.319 120.859C257.319 133.685 267.716 144.083 280.543 144.083Z" fill="white"/>
</g>
<path fill-rule="evenodd" clip-rule="evenodd" d="M287.667 121.253C286.94 121.244 286.22 121.379 285.546 121.65C284.873 121.922 284.26 122.324 283.743 122.834C283.226 123.345 282.816 123.952 282.536 124.622C282.256 125.292 282.112 126.011 282.112 126.738C282.112 127.464 282.256 128.183 282.536 128.853C282.816 129.523 283.227 130.13 283.743 130.641C284.26 131.151 284.873 131.553 285.547 131.824C286.221 132.096 286.941 132.231 287.667 132.221C289.11 132.203 290.487 131.616 291.5 130.59C292.513 129.563 293.081 128.179 293.081 126.737C293.081 125.294 292.513 123.91 291.499 122.884C290.486 121.857 289.109 121.271 287.667 121.253ZM273.419 121.254C271.965 121.254 270.57 121.832 269.541 122.86C268.513 123.889 267.935 125.283 267.935 126.738C267.935 128.192 268.513 129.587 269.541 130.616C270.57 131.644 271.965 132.222 273.419 132.222C274.874 132.222 276.269 131.644 277.297 130.616C278.325 129.587 278.903 128.192 278.903 126.738C278.903 125.283 278.325 123.889 277.297 122.86C276.269 121.832 274.874 121.254 273.419 121.254ZM286.027 114.399C286.027 115.119 285.885 115.832 285.609 116.497C285.334 117.163 284.93 117.767 284.42 118.276C283.911 118.786 283.307 119.189 282.641 119.465C281.976 119.741 281.263 119.882 280.543 119.882C279.823 119.882 279.11 119.741 278.444 119.465C277.779 119.189 277.174 118.786 276.665 118.276C276.156 117.767 275.752 117.163 275.477 116.497C275.201 115.832 275.059 115.119 275.059 114.399C275.059 112.944 275.637 111.55 276.665 110.521C277.694 109.493 279.088 108.915 280.543 108.915C281.997 108.915 283.392 109.493 284.42 110.521C285.449 111.55 286.027 112.944 286.027 114.399Z" fill="#F06A6A"/>
<g filter="url(#filter3_d_103_695)">
<path d="M282.991 70.7561C295.817 70.7561 306.215 60.3582 306.215 47.5318C306.215 34.7055 295.817 24.3076 282.991 24.3076C270.164 24.3076 259.766 34.7055 259.766 47.5318C259.766 60.3582 270.164 70.7561 282.991 70.7561Z" fill="white"/>
</g>
<path d="M274.051 54.3323C273.5 54.3333 272.958 54.1879 272.481 53.9112C272.004 53.6344 271.609 53.2361 271.337 52.7569C271.068 52.281 270.935 51.741 270.949 51.1949C270.964 50.6487 271.127 50.1169 271.421 49.6563L277.012 40.878C277.298 40.4067 277.705 40.0197 278.189 39.7563C278.674 39.4929 279.22 39.3624 279.772 39.3782C280.323 39.3914 280.86 39.5507 281.33 39.84C281.799 40.1293 282.183 40.5381 282.442 41.0246C282.698 41.5074 282.817 42.0506 282.788 42.596C282.758 43.1415 282.58 43.6685 282.274 44.1207L276.687 52.899C276.404 53.3405 276.014 53.7033 275.553 53.9539C275.092 54.2044 274.576 54.3346 274.051 54.3323Z" fill="#F62B54"/>
<path d="M283.64 54.331C283.089 54.3328 282.548 54.1881 282.072 53.912C281.596 53.6358 281.202 53.238 280.93 52.7593C280.662 52.2847 280.528 51.7461 280.543 51.2012C280.558 50.6563 280.721 50.1259 281.015 49.6669L286.595 40.9086C286.877 40.4304 287.282 40.0363 287.767 39.767C288.253 39.4977 288.802 39.363 289.357 39.377C289.912 39.3877 290.454 39.547 290.927 39.8383C291.4 40.1296 291.786 40.5422 292.046 41.0334C292.3 41.5205 292.415 42.0681 292.38 42.6164C292.344 43.1647 292.159 43.6928 291.844 44.1431L286.265 52.9014C285.983 53.3411 285.595 53.7027 285.136 53.9526C284.677 54.2024 284.162 54.3326 283.64 54.331Z" fill="#FFCC00"/>
<path d="M293.015 54.4053C294.604 54.4053 295.892 53.1432 295.892 51.587C295.892 50.0316 294.604 48.7695 293.015 48.7695C291.425 48.7695 290.136 50.0316 290.136 51.587C290.136 53.1441 291.425 54.4053 293.015 54.4053Z" fill="#00CA72"/>
<g filter="url(#filter4_d_103_695)">
<path d="M218.91 191.176C227.223 191.176 233.962 184.437 233.962 176.124C233.962 167.81 227.223 161.071 218.91 161.071C210.597 161.071 203.858 167.81 203.858 176.124C203.858 184.437 210.597 191.176 218.91 191.176Z" fill="white"/>
</g>
<path d="M225.19 168.319H212.629C211.787 168.319 211.104 169.001 211.104 169.844V182.405C211.104 183.247 211.787 183.929 212.629 183.929H225.19C226.032 183.929 226.715 183.247 226.715 182.405V169.844C226.715 169.001 226.032 168.319 225.19 168.319Z" fill="url(#paint2_linear_103_695)"/>
<path d="M223.954 170.348H220.657C220.462 170.348 220.276 170.425 220.139 170.562C220.001 170.699 219.924 170.886 219.924 171.08V176.446C219.924 176.85 220.252 177.177 220.657 177.177H223.954C224.05 177.177 224.145 177.159 224.234 177.122C224.323 177.085 224.403 177.031 224.471 176.963C224.539 176.895 224.593 176.815 224.63 176.726C224.666 176.637 224.685 176.542 224.685 176.446V171.08C224.685 170.984 224.666 170.889 224.63 170.8C224.593 170.711 224.539 170.63 224.471 170.562C224.403 170.494 224.323 170.44 224.234 170.403C224.145 170.367 224.05 170.348 223.954 170.348ZM217.162 170.348H213.865C213.769 170.348 213.674 170.367 213.585 170.403C213.496 170.44 213.415 170.494 213.347 170.562C213.279 170.63 213.226 170.711 213.189 170.8C213.152 170.888 213.133 170.984 213.133 171.08V180.348C213.133 180.752 213.461 181.08 213.865 181.08H217.162C217.567 181.08 217.895 180.752 217.895 180.348V171.08C217.895 170.886 217.817 170.699 217.68 170.562C217.543 170.425 217.357 170.348 217.162 170.348Z" fill="white"/>
<g filter="url(#filter5_d_103_695)">
<path d="M129.455 191.176C137.768 191.176 144.508 184.437 144.508 176.124C144.508 167.81 137.768 161.071 129.455 161.071C121.142 161.071 114.403 167.81 114.403 176.124C114.403 184.437 121.142 191.176 129.455 191.176Z" fill="white"/>
</g>
<path d="M124.979 176.06C124.979 176.06 125.729 174.888 126.751 174.888C128.296 174.841 129.568 177.843 129.796 178.266C131.522 174.137 134.385 170.641 136.702 168.319H122.389V185.374C122.389 186.031 122.32 186.641 122.207 187.275C124.07 186.946 125.91 186.477 127.682 185.819C132.022 184.154 133.726 182.395 133.726 182.395L133.84 182.277L133.908 182.418C134.18 183.122 134.589 183.755 134.998 184.389C135.589 185.163 135.907 185.233 136.134 185.163C136.384 185.093 136.521 184.647 136.589 183.966C136.656 183.262 136.702 181.738 136.702 179.838V169.632C132.545 175.146 129.431 183.404 129.431 183.404C129.431 183.404 127.364 176.037 124.979 176.06Z" fill="#003059"/>
<g filter="url(#filter6_d_103_695)">
<path d="M110.656 52.1877C123.483 52.1877 133.881 41.7899 133.881 28.9635C133.881 16.1371 123.483 5.73926 110.656 5.73926C97.8301 5.73926 87.4323 16.1371 87.4323 28.9635C87.4323 41.7899 97.8301 52.1877 110.656 52.1877Z" fill="white"/>
</g>
<path d="M109.661 18.0637L99.7191 22.1769C99.5967 22.2278 99.4923 22.314 99.4191 22.4245C99.3459 22.535 99.3074 22.6648 99.3084 22.7974C99.3093 22.9299 99.3498 23.0591 99.4246 23.1686C99.4994 23.278 99.6051 23.3626 99.7282 23.4117L109.711 27.3701C110.588 27.718 111.565 27.718 112.442 27.3701L122.425 23.4117C122.549 23.363 122.655 23.2785 122.73 23.169C122.805 23.0595 122.846 22.9301 122.847 22.7974C122.848 22.6646 122.809 22.5346 122.735 22.4241C122.662 22.3135 122.557 22.2274 122.434 22.1769L112.493 18.0628C111.586 17.6874 110.567 17.6874 109.66 18.0628" fill="#FCB400"/>
<path d="M111.963 29.5313V39.4206C111.963 39.8914 112.438 40.2128 112.875 40.0398L123.999 35.7226C124.123 35.6734 124.229 35.5881 124.304 35.4776C124.379 35.3672 124.419 35.2368 124.419 35.1034V25.2141C124.419 25.1054 124.392 24.9983 124.341 24.9022C124.29 24.8062 124.217 24.724 124.127 24.6629C124.037 24.6018 123.933 24.5637 123.825 24.5518C123.717 24.54 123.608 24.5548 123.507 24.5949L112.383 28.9121C112.259 28.9613 112.153 29.0466 112.078 29.1571C112.003 29.2675 111.963 29.3979 111.963 29.5313Z" fill="#18BFFF"/>
<path d="M109.365 30.0416L106.064 31.6351L105.728 31.7972L98.7593 35.1364C98.3177 35.3495 97.754 35.0272 97.754 34.5373V25.2554C97.754 25.0778 97.8451 24.9239 97.9671 24.8092C98.0174 24.759 98.0744 24.7161 98.1365 24.6817C98.2278 24.6298 98.3294 24.5987 98.4341 24.5909C98.5389 24.583 98.644 24.5985 98.742 24.6362L109.31 28.8232C109.847 29.0362 109.889 29.7884 109.365 30.0416Z" fill="#F82B60"/>
<path d="M109.365 30.0418L106.063 31.6353L97.9671 24.8085C98.0171 24.7589 98.0738 24.7166 98.1356 24.6828C98.2269 24.6306 98.3286 24.5992 98.4335 24.591C98.5384 24.5828 98.6437 24.598 98.742 24.6355L109.31 28.8234C109.847 29.0364 109.889 29.7886 109.365 30.0418Z" fill="black" fill-opacity="0.25"/>
<g filter="url(#filter7_d_103_695)">
<path d="M209.448 38.0697C217.761 38.0697 224.5 31.3305 224.5 23.0173C224.5 14.704 217.761 7.96484 209.448 7.96484C201.135 7.96484 194.395 14.704 194.395 23.0173C194.395 31.3305 201.135 38.0697 209.448 38.0697Z" fill="white"/>
</g>
<path fill-rule="evenodd" clip-rule="evenodd" d="M204.673 17.5319C205.173 17.938 205.361 17.907 206.3 17.8442L215.156 17.3124C215.344 17.3124 215.188 17.1257 215.125 17.0939L213.655 16.0312C213.373 15.8126 212.997 15.5613 212.278 15.6241L203.702 16.2497C203.389 16.2807 203.327 16.4373 203.451 16.5621L204.673 17.5319ZM205.204 19.5962V28.9145C205.204 29.4153 205.455 29.6029 206.017 29.571L215.751 29.0083C216.315 28.9773 216.378 28.6331 216.378 28.2252V18.9706C216.378 18.5645 216.221 18.3459 215.877 18.3769L205.705 18.9706C205.33 19.0025 205.204 19.1892 205.204 19.5962ZM214.813 20.0961C214.875 20.3775 214.813 20.6589 214.531 20.6908L214.062 20.7837V27.6633C213.655 27.8819 213.28 28.0075 212.966 28.0075C212.466 28.0075 212.34 27.8509 211.965 27.3819L208.897 22.5666V27.2253L209.868 27.4448C209.868 27.4448 209.868 28.0075 209.084 28.0075L206.925 28.1323C206.863 28.0075 206.925 27.6952 207.145 27.6324L207.709 27.4766V21.3145L206.925 21.2517C206.863 20.9703 207.019 20.5642 207.458 20.5323L209.774 20.3766L212.966 25.2548V20.9412L212.152 20.8474C212.089 20.5032 212.34 20.2537 212.653 20.2227L214.813 20.0961ZM202.982 15.4056L211.902 14.749C212.997 14.6543 213.28 14.7172 213.968 15.218L216.816 17.2186C217.285 17.5628 217.442 17.6566 217.442 18.0318V29.0092C217.442 29.6967 217.191 30.1038 216.315 30.1657L205.956 30.7922C205.298 30.8231 204.985 30.7293 204.641 30.2913L202.544 27.5704C202.168 27.0696 202.012 26.6953 202.012 26.2573V16.4992C202.012 15.9374 202.263 15.4675 202.982 15.4056Z" fill="black"/>
<g filter="url(#filter8_d_103_695)">
<path d="M82.1462 130.965C90.4594 130.965 97.1986 124.226 97.1986 115.913C97.1986 107.6 90.4594 100.86 82.1462 100.86C73.8329 100.86 67.0938 107.6 67.0938 115.913C67.0938 124.226 73.8329 130.965 82.1462 130.965Z" fill="white"/>
</g>
<path d="M77.8435 107.271H87.0061C87.935 107.272 88.8257 107.641 89.4826 108.297C90.1395 108.954 90.5087 109.845 90.5092 110.774V119.937C90.5087 120.866 90.1395 121.757 89.4826 122.413C88.8257 123.07 87.935 123.439 87.0061 123.439H77.8435C76.9148 123.439 76.0243 123.07 75.3676 122.413C74.7109 121.756 74.3418 120.866 74.3413 119.937V110.774C74.3418 109.845 74.7109 108.954 75.3676 108.298C76.0243 107.641 76.9148 107.272 77.8435 107.271Z" fill="#FFD02F"/>
<path d="M85.5755 109.29H83.8007L85.2795 111.888L82.0259 109.29H80.2502L81.8775 112.467L78.4755 109.29H76.6998L78.4755 113.333L76.6998 121.419H78.4755L81.8775 112.754L80.2502 121.419H82.0259L85.2795 112.18L83.8007 121.419H85.5764L88.83 111.31L85.5755 109.29Z" fill="#050038"/>
<g filter="url(#filter9_d_103_695)">
<path d="M32.6881 96.5598C45.5145 96.5598 55.9123 86.1619 55.9123 73.3356C55.9123 60.5092 45.5145 50.1113 32.6881 50.1113C19.8617 50.1113 9.46387 60.5092 9.46387 73.3356C9.46387 86.1619 19.8617 96.5598 32.6881 96.5598Z" fill="white"/>
</g>
<path d="M25.3813 71.3644C26.7135 71.3644 27.3419 71.5875 28.3071 72.4662L33.4839 77.1768C33.6369 77.3161 33.6679 77.3717 33.6989 77.4554C33.7111 77.4864 33.716 77.5197 33.7134 77.5529C33.7134 77.5802 33.7134 77.6221 33.6989 77.6503C33.6679 77.7341 33.6369 77.7896 33.4839 77.929L29.9453 81.1625C29.7923 81.3019 29.7313 81.3301 29.6393 81.3574C29.6084 81.372 29.5629 81.372 29.5319 81.372C29.5018 81.372 29.4554 81.372 29.4254 81.3574C29.3334 81.3301 29.2715 81.3019 29.1185 81.1625L19.0854 72.0337C18.794 71.7696 18.9014 71.3644 19.3922 71.3644H25.3813ZM39.9939 65.6084C38.6617 65.6084 38.0334 65.8315 37.069 66.7102L31.8913 71.4208C31.7383 71.5601 31.7073 71.6157 31.6773 71.6995C31.6618 71.7268 31.6618 71.7687 31.6618 71.7969C31.6618 71.8242 31.6618 71.8661 31.6773 71.8943C31.7073 71.9781 31.7383 72.0337 31.8913 72.173L35.4299 75.3929C35.5829 75.5322 35.6439 75.5605 35.7359 75.5878C35.7668 75.6014 35.8124 75.6014 35.8433 75.6014C35.8743 75.6014 35.9198 75.6014 35.9508 75.5878C36.0419 75.5605 36.1038 75.5322 36.2568 75.3929L46.2899 66.264C46.5813 65.999 46.4738 65.5947 45.983 65.5947H39.9939V65.6084Z" fill="#08CF65"/>
</g>
<g filter="url(#filter10_d_103_695)">
<path d="M172.583 160.118C205.355 160.118 231.923 133.551 231.923 100.778C231.923 68.0059 205.355 41.4385 172.583 41.4385C139.81 41.4385 113.243 68.0059 113.243 100.778C113.243 133.551 139.81 160.118 172.583 160.118Z" fill="white"/>
</g>
<path d="M141.123 120.078L152.772 111.101C158.962 119.227 165.538 122.972 172.858 122.972C180.138 122.972 186.529 119.271 192.439 111.209L204.255 119.97C195.727 131.596 185.129 137.738 172.858 137.738C160.625 137.738 149.925 131.635 141.123 120.078Z" fill="url(#paint3_linear_103_695)"/>
<path d="M172.819 81.0671L152.084 99.0416L142.499 87.8593L172.863 61.5381L202.989 87.8793L193.36 99.0225L172.819 81.0671Z" fill="url(#paint4_linear_103_695)"/>
</g>
</g>
</g>
<defs>
<filter id="filter0_f_103_695" x="4.91081" y="1.1862" width="305.857" height="199.703" filterUnits="userSpaceOnUse" color-interpolation-filters="sRGB">
<feFlood flood-opacity="0" result="BackgroundImageFix"/>
<feBlend mode="normal" in="SourceGraphic" in2="BackgroundImageFix" result="shape"/>
<feGaussianBlur stdDeviation="2.27653" result="effect1_foregroundBlur_103_695"/>
</filter>
<filter id="filter1_d_103_695" x="15.0141" y="145.782" width="62.8723" height="62.872" filterUnits="userSpaceOnUse" color-interpolation-filters="sRGB">
<feFlood flood-opacity="0" result="BackgroundImageFix"/>
<feColorMatrix in="SourceAlpha" type="matrix" values="0 0 0 0 0 0 0 0 0 0 0 0 0 0 0 0 0 0 127 0" result="hardAlpha"/>
<feOffset dy="4.10595"/>
<feGaussianBlur stdDeviation="4.10595"/>
<feComposite in2="hardAlpha" operator="out"/>
<feColorMatrix type="matrix" values="0 0 0 0 0.343614 0 0 0 0 0.154931 0 0 0 0 0.808333 0 0 0 0.18 0"/>
<feBlend mode="normal" in2="BackgroundImageFix" result="effect1_dropShadow_103_695"/>
<feBlend mode="normal" in="SourceGraphic" in2="effect1_dropShadow_103_695" result="shape"/>
</filter>
<filter id="filter2_d_103_695" x="249.107" y="93.5288" width="62.8722" height="62.872" filterUnits="userSpaceOnUse" color-interpolation-filters="sRGB">
<feFlood flood-opacity="0" result="BackgroundImageFix"/>
<feColorMatrix in="SourceAlpha" type="matrix" values="0 0 0 0 0 0 0 0 0 0 0 0 0 0 0 0 0 0 127 0" result="hardAlpha"/>
<feOffset dy="4.10595"/>
<feGaussianBlur stdDeviation="4.10595"/>
<feComposite in2="hardAlpha" operator="out"/>
<feColorMatrix type="matrix" values="0 0 0 0 0.343614 0 0 0 0 0.154931 0 0 0 0 0.808333 0 0 0 0.18 0"/>
<feBlend mode="normal" in2="BackgroundImageFix" result="effect1_dropShadow_103_695"/>
<feBlend mode="normal" in="SourceGraphic" in2="effect1_dropShadow_103_695" result="shape"/>
</filter>
<filter id="filter3_d_103_695" x="251.554" y="20.2017" width="62.8722" height="62.872" filterUnits="userSpaceOnUse" color-interpolation-filters="sRGB">
<feFlood flood-opacity="0" result="BackgroundImageFix"/>
<feColorMatrix in="SourceAlpha" type="matrix" values="0 0 0 0 0 0 0 0 0 0 0 0 0 0 0 0 0 0 127 0" result="hardAlpha"/>
<feOffset dy="4.10595"/>
<feGaussianBlur stdDeviation="4.10595"/>
<feComposite in2="hardAlpha" operator="out"/>
<feColorMatrix type="matrix" values="0 0 0 0 0.343614 0 0 0 0 0.154931 0 0 0 0 0.808333 0 0 0 0.18 0"/>
<feBlend mode="normal" in2="BackgroundImageFix" result="effect1_dropShadow_103_695"/>
<feBlend mode="normal" in="SourceGraphic" in2="effect1_dropShadow_103_695" result="shape"/>
</filter>
<filter id="filter4_d_103_695" x="195.646" y="156.965" width="46.5286" height="46.5283" filterUnits="userSpaceOnUse" color-interpolation-filters="sRGB">
<feFlood flood-opacity="0" result="BackgroundImageFix"/>
<feColorMatrix in="SourceAlpha" type="matrix" values="0 0 0 0 0 0 0 0 0 0 0 0 0 0 0 0 0 0 127 0" result="hardAlpha"/>
<feOffset dy="4.10595"/>
<feGaussianBlur stdDeviation="4.10595"/>
<feComposite in2="hardAlpha" operator="out"/>
<feColorMatrix type="matrix" values="0 0 0 0 0.343614 0 0 0 0 0.154931 0 0 0 0 0.808333 0 0 0 0.18 0"/>
<feBlend mode="normal" in2="BackgroundImageFix" result="effect1_dropShadow_103_695"/>
<feBlend mode="normal" in="SourceGraphic" in2="effect1_dropShadow_103_695" result="shape"/>
</filter>
<filter id="filter5_d_103_695" x="106.191" y="156.965" width="46.5286" height="46.5283" filterUnits="userSpaceOnUse" color-interpolation-filters="sRGB">
<feFlood flood-opacity="0" result="BackgroundImageFix"/>
<feColorMatrix in="SourceAlpha" type="matrix" values="0 0 0 0 0 0 0 0 0 0 0 0 0 0 0 0 0 0 127 0" result="hardAlpha"/>
<feOffset dy="4.10595"/>
<feGaussianBlur stdDeviation="4.10595"/>
<feComposite in2="hardAlpha" operator="out"/>
<feColorMatrix type="matrix" values="0 0 0 0 0.343614 0 0 0 0 0.154931 0 0 0 0 0.808333 0 0 0 0.18 0"/>
<feBlend mode="normal" in2="BackgroundImageFix" result="effect1_dropShadow_103_695"/>
<feBlend mode="normal" in="SourceGraphic" in2="effect1_dropShadow_103_695" result="shape"/>
</filter>
<filter id="filter6_d_103_695" x="79.2204" y="1.63331" width="62.8723" height="62.872" filterUnits="userSpaceOnUse" color-interpolation-filters="sRGB">
<feFlood flood-opacity="0" result="BackgroundImageFix"/>
<feColorMatrix in="SourceAlpha" type="matrix" values="0 0 0 0 0 0 0 0 0 0 0 0 0 0 0 0 0 0 127 0" result="hardAlpha"/>
<feOffset dy="4.10595"/>
<feGaussianBlur stdDeviation="4.10595"/>
<feComposite in2="hardAlpha" operator="out"/>
<feColorMatrix type="matrix" values="0 0 0 0 0.343614 0 0 0 0 0.154931 0 0 0 0 0.808333 0 0 0 0.18 0"/>
<feBlend mode="normal" in2="BackgroundImageFix" result="effect1_dropShadow_103_695"/>
<feBlend mode="normal" in="SourceGraphic" in2="effect1_dropShadow_103_695" result="shape"/>
</filter>
<filter id="filter7_d_103_695" x="186.183" y="3.8589" width="46.5286" height="46.5283" filterUnits="userSpaceOnUse" color-interpolation-filters="sRGB">
<feFlood flood-opacity="0" result="BackgroundImageFix"/>
<feColorMatrix in="SourceAlpha" type="matrix" values="0 0 0 0 0 0 0 0 0 0 0 0 0 0 0 0 0 0 127 0" result="hardAlpha"/>
<feOffset dy="4.10595"/>
<feGaussianBlur stdDeviation="4.10595"/>
<feComposite in2="hardAlpha" operator="out"/>
<feColorMatrix type="matrix" values="0 0 0 0 0.343614 0 0 0 0 0.154931 0 0 0 0 0.808333 0 0 0 0.18 0"/>
<feBlend mode="normal" in2="BackgroundImageFix" result="effect1_dropShadow_103_695"/>
<feBlend mode="normal" in="SourceGraphic" in2="effect1_dropShadow_103_695" result="shape"/>
</filter>
<filter id="filter8_d_103_695" x="58.8819" y="96.7544" width="46.5286" height="46.5283" filterUnits="userSpaceOnUse" color-interpolation-filters="sRGB">
<feFlood flood-opacity="0" result="BackgroundImageFix"/>
<feColorMatrix in="SourceAlpha" type="matrix" values="0 0 0 0 0 0 0 0 0 0 0 0 0 0 0 0 0 0 127 0" result="hardAlpha"/>
<feOffset dy="4.10595"/>
<feGaussianBlur stdDeviation="4.10595"/>
<feComposite in2="hardAlpha" operator="out"/>
<feColorMatrix type="matrix" values="0 0 0 0 0.343614 0 0 0 0 0.154931 0 0 0 0 0.808333 0 0 0 0.18 0"/>
<feBlend mode="normal" in2="BackgroundImageFix" result="effect1_dropShadow_103_695"/>
<feBlend mode="normal" in="SourceGraphic" in2="effect1_dropShadow_103_695" result="shape"/>
</filter>
<filter id="filter9_d_103_695" x="1.25197" y="46.0054" width="62.8723" height="62.872" filterUnits="userSpaceOnUse" color-interpolation-filters="sRGB">
<feFlood flood-opacity="0" result="BackgroundImageFix"/>
<feColorMatrix in="SourceAlpha" type="matrix" values="0 0 0 0 0 0 0 0 0 0 0 0 0 0 0 0 0 0 127 0" result="hardAlpha"/>
<feOffset dy="4.10595"/>
<feGaussianBlur stdDeviation="4.10595"/>
<feComposite in2="hardAlpha" operator="out"/>
<feColorMatrix type="matrix" values="0 0 0 0 0.343614 0 0 0 0 0.154931 0 0 0 0 0.808333 0 0 0 0.18 0"/>
<feBlend mode="normal" in2="BackgroundImageFix" result="effect1_dropShadow_103_695"/>
<feBlend mode="normal" in="SourceGraphic" in2="effect1_dropShadow_103_695" result="shape"/>
</filter>
<filter id="filter10_d_103_695" x="100.598" y="35.1161" width="143.969" height="143.969" filterUnits="userSpaceOnUse" color-interpolation-filters="sRGB">
<feFlood flood-opacity="0" result="BackgroundImageFix"/>
<feColorMatrix in="SourceAlpha" type="matrix" values="0 0 0 0 0 0 0 0 0 0 0 0 0 0 0 0 0 0 127 0" result="hardAlpha"/>
<feOffset dy="6.32237"/>
<feGaussianBlur stdDeviation="6.32237"/>
<feComposite in2="hardAlpha" operator="out"/>
<feColorMatrix type="matrix" values="0 0 0 0 0.343614 0 0 0 0 0.154931 0 0 0 0 0.808333 0 0 0 0.18 0"/>
<feBlend mode="normal" in2="BackgroundImageFix" result="effect1_dropShadow_103_695"/>
<feBlend mode="normal" in="SourceGraphic" in2="effect1_dropShadow_103_695" result="shape"/>
</filter>
<linearGradient id="paint0_linear_103_695" x1="2956.68" y1="173.562" x2="1799.66" y2="1525.71" gradientUnits="userSpaceOnUse">
<stop offset="0.18" stop-color="#0052CC"/>
<stop offset="1" stop-color="#2684FF"/>
</linearGradient>
<linearGradient id="paint1_linear_103_695" x1="3029.78" y1="188.645" x2="1691.4" y2="1663.42" gradientUnits="userSpaceOnUse">
<stop offset="0.18" stop-color="#0052CC"/>
<stop offset="1" stop-color="#2684FF"/>
</linearGradient>
<linearGradient id="paint2_linear_103_695" x1="991.61" y1="168.319" x2="991.61" y2="1729.32" gradientUnits="userSpaceOnUse">
<stop stop-color="#0091E6"/>
<stop offset="1" stop-color="#0079BF"/>
</linearGradient>
<linearGradient id="paint3_linear_103_695" x1="141.123" y1="129.216" x2="204.255" y2="129.216" gradientUnits="userSpaceOnUse">
<stop stop-color="#8930FD"/>
<stop offset="1" stop-color="#49CCF9"/>
</linearGradient>
<linearGradient id="paint4_linear_103_695" x1="142.499" y1="87.0443" x2="202.989" y2="87.0443" gradientUnits="userSpaceOnUse">
<stop stop-color="#FF02F0"/>
<stop offset="1" stop-color="#FFC800"/>
</linearGradient>
<clipPath id="clip0_103_695">
<rect width="314.17" height="208.53" fill="white" transform="translate(0.622803 0.679688)"/>
</clipPath>
<clipPath id="clip1_103_695">
<rect width="314.17" height="208.53" fill="white" transform="translate(0.622803 0.679688)"/>
</clipPath>
<clipPath id="clip2_103_695">
<rect width="314.161" height="208.53" fill="white" transform="translate(0.627319 0.679688)"/>
</clipPath>
</defs>
</svg>
