<svg width="315" height="219" viewBox="0 0 315 219" fill="none" xmlns="http://www.w3.org/2000/svg">
<g clip-path="url(#clip0_103_623)">
<g clip-path="url(#clip1_103_623)">
<g clip-path="url(#clip2_103_623)">
<path d="M103.788 126.424C103.788 114.585 113.385 104.987 125.225 104.987C137.064 104.987 146.662 114.585 146.662 126.424" stroke="white" stroke-width="0.456632" stroke-dasharray="1.83 1.83"/>
<g filter="url(#filter0_d_103_623)">
<path d="M46.4128 206.038C59.2764 206.038 69.7044 195.61 69.7044 182.747C69.7044 169.883 59.2764 159.455 46.4128 159.455C33.5492 159.455 23.1212 169.883 23.1212 182.747C23.1212 195.61 33.5492 206.038 46.4128 206.038Z" fill="white"/>
</g>
<mask id="mask0_103_623" style="mask-type:luminance" maskUnits="userSpaceOnUse" x="32" y="169" width="26" height="26">
<path d="M57.6274 169.807H32.6105V194.824H57.6274V169.807Z" fill="white"/>
</mask>
<g mask="url(#mask0_103_623)">
<path d="M55.3541 172.487H44.5977C44.5977 173.775 45.1093 175.01 46.0198 175.92C46.9304 176.831 48.1655 177.343 49.4532 177.343H51.4347V179.255C51.4364 181.935 53.6079 184.107 56.2872 184.109V173.42C56.2872 172.905 55.8695 172.487 55.3541 172.487Z" fill="#2684FF"/>
<path d="M50.0317 177.847H39.2755C39.2772 180.526 41.4486 182.698 44.128 182.7H46.1094V184.619C46.1128 187.298 48.2858 189.468 50.965 189.468V178.78C50.965 178.265 50.5471 177.847 50.0317 177.847Z" fill="url(#paint0_linear_103_623)"/>
<path d="M44.7066 183.203H33.9502C33.9502 185.884 36.1242 188.058 38.8058 188.058H40.7935V189.971C40.7952 192.648 42.9629 194.819 45.6398 194.823V184.136C45.6398 183.62 45.222 183.203 44.7066 183.203Z" fill="url(#paint1_linear_103_623)"/>
</g>
<g filter="url(#filter1_d_103_623)">
<path d="M281.187 153.633C294.051 153.633 304.479 143.205 304.479 130.341C304.479 117.478 294.051 107.05 281.187 107.05C268.324 107.05 257.896 117.478 257.896 130.341C257.896 143.205 268.324 153.633 281.187 153.633Z" fill="white"/>
</g>
<path fill-rule="evenodd" clip-rule="evenodd" d="M288.332 130.737C285.294 130.737 282.832 133.2 282.832 136.238C282.832 139.275 285.294 141.737 288.332 141.737C291.369 141.737 293.831 139.275 293.831 136.238C293.831 133.2 291.369 130.737 288.332 130.737ZM274.043 130.738C271.006 130.738 268.543 133.2 268.543 136.238C268.543 139.275 271.006 141.737 274.043 141.737C277.08 141.737 279.543 139.275 279.543 136.238C279.543 133.2 277.08 130.738 274.043 130.738ZM286.687 123.863C286.687 126.9 284.225 129.363 281.187 129.363C278.15 129.363 275.688 126.9 275.688 123.863C275.688 120.825 278.15 118.363 281.187 118.363C284.225 118.363 286.687 120.825 286.687 123.863Z" fill="#F06A6A"/>
<g filter="url(#filter2_d_103_623)">
<path d="M282.386 80.1369C295.25 80.1369 305.678 69.7089 305.678 56.8453C305.678 43.9817 295.25 33.5537 282.386 33.5537C269.523 33.5537 259.095 43.9817 259.095 56.8453C259.095 69.7089 269.523 80.1369 282.386 80.1369Z" fill="white"/>
</g>
<path d="M273.421 63.665C272.867 63.6662 272.324 63.5206 271.846 63.2431C271.368 62.9654 270.971 62.5659 270.698 62.0851C270.429 61.6079 270.295 61.0662 270.31 60.5184C270.325 59.9706 270.489 59.4372 270.784 58.9754L276.391 50.1712C276.678 49.6981 277.085 49.3095 277.571 49.0453C278.058 48.7811 278.605 48.6507 279.158 48.6675C279.711 48.6807 280.25 48.8405 280.721 49.1307C281.191 49.4207 281.576 49.8307 281.837 50.3185C282.359 51.3068 282.294 52.4958 281.668 53.4235L276.065 62.2277C275.781 62.6704 275.39 63.0343 274.928 63.2856C274.465 63.5368 273.947 63.6674 273.421 63.665Z" fill="#F62B54"/>
<path d="M283.038 63.6647C281.907 63.6647 280.867 63.06 280.32 62.0884C280.051 61.6124 279.918 61.0722 279.932 60.5258C279.948 59.9795 280.111 59.4475 280.406 58.9869L286.001 50.203C286.284 49.7231 286.69 49.3277 287.177 49.0576C287.664 48.7875 288.215 48.6527 288.771 48.6671C289.912 48.692 290.946 49.3299 291.468 50.3276C291.987 51.3255 291.911 52.5216 291.266 53.4469L285.671 62.2309C285.388 62.6718 284.998 63.0342 284.538 63.2848C284.078 63.5353 283.562 63.666 283.038 63.6647Z" fill="#FFCC00"/>
<path d="M292.44 63.7386C294.034 63.7386 295.326 62.4734 295.326 60.9127C295.326 59.3521 294.034 58.0869 292.44 58.0869C290.846 58.0869 289.553 59.3521 289.553 60.9127C289.553 62.4734 290.846 63.7386 292.44 63.7386Z" fill="#00CA72"/>
<g filter="url(#filter3_d_103_623)">
<path d="M219.375 200.864C227.712 200.864 234.471 194.105 234.471 185.767C234.471 177.43 227.712 170.671 219.375 170.671C211.037 170.671 204.278 177.43 204.278 185.767C204.278 194.105 211.037 200.864 219.375 200.864Z" fill="white"/>
</g>
<path d="M225.674 177.939H213.075C212.231 177.939 211.546 178.623 211.546 179.468V192.066C211.546 192.911 212.231 193.595 213.075 193.595H225.674C226.517 193.595 227.202 192.911 227.202 192.066V179.468C227.202 178.623 226.517 177.939 225.674 177.939Z" fill="url(#paint2_linear_103_623)"/>
<path d="M224.433 179.975H221.126C220.721 179.975 220.392 180.303 220.392 180.709V186.091C220.392 186.496 220.721 186.824 221.126 186.824H224.433C224.839 186.824 225.167 186.496 225.167 186.091V180.709C225.167 180.303 224.839 179.975 224.433 179.975Z" fill="white"/>
<path d="M217.622 179.975H214.315C213.91 179.975 213.581 180.303 213.581 180.709V190.004C213.581 190.41 213.91 190.738 214.315 190.738H217.622C218.028 190.738 218.357 190.41 218.357 190.004V180.709C218.357 180.303 218.028 179.975 217.622 179.975Z" fill="white"/>
<g filter="url(#filter4_d_103_623)">
<path d="M129.659 200.864C137.997 200.864 144.756 194.105 144.756 185.767C144.756 177.43 137.997 170.671 129.659 170.671C121.322 170.671 114.563 177.43 114.563 185.767C114.563 194.105 121.322 200.864 129.659 200.864Z" fill="white"/>
</g>
<path d="M125.17 185.703C125.17 185.703 125.922 184.527 126.947 184.527C128.497 184.48 129.773 187.491 130.001 187.915C131.733 183.774 134.604 180.268 136.927 177.939H122.573C122.573 179.374 122.573 193.844 122.573 195.044C122.573 195.702 122.504 196.314 122.39 196.95C124.258 196.62 126.104 196.15 127.881 195.491C132.234 193.82 133.943 192.056 133.943 192.056L134.057 191.938L134.125 192.08C134.398 192.785 134.808 193.42 135.219 194.056C135.811 194.832 136.13 194.902 136.358 194.832C136.608 194.762 136.745 194.314 136.814 193.632C136.882 192.926 136.927 191.397 136.927 189.491V179.256C132.758 184.786 129.636 193.068 129.636 193.068C129.636 193.068 127.563 185.679 125.17 185.703Z" fill="#003059"/>
<g filter="url(#filter5_d_103_623)">
<path d="M126.332 55.0773C139.195 55.0773 149.623 44.6493 149.623 31.7857C149.623 18.9221 139.195 8.49414 126.332 8.49414C113.468 8.49414 103.04 18.9221 103.04 31.7857C103.04 44.6493 113.468 55.0773 126.332 55.0773Z" fill="white"/>
</g>
<path d="M125.333 20.8527L115.362 24.9783C114.808 25.2077 114.814 25.9954 115.371 26.2166L125.384 30.1868C126.263 30.5357 127.243 30.5357 128.122 30.1868L138.135 26.2164C138.693 25.9954 138.699 25.2079 138.144 24.9785L128.174 20.8526C127.264 20.4762 126.242 20.4762 125.332 20.8526" fill="#FCB400"/>
<path d="M127.642 32.3553V42.2738C127.642 42.7454 128.118 43.0685 128.556 42.8947L139.713 38.5644C139.837 38.515 139.944 38.4295 140.019 38.3187C140.094 38.208 140.134 38.0772 140.134 37.9433V28.025C140.134 27.5533 139.658 27.2303 139.22 27.4041L128.063 31.7344C127.939 31.7838 127.832 31.8694 127.757 31.9801C127.682 32.0908 127.642 32.2214 127.642 32.3553Z" fill="#18BFFF"/>
<path d="M125.037 32.8671L121.726 34.4657L121.389 34.6282L114.4 37.9772C113.957 38.1909 113.392 37.868 113.392 37.3758V28.0667C113.392 27.8886 113.483 27.7349 113.605 27.6192C113.655 27.5692 113.713 27.5265 113.775 27.4923C113.941 27.3921 114.18 27.3653 114.382 27.4454L124.981 31.6449C125.52 31.8586 125.562 32.6133 125.037 32.8671Z" fill="#F82B60"/>
<path d="M125.037 32.8671L121.725 34.4657L113.605 27.6191C113.655 27.5691 113.712 27.5264 113.774 27.4923C113.941 27.3921 114.18 27.3653 114.382 27.4454L124.981 31.6449C125.52 31.8586 125.562 32.6133 125.037 32.8671Z" fill="black" fill-opacity="0.25"/>
<g filter="url(#filter6_d_103_623)">
<path d="M208.972 41.8315C217.309 41.8315 224.068 35.0726 224.068 26.7351C224.068 18.3976 217.309 11.6387 208.972 11.6387C200.634 11.6387 193.875 18.3976 193.875 26.7351C193.875 35.0726 200.634 41.8315 208.972 41.8315Z" fill="white"/>
</g>
<path fill-rule="evenodd" clip-rule="evenodd" d="M204.183 21.2334C204.685 21.6411 204.873 21.6099 205.815 21.5471L214.697 21.0137C214.885 21.0137 214.729 20.8258 214.666 20.7946L213.191 19.7281C212.908 19.5087 212.532 19.2574 211.81 19.3203L203.209 19.9476C202.896 19.9786 202.833 20.1355 202.958 20.2612L204.183 21.2334ZM204.716 23.3034V32.6491C204.716 33.1514 204.967 33.3392 205.532 33.3082L215.293 32.7433C215.859 32.7123 215.922 32.3668 215.922 31.9587V22.6758C215.922 22.2685 215.765 22.0488 215.42 22.0802L205.218 22.6758C204.842 22.7075 204.716 22.8958 204.716 23.3034ZM214.353 23.8048C214.415 24.0872 214.353 24.3695 214.07 24.4013L213.599 24.495V31.3946C213.191 31.6141 212.815 31.7396 212.501 31.7396C211.998 31.7396 211.872 31.5826 211.496 31.1124L208.419 26.2827V30.9556L209.393 31.1753C209.393 31.1753 209.393 31.7396 208.607 31.7396L206.442 31.8651C206.379 31.7396 206.442 31.4262 206.662 31.3634L207.228 31.2068V25.0284L206.442 24.9654C206.38 24.683 206.536 24.2755 206.976 24.244L209.299 24.0873L212.501 28.98V24.6518L211.684 24.5581C211.621 24.2127 211.872 23.9619 212.187 23.9309L214.353 23.8048ZM202.487 19.1008L211.433 18.4421C212.532 18.3478 212.815 18.4109 213.505 18.9125L216.361 20.9197C216.832 21.2648 216.989 21.3588 216.989 21.735V32.7433C216.989 33.4332 216.737 33.8413 215.859 33.9036L205.469 34.531C204.81 34.5625 204.496 34.4685 204.151 34.0291L202.048 31.3006C201.671 30.7984 201.514 30.4226 201.514 29.9831V20.1981C201.514 19.634 201.766 19.1633 202.487 19.1008Z" fill="black"/>
<g filter="url(#filter7_d_103_623)">
<path d="M82.213 140.478C90.5505 140.478 97.3094 133.719 97.3094 125.382C97.3094 117.044 90.5505 110.285 82.213 110.285C73.8755 110.285 67.1166 117.044 67.1166 125.382C67.1166 133.719 73.8755 140.478 82.213 140.478Z" fill="white"/>
</g>
<path d="M77.8977 116.715H87.0872C89.0258 116.715 90.5998 118.289 90.5998 120.227V129.417C90.5998 131.355 89.0258 132.93 87.0872 132.93H77.8977C75.9591 132.93 74.3851 131.355 74.3851 129.417V120.227C74.3851 118.289 75.9591 116.715 77.8977 116.715Z" fill="#FFD02F"/>
<path d="M85.6526 118.739H83.8722L85.355 121.345L82.0919 118.739H80.3116L81.9432 121.926L78.5313 118.739H76.751L78.5313 122.794L76.751 130.904H78.5313L81.9432 122.213L80.3116 130.904H82.0919L85.355 121.638L83.8722 130.904H85.6526L88.9156 120.765L85.6526 118.739Z" fill="#050038"/>
<g filter="url(#filter8_d_103_623)">
<path d="M32.6105 105.971C45.474 105.971 55.9021 95.5429 55.9021 82.6793C55.9021 69.8157 45.474 59.3877 32.6105 59.3877C19.7469 59.3877 9.31885 69.8157 9.31885 82.6793C9.31885 95.5429 19.7469 105.971 32.6105 105.971Z" fill="white"/>
</g>
<path d="M25.2823 80.7031C26.6188 80.7031 27.2486 80.9268 28.2165 81.8074L33.4089 86.5318C33.5625 86.6717 33.5932 86.7276 33.624 86.8114C33.6393 86.8394 33.6393 86.8814 33.6393 86.9093C33.6393 86.9372 33.6393 86.9792 33.624 87.0071C33.5932 87.091 33.5625 87.1469 33.4089 87.2867L29.8602 90.5296C29.7066 90.6693 29.6451 90.6972 29.553 90.7253C29.5222 90.7393 29.4762 90.7393 29.4454 90.7393C29.4147 90.7393 29.3686 90.7393 29.3379 90.7253C29.2458 90.6972 29.1843 90.6693 29.0307 90.5296L18.9685 81.374C18.6766 81.1084 18.7842 80.7031 19.2758 80.7031H25.2823Z" fill="#08CF65"/>
<path d="M39.9382 74.93C38.6017 74.93 37.9718 75.1536 37.004 76.0342L31.8116 80.7588C31.658 80.8985 31.6273 80.9545 31.5965 81.0383C31.5812 81.0663 31.5812 81.1082 31.5812 81.1362C31.5812 81.1641 31.5812 81.206 31.5965 81.2341C31.6273 81.3179 31.658 81.3738 31.8116 81.5136L35.3603 84.7425C35.5139 84.8823 35.5753 84.9102 35.6675 84.9382C35.6983 84.9521 35.7443 84.9521 35.7751 84.9521C35.8058 84.9521 35.8519 84.9521 35.8826 84.9382C35.9748 84.9102 36.0362 84.8823 36.1898 84.7425L46.2521 75.587C46.5439 75.3214 46.4364 74.916 45.9447 74.916H39.9382V74.93Z" fill="#08CF65"/>
<g filter="url(#filter9_d_103_623)">
<path d="M167.615 154.28C191.674 154.28 211.179 134.776 211.179 110.716C211.179 86.6566 191.674 67.1523 167.615 67.1523C143.555 67.1523 124.051 86.6566 124.051 110.716C124.051 134.776 143.555 154.28 167.615 154.28Z" fill="white"/>
</g>
<path d="M144.587 124.399L153.14 117.808C157.684 123.773 162.511 126.523 167.885 126.523C173.23 126.523 177.921 123.806 182.261 117.887L190.935 124.319C184.674 132.854 176.893 137.362 167.885 137.362C158.905 137.362 151.049 132.882 144.587 124.399Z" fill="url(#paint3_linear_103_623)"/>
<path d="M167.858 95.7596L152.634 108.955L145.598 100.746L167.89 81.4219L190.006 100.76L182.937 108.941L167.858 95.7596Z" fill="url(#paint4_linear_103_623)"/>
<path fill-rule="evenodd" clip-rule="evenodd" d="M126.202 1.13672C125.898 1.13686 125.594 1.14147 125.29 1.15047L125.298 1.37869L125.311 1.83512L125.318 2.06333C125.614 2.05452 125.911 2.05006 126.209 2.04998C126.508 2.05006 126.805 2.05452 127.101 2.06333L127.108 1.83512L127.122 1.37869L127.128 1.15047C126.826 1.14147 126.522 1.13686 126.217 1.13672C126.212 1.13672 126.207 1.13672 126.202 1.13672ZM123.447 1.26046C122.83 1.31583 122.218 1.38949 121.613 1.48092L121.647 1.70669L121.715 2.1582L121.749 2.38396C122.336 2.29526 122.93 2.22379 123.528 2.17007L123.508 1.94266L123.467 1.48787L123.447 1.26046ZM119.794 1.8122C119.188 1.94153 118.59 2.08877 117.998 2.25333L118.059 2.4733L118.182 2.91322L118.243 3.13318C118.816 2.97357 119.397 2.83076 119.984 2.7053L119.937 2.48203L119.841 2.03548L119.794 1.8122ZM116.233 2.80276C115.649 3.00432 115.073 3.22308 114.506 3.45842L114.593 3.66932L114.768 4.09112L114.856 4.30202C115.405 4.07375 115.964 3.86158 116.531 3.66607L116.456 3.45024L116.308 3.01859L116.233 2.80276ZM112.821 4.21794C112.266 4.48869 111.719 4.77572 111.184 5.07842L111.297 5.27718L111.521 5.67471L111.634 5.87347C112.153 5.57982 112.682 5.30138 113.221 5.03876L113.12 4.83355L112.92 4.42315L112.821 4.21794ZM109.603 6.03608C109.086 6.37145 108.579 6.72204 108.084 7.08721L108.219 7.271L108.49 7.63858L108.625 7.82237C109.106 7.46806 109.598 7.12792 110.1 6.80254L109.976 6.61092L109.728 6.22769L109.603 6.03608ZM106.629 8.22795C106.156 8.62282 105.695 9.03172 105.246 9.454L105.403 9.62022L105.716 9.95263L105.873 10.1188C106.307 9.70911 106.755 9.31235 107.214 8.9292L107.068 8.75389L106.776 8.40326L106.629 8.22795ZM103.939 10.7608C103.517 11.2092 103.108 11.6704 102.714 12.1437L102.889 12.2899L103.24 12.5826L103.415 12.7288C103.798 12.2695 104.195 11.822 104.604 11.3869L104.438 11.2304L104.105 10.9173L103.939 10.7608ZM101.573 13.5977C101.208 14.0933 100.857 14.6001 100.522 15.1178L100.714 15.2419L101.096 15.4902L101.288 15.6143C101.613 15.1121 101.954 14.6203 102.308 14.1396L102.124 14.0041L101.757 13.7333L101.573 13.5977ZM99.5638 16.6986C99.2615 17.2342 98.9739 17.7798 98.7035 18.3348L98.909 18.4348L99.3191 18.635L99.5246 18.7351C99.7867 18.1968 100.065 17.6675 100.359 17.148L100.16 17.0356L99.7629 16.811L99.5638 16.6986ZM97.9437 20.0198C97.709 20.5873 97.4898 21.1634 97.288 21.7476L97.5044 21.822L97.9355 21.971L98.1519 22.0455C98.3474 21.4789 98.5592 20.9201 98.7876 20.3696L98.5766 20.2822L98.1547 20.1072L97.9437 20.0198ZM96.7391 23.5124C96.5747 24.1039 96.4268 24.7026 96.298 25.3079L96.5208 25.3556L96.9674 25.451L97.1912 25.4988C97.3163 24.9116 97.4588 24.3309 97.6186 23.7573L97.3985 23.6961L96.9592 23.5736L96.7391 23.5124ZM95.9665 27.127C95.8752 27.7327 95.8012 28.3442 95.7464 28.9609L95.9738 28.9814L96.4286 29.0222L96.656 29.0426C96.709 28.4441 96.7811 27.8509 96.8697 27.2633L96.6441 27.2292L96.1921 27.1611L95.9665 27.127ZM95.6359 30.805C95.6268 31.1126 95.6222 31.4213 95.6222 31.731C95.6222 32.0408 95.6268 32.3495 95.6359 32.6571L95.8642 32.6503L96.3208 32.6367L96.5492 32.63C96.54 32.3314 96.5355 32.0318 96.5355 31.731C96.5355 31.4303 96.54 31.1307 96.5492 30.8321L96.3208 30.8254L95.8642 30.8118L95.6359 30.805ZM95.7464 34.5012C95.8012 35.1179 95.8752 35.7294 95.9665 36.3351L96.1921 36.301L96.6441 36.2329L96.8697 36.1988C96.7811 35.6112 96.709 35.018 96.656 34.4195L96.4286 34.44L95.9738 34.4808L95.7464 34.5012ZM96.298 38.1542C96.4268 38.7595 96.5747 39.3582 96.7391 39.9497L96.9592 39.8885L97.3985 39.766L97.6186 39.7048C97.4588 39.1312 97.3163 38.5505 97.1912 37.9633L96.9674 38.0111L96.5208 38.1064L96.298 38.1542ZM97.288 41.7145C97.4898 42.2987 97.709 42.8748 97.9437 43.4423L98.1547 43.3549L98.5766 43.1799L98.7876 43.0925C98.5592 42.542 98.3474 41.9832 98.1519 41.4166L97.9355 41.4911L97.5044 41.6401L97.288 41.7145ZM98.7035 45.1273C98.9739 45.6823 99.2615 46.2279 99.5638 46.7635L99.7629 46.6511L100.16 46.4265L100.359 46.3141C100.065 45.7946 99.7867 45.2653 99.5246 44.727L99.3191 44.8271L98.909 45.0273L98.7035 45.1273ZM100.522 48.3443C100.857 48.862 101.208 49.3688 101.573 49.8644L101.757 49.7288L102.124 49.4579L102.308 49.3225C101.954 48.8418 101.613 48.35 101.288 47.8478L101.096 47.9719L100.714 48.2202L100.522 48.3443ZM102.714 51.3184C103.108 51.7917 103.517 52.2529 103.939 52.7013L104.105 52.5448L104.438 52.2317L104.604 52.0752C104.195 51.6401 103.798 51.1926 103.415 50.7333L103.24 50.8795L102.889 51.1721L102.714 51.3184ZM105.246 54.0081C105.695 54.4304 106.156 54.8393 106.629 55.2342L106.776 55.0588L107.068 54.7082L107.214 54.5329C106.755 54.1498 106.307 53.7529 105.873 53.3432L105.716 53.5095L105.403 53.8419L105.246 54.0081ZM108.084 56.3749C108.579 56.74 109.086 57.0906 109.603 57.426L109.728 57.2344L109.976 56.8512L110.1 56.6596C109.598 56.3342 109.106 55.994 108.625 55.6397L108.49 55.8235L108.219 56.1911L108.084 56.3749ZM111.184 58.3836C111.719 58.6864 112.266 58.9734 112.821 59.2441L112.92 59.0389L113.12 58.6286L113.221 58.4234C112.682 58.1607 112.153 57.8823 111.634 57.5886L111.521 57.7874L111.297 58.1849L111.184 58.3836ZM114.506 60.0037C115.073 60.239 115.649 60.4578 116.233 60.6593L116.308 60.4435L116.456 60.0119L116.531 59.796C115.964 59.6006 115.405 59.3883 114.856 59.1601L114.768 59.371L114.593 59.7928L114.506 60.0037ZM117.998 61.2087C118.59 61.3733 119.188 61.5206 119.794 61.6499L119.841 61.4266L119.937 60.98L119.984 60.7568C119.397 60.6314 118.816 60.4885 118.243 60.3289L118.182 60.5489L118.059 60.9888L117.998 61.2087ZM121.613 61.9812C122.218 62.0726 122.83 62.1463 123.447 62.2016L123.467 61.9742L123.508 61.5194L123.528 61.292C122.93 61.2383 122.336 61.1668 121.749 61.0781L121.715 61.3039L121.647 61.7554L121.613 61.9812ZM125.29 62.3116C125.598 62.3208 125.907 62.3254 126.217 62.3254V62.0971V61.6404V61.4121C125.916 61.4121 125.617 61.4076 125.318 61.3988L125.311 61.627L125.298 62.0835L125.29 62.3116ZM130.671 2.38396C130.082 2.29526 129.49 2.22379 128.891 2.17007L128.912 1.94266L128.952 1.48787L128.973 1.26046C129.589 1.31583 130.201 1.38949 130.807 1.48092L130.773 1.70669L130.704 2.1582L130.671 2.38396ZM134.177 3.13318C133.602 2.97357 133.022 2.83075 132.435 2.7053L132.482 2.48203L132.577 2.03548L132.626 1.8122C133.23 1.94153 133.829 2.08877 134.421 2.25333L134.36 2.4733L134.238 2.91322L134.177 3.13318ZM137.564 4.30202C137.013 4.07375 136.454 3.86158 135.888 3.66607L135.962 3.45024L136.112 3.01859L136.186 2.80276C136.77 3.00432 137.346 3.22308 137.914 3.45841L137.826 3.66932L137.652 4.09112L137.564 4.30202ZM140.786 5.87347C140.266 5.57982 139.736 5.30138 139.199 5.03876L139.298 4.83355L139.498 4.42315L139.599 4.21794C140.154 4.48869 140.699 4.77572 141.235 5.07842L141.123 5.27718L140.898 5.67471L140.786 5.87347ZM143.794 7.82237C143.313 7.46806 142.821 7.12792 142.319 6.80254L142.443 6.61092L142.692 6.22769L142.816 6.03608C143.333 6.37144 143.84 6.72204 144.336 7.08721L144.201 7.27099L143.929 7.63858L143.794 7.82237ZM146.547 10.1188C146.111 9.70911 145.664 9.31235 145.204 8.9292L145.351 8.75389L145.643 8.40326L145.79 8.22795C146.263 8.62282 146.724 9.03172 147.172 9.454L147.016 9.62022L146.703 9.95263L146.547 10.1188ZM149.004 12.7288C148.621 12.2695 148.224 11.822 147.814 11.3869L147.981 11.2304L148.313 10.9173L148.479 10.7608C148.902 11.2092 149.31 11.6704 149.706 12.1437L149.53 12.2899L149.18 12.5826L149.004 12.7288ZM151.131 15.6143C150.805 15.1121 150.465 14.6203 150.111 14.1396L150.295 14.0041L150.663 13.7333L150.846 13.5977C151.212 14.0933 151.562 14.6001 151.897 15.1178L151.706 15.2419L151.322 15.4902L151.131 15.6143ZM152.895 18.7351C152.632 18.1968 152.353 17.6675 152.06 17.148L152.258 17.0356L152.656 16.811L152.855 16.6986C153.158 17.2342 153.445 17.7798 153.716 18.3348L153.51 18.4348L153.1 18.635L152.895 18.7351ZM154.267 22.0455C154.072 21.4789 153.86 20.9201 153.632 20.3696L153.842 20.2822L154.264 20.1072L154.475 20.0198C154.71 20.5873 154.93 21.1634 155.13 21.7476L154.915 21.822L154.483 21.971L154.267 22.0455ZM155.228 25.4988C155.103 24.9116 154.96 24.3309 154.8 23.7573L155.02 23.6961L155.46 23.5736L155.68 23.5124C155.845 24.1039 155.992 24.7026 156.121 25.3079L155.898 25.3556L155.451 25.451L155.228 25.4988ZM155.763 29.0426C155.709 28.4441 155.638 27.8509 155.55 27.2633L155.775 27.2292L156.226 27.1611L156.453 27.127C156.544 27.7327 156.617 28.3442 156.673 28.9609L156.446 28.9813L155.991 29.0222L155.763 29.0426ZM155.883 31.731C155.883 31.4303 155.879 31.1307 155.87 30.8321L156.099 30.8254L156.555 30.8118L156.783 30.805C156.792 31.1126 156.796 31.4213 156.796 31.731H156.568H156.111H155.883Z" fill="url(#paint5_linear_103_623)"/>
<path fill-rule="evenodd" clip-rule="evenodd" d="M16.6388 182.89C16.6299 183.189 16.6254 183.488 16.6254 183.789C16.6254 184.089 16.6299 184.389 16.6388 184.687L16.4105 184.695L15.9541 184.708L15.7259 184.715C15.7167 184.407 15.7122 184.098 15.7122 183.789C15.7122 183.479 15.7167 183.17 15.7259 182.863L15.9541 182.869L16.4105 182.883L16.6388 182.89ZM16.9594 179.321C16.8707 179.908 16.7992 180.502 16.7455 181.1L16.5181 181.08L16.0633 181.039L15.8359 181.019C15.8912 180.401 15.9649 179.79 16.0564 179.185L16.2821 179.219L16.7336 179.287L16.9594 179.321ZM17.7086 175.815C17.549 176.388 17.4062 176.969 17.2807 177.557L17.0575 177.509L16.6109 177.413L16.3876 177.366C16.5169 176.76 16.6642 176.161 16.8288 175.57L17.0487 175.631L17.4886 175.754L17.7086 175.815ZM18.8774 172.428C18.6492 172.977 18.437 173.536 18.2415 174.104L18.0256 174.029L17.594 173.88L17.3782 173.805C17.5798 173.221 17.7985 172.645 18.0339 172.077L18.2447 172.165L18.6666 172.34L18.8774 172.428ZM20.4489 169.206C20.1553 169.725 19.8768 170.254 19.6142 170.793L19.409 170.692L18.9985 170.492L18.7934 170.392C19.0641 169.838 19.3511 169.292 19.6538 168.756L19.8526 168.869L20.2502 169.093L20.4489 169.206ZM22.3978 166.197C22.0434 166.678 21.7034 167.17 21.378 167.672L21.1864 167.548L20.8031 167.3L20.6115 167.175C20.9469 166.658 21.2975 166.151 21.6626 165.656L21.8465 165.791L22.214 166.062L22.3978 166.197ZM24.6943 163.445C24.2845 163.88 23.8878 164.327 23.5047 164.786L23.3293 164.64L22.9787 164.348L22.8034 164.201C23.1983 163.728 23.6071 163.267 24.0294 162.818L24.1956 162.975L24.5281 163.288L24.6943 163.445ZM27.3042 160.987C26.8449 161.37 26.3974 161.767 25.9624 162.176L25.8058 162.01L25.4928 161.678L25.3362 161.511C25.7846 161.089 26.2458 160.68 26.7192 160.286L26.8654 160.461L27.1579 160.812L27.3042 160.987ZM30.1898 158.86C29.6876 159.185 29.1958 159.526 28.715 159.88L28.5796 159.696L28.3087 159.329L28.1732 159.145C28.6687 158.78 29.1756 158.429 29.6932 158.094L29.8173 158.285L30.0656 158.668L30.1898 158.86ZM33.3106 157.097C32.7722 157.359 32.243 157.637 31.7234 157.931L31.6111 157.732L31.3864 157.335L31.274 157.136C31.8096 156.834 32.3552 156.546 32.9102 156.276L33.0103 156.481L33.2105 156.891L33.3106 157.097ZM36.6209 155.724C36.0543 155.92 35.4955 156.131 34.945 156.36L34.8576 156.149L34.6827 155.727L34.5953 155.516C35.1628 155.281 35.7388 155.062 36.3231 154.86L36.3975 155.077L36.5464 155.508L36.6209 155.724ZM40.0742 154.763C39.4871 154.888 38.9063 155.031 38.3327 155.191L38.2714 154.971L38.149 154.531L38.0878 154.311C38.6794 154.146 39.278 153.999 39.8833 153.87L39.931 154.093L40.0264 154.54L40.0742 154.763ZM43.618 154.227C43.0196 154.281 42.4263 154.353 41.8387 154.442L41.8046 154.215L41.7365 153.764L41.7024 153.539C42.3081 153.447 42.9196 153.373 43.5364 153.318L43.5567 153.545L43.5976 154L43.618 154.227ZM46.3065 154.108C46.0057 154.108 45.7061 154.112 45.4076 154.121L45.4008 153.893L45.3872 153.436L45.3804 153.208C45.688 153.199 45.9967 153.194 46.3065 153.194V153.423V153.879V154.108ZM15.8359 186.559C15.8912 187.176 15.9649 187.787 16.0564 188.392L16.2821 188.359L16.7336 188.29L16.9594 188.256C16.8707 187.669 16.7992 187.076 16.7455 186.477L16.5181 186.497L16.0633 186.539L15.8359 186.559ZM16.3876 190.212C16.5169 190.817 16.6642 191.416 16.8288 192.007L17.0487 191.946L17.4886 191.824L17.7086 191.762C17.549 191.189 17.4062 190.608 17.2808 190.021L17.0575 190.068L16.6109 190.164L16.3876 190.212ZM17.3782 193.772C17.5798 194.356 17.7985 194.932 18.0339 195.5L18.2447 195.413L18.6666 195.237L18.8774 195.15C18.6492 194.6 18.437 194.041 18.2415 193.474L18.0256 193.549L17.594 193.698L17.3782 193.772ZM18.7934 197.185C19.0641 197.74 19.3511 198.286 19.6539 198.821L19.8526 198.709L20.2502 198.484L20.4489 198.372C20.1553 197.852 19.8768 197.323 19.6142 196.784L19.409 196.885L18.9986 197.085L18.7934 197.185ZM20.6115 200.402C20.9469 200.92 21.2975 201.427 21.6626 201.922L21.8465 201.786L22.214 201.515L22.3978 201.38C22.0435 200.9 21.7034 200.407 21.378 199.905L21.1864 200.029L20.8031 200.278L20.6115 200.402ZM22.8034 203.376C23.1983 203.849 23.6071 204.311 24.0294 204.759L24.1956 204.602L24.5281 204.29L24.6943 204.133C24.2845 203.698 23.8878 203.25 23.5047 202.791L23.3293 202.937L22.9787 203.229L22.8034 203.376ZM25.3362 206.066C25.7846 206.488 26.2458 206.897 26.7192 207.292L26.8654 207.116L27.1579 206.765L27.3042 206.59C26.8449 206.207 26.3974 205.81 25.9624 205.401L25.8058 205.567L25.4928 205.9L25.3362 206.066ZM28.1732 208.432C28.6687 208.797 29.1756 209.148 29.6932 209.483L29.8173 209.292L30.0656 208.909L30.1898 208.717C29.6876 208.392 29.1958 208.051 28.715 207.697L28.5796 207.881L28.3087 208.249L28.1732 208.432ZM31.2741 210.441C31.8096 210.744 32.3552 211.031 32.9102 211.302L33.0103 211.096L33.2105 210.686L33.3106 210.481C32.7722 210.219 32.243 209.94 31.7234 209.646L31.6111 209.845L31.3864 210.242L31.2741 210.441ZM34.5953 212.061C35.1628 212.296 35.7388 212.515 36.3231 212.717L36.3975 212.501L36.5464 212.07L36.6209 211.853C36.0544 211.658 35.4955 211.446 34.945 211.218L34.8576 211.429L34.6827 211.851L34.5953 212.061ZM38.0878 213.266C38.6794 213.431 39.278 213.578 39.8833 213.707L39.9311 213.484L40.0264 213.038L40.0742 212.814C39.4871 212.689 38.9063 212.546 38.3327 212.387L38.2715 212.607L38.149 213.046L38.0878 213.266ZM41.7025 214.039C42.3081 214.13 42.9196 214.204 43.5364 214.26L43.5567 214.032L43.5976 213.577L43.618 213.35C43.0196 213.296 42.4263 213.224 41.8387 213.135L41.8046 213.362L41.7365 213.813L41.7025 214.039ZM45.3804 214.369C45.688 214.378 45.9967 214.383 46.3065 214.383C46.6163 214.383 46.9249 214.378 47.2325 214.369L47.2258 214.141L47.2122 213.684L47.2054 213.456C46.9069 213.465 46.6072 213.47 46.3065 213.47C46.0057 213.47 45.7061 213.465 45.4076 213.456L45.4008 213.684L45.3872 214.141L45.3804 214.369ZM49.0766 214.26C49.6933 214.204 50.3048 214.13 50.9105 214.039L50.8765 213.813L50.8083 213.362L50.7743 213.135C50.1867 213.224 49.5934 213.296 48.995 213.35L49.0153 213.577L49.0562 214.032L49.0766 214.26ZM52.7297 213.707C53.335 213.578 53.9336 213.431 54.5251 213.266L54.4639 213.046L54.3415 212.607L54.2803 212.387C53.7067 212.546 53.1259 212.689 52.5388 212.814L52.5865 213.038L52.6819 213.484L52.7297 213.707ZM56.2899 212.717C56.8741 212.515 57.4502 212.296 58.0177 212.061L57.9303 211.851L57.7553 211.429L57.6679 211.218C57.1174 211.446 56.5586 211.658 55.992 211.853L56.0665 212.07L56.2155 212.501L56.2899 212.717ZM59.7028 211.302C60.2578 211.031 60.8034 210.744 61.3389 210.441L61.2266 210.242L61.0019 209.845L60.8896 209.646C60.37 209.94 59.8408 210.219 59.3024 210.481L59.4025 210.686L59.6027 211.096L59.7028 211.302ZM62.9198 209.483C63.4374 209.148 63.9443 208.797 64.4398 208.432L64.3043 208.249L64.0334 207.881L63.898 207.697C63.4172 208.051 62.9254 208.392 62.4232 208.717L62.5473 208.909L62.7956 209.292L62.9198 209.483ZM65.8938 207.292C66.3671 206.897 66.8283 206.488 67.2768 206.066L67.1202 205.9L66.8072 205.567L66.6506 205.401C66.2155 205.81 65.768 206.207 65.3088 206.59L65.455 206.765L65.7476 207.116L65.8938 207.292ZM68.5835 204.759C69.0058 204.311 69.4147 203.849 69.8096 203.376L69.6343 203.229L69.2837 202.937L69.1083 202.791C68.7252 203.25 68.3284 203.698 67.9187 204.133L68.0849 204.29L68.4173 204.602L68.5835 204.759ZM70.9504 201.922C71.3155 201.427 71.6661 200.92 72.0014 200.402L71.8098 200.278L71.4266 200.029L71.235 199.905C70.9096 200.407 70.5694 200.9 70.2152 201.38L70.3989 201.515L70.7665 201.786L70.9504 201.922ZM72.9591 198.821C73.2618 198.286 73.5489 197.74 73.8196 197.185L73.6144 197.085L73.204 196.885L72.9988 196.784C72.7362 197.323 72.4577 197.852 72.1641 198.372L72.3628 198.484L72.7604 198.709L72.9591 198.821ZM74.5791 195.5C74.8145 194.932 75.0332 194.356 75.2348 193.772L75.0189 193.698L74.5873 193.549L74.3714 193.474C74.1759 194.041 73.9638 194.6 73.7355 195.15L73.9464 195.237L74.3683 195.413L74.5791 195.5ZM75.7842 192.007C75.9487 191.416 76.096 190.817 76.2254 190.212L76.0021 190.164L75.5555 190.068L75.3322 190.021C75.2068 190.608 75.064 191.189 74.9043 191.762L75.1243 191.824L75.5643 191.946L75.7842 192.007ZM76.5566 188.392C76.648 187.787 76.7217 187.176 76.7771 186.559L76.5497 186.539L76.0949 186.497L75.8675 186.477C75.8138 187.076 75.7423 187.669 75.6536 188.256L75.8793 188.29L76.3308 188.359L76.5566 188.392ZM76.887 184.715C76.8963 184.407 76.9008 184.098 76.9008 183.789H76.6725H76.2159H75.9876C75.9876 184.089 75.9831 184.389 75.9742 184.687L76.2024 184.695L76.6589 184.708L76.887 184.715Z" fill="url(#paint6_linear_103_623)"/>
<path d="M76.4437 183.789C76.4437 167.145 89.9368 153.651 106.581 153.651" stroke="white" stroke-width="0.456632" stroke-dasharray="1.83 1.83"/>
<path d="M136.719 123.514C136.719 140.158 123.226 153.651 106.581 153.651" stroke="white" stroke-width="0.456632" stroke-dasharray="1.83 1.83"/>
<path fill-rule="evenodd" clip-rule="evenodd" d="M6.58539 66.0896C6.57597 66.1042 6.56655 66.1188 6.55717 66.1334L6.74926 66.2568L7.13344 66.5036L7.32554 66.627C7.48697 66.3757 7.65266 66.126 7.82265 65.878L7.75656 65.8327C7.76725 65.8167 7.77794 65.8008 7.78865 65.7848L7.59913 65.6575L7.22009 65.4029L7.03057 65.2756C6.85897 65.5309 6.69061 65.7897 6.52559 66.0519L6.58539 66.0896ZM9.96125 62.9353C9.57314 63.3854 9.19659 63.8494 8.83233 64.3272L8.65076 64.1888L8.28762 63.912L8.10604 63.7735C8.48146 63.2811 8.86958 62.8028 9.26963 62.339L9.44253 62.488L9.78836 62.7863L9.96125 62.9353ZM12.4631 60.3674C12.0224 60.7679 11.5922 61.1832 11.1732 61.6133L11.0097 61.4539L10.6826 61.1353L10.5191 60.9759C10.9509 60.5326 11.3945 60.1044 11.8489 59.6915L12.0025 59.8605L12.3095 60.1984L12.4631 60.3674ZM15.257 58.1232C14.7705 58.4675 14.2932 58.8273 13.826 59.2026L13.683 59.0246L13.397 58.6687L13.254 58.4907C13.7359 58.1037 14.2279 57.7327 14.7294 57.3778L14.8613 57.5641L15.125 57.9369L15.257 58.1232ZM18.3031 56.234C17.7779 56.5172 17.2602 56.8167 16.7512 57.1325L16.6308 56.9385L16.3902 56.5503L16.2698 56.3564C16.7946 56.0309 17.3282 55.7221 17.8697 55.4301L17.9781 55.631L18.1948 56.033L18.3031 56.234ZM21.5551 54.7263C20.9991 54.9444 20.4493 55.1794 19.9064 55.431L19.8103 55.2239L19.6183 54.8096L19.5223 54.6024C20.0818 54.3431 20.6486 54.1009 21.2216 53.8761L21.305 54.0886L21.4717 54.5138L21.5551 54.7263ZM24.9651 53.6201C24.3865 53.7701 23.8123 53.9374 23.2434 54.122L23.173 53.9048L23.0321 53.4705L22.9616 53.2533C23.548 53.063 24.1397 52.8906 24.7359 52.7361L24.7932 52.9571L24.9078 53.3991L24.9651 53.6201ZM28.4831 52.9306C27.8903 53.0102 27.3002 53.1076 26.7137 53.2225L26.6698 52.9985L26.5819 52.5503L26.538 52.3263C27.1425 52.2079 27.7506 52.1075 28.3615 52.0255L28.3919 52.2518L28.4527 52.7043L28.4831 52.9306ZM32.058 52.6681C31.4597 52.6759 30.8623 52.7018 30.2667 52.7455L30.2499 52.5178L30.2165 52.0624L30.1998 51.8347C30.8136 51.7896 31.4293 51.7629 32.0462 51.7549L32.0491 51.9832L32.055 52.4398L32.058 52.6681ZM35.6387 52.838C35.0432 52.7734 34.4469 52.7271 33.8509 52.6988L33.8616 52.4708L33.8833 52.0147L33.8941 51.7866C34.5086 51.8157 35.1232 51.8635 35.7372 51.93L35.7125 52.1571L35.6633 52.611L35.6387 52.838ZM39.1715 53.4399C38.5879 53.3034 38.0019 53.1853 37.4144 53.0852L37.4528 52.8602L37.5295 52.4101L37.5678 52.1849C38.1734 52.2881 38.7775 52.4099 39.3793 52.5505L39.3273 52.7729L39.2234 53.2175L39.1715 53.4399ZM42.6058 54.4665C42.042 54.2598 41.4745 54.0713 40.904 53.9008L40.9694 53.6821L41.1002 53.2445L41.1655 53.0258C41.7538 53.2016 42.3389 53.3959 42.92 53.6089L42.8415 53.8233L42.6843 54.252L42.6058 54.4665ZM45.8899 55.9014C45.355 55.628 44.8148 55.3725 44.2703 55.1345L44.3617 54.9253L44.5445 54.5069L44.6359 54.2977C45.1972 54.543 45.7541 54.8064 46.3055 55.0881L46.2016 55.2914L45.9939 55.6981L45.8899 55.9014ZM48.2292 57.232C47.9747 57.0718 47.7187 56.9159 47.4613 56.7644L47.5771 56.5677L47.8088 56.1742L47.9246 55.9774C48.1898 56.1335 48.4536 56.2941 48.7157 56.4591L48.594 56.6524L48.3508 57.0388L48.2292 57.232ZM5.60555 67.7168C5.30261 68.2568 5.01772 68.803 4.75077 69.3543L4.95626 69.4538L5.36725 69.6527L5.57275 69.7523C5.83171 69.2174 6.1081 68.6876 6.40206 68.1636L6.20293 68.0519L5.80467 67.8285L5.60555 67.7168ZM3.99581 71.0421C3.76035 71.6145 3.5434 72.1916 3.34482 72.7725L3.56087 72.8464L3.99295 72.9941L4.20899 73.068C4.4016 72.5045 4.61202 71.9448 4.84041 71.3895L4.62927 71.3027L4.20696 71.1289L3.99581 71.0421ZM2.80048 74.539C2.63656 75.1348 2.49135 75.7337 2.3647 76.3349L2.58811 76.3819L3.03494 76.4761L3.25835 76.5231C3.3812 75.94 3.52203 75.3592 3.68102 74.7813L3.46089 74.7207L3.02062 74.5995L2.80048 74.539ZM2.03879 78.1542C1.94841 78.7651 1.87679 79.3775 1.82378 79.9903L2.05124 80.01L2.50617 80.0493L2.73364 80.0691C2.78508 79.4744 2.85455 78.8805 2.94222 78.2879L2.71637 78.2545L2.26465 78.1877L2.03879 78.1542ZM1.72021 81.8357C1.70426 82.4523 1.70695 83.0686 1.72813 83.6837L1.95631 83.6758L2.41268 83.6601L2.64085 83.6523C2.62031 83.0554 2.61769 82.4575 2.63316 81.8593L2.40493 81.8534L1.94844 81.8416L1.72021 81.8357ZM1.84725 85.528C1.90545 86.1416 1.98207 86.7532 2.07694 87.3618L2.30254 87.3267L2.75372 87.2564L2.97931 87.2212C2.88724 86.6306 2.8129 86.0372 2.75643 85.4418L2.52913 85.4634L2.07454 85.5065L1.84725 85.528ZM2.41627 89.1785C2.5475 89.7804 2.69682 90.3784 2.86406 90.9716L3.0838 90.9097L3.52331 90.7858L3.74306 90.7238C3.58079 90.1481 3.4359 89.5679 3.30858 88.984L3.0855 89.0326L2.63935 89.1298L2.41627 89.1785ZM3.41874 92.7348C3.62104 93.3157 3.841 93.892 4.07846 94.4609L4.28918 94.3732L4.71061 94.197L4.92134 94.1093C4.69096 93.5568 4.47755 92.9988 4.28126 92.4344L4.06563 92.5093L3.63437 92.659L3.41874 92.7348ZM4.84119 96.1441C5.11188 96.6966 5.3997 97.2418 5.70452 97.7788L5.90308 97.6665L6.30021 97.4409L6.49877 97.3286C6.2031 96.8071 5.92389 96.2783 5.66129 95.7422L5.45626 95.8427L5.04622 96.0436L4.84119 96.1441ZM6.6652 99.3578C7.00033 99.8729 7.35194 100.379 7.71989 100.876L7.90333 100.74L8.27018 100.467L8.45361 100.331C8.09674 99.8501 7.75569 99.3597 7.43063 98.8601L7.23927 98.9843L6.85656 99.2336L6.6652 99.3578ZM8.86517 102.326C9.26008 102.796 9.67074 103.257 10.097 103.705L10.2625 103.548L10.5936 103.234L10.7592 103.077C10.3457 102.641 9.94746 102.194 9.56444 101.739L9.38963 101.886L9.03999 102.18L8.86517 102.326ZM11.4103 105.006C11.8583 105.425 12.321 105.831 12.7986 106.226L12.9439 106.049L13.2347 105.697L13.38 105.521C12.9167 105.139 12.4678 104.744 12.0332 104.339L11.8775 104.506L11.566 104.839L11.4103 105.006ZM14.2575 107.358C14.5061 107.54 14.7582 107.718 15.0137 107.893C15.2692 108.069 15.5265 108.238 15.7854 108.406L15.9088 108.213L16.1556 107.829L16.279 107.637C16.0277 107.475 15.778 107.31 15.53 107.14C15.2818 106.97 15.0372 106.796 14.796 106.62L14.6614 106.805L14.3921 107.174L14.2575 107.358ZM17.3688 109.357C17.9088 109.659 18.455 109.944 19.0063 110.212L19.1058 110.006L19.3048 109.595L19.4043 109.389C18.8694 109.131 18.3396 108.854 17.8156 108.56L17.7039 108.759L17.4805 109.158L17.3688 109.357ZM20.6941 110.966C21.2665 111.202 21.8436 111.419 22.4246 111.617L22.4984 111.401L22.6461 110.969L22.72 110.754C22.1565 110.561 21.5968 110.35 21.0415 110.122L20.9547 110.333L20.781 110.755L20.6941 110.966ZM24.191 112.162C24.7868 112.326 25.3857 112.471 25.9869 112.597L26.034 112.375L26.1281 111.927L26.1751 111.704C25.592 111.581 25.0111 111.44 24.4333 111.281L24.3727 111.502L24.2515 111.942L24.191 112.162ZM27.8062 112.923C28.4171 113.014 29.0295 113.085 29.6423 113.138L29.662 112.911L29.7013 112.456L29.7211 112.228C29.1264 112.177 28.5325 112.108 27.9399 112.02L27.9065 112.246L27.8397 112.698L27.8062 112.923ZM31.4877 113.242C32.1043 113.258 32.7206 113.255 33.3357 113.234L33.3278 113.006L33.3121 112.55L33.3043 112.322C32.7074 112.342 32.1095 112.344 31.5113 112.329L31.5054 112.557L31.4936 113.014L31.4877 113.242ZM35.18 113.115C35.7936 113.057 36.4053 112.98 37.0138 112.885L36.9787 112.66L36.9084 112.208L36.8732 111.983C36.2826 112.075 35.6892 112.149 35.0938 112.206L35.1154 112.433L35.1585 112.888L35.18 113.115ZM38.8305 112.546C39.4324 112.415 40.0304 112.266 40.6236 112.098L40.5617 111.879L40.4378 111.439L40.3758 111.219C39.8001 111.382 39.2199 111.526 38.6359 111.654L38.6846 111.877L38.7818 112.323L38.8305 112.546ZM42.3865 111.544C42.9678 111.342 43.5435 111.122 44.1128 110.884L44.0249 110.673L43.8491 110.251L43.7612 110.041C43.2089 110.271 42.6503 110.485 42.0864 110.681L42.1614 110.897L42.3115 111.328L42.3865 111.544ZM45.7963 110.122C46.3488 109.85 46.894 109.563 47.431 109.258L47.3183 109.059L47.0929 108.662L46.9802 108.463C46.4593 108.759 45.9304 109.038 45.3945 109.301L45.495 109.506L45.6959 109.916L45.7963 110.122ZM49.01 108.297C49.5249 107.962 50.0311 107.61 50.5275 107.242L50.3916 107.059L50.1197 106.692L49.9837 106.509C49.5022 106.866 49.0113 107.206 48.5118 107.532L48.6364 107.723L48.8855 108.106L49.01 108.297ZM51.9783 106.097C52.4484 105.702 52.9083 105.291 53.3572 104.866L53.1999 104.7L52.8855 104.369L52.7283 104.203C52.2928 104.616 51.8468 105.015 51.3909 105.398L51.5378 105.573L51.8315 105.922L51.9783 106.097ZM54.6586 103.552C55.0765 103.104 55.4829 102.641 55.8771 102.163L55.701 102.018L55.349 101.728L55.1729 101.583C54.7903 102.046 54.3961 102.495 53.9908 102.929L54.1577 103.085L54.4916 103.396L54.6586 103.552ZM57.0102 100.705C57.1916 100.456 57.3699 100.204 57.545 99.9487L57.3567 99.8199L56.98 99.5615L56.7917 99.4327C56.6217 99.6802 56.4486 99.925 56.2725 100.166L56.457 100.301L56.8258 100.57L57.0102 100.705Z" fill="url(#paint7_linear_103_623)"/>
<path fill-rule="evenodd" clip-rule="evenodd" d="M310.868 130.949C310.868 130.953 310.868 130.958 310.868 130.963H311.097H311.338L311.54 130.969L311.768 130.975C311.768 130.972 311.768 130.967 311.768 130.963H311.782C311.782 130.81 311.781 130.658 311.778 130.506C311.781 130.354 311.782 130.202 311.782 130.049H311.768C311.768 130.046 311.768 130.041 311.768 130.036L311.54 130.044L311.338 130.049H311.097H310.868C310.868 130.054 310.868 130.058 310.868 130.064H310.855C310.859 130.211 310.863 130.359 310.865 130.506C310.863 130.654 310.859 130.801 310.855 130.949H310.868ZM310.534 126.495C310.623 127.083 310.695 127.676 310.749 128.274L310.976 128.254L311.431 128.213L311.658 128.193C311.603 127.576 311.529 126.964 311.437 126.359L311.212 126.393L310.761 126.461L310.534 126.495ZM309.785 122.989C309.945 123.562 310.087 124.143 310.213 124.73L310.436 124.683L310.883 124.587L311.106 124.54C310.977 123.934 310.83 123.336 310.665 122.744L310.445 122.805L310.005 122.928L309.785 122.989ZM308.616 119.602C308.844 120.152 309.056 120.71 309.252 121.277L309.468 121.202L309.899 121.054L310.116 120.98C309.914 120.395 309.696 119.819 309.46 119.252L309.249 119.338L308.827 119.514L308.616 119.602ZM307.044 116.38C307.339 116.899 307.617 117.429 307.879 117.967L308.085 117.866L308.496 117.666L308.7 117.567C308.43 117.011 308.142 116.466 307.84 115.93L307.641 116.043L307.244 116.267L307.044 116.38ZM305.096 113.371C305.45 113.852 305.791 114.344 306.116 114.846L306.307 114.722L306.691 114.474L306.882 114.349C306.547 113.831 306.196 113.325 305.831 112.83L305.647 112.965L305.28 113.236L305.096 113.371ZM302.8 110.619C303.21 111.053 303.606 111.501 303.989 111.96L304.164 111.814L304.515 111.522L304.69 111.376C304.296 110.902 303.886 110.441 303.464 109.992L303.298 110.149L302.966 110.462L302.8 110.619ZM300.19 108.161C300.649 108.544 301.096 108.941 301.531 109.35L301.688 109.184L302.001 108.851L302.158 108.685C301.709 108.263 301.248 107.854 300.775 107.46L300.629 107.635L300.336 107.986L300.19 108.161ZM297.304 106.034C297.806 106.359 298.298 106.7 298.779 107.054L298.915 106.871L299.185 106.503L299.321 106.319C298.825 105.954 298.318 105.603 297.8 105.268L297.676 105.46L297.428 105.842L297.304 106.034ZM294.183 104.271C294.722 104.533 295.251 104.811 295.77 105.105L295.883 104.906L296.107 104.509L296.22 104.31C295.684 104.008 295.138 103.721 294.584 103.45L294.483 103.655L294.283 104.065L294.183 104.271ZM290.873 102.898C291.44 103.093 291.998 103.305 292.549 103.534L292.636 103.323L292.811 102.901L292.899 102.69C292.331 102.455 291.755 102.236 291.171 102.035L291.096 102.25L290.947 102.682L290.873 102.898ZM287.419 101.937C288.007 102.062 288.587 102.206 289.161 102.365L289.222 102.144L289.345 101.705L289.406 101.485C288.815 101.321 288.216 101.173 287.61 101.044L287.563 101.267L287.468 101.713L287.419 101.937ZM283.876 101.402C284.474 101.456 285.068 101.527 285.655 101.616L285.689 101.39L285.757 100.938L285.791 100.712C285.185 100.621 284.575 100.547 283.957 100.492L283.937 100.72L283.896 101.175L283.876 101.402ZM281.187 101.281C281.488 101.281 281.787 101.286 282.086 101.295L282.093 101.067L282.107 100.61L282.113 100.382C281.806 100.373 281.497 100.368 281.187 100.368V100.596V101.053V101.281ZM311.658 132.819C311.603 133.437 311.529 134.047 311.437 134.654L311.212 134.619L310.761 134.552L310.534 134.517C310.623 133.93 310.695 133.336 310.749 132.738L310.976 132.758L311.431 132.799L311.658 132.819ZM311.106 136.472C310.977 137.078 310.83 137.677 310.665 138.268L310.445 138.207L310.005 138.084L309.785 138.023C309.945 137.449 310.087 136.869 310.213 136.281L310.436 136.33L310.883 136.425L311.106 136.472ZM310.116 140.033C309.914 140.618 309.696 141.193 309.46 141.761L309.249 141.673L308.827 141.498L308.616 141.411C308.844 140.86 309.056 140.302 309.252 139.735L309.468 139.809L309.899 139.958L310.116 140.033ZM308.7 143.446C308.43 144.001 308.142 144.546 307.84 145.082L307.641 144.969L307.244 144.745L307.044 144.632C307.339 144.113 307.617 143.584 307.879 143.045L308.085 143.145L308.496 143.345L308.7 143.446ZM306.882 146.662C306.547 147.18 306.196 147.687 305.831 148.183L305.647 148.047L305.28 147.777L305.096 147.641C305.45 147.16 305.791 146.669 306.116 146.167L306.307 146.291L306.691 146.538L306.882 146.662ZM304.69 149.637C304.296 150.11 303.886 150.571 303.464 151.02L303.298 150.863L302.966 150.55L302.8 150.394C303.21 149.958 303.606 149.511 303.989 149.052L304.164 149.198L304.515 149.491L304.69 149.637ZM302.158 152.326C301.709 152.748 301.248 153.158 300.775 153.553L300.629 153.378L300.336 153.027L300.19 152.852C300.649 152.468 301.096 152.072 301.531 151.662L301.688 151.828L302.001 152.16L302.158 152.326ZM299.321 154.694C298.825 155.058 298.318 155.409 297.8 155.745L297.676 155.553L297.428 155.169L297.304 154.978C297.806 154.653 298.298 154.313 298.779 153.958L298.915 154.142L299.185 154.509L299.321 154.694ZM296.22 156.702C295.684 157.005 295.138 157.292 294.584 157.562L294.483 157.358L294.283 156.947L294.183 156.742C294.722 156.479 295.251 156.201 295.77 155.907L295.883 156.106L296.107 156.504L296.22 156.702ZM292.899 158.322C292.331 158.558 291.755 158.776 291.171 158.978L291.096 158.762L290.947 158.33L290.873 158.115C291.44 157.919 291.998 157.707 292.549 157.478L292.636 157.689L292.811 158.111L292.899 158.322ZM289.406 159.528C288.815 159.692 288.216 159.839 287.61 159.969L287.563 159.745L287.468 159.298L287.419 159.075C288.007 158.949 288.587 158.807 289.161 158.647L289.222 158.867L289.345 159.307L289.406 159.528ZM285.791 160.299C285.185 160.391 284.575 160.465 283.957 160.52L283.937 160.293L283.896 159.838L283.876 159.611C284.474 159.557 285.068 159.486 285.655 159.397L285.689 159.623L285.757 160.074L285.791 160.299ZM282.113 160.63C281.806 160.639 281.497 160.644 281.187 160.644C280.878 160.644 280.569 160.639 280.261 160.63L280.268 160.402L280.281 159.946L280.289 159.718C280.587 159.726 280.887 159.73 281.187 159.73C281.488 159.73 281.787 159.726 282.086 159.718L282.093 159.946L282.107 160.402L282.113 160.63ZM278.417 160.52C277.801 160.465 277.189 160.391 276.583 160.299L276.617 160.074L276.686 159.623L276.72 159.397C277.307 159.486 277.9 159.557 278.499 159.611L278.478 159.838L278.437 160.293L278.417 160.52ZM274.764 159.969C274.159 159.839 273.561 159.692 272.969 159.528L273.03 159.307L273.152 158.867L273.214 158.647C273.787 158.807 274.368 158.949 274.955 159.075L274.908 159.298L274.812 159.745L274.764 159.969ZM271.203 158.978C270.62 158.776 270.044 158.558 269.476 158.322L269.563 158.111L269.739 157.689L269.826 157.478C270.376 157.707 270.935 157.919 271.502 158.115L271.427 158.33L271.278 158.762L271.203 158.978ZM267.791 157.562C267.236 157.292 266.69 157.005 266.155 156.702L266.267 156.504L266.492 156.106L266.604 155.907C267.124 156.201 267.653 156.479 268.191 156.742L268.091 156.947L267.891 157.358L267.791 157.562ZM264.574 155.745C264.056 155.409 263.549 155.058 263.054 154.694L263.19 154.509L263.461 154.142L263.596 153.958C264.076 154.313 264.569 154.653 265.071 154.978L264.947 155.169L264.698 155.553L264.574 155.745ZM261.6 153.553C261.126 153.158 260.665 152.748 260.217 152.326L260.374 152.16L260.686 151.828L260.843 151.662C261.278 152.072 261.726 152.468 262.185 152.852L262.039 153.027L261.747 153.378L261.6 153.553ZM258.91 151.02C258.488 150.571 258.079 150.11 257.684 149.637L257.86 149.491L258.21 149.198L258.386 149.052C258.768 149.511 259.166 149.958 259.575 150.394L259.409 150.55L259.076 150.863L258.91 151.02ZM256.544 148.183C256.178 147.687 255.828 147.18 255.493 146.662L255.684 146.538L256.067 146.291L256.259 146.167C256.584 146.669 256.925 147.16 257.279 147.641L257.094 147.777L256.727 148.047L256.544 148.183ZM254.535 145.082C254.232 144.546 253.945 144.001 253.674 143.446L253.88 143.345L254.29 143.145L254.495 143.045C254.757 143.584 255.036 144.113 255.33 144.632L255.131 144.745L254.734 144.969L254.535 145.082ZM252.914 141.761C252.68 141.193 252.461 140.618 252.259 140.033L252.475 139.958L252.906 139.809L253.123 139.735C253.318 140.302 253.53 140.86 253.758 141.411L253.547 141.498L253.125 141.673L252.914 141.761ZM251.71 138.268C251.545 137.677 251.397 137.078 251.269 136.472L251.492 136.425L251.938 136.33L252.162 136.281C252.287 136.869 252.429 137.449 252.589 138.023L252.369 138.084L251.93 138.207L251.71 138.268ZM250.937 134.654C250.846 134.047 250.772 133.437 250.717 132.819L250.945 132.799L251.399 132.758L251.627 132.738C251.68 133.336 251.752 133.93 251.84 134.517L251.615 134.552L251.163 134.619L250.937 134.654ZM250.607 130.975C250.597 130.668 250.593 130.359 250.593 130.049H250.821H251.278H251.506C251.506 130.351 251.511 130.65 251.52 130.949L251.292 130.955L250.835 130.969L250.607 130.975Z" fill="url(#paint8_linear_103_623)"/>
<path d="M251.05 130.991C251.05 114.346 237.556 100.854 220.912 100.854C204.267 100.854 191.687 113.433 191.687 130.078" stroke="white" stroke-width="0.456632" stroke-dasharray="1.83 1.83"/>
<path fill-rule="evenodd" clip-rule="evenodd" d="M308.171 41.7561C308.25 41.8877 308.328 42.0199 308.404 42.153L308.602 42.0389L308.998 41.8106L309.195 41.6964C309.041 41.4282 308.882 41.1632 308.72 40.9013L308.527 41.0213L308.373 41.1159C308.282 40.978 308.19 40.8408 308.096 40.704L307.908 40.833L307.531 41.0911L307.342 41.2202C307.512 41.4683 307.678 41.718 307.84 41.9693L308.032 41.8458L308.171 41.7561ZM305.882 38.4509C306.252 38.9153 306.611 39.3934 306.957 39.8849L307.143 39.7535L307.517 39.4907L307.703 39.3593C307.347 38.8529 306.978 38.3602 306.595 37.8813L306.417 38.0237L306.06 38.3085L305.882 38.4509ZM303.48 35.7892C303.905 36.2062 304.318 36.6377 304.721 37.0833L304.89 36.9305L305.23 36.6245L305.399 36.4715C304.984 36.012 304.558 35.5671 304.119 35.1372L303.959 35.3002L303.64 35.6261L303.48 35.7892ZM300.774 33.4398C301.246 33.8023 301.71 34.1803 302.162 34.5731L302.312 34.4007L302.611 34.056L302.761 33.8835C302.295 33.4784 301.817 33.0888 301.329 32.715L301.19 32.8962L300.913 33.2586L300.774 33.4398ZM297.802 31.4355C298.315 31.7386 298.821 32.0577 299.318 32.3927L299.446 32.2034L299.701 31.8249L299.829 31.6355C299.317 31.2902 298.796 30.9613 298.265 30.6488L298.149 30.8455L297.918 31.2388L297.802 31.4355ZM294.609 29.8046C295.157 30.0438 295.697 30.2996 296.231 30.5719L296.335 30.3686L296.542 29.9619L296.646 29.7586C296.096 29.478 295.539 29.2143 294.976 28.9678L294.884 29.177L294.702 29.5954L294.609 29.8046ZM291.245 28.569C291.817 28.741 292.385 28.9301 292.946 29.1362L293.025 28.9219L293.182 28.4933L293.261 28.2789C292.682 28.0665 292.097 27.8715 291.507 27.6944L291.441 27.913L291.311 28.3503L291.245 28.569ZM287.755 27.7455C288.344 27.8477 288.931 27.9675 289.513 28.1049L289.565 27.8827L289.67 27.4382L289.723 27.216C289.123 27.0745 288.519 26.951 287.912 26.8457L287.872 27.0706L287.795 27.5206L287.755 27.7455ZM284.194 27.3465C284.791 27.3772 285.386 27.4259 285.98 27.4923L286.006 27.2655L286.057 26.8117L286.082 26.5847C285.47 26.5162 284.856 26.4661 284.24 26.4345L284.228 26.6625L284.205 27.1185L284.194 27.3465ZM280.608 27.3795C281.206 27.3377 281.804 27.3143 282.401 27.3088L282.398 27.0805L282.395 26.6238L282.392 26.3955C281.777 26.4012 281.161 26.4254 280.545 26.4684L280.561 26.6962L280.593 27.1517L280.608 27.3795ZM277.056 27.8459C277.644 27.7319 278.234 27.6362 278.825 27.5586L278.795 27.3322L278.736 26.8795L278.706 26.6531C278.097 26.7331 277.489 26.8317 276.882 26.9492L276.925 27.1734L277.012 27.6217L277.056 27.8459ZM273.584 28.7404C274.156 28.5555 274.73 28.3888 275.307 28.2402L275.25 28.0191L275.136 27.5769L275.078 27.3558C274.484 27.5091 273.892 27.6809 273.303 27.8715L273.373 28.0888L273.514 28.5232L273.584 28.7404ZM270.248 30.0488C270.793 29.7961 271.342 29.5613 271.896 29.3444L271.813 29.1318L271.645 28.7067L271.562 28.4942C270.992 28.7178 270.425 28.9599 269.864 29.2202L269.96 29.4274L270.151 29.8417L270.248 30.0488ZM267.859 31.289C268.12 31.1387 268.381 30.9927 268.644 30.8511L268.537 30.6501L268.32 30.248L268.212 30.047C267.941 30.1929 267.671 30.3433 267.402 30.4982L267.517 30.6959L267.745 31.0913L267.859 31.289ZM309.56 43.059C309.863 43.5991 310.148 44.1452 310.414 44.6965L310.209 44.796L309.798 44.995L309.592 45.0945C309.333 44.5597 309.057 44.0298 308.763 43.5058L308.962 43.3941L309.361 43.1707L309.56 43.059ZM311.17 46.3844C311.404 46.9568 311.622 47.5339 311.82 48.1148L311.604 48.1886L311.172 48.3364L310.956 48.4102C310.763 47.8468 310.553 47.2871 310.325 46.7318L310.536 46.6449L310.958 46.4712L311.17 46.3844ZM312.364 49.8813C312.529 50.4771 312.674 51.076 312.801 51.6771L312.577 51.7242L312.13 51.8183L311.907 51.8654C311.784 51.2823 311.643 50.7014 311.484 50.1235L311.704 50.0629L312.144 49.9418L312.364 49.8813ZM313.127 53.4965C313.216 54.1074 313.288 54.7196 313.341 55.3325L313.114 55.3523L312.659 55.3916L312.432 55.4113C312.38 54.8167 312.31 54.2227 312.223 53.6301L312.449 53.5967L312.9 53.5298L313.127 53.4965ZM313.445 57.1779C313.461 57.7945 313.458 58.4108 313.437 59.026L313.209 59.0181L312.752 59.0024L312.524 58.9945C312.545 58.3977 312.548 57.7997 312.532 57.2015L312.761 57.1956L313.216 57.1838L313.445 57.1779ZM313.318 60.8702C313.26 61.4839 313.183 62.0954 313.088 62.704L312.863 62.6689L312.412 62.5986L312.186 62.5634C312.277 61.9729 312.352 61.3794 312.409 60.784L312.636 60.8055L313.09 60.8487L313.318 60.8702ZM312.749 64.5207C312.618 65.1225 312.468 65.7205 312.301 66.3138L312.081 66.2519L311.642 66.1279L311.422 66.066C311.584 65.4904 311.73 64.9101 311.856 64.3262L312.079 64.3749L312.526 64.4721L312.749 64.5207ZM311.747 68.0768C311.544 68.6581 311.324 69.2338 311.087 69.803L310.876 69.7152L310.455 69.5394L310.244 69.4514C310.474 68.8992 310.687 68.3406 310.884 67.7766L311.099 67.8516L311.53 68.0017L311.747 68.0768ZM310.324 71.4866C310.054 72.0391 309.765 72.5842 309.461 73.1213L309.262 73.0086L308.865 72.7832L308.666 72.6705C308.962 72.1495 309.241 71.6207 309.504 71.0847L309.708 71.1852L310.119 71.3862L310.324 71.4866ZM308.5 74.7003C308.165 75.2152 307.813 75.7213 307.445 76.2178L307.262 76.0818L306.895 75.8099L306.711 75.6739C307.068 75.1925 307.41 74.7016 307.735 74.2021L307.926 74.3266L308.308 74.5757L308.5 74.7003ZM306.3 77.6686C305.905 78.1386 305.495 78.5985 305.068 79.0473L304.903 78.8902L304.571 78.5757L304.406 78.4185C304.82 77.9831 305.218 77.5371 305.601 77.0812L305.776 77.228L306.125 77.5217L306.3 77.6686ZM303.755 80.3488C303.306 80.7667 302.844 81.1731 302.367 81.5674L302.222 81.3913L301.93 81.0393L301.785 80.8632C302.248 80.4806 302.697 80.0863 303.132 79.681L303.287 79.8479L303.599 80.1819L303.755 80.3488ZM300.907 82.7005C300.659 82.8819 300.407 83.0601 300.151 83.2353C299.896 83.4104 299.639 83.5811 299.379 83.7474L299.256 83.5553L299.01 83.1711L298.886 82.979C299.137 82.8176 299.387 82.6519 299.635 82.4819C299.884 82.3119 300.128 82.1388 300.369 81.9628L300.504 82.1471L300.773 82.516L300.907 82.7005ZM297.797 84.699C297.256 85.0019 296.71 85.2869 296.159 85.5538L296.06 85.3482L295.861 84.9373L295.761 84.7318C296.295 84.4729 296.826 84.1964 297.349 83.9024L297.462 84.1016L297.684 84.4999L297.797 84.699ZM294.471 86.3087C293.899 86.5441 293.322 86.7611 292.741 86.9597L292.667 86.7437L292.519 86.3116L292.445 86.0955C293.009 85.9029 293.568 85.6925 294.124 85.4641L294.21 85.6753L294.384 86.0976L294.471 86.3087ZM290.974 87.5041C290.378 87.668 289.779 87.8132 289.178 87.9398L289.131 87.7164L289.037 87.2695L288.99 87.0462C289.573 86.9233 290.154 86.7825 290.732 86.6235L290.792 86.8436L290.913 87.2839L290.974 87.5041ZM287.359 88.2657C286.748 88.3561 286.135 88.4277 285.523 88.4807L285.503 88.2533L285.464 87.7983L285.444 87.5709C286.038 87.5194 286.633 87.45 287.225 87.3623L287.259 87.5882L287.325 88.0399L287.359 88.2657ZM283.678 88.5843C283.061 88.6003 282.445 88.5976 281.829 88.5764L281.837 88.3482L281.853 87.8918L281.861 87.6637C282.458 87.6843 283.056 87.6868 283.654 87.6714L283.659 87.8996L283.671 88.3561L283.678 88.5843ZM279.985 88.4572C279.372 88.3991 278.76 88.3224 278.152 88.2276L278.186 88.002L278.257 87.5508L278.292 87.3253C278.882 87.4173 279.476 87.4917 280.071 87.5481L280.05 87.7754L280.006 88.23L279.985 88.4572ZM276.335 87.8883C275.733 87.757 275.135 87.6077 274.541 87.4405L274.604 87.2207L274.728 86.7812L274.789 86.5615C275.365 86.7238 275.945 86.8686 276.53 86.9959L276.48 87.219L276.383 87.6652L276.335 87.8883ZM272.779 86.8858C272.197 86.6835 271.622 86.4635 271.053 86.2261L271.14 86.0154L271.316 85.5939L271.404 85.3832C271.956 85.6136 272.515 85.827 273.078 86.0233L273.003 86.2389L272.854 86.6702L272.779 86.8858ZM269.369 85.4634C268.816 85.1927 268.271 84.9048 267.734 84.6L267.847 84.4014L268.072 84.0044L268.185 83.8057C268.706 84.1014 269.234 84.3806 269.771 84.6433L269.67 84.8483L269.469 85.2584L269.369 85.4634ZM266.155 83.6393C265.64 83.3043 265.134 82.9525 264.638 82.5846L264.773 82.4012L265.045 82.0344L265.181 81.8509C265.663 82.2078 266.154 82.5488 266.654 82.8739L266.528 83.0652L266.28 83.448L266.155 83.6393ZM263.187 81.4394C262.716 81.0445 262.257 80.6338 261.808 80.2076L261.965 80.0421L262.28 79.7109L262.437 79.5453C262.873 79.9588 263.318 80.3571 263.774 80.7401L263.627 80.9149L263.334 81.2646L263.187 81.4394ZM260.506 78.8943C260.089 78.4462 259.683 77.9835 259.288 77.506L259.464 77.3606L259.816 77.0699L259.992 76.9245C260.375 77.3878 260.769 77.8368 261.174 78.2713L261.008 78.4271L260.674 78.7386L260.506 78.8943ZM258.155 76.047C257.974 75.7984 257.795 75.5463 257.62 75.2908L257.809 75.1618L258.185 74.9037L258.374 74.7746C258.544 75.0227 258.716 75.2673 258.893 75.5086L258.708 75.6432L258.339 75.9124L258.155 76.047Z" fill="url(#paint9_linear_103_623)"/>
<path d="M103.738 125.991C103.738 137.831 94.1399 147.429 82.301 147.429C70.4615 147.429 60.8638 137.831 60.8638 125.991" stroke="url(#paint10_linear_103_623)" stroke-width="0.456632" stroke-dasharray="1.83 1.83"/>
<path d="M197.854 186.267C197.854 198.106 207.451 207.705 219.291 207.705C231.13 207.705 240.728 198.106 240.728 186.267" stroke="url(#paint11_linear_103_623)" stroke-width="0.456632" stroke-dasharray="1.83 1.83"/>
<path d="M150.315 187.18C150.315 199.019 140.716 208.618 128.878 208.618C117.038 208.618 107.441 199.019 107.441 187.18" stroke="url(#paint12_linear_103_623)" stroke-width="0.456632" stroke-dasharray="1.83 1.83"/>
<path d="M187.808 25.9645C187.808 14.1251 197.405 4.52734 209.245 4.52734C221.084 4.52734 230.682 14.1251 230.682 25.9645" stroke="url(#paint13_linear_103_623)" stroke-width="0.456632" stroke-dasharray="1.83 1.83"/>
<path d="M150.364 187.613C150.364 161.581 171.467 140.478 197.499 140.478" stroke="white" stroke-width="0.456632" stroke-dasharray="1.83 1.83"/>
<path d="M197.499 187.613C197.499 161.581 176.397 140.478 150.365 140.478" stroke="white" stroke-width="0.456632" stroke-dasharray="1.83 1.83"/>
<path d="M142.644 84.2416C173.129 84.2416 184.654 54.1039 187.808 25.3379" stroke="white" stroke-width="0.456632" stroke-dasharray="1.83 1.83"/>
<path d="M125.303 61.8682C141.947 61.8682 155.441 75.3613 155.441 92.0059" stroke="white" stroke-width="0.456632" stroke-dasharray="1.83 1.83"/>
<path d="M56.6526 100.443C74.2672 74.7367 109.386 68.1768 135.093 85.7914" stroke="white" stroke-width="0.456632" stroke-dasharray="1.83 1.83"/>
<path d="M179.736 67.5157C204.125 48.119 239.373 51.8543 258.463 75.8588" stroke="white" stroke-width="0.456632" stroke-dasharray="1.83 1.83"/>
</g>
</g>
</g>
<defs>
<filter id="filter0_d_103_623" x="14.8847" y="155.337" width="63.0563" height="63.056" filterUnits="userSpaceOnUse" color-interpolation-filters="sRGB">
<feFlood flood-opacity="0" result="BackgroundImageFix"/>
<feColorMatrix in="SourceAlpha" type="matrix" values="0 0 0 0 0 0 0 0 0 0 0 0 0 0 0 0 0 0 127 0" result="hardAlpha"/>
<feOffset dy="4.11825"/>
<feGaussianBlur stdDeviation="4.11825"/>
<feComposite in2="hardAlpha" operator="out"/>
<feColorMatrix type="matrix" values="0 0 0 0 0.343614 0 0 0 0 0.154931 0 0 0 0 0.808333 0 0 0 0.18 0"/>
<feBlend mode="normal" in2="BackgroundImageFix" result="effect1_dropShadow_103_623"/>
<feBlend mode="normal" in="SourceGraphic" in2="effect1_dropShadow_103_623" result="shape"/>
</filter>
<filter id="filter1_d_103_623" x="249.659" y="102.932" width="63.0562" height="63.056" filterUnits="userSpaceOnUse" color-interpolation-filters="sRGB">
<feFlood flood-opacity="0" result="BackgroundImageFix"/>
<feColorMatrix in="SourceAlpha" type="matrix" values="0 0 0 0 0 0 0 0 0 0 0 0 0 0 0 0 0 0 127 0" result="hardAlpha"/>
<feOffset dy="4.11825"/>
<feGaussianBlur stdDeviation="4.11825"/>
<feComposite in2="hardAlpha" operator="out"/>
<feColorMatrix type="matrix" values="0 0 0 0 0.343614 0 0 0 0 0.154931 0 0 0 0 0.808333 0 0 0 0.18 0"/>
<feBlend mode="normal" in2="BackgroundImageFix" result="effect1_dropShadow_103_623"/>
<feBlend mode="normal" in="SourceGraphic" in2="effect1_dropShadow_103_623" result="shape"/>
</filter>
<filter id="filter2_d_103_623" x="250.858" y="29.4355" width="63.0562" height="63.056" filterUnits="userSpaceOnUse" color-interpolation-filters="sRGB">
<feFlood flood-opacity="0" result="BackgroundImageFix"/>
<feColorMatrix in="SourceAlpha" type="matrix" values="0 0 0 0 0 0 0 0 0 0 0 0 0 0 0 0 0 0 127 0" result="hardAlpha"/>
<feOffset dy="4.11825"/>
<feGaussianBlur stdDeviation="4.11825"/>
<feComposite in2="hardAlpha" operator="out"/>
<feColorMatrix type="matrix" values="0 0 0 0 0.343614 0 0 0 0 0.154931 0 0 0 0 0.808333 0 0 0 0.18 0"/>
<feBlend mode="normal" in2="BackgroundImageFix" result="effect1_dropShadow_103_623"/>
<feBlend mode="normal" in="SourceGraphic" in2="effect1_dropShadow_103_623" result="shape"/>
</filter>
<filter id="filter3_d_103_623" x="196.042" y="166.553" width="46.6659" height="46.6654" filterUnits="userSpaceOnUse" color-interpolation-filters="sRGB">
<feFlood flood-opacity="0" result="BackgroundImageFix"/>
<feColorMatrix in="SourceAlpha" type="matrix" values="0 0 0 0 0 0 0 0 0 0 0 0 0 0 0 0 0 0 127 0" result="hardAlpha"/>
<feOffset dy="4.11825"/>
<feGaussianBlur stdDeviation="4.11825"/>
<feComposite in2="hardAlpha" operator="out"/>
<feColorMatrix type="matrix" values="0 0 0 0 0.343614 0 0 0 0 0.154931 0 0 0 0 0.808333 0 0 0 0.18 0"/>
<feBlend mode="normal" in2="BackgroundImageFix" result="effect1_dropShadow_103_623"/>
<feBlend mode="normal" in="SourceGraphic" in2="effect1_dropShadow_103_623" result="shape"/>
</filter>
<filter id="filter4_d_103_623" x="106.327" y="166.553" width="46.6659" height="46.6654" filterUnits="userSpaceOnUse" color-interpolation-filters="sRGB">
<feFlood flood-opacity="0" result="BackgroundImageFix"/>
<feColorMatrix in="SourceAlpha" type="matrix" values="0 0 0 0 0 0 0 0 0 0 0 0 0 0 0 0 0 0 127 0" result="hardAlpha"/>
<feOffset dy="4.11825"/>
<feGaussianBlur stdDeviation="4.11825"/>
<feComposite in2="hardAlpha" operator="out"/>
<feColorMatrix type="matrix" values="0 0 0 0 0.343614 0 0 0 0 0.154931 0 0 0 0 0.808333 0 0 0 0.18 0"/>
<feBlend mode="normal" in2="BackgroundImageFix" result="effect1_dropShadow_103_623"/>
<feBlend mode="normal" in="SourceGraphic" in2="effect1_dropShadow_103_623" result="shape"/>
</filter>
<filter id="filter5_d_103_623" x="94.8034" y="4.37589" width="63.0562" height="63.056" filterUnits="userSpaceOnUse" color-interpolation-filters="sRGB">
<feFlood flood-opacity="0" result="BackgroundImageFix"/>
<feColorMatrix in="SourceAlpha" type="matrix" values="0 0 0 0 0 0 0 0 0 0 0 0 0 0 0 0 0 0 127 0" result="hardAlpha"/>
<feOffset dy="4.11825"/>
<feGaussianBlur stdDeviation="4.11825"/>
<feComposite in2="hardAlpha" operator="out"/>
<feColorMatrix type="matrix" values="0 0 0 0 0.343614 0 0 0 0 0.154931 0 0 0 0 0.808333 0 0 0 0.18 0"/>
<feBlend mode="normal" in2="BackgroundImageFix" result="effect1_dropShadow_103_623"/>
<feBlend mode="normal" in="SourceGraphic" in2="effect1_dropShadow_103_623" result="shape"/>
</filter>
<filter id="filter6_d_103_623" x="185.639" y="7.52042" width="46.6659" height="46.6654" filterUnits="userSpaceOnUse" color-interpolation-filters="sRGB">
<feFlood flood-opacity="0" result="BackgroundImageFix"/>
<feColorMatrix in="SourceAlpha" type="matrix" values="0 0 0 0 0 0 0 0 0 0 0 0 0 0 0 0 0 0 127 0" result="hardAlpha"/>
<feOffset dy="4.11825"/>
<feGaussianBlur stdDeviation="4.11825"/>
<feComposite in2="hardAlpha" operator="out"/>
<feColorMatrix type="matrix" values="0 0 0 0 0.343614 0 0 0 0 0.154931 0 0 0 0 0.808333 0 0 0 0.18 0"/>
<feBlend mode="normal" in2="BackgroundImageFix" result="effect1_dropShadow_103_623"/>
<feBlend mode="normal" in="SourceGraphic" in2="effect1_dropShadow_103_623" result="shape"/>
</filter>
<filter id="filter7_d_103_623" x="58.8801" y="106.167" width="46.6659" height="46.6654" filterUnits="userSpaceOnUse" color-interpolation-filters="sRGB">
<feFlood flood-opacity="0" result="BackgroundImageFix"/>
<feColorMatrix in="SourceAlpha" type="matrix" values="0 0 0 0 0 0 0 0 0 0 0 0 0 0 0 0 0 0 127 0" result="hardAlpha"/>
<feOffset dy="4.11825"/>
<feGaussianBlur stdDeviation="4.11825"/>
<feComposite in2="hardAlpha" operator="out"/>
<feColorMatrix type="matrix" values="0 0 0 0 0.343614 0 0 0 0 0.154931 0 0 0 0 0.808333 0 0 0 0.18 0"/>
<feBlend mode="normal" in2="BackgroundImageFix" result="effect1_dropShadow_103_623"/>
<feBlend mode="normal" in="SourceGraphic" in2="effect1_dropShadow_103_623" result="shape"/>
</filter>
<filter id="filter8_d_103_623" x="1.08234" y="55.2694" width="63.0563" height="63.056" filterUnits="userSpaceOnUse" color-interpolation-filters="sRGB">
<feFlood flood-opacity="0" result="BackgroundImageFix"/>
<feColorMatrix in="SourceAlpha" type="matrix" values="0 0 0 0 0 0 0 0 0 0 0 0 0 0 0 0 0 0 127 0" result="hardAlpha"/>
<feOffset dy="4.11825"/>
<feGaussianBlur stdDeviation="4.11825"/>
<feComposite in2="hardAlpha" operator="out"/>
<feColorMatrix type="matrix" values="0 0 0 0 0.343614 0 0 0 0 0.154931 0 0 0 0 0.808333 0 0 0 0.18 0"/>
<feBlend mode="normal" in2="BackgroundImageFix" result="effect1_dropShadow_103_623"/>
<feBlend mode="normal" in="SourceGraphic" in2="effect1_dropShadow_103_623" result="shape"/>
</filter>
<filter id="filter9_d_103_623" x="114.682" y="62.4681" width="105.865" height="105.865" filterUnits="userSpaceOnUse" color-interpolation-filters="sRGB">
<feFlood flood-opacity="0" result="BackgroundImageFix"/>
<feColorMatrix in="SourceAlpha" type="matrix" values="0 0 0 0 0 0 0 0 0 0 0 0 0 0 0 0 0 0 127 0" result="hardAlpha"/>
<feOffset dy="4.68429"/>
<feGaussianBlur stdDeviation="4.68429"/>
<feComposite in2="hardAlpha" operator="out"/>
<feColorMatrix type="matrix" values="0 0 0 0 0.343614 0 0 0 0 0.154931 0 0 0 0 0.808333 0 0 0 0.18 0"/>
<feBlend mode="normal" in2="BackgroundImageFix" result="effect1_dropShadow_103_623"/>
<feBlend mode="normal" in="SourceGraphic" in2="effect1_dropShadow_103_623" result="shape"/>
</filter>
<linearGradient id="paint0_linear_103_623" x1="2965.12" y1="183.198" x2="1804.73" y2="1539.28" gradientUnits="userSpaceOnUse">
<stop offset="0.18" stop-color="#0052CC"/>
<stop offset="1" stop-color="#2684FF"/>
</linearGradient>
<linearGradient id="paint1_linear_103_623" x1="3038.43" y1="198.323" x2="1696.15" y2="1677.39" gradientUnits="userSpaceOnUse">
<stop offset="0.18" stop-color="#0052CC"/>
<stop offset="1" stop-color="#2684FF"/>
</linearGradient>
<linearGradient id="paint2_linear_103_623" x1="994.325" y1="177.939" x2="994.325" y2="1743.49" gradientUnits="userSpaceOnUse">
<stop stop-color="#0091E6"/>
<stop offset="1" stop-color="#0079BF"/>
</linearGradient>
<linearGradient id="paint3_linear_103_623" x1="144.587" y1="131.107" x2="190.935" y2="131.107" gradientUnits="userSpaceOnUse">
<stop stop-color="#8930FD"/>
<stop offset="1" stop-color="#49CCF9"/>
</linearGradient>
<linearGradient id="paint4_linear_103_623" x1="145.598" y1="100.147" x2="190.006" y2="100.147" gradientUnits="userSpaceOnUse">
<stop stop-color="#FF02F0"/>
<stop offset="1" stop-color="#FFC800"/>
</linearGradient>
<linearGradient id="paint5_linear_103_623" x1="125.76" y1="11.6374" x2="156.802" y2="10.009" gradientUnits="userSpaceOnUse">
<stop stop-color="white"/>
<stop offset="0.984848" stop-color="white" stop-opacity="0"/>
</linearGradient>
<linearGradient id="paint6_linear_103_623" x1="27.8013" y1="189.038" x2="28.9342" y2="154.455" gradientUnits="userSpaceOnUse">
<stop stop-color="white"/>
<stop offset="0.984848" stop-color="white" stop-opacity="0"/>
</linearGradient>
<linearGradient id="paint7_linear_103_623" x1="29.6274" y1="82.5037" x2="40.6232" y2="51.4577" gradientUnits="userSpaceOnUse">
<stop stop-color="white"/>
<stop offset="0.984848" stop-color="white" stop-opacity="0"/>
</linearGradient>
<linearGradient id="paint8_linear_103_623" x1="244.103" y1="130.506" x2="259.279" y2="90.4283" gradientUnits="userSpaceOnUse">
<stop stop-color="white"/>
<stop offset="0.984848" stop-color="white" stop-opacity="0"/>
</linearGradient>
<linearGradient id="paint9_linear_103_623" x1="288.31" y1="62.3236" x2="266.433" y2="30.0795" gradientUnits="userSpaceOnUse">
<stop stop-color="white"/>
<stop offset="0.984848" stop-color="white" stop-opacity="0"/>
</linearGradient>
<linearGradient id="paint10_linear_103_623" x1="82.301" y1="149.702" x2="60.8638" y2="120.795" gradientUnits="userSpaceOnUse">
<stop stop-color="white"/>
<stop offset="0.984848" stop-color="white" stop-opacity="0"/>
</linearGradient>
<linearGradient id="paint11_linear_103_623" x1="219.291" y1="209.978" x2="240.728" y2="181.07" gradientUnits="userSpaceOnUse">
<stop stop-color="white"/>
<stop offset="0.984848" stop-color="white" stop-opacity="0"/>
</linearGradient>
<linearGradient id="paint12_linear_103_623" x1="128.878" y1="210.891" x2="107.441" y2="181.983" gradientUnits="userSpaceOnUse">
<stop stop-color="white"/>
<stop offset="0.984848" stop-color="white" stop-opacity="0"/>
</linearGradient>
<linearGradient id="paint13_linear_103_623" x1="209.245" y1="2.25371" x2="230.682" y2="31.1614" gradientUnits="userSpaceOnUse">
<stop stop-color="white"/>
<stop offset="0.984848" stop-color="white" stop-opacity="0"/>
</linearGradient>
<clipPath id="clip0_103_623">
<rect width="314.17" height="218.27" fill="white" transform="translate(0.452759 0.679688)"/>
</clipPath>
<clipPath id="clip1_103_623">
<rect width="314.17" height="218.27" fill="white" transform="translate(0.452759 0.679688)"/>
</clipPath>
<clipPath id="clip2_103_623">
<rect width="314.163" height="218.27" fill="white" transform="translate(0.456421 0.679688)"/>
</clipPath>
</defs>
</svg>
