<svg width="108" height="22" viewBox="0 0 108 22" fill="none" xmlns="http://www.w3.org/2000/svg">
<g clip-path="url(#clip0_103_977)">
<g clip-path="url(#clip1_103_977)">
<g clip-path="url(#clip2_103_977)">
<mask id="mask0_103_977" style="mask-type:luminance" maskUnits="userSpaceOnUse" x="1" y="0" width="107" height="22">
<path d="M107.388 0.659912H1.33771V21.6599H107.388V0.659912Z" fill="white"/>
</mask>
<g mask="url(#mask0_103_977)">
<path d="M1.33771 15.9306L4.36379 13.5891C5.97151 15.7085 7.67965 16.6855 9.58094 16.6855C11.4721 16.6855 13.1319 15.7201 14.6672 13.6173L17.7365 15.9024C15.5213 18.9346 12.7684 20.5366 9.58094 20.5366C6.40363 20.5366 3.62411 18.9448 1.33771 15.9306Z" fill="url(#paint0_linear_103_977)"/>
<path d="M9.57128 5.75377L4.18506 10.442L1.69531 7.52534L9.58267 0.659912L17.4078 7.53043L14.9066 10.4368L9.57128 5.75377Z" fill="url(#paint1_linear_103_977)"/>
<path fill-rule="evenodd" clip-rule="evenodd" d="M39.5711 5.364C39.5711 6.37816 40.3032 7.11757 41.3072 7.11757V7.11888C42.2782 7.11888 43.028 6.37816 43.028 5.364C43.028 4.38323 42.2782 3.6438 41.3072 3.6438C40.3375 3.6438 39.5711 4.38323 39.5711 5.364ZM38.467 4.33176V17.4567H35.4701V4.33176H38.467ZM29.3406 17.6462C27.5018 17.646 25.9693 17.044 24.7265 15.84C23.4835 14.6191 22.8709 13.0543 22.8709 11.1441C22.8709 9.21846 23.5 7.63564 24.743 6.3968C26.0037 5.14133 27.5365 4.52257 29.359 4.52257C31.6073 4.52257 33.5989 5.50206 34.7579 7.03357L32.7295 9.18381C31.7585 8.13371 30.7024 7.60094 29.5624 7.60094C28.5914 7.60094 27.7907 7.92702 27.126 8.59844C26.4791 9.26981 26.1563 10.1132 26.1563 11.1274C26.1563 12.1082 26.4791 12.9336 27.126 13.605C27.7907 14.2584 28.5914 14.5845 29.5446 14.5845C30.7875 14.5845 31.878 14.0338 32.7804 12.9503L34.8927 14.9978C34.3131 15.7719 33.5302 16.4087 32.5592 16.9067C31.5884 17.406 30.516 17.6461 29.3406 17.6462ZM42.8232 7.96072V17.4565H39.8086V7.96072H42.8232ZM44.9843 16.2692C45.9197 17.1986 47.1118 17.6633 48.5937 17.6633C50.5866 17.6633 52.2718 16.6825 53.0903 15.0997L50.6882 13.6554C50.3476 14.3949 49.5469 14.8763 48.6789 14.8763C47.4689 14.8763 46.5666 13.9469 46.5666 12.6914C46.556 12.1216 46.7705 11.5709 47.1627 11.1612C47.5719 10.7478 48.0828 10.5411 48.7132 10.5411C49.5812 10.5411 50.2459 10.9545 50.7225 11.7632L53.1233 10.4898C52.3239 8.68354 50.6031 7.72074 48.6446 7.72074C47.1461 7.72074 45.9375 8.18421 45.0008 9.11362C44.0642 10.043 43.6041 11.2292 43.6041 12.6914C43.6041 14.1536 44.0642 15.341 44.9843 16.2692ZM63.5429 17.4567H59.9655L57.1883 13.6889L56.7462 14.1023V17.4567H53.7506V4.33176H56.7473V10.7132L59.5739 7.96088H63.2357L59.2006 11.78L63.5429 17.4567ZM63.7439 4.74405V12.5196C63.7439 16.2694 66.3327 17.6803 68.9383 17.6803C71.5601 17.6803 74.1326 16.2694 74.1326 12.5196V4.74405H70.9133V12.4683C70.9133 13.8611 70.0959 14.5839 68.9383 14.5839C67.7628 14.5839 66.9454 13.8958 66.9454 12.4683V4.74405H63.7439ZM81.2474 7.72074C82.5935 7.72074 83.684 8.20217 84.5518 9.16497C85.4196 10.1111 85.8454 11.2985 85.8454 12.6914C85.8454 14.0855 85.4033 15.2717 84.5355 16.2525C83.6661 17.2153 82.5767 17.6979 81.2653 17.6979C80.2258 17.6979 79.3233 17.3539 78.5909 16.6658V21.3617H75.5764V7.96083H78.5405V8.83889C79.2724 8.09817 80.1749 7.72074 81.2474 7.72074ZM80.6689 10.5415C81.8958 10.5415 82.7799 11.4876 82.7799 12.7264H82.7815C82.7888 13.3012 82.5746 13.8564 82.184 14.2746C81.7924 14.7047 81.2816 14.9113 80.6689 14.9113C80.0552 14.9113 79.5443 14.7047 79.1364 14.2746C78.7437 13.8446 78.5405 13.3285 78.5405 12.7264C78.5405 11.4876 79.4425 10.5415 80.6689 10.5415Z" fill="black"/>
<path fill-rule="evenodd" clip-rule="evenodd" d="M87.6068 16.8835C88.6137 17.4929 89.6999 17.8506 90.9321 17.8506C93.1046 17.8506 94.6013 16.645 94.6013 14.8964C94.6013 13.7703 93.9655 12.7635 92.6803 12.472V12.419C93.5282 12.1143 94.2968 11.3592 94.2968 10.2729C94.2968 8.80242 92.8662 7.72937 91.1043 7.72937C89.8191 7.72937 88.64 8.24602 87.832 8.96139L88.9843 10.7366C89.7398 10.2331 90.2165 10.0477 90.7599 10.0477C91.3558 10.0477 91.8193 10.3391 91.8193 10.8558C91.8193 11.3195 91.4088 11.6772 90.6271 11.6772H89.66V13.8763H90.9321C91.6209 13.8763 92.0446 14.2207 92.0446 14.6976C92.0446 15.2143 91.5941 15.5852 90.7599 15.5852C90.2564 15.5852 89.5146 15.4395 88.6 14.9228L87.6068 16.8835ZM102.83 17.8506C100.207 17.8506 98.7625 15.7707 98.7625 12.7899C98.7625 9.80926 100.207 7.72937 102.83 7.72937C105.466 7.72937 106.91 9.80926 106.91 12.7899C106.91 15.7707 105.466 17.8506 102.83 17.8506ZM102.843 15.5322C103.956 15.5322 104.472 14.3664 104.472 12.7899C104.472 11.24 103.943 10.0477 102.843 10.0477C101.743 10.0477 101.2 11.24 101.2 12.7899C101.2 14.3664 101.717 15.5322 102.843 15.5322ZM96.737 17.9036C96.022 17.9036 95.4387 17.3604 95.4387 16.6318C95.4387 15.9297 96.022 15.3865 96.737 15.3865C97.4127 15.3865 97.9823 15.9297 97.9823 16.6318C97.9823 17.3604 97.4127 17.9036 96.737 17.9036Z" fill="black"/>
</g>
</g>
</g>
</g>
<defs>
<linearGradient id="paint0_linear_103_977" x1="1.33771" y1="21.7879" x2="17.7365" y2="21.7879" gradientUnits="userSpaceOnUse">
<stop stop-color="#7612FA"/>
<stop offset="1" stop-color="#40DDFF"/>
</linearGradient>
<linearGradient id="paint1_linear_103_977" x1="1.69531" y1="12.2037" x2="17.4078" y2="12.2037" gradientUnits="userSpaceOnUse">
<stop stop-color="#FA12E3"/>
<stop offset="1" stop-color="#FFD700"/>
</linearGradient>
<clipPath id="clip0_103_977">
<rect width="107" height="21" fill="white" transform="translate(0.862732 0.659912)"/>
</clipPath>
<clipPath id="clip1_103_977">
<rect width="107" height="21" fill="white" transform="translate(0.862732 0.659912)"/>
</clipPath>
<clipPath id="clip2_103_977">
<rect width="107" height="21" fill="white" transform="translate(0.862732 0.659912)"/>
</clipPath>
</defs>
</svg>
