<svg width="85" height="14" viewBox="0 0 85 14" fill="none" xmlns="http://www.w3.org/2000/svg">
<g clip-path="url(#clip0_103_429)">
<path d="M11.3613 8.45245C10.6833 10.5589 9.49658 12.3872 6.42108 12.5082C1.84498 12.5082 0.452759 8.69469 0.452759 6.64825C0.452759 1.38209 4.67822 0.110352 6.37315 0.110352C8.29782 0.110352 11.0223 0.99474 11.0223 3.27048C11.0223 4.06936 10.5136 4.8445 9.69047 4.8445C8.89158 4.8445 8.29781 4.31205 8.29781 3.45228C8.29781 2.30232 9.24223 2.1447 9.24223 1.82989C9.24223 1.03101 7.37802 0.704118 6.72423 0.704118C3.8789 0.704118 3.14004 2.77431 3.14004 6.64868C3.14004 8.42826 3.58828 9.7842 3.75755 10.1957C4.20579 11.1764 5.1135 11.7939 6.65125 11.8785C8.38289 11.9757 10.0294 10.5831 10.7437 8.45245H11.3613ZM15.0189 6.29761C15.0189 8.77933 15.0435 11.9153 18.0339 11.9153C21.0243 11.9153 21.0481 8.77933 21.0481 6.29718C21.0481 3.84006 21.0243 0.704118 18.0339 0.704118C15.0435 0.704118 15.0189 3.83963 15.0189 6.29761ZM23.7483 6.29761C23.7483 9.88093 21.1452 12.5082 18.046 12.5082C14.9463 12.5082 12.3316 9.86884 12.3316 6.29761C12.3316 2.72594 14.9342 0.110783 18.0339 0.110783C21.1331 0.110783 23.7483 2.71385 23.7483 6.29761ZM25.8427 1.09104H24.2203V0.413065H24.8378C25.3949 0.425588 25.9394 0.401405 26.496 0.352609C27.0531 0.316767 27.6102 0.231696 28.1551 0.110783V3.2463H28.2156C29.0386 1.38209 30.189 0.110783 32.3439 0.110783C33.4096 0.110783 35.8672 0.352609 35.8672 3.0645V11.4307H37.4649V12.1087H32.0174V11.4307H33.5547V3.44019C33.5547 1.28536 32.8768 0.958034 31.6905 0.958034C29.6808 0.958034 28.1435 3.70663 28.1435 5.92192V11.4186H29.7412V12.0966H24.2203V11.4186H25.8427V1.09104ZM44.4511 0.413497V1.09147H46.2548L43.2644 9.57865H43.204L40.3345 1.09104H41.9085V0.413065H36.5814V1.09104H37.9978L41.9568 12.5077H42.9738L47.0537 1.09104H48.4706V0.413065L44.4511 0.413497ZM56.4236 4.5176V3.51274C56.4236 1.38209 55.1765 0.704118 53.6996 0.704118C51.9196 0.704118 51.1207 2.36234 51.0602 2.56832C50.8784 3.19793 50.7696 3.86381 50.7696 4.5176H56.4236ZM59.0871 8.45245C58.4938 11.2006 56.484 12.5082 53.881 12.5082C50.8664 12.5082 47.9606 10.0869 47.9606 6.79378C47.9606 3.30718 50.273 0.110783 53.7842 0.110783C56.7988 0.110783 59.075 2.15679 59.1113 5.37738H50.7334V6.5878C50.7334 9.51776 51.1207 11.8785 54.3413 11.8785C56.0241 11.8785 58.0097 10.4017 58.4212 8.45245H59.0871ZM61.3641 1.09104H59.7418V0.413065H60.3588C60.9159 0.425588 61.4609 0.401405 62.0175 0.352609C62.5746 0.316767 63.1316 0.231696 63.6762 0.110783V3.2463H63.7371C64.5601 1.38209 65.7105 0.110783 67.8774 0.110783C68.9428 0.110783 71.4007 0.352609 71.4007 3.0645V11.4307H72.9989V12.1087H67.5505V11.4307H69.0883V3.44019C69.0883 1.28536 68.4103 0.958034 67.2236 0.958034C65.2139 0.958034 63.6762 3.70663 63.6762 5.92192V11.4186H65.2744V12.0966H59.7418V11.4186H61.3641V1.09104ZM81.7526 4.5176V3.51274C81.7526 1.38209 80.5059 0.704118 79.0286 0.704118C77.249 0.704118 76.4497 2.36234 76.4013 2.56832C76.22 3.19793 76.1107 3.86381 76.1107 4.5176H81.7526ZM84.4161 8.45245C83.8232 11.2006 81.8135 12.5082 79.2104 12.5082C76.1958 12.5082 73.3021 10.0869 73.3021 6.79378C73.3021 3.30718 75.6024 0.110783 79.1257 0.110783C82.1404 0.110783 84.4161 2.15679 84.4528 5.37738H76.0744V6.5878C76.0744 9.51776 76.4618 11.8785 79.6824 11.8785C81.3652 11.8785 83.3508 10.4017 83.7623 8.45245H84.4161Z" fill="black"/>
</g>
<defs>
<clipPath id="clip0_103_429">
<rect width="84" height="13" fill="white" transform="translate(0.452759 0.110352)"/>
</clipPath>
</defs>
</svg>
