<svg width="97" height="17" viewBox="0 0 97 17" fill="none" xmlns="http://www.w3.org/2000/svg">
<g clip-path="url(#clip0_103_423)">
<path d="M16.4073 7.02104C16.534 6.89534 16.6606 6.73096 16.6606 6.55692C16.6606 6.26684 16.3489 6.15081 16.1151 6.11213L11.2255 5.40628L9.03393 1.00679C8.94627 0.823075 8.78068 0.610352 8.55666 0.610352C8.33263 0.610352 8.16705 0.823075 8.07938 1.00679L5.88782 5.40628L0.998214 6.11213C0.754707 6.15081 0.452759 6.26684 0.452759 6.55692C0.452759 6.73096 0.579382 6.89534 0.696265 7.02104L4.24172 10.4439L3.40406 15.2786C3.40296 15.2862 3.40187 15.2937 3.40078 15.3011C3.39225 15.3595 3.38458 15.4119 3.38458 15.472C3.38458 15.7234 3.5112 15.9554 3.79367 15.9554C3.93003 15.9554 4.05666 15.9071 4.18328 15.8394L8.55666 13.5575L12.9301 15.8394C13.047 15.9071 13.1833 15.9554 13.3197 15.9554C13.6021 15.9554 13.719 15.7234 13.719 15.472C13.719 15.4043 13.719 15.3463 13.7093 15.2786L12.8716 10.4439L16.4073 7.02104Z" fill="#FFC800"/>
<path d="M36.3554 7.02104C36.482 6.89534 36.6086 6.73096 36.6086 6.55692C36.6086 6.26684 36.297 6.15081 36.0632 6.11213L31.1736 5.40628L28.982 1.00679C28.8944 0.823075 28.7288 0.610352 28.5047 0.610352C28.2807 0.610352 28.1151 0.823075 28.0275 1.00679L25.8359 5.40628L20.9463 6.11213C20.7028 6.15081 20.4009 6.26684 20.4009 6.55692C20.4009 6.73096 20.5275 6.89534 20.6444 7.02104L24.1898 10.4439L23.3521 15.2786C23.3511 15.2862 23.35 15.2937 23.3489 15.3011C23.3403 15.3595 23.3327 15.4119 23.3327 15.472C23.3327 15.7234 23.4593 15.9554 23.7418 15.9554C23.8781 15.9554 24.0047 15.9071 24.1314 15.8394L28.5047 13.5575L32.8781 15.8394C32.995 15.9071 33.1314 15.9554 33.2677 15.9554C33.5502 15.9554 33.6671 15.7234 33.6671 15.472C33.6671 15.4043 33.6671 15.3463 33.6573 15.2786L32.8197 10.4439L36.3554 7.02104Z" fill="#FFC800"/>
<path d="M56.3034 7.02104C56.4301 6.89534 56.5567 6.73096 56.5567 6.55692C56.5567 6.26684 56.245 6.15081 56.0112 6.11213L51.1216 5.40628L48.9301 1.00679C48.8424 0.823075 48.6768 0.610352 48.4528 0.610352C48.2288 0.610352 48.0632 0.823075 47.9755 1.00679L45.784 5.40628L40.8944 6.11213C40.6509 6.15081 40.3489 6.26684 40.3489 6.55692C40.3489 6.73096 40.4755 6.89534 40.5924 7.02104L44.1379 10.4439L43.3002 15.2786C43.2991 15.2862 43.298 15.2937 43.2969 15.3011C43.2884 15.3595 43.2807 15.4119 43.2807 15.472C43.2807 15.7234 43.4073 15.9554 43.6898 15.9554C43.8262 15.9554 43.9528 15.9071 44.0794 15.8394L48.4528 13.5575L52.8262 15.8394C52.9431 15.9071 53.0794 15.9554 53.2158 15.9554C53.4983 15.9554 53.6151 15.7234 53.6151 15.472C53.6151 15.4043 53.6151 15.3463 53.6054 15.2786L52.7677 10.4439L56.3034 7.02104Z" fill="#FFC800"/>
<path d="M76.2514 7.02104C76.378 6.89534 76.5046 6.73096 76.5046 6.55692C76.5046 6.26684 76.193 6.15081 75.9592 6.11213L71.0696 5.40628L68.878 1.00679C68.7904 0.823075 68.6248 0.610352 68.4008 0.610352C68.1767 0.610352 68.0111 0.823075 67.9235 1.00679L65.7319 5.40628L60.8423 6.11213C60.5988 6.15081 60.2969 6.26684 60.2969 6.55692C60.2969 6.73096 60.4235 6.89534 60.5404 7.02104L64.0858 10.4439L63.2482 15.2786C63.2471 15.2862 63.246 15.2937 63.2449 15.3011C63.2363 15.3595 63.2287 15.4119 63.2287 15.472C63.2287 15.7234 63.3553 15.9554 63.6378 15.9554C63.7741 15.9554 63.9008 15.9071 64.0274 15.8394L68.4008 13.5575L72.7741 15.8394C72.891 15.9071 73.0274 15.9554 73.1637 15.9554C73.4462 15.9554 73.5631 15.7234 73.5631 15.472C73.5631 15.4043 73.5631 15.3463 73.5533 15.2786L72.7157 10.4439L76.2514 7.02104Z" fill="#FFC800"/>
<path d="M96.1994 7.02104C96.3261 6.89534 96.4527 6.73096 96.4527 6.55692C96.4527 6.26684 96.141 6.15081 95.9072 6.11213L91.0176 5.40628L88.8261 1.00679C88.7384 0.823075 88.5728 0.610352 88.3488 0.610352C88.1248 0.610352 87.9592 0.823075 87.8715 1.00679L85.68 5.40628L80.7904 6.11213C80.5469 6.15081 80.2449 6.26684 80.2449 6.55692C80.2449 6.73096 80.3715 6.89534 80.4884 7.02104L84.0339 10.4439L83.1962 15.2786C83.1951 15.2862 83.194 15.2937 83.1929 15.3011C83.1844 15.3595 83.1767 15.4119 83.1767 15.472C83.1767 15.7234 83.3033 15.9554 83.5858 15.9554C83.7222 15.9554 83.8488 15.9071 83.9754 15.8394L88.3488 13.5575L92.7222 15.8394C92.8391 15.9071 92.9754 15.9554 93.1118 15.9554C93.3943 15.9554 93.5111 15.7234 93.5111 15.472C93.5111 15.4043 93.5111 15.3463 93.5014 15.2786L92.6637 10.4439L96.1994 7.02104Z" fill="#FFC800"/>
</g>
<defs>
<clipPath id="clip0_103_423">
<rect width="96" height="16" fill="white" transform="translate(0.452759 0.610352)"/>
</clipPath>
</defs>
</svg>
