<svg width="32" height="32" viewBox="0 0 32 32" fill="none" xmlns="http://www.w3.org/2000/svg">
<g clip-path="url(#clip0_103_591)">
<path d="M28.6078 26.7452C29.2323 25.0414 30.0528 21.8301 30.0528 16.7172C30.0528 15.1787 29.7855 11.4201 29.7855 11.4201C29.7855 11.4201 24.9739 10.3379 16.1527 10.3379C7.33156 10.3379 2.25271 11.4201 2.25271 11.4201L2.25269 16.7172C2.25269 21.9309 3.10585 25.1376 3.73441 26.7926C4.09819 27.7505 4.8485 28.4709 5.83162 28.7595C7.42826 29.2282 10.5513 29.8187 16.1527 29.8187C21.6048 29.8187 24.7088 29.285 26.3428 28.8441C27.4105 28.5561 28.2272 27.7835 28.6078 26.7452Z" fill="#4AB9FD" fill-opacity="0.1"/>
<path d="M30.0528 17.1261C30.0528 20.2982 29.8845 22.7973 29.6815 24.6581C29.3953 27.281 27.4123 29.2161 24.7856 29.4648C22.7603 29.6565 19.9321 29.8182 16.1527 29.8182C12.3733 29.8182 9.54519 29.6565 7.51992 29.4648C4.89317 29.2161 2.91015 27.281 2.62397 24.6581C2.42095 22.7973 2.25269 20.2982 2.25269 17.1261C2.25269 14.9456 2.3322 13.0392 2.44785 11.4196C2.50104 10.6748 2.56188 9.99052 2.62614 9.36817C2.91675 6.5539 5.06047 4.44255 7.87798 4.18513C9.9186 3.99869 12.664 3.84375 16.1527 3.84375C19.6415 3.84375 22.3869 3.99869 24.4275 4.18513C27.245 4.44255 29.3887 6.5539 29.6793 9.36817C29.7436 9.99052 29.8044 10.6748 29.8576 11.4196C29.9733 13.0392 30.0528 14.9456 30.0528 17.1261Z" fill="#4AB9FD" fill-opacity="0.1"/>
<path d="M29.8576 11.4196C29.8044 10.6748 29.7436 9.99052 29.6793 9.36817C29.3887 6.5539 27.245 4.44255 24.4275 4.18513C22.3869 3.99869 19.6415 3.84375 16.1527 3.84375C12.664 3.84375 9.9186 3.99869 7.87798 4.18513C5.06047 4.44255 2.91675 6.5539 2.62614 9.36817C2.56188 9.99052 2.50104 10.6748 2.44785 11.4196M29.8576 11.4196C29.9733 13.0392 30.0528 14.9456 30.0528 17.1261C30.0528 20.2982 29.8845 22.7973 29.6815 24.6581C29.3953 27.281 27.4123 29.2161 24.7856 29.4648C22.7603 29.6565 19.9321 29.8182 16.1527 29.8182C12.3733 29.8182 9.54519 29.6565 7.51992 29.4648C4.89317 29.2161 2.91015 27.281 2.62397 24.6581C2.42095 22.7973 2.25269 20.2982 2.25269 17.1261C2.25269 14.9456 2.3322 13.0392 2.44785 11.4196M29.8576 11.4196C29.8576 11.4196 24.7125 10.3374 16.1527 10.3374C7.59295 10.3374 2.44785 11.4196 2.44785 11.4196" stroke="#4AB9FD" stroke-width="2" stroke-linecap="round" stroke-linejoin="round"/>
<path d="M8.70959 1.67969C8.70959 1.67969 8.66846 2.53648 8.66846 6.54991M23.5966 1.67969C23.5966 1.67969 23.6377 2.53648 23.6377 6.54991" stroke="#4AB9FD" stroke-width="2" stroke-linecap="round" stroke-linejoin="round"/>
<path d="M21.4985 19.5371H10.8062M21.4985 19.5371L17.1518 23.8662M21.4985 19.5371L17.1518 15.208" stroke="#4AB9FD" stroke-width="2" stroke-linecap="round" stroke-linejoin="round"/>
</g>
<defs>
<clipPath id="clip0_103_591">
<rect width="31" height="31" fill="white" transform="translate(0.782715 0.679688)"/>
</clipPath>
</defs>
</svg>
